G04 (created by PCBNEW (2013-07-07 BZR 4022)-stable) date 07/05/2015 17:00:17*
%MOIN*%
G04 Gerber Fmt 3.4, Leading zero omitted, Abs format*
%FSLAX34Y34*%
G01*
G70*
G90*
G04 APERTURE LIST*
%ADD10C,0.00590551*%
%ADD11C,0.0295276*%
%ADD12C,0.0001*%
%ADD13C,0.0945*%
%ADD14R,0.0984X0.0984*%
%ADD15C,0.0984*%
%ADD16C,0.08*%
%ADD17C,0.0787402*%
%ADD18R,0.075X0.075*%
%ADD19C,0.075*%
%ADD20C,0.2559*%
%ADD21R,0.09X0.062*%
%ADD22O,0.09X0.062*%
%ADD23R,0.08X0.08*%
%ADD24C,0.0629921*%
%ADD25R,0.0590551X0.0590551*%
%ADD26C,0.0590551*%
%ADD27O,0.1X0.0709*%
%ADD28C,0.125984*%
%ADD29C,0.0394*%
%ADD30C,0.035*%
%ADD31C,0.05*%
%ADD32C,0.03*%
%ADD33C,0.02*%
%ADD34C,0.015*%
%ADD35C,0.01*%
G04 APERTURE END LIST*
G54D10*
G54D11*
X34992Y-23840D02*
X34767Y-24628D01*
X34542Y-24065D01*
X34317Y-24628D01*
X34092Y-23840D01*
X33755Y-23840D02*
X33530Y-24628D01*
X33305Y-24065D01*
X33080Y-24628D01*
X32855Y-23840D01*
X32517Y-23840D02*
X32292Y-24628D01*
X32067Y-24065D01*
X31842Y-24628D01*
X31617Y-23840D01*
X31167Y-24515D02*
X31111Y-24571D01*
X31167Y-24628D01*
X31224Y-24571D01*
X31167Y-24515D01*
X31167Y-24628D01*
X30605Y-24628D02*
X30605Y-23840D01*
X30605Y-24065D02*
X30549Y-23953D01*
X30492Y-23896D01*
X30380Y-23840D01*
X30267Y-23840D01*
X29424Y-24571D02*
X29536Y-24628D01*
X29761Y-24628D01*
X29874Y-24571D01*
X29930Y-24459D01*
X29930Y-24009D01*
X29874Y-23896D01*
X29761Y-23840D01*
X29536Y-23840D01*
X29424Y-23896D01*
X29368Y-24009D01*
X29368Y-24121D01*
X29930Y-24234D01*
X28861Y-24178D02*
X27962Y-24178D01*
X27399Y-24628D02*
X27399Y-23840D01*
X27399Y-23446D02*
X27455Y-23503D01*
X27399Y-23559D01*
X27343Y-23503D01*
X27399Y-23446D01*
X27399Y-23559D01*
X26837Y-23840D02*
X26837Y-24628D01*
X26837Y-23953D02*
X26780Y-23896D01*
X26668Y-23840D01*
X26499Y-23840D01*
X26387Y-23896D01*
X26330Y-24009D01*
X26330Y-24628D01*
X25768Y-23840D02*
X25768Y-24628D01*
X25768Y-23953D02*
X25712Y-23896D01*
X25599Y-23840D01*
X25431Y-23840D01*
X25318Y-23896D01*
X25262Y-24009D01*
X25262Y-24628D01*
X24531Y-24628D02*
X24643Y-24571D01*
X24699Y-24515D01*
X24756Y-24403D01*
X24756Y-24065D01*
X24699Y-23953D01*
X24643Y-23896D01*
X24531Y-23840D01*
X24362Y-23840D01*
X24250Y-23896D01*
X24193Y-23953D01*
X24137Y-24065D01*
X24137Y-24403D01*
X24193Y-24515D01*
X24250Y-24571D01*
X24362Y-24628D01*
X24531Y-24628D01*
X23743Y-23840D02*
X23462Y-24628D01*
X23181Y-23840D01*
X22225Y-24628D02*
X22225Y-24009D01*
X22281Y-23896D01*
X22393Y-23840D01*
X22618Y-23840D01*
X22731Y-23896D01*
X22225Y-24571D02*
X22337Y-24628D01*
X22618Y-24628D01*
X22731Y-24571D01*
X22787Y-24459D01*
X22787Y-24346D01*
X22731Y-24234D01*
X22618Y-24178D01*
X22337Y-24178D01*
X22225Y-24121D01*
X21831Y-23840D02*
X21381Y-23840D01*
X21662Y-23446D02*
X21662Y-24459D01*
X21606Y-24571D01*
X21494Y-24628D01*
X21381Y-24628D01*
X20987Y-24628D02*
X20987Y-23840D01*
X20987Y-23446D02*
X21044Y-23503D01*
X20987Y-23559D01*
X20931Y-23503D01*
X20987Y-23446D01*
X20987Y-23559D01*
X20256Y-24628D02*
X20369Y-24571D01*
X20425Y-24515D01*
X20481Y-24403D01*
X20481Y-24065D01*
X20425Y-23953D01*
X20369Y-23896D01*
X20256Y-23840D01*
X20088Y-23840D01*
X19975Y-23896D01*
X19919Y-23953D01*
X19863Y-24065D01*
X19863Y-24403D01*
X19919Y-24515D01*
X19975Y-24571D01*
X20088Y-24628D01*
X20256Y-24628D01*
X19356Y-23840D02*
X19356Y-24628D01*
X19356Y-23953D02*
X19300Y-23896D01*
X19188Y-23840D01*
X19019Y-23840D01*
X18906Y-23896D01*
X18850Y-24009D01*
X18850Y-24628D01*
X18288Y-24515D02*
X18232Y-24571D01*
X18288Y-24628D01*
X18344Y-24571D01*
X18288Y-24515D01*
X18288Y-24628D01*
X17219Y-24571D02*
X17332Y-24628D01*
X17557Y-24628D01*
X17669Y-24571D01*
X17725Y-24515D01*
X17782Y-24403D01*
X17782Y-24065D01*
X17725Y-23953D01*
X17669Y-23896D01*
X17557Y-23840D01*
X17332Y-23840D01*
X17219Y-23896D01*
X16544Y-24628D02*
X16657Y-24571D01*
X16713Y-24515D01*
X16769Y-24403D01*
X16769Y-24065D01*
X16713Y-23953D01*
X16657Y-23896D01*
X16544Y-23840D01*
X16375Y-23840D01*
X16263Y-23896D01*
X16207Y-23953D01*
X16151Y-24065D01*
X16151Y-24403D01*
X16207Y-24515D01*
X16263Y-24571D01*
X16375Y-24628D01*
X16544Y-24628D01*
X15644Y-24515D02*
X15588Y-24571D01*
X15644Y-24628D01*
X15701Y-24571D01*
X15644Y-24515D01*
X15644Y-24628D01*
X14576Y-23840D02*
X14576Y-24628D01*
X15082Y-23840D02*
X15082Y-24459D01*
X15026Y-24571D01*
X14913Y-24628D01*
X14744Y-24628D01*
X14632Y-24571D01*
X14576Y-24515D01*
X14013Y-24628D02*
X14013Y-23446D01*
X13901Y-24178D02*
X13563Y-24628D01*
X13563Y-23840D02*
X14013Y-24290D01*
G54D12*
G36*
X45542Y5979D02*
X45542Y5759D01*
X45542Y5725D01*
X45542Y5694D01*
X45542Y5667D01*
X45542Y5643D01*
X45542Y5622D01*
X45542Y5603D01*
X45542Y5587D01*
X45542Y5573D01*
X45541Y5562D01*
X45541Y5553D01*
X45541Y5546D01*
X45541Y5540D01*
X45540Y5536D01*
X45540Y5534D01*
X45540Y5533D01*
X45535Y5526D01*
X45528Y5521D01*
X45520Y5518D01*
X45517Y5517D01*
X45511Y5516D01*
X45502Y5515D01*
X45490Y5512D01*
X45476Y5510D01*
X45459Y5506D01*
X45440Y5503D01*
X45420Y5499D01*
X45397Y5495D01*
X45374Y5490D01*
X45349Y5486D01*
X45323Y5481D01*
X45311Y5479D01*
X45280Y5473D01*
X45252Y5468D01*
X45227Y5463D01*
X45205Y5459D01*
X45186Y5455D01*
X45169Y5452D01*
X45154Y5449D01*
X45142Y5447D01*
X45132Y5445D01*
X45123Y5443D01*
X45116Y5441D01*
X45111Y5439D01*
X45106Y5438D01*
X45103Y5437D01*
X45101Y5435D01*
X45099Y5434D01*
X45097Y5433D01*
X45096Y5431D01*
X45095Y5430D01*
X45095Y5429D01*
X45094Y5427D01*
X45092Y5422D01*
X45088Y5413D01*
X45084Y5403D01*
X45079Y5390D01*
X45072Y5375D01*
X45065Y5357D01*
X45058Y5339D01*
X45050Y5318D01*
X45041Y5297D01*
X45032Y5274D01*
X45027Y5261D01*
X45016Y5234D01*
X45006Y5209D01*
X44997Y5188D01*
X44990Y5169D01*
X44983Y5152D01*
X44978Y5138D01*
X44973Y5126D01*
X44969Y5116D01*
X44967Y5108D01*
X44964Y5101D01*
X44963Y5095D01*
X44962Y5091D01*
X44961Y5087D01*
X44961Y5084D01*
X44961Y5082D01*
X44962Y5080D01*
X44963Y5078D01*
X44963Y5076D01*
X44964Y5074D01*
X44968Y5069D01*
X44973Y5062D01*
X44979Y5052D01*
X44987Y5040D01*
X44996Y5026D01*
X45007Y5011D01*
X45019Y4994D01*
X45031Y4975D01*
X45045Y4955D01*
X45059Y4934D01*
X45074Y4913D01*
X45081Y4902D01*
X45096Y4880D01*
X45111Y4859D01*
X45125Y4838D01*
X45138Y4819D01*
X45150Y4801D01*
X45161Y4785D01*
X45171Y4771D01*
X45180Y4758D01*
X45187Y4747D01*
X45193Y4739D01*
X45197Y4733D01*
X45199Y4730D01*
X45199Y4729D01*
X45201Y4722D01*
X45200Y4714D01*
X45199Y4711D01*
X45198Y4709D01*
X45194Y4704D01*
X45187Y4698D01*
X45179Y4689D01*
X45169Y4678D01*
X45156Y4666D01*
X45142Y4651D01*
X45126Y4635D01*
X45109Y4618D01*
X45090Y4599D01*
X45070Y4579D01*
X45049Y4558D01*
X45040Y4549D01*
X45017Y4526D01*
X44996Y4505D01*
X44977Y4486D01*
X44961Y4470D01*
X44946Y4455D01*
X44933Y4443D01*
X44922Y4432D01*
X44913Y4422D01*
X44904Y4415D01*
X44897Y4408D01*
X44892Y4403D01*
X44887Y4399D01*
X44883Y4396D01*
X44880Y4394D01*
X44877Y4392D01*
X44875Y4392D01*
X44873Y4391D01*
X44871Y4392D01*
X44869Y4392D01*
X44868Y4393D01*
X44867Y4393D01*
X44865Y4394D01*
X44860Y4397D01*
X44852Y4402D01*
X44843Y4408D01*
X44831Y4416D01*
X44817Y4426D01*
X44801Y4436D01*
X44784Y4447D01*
X44766Y4460D01*
X44747Y4473D01*
X44727Y4487D01*
X44712Y4497D01*
X44684Y4516D01*
X44660Y4533D01*
X44638Y4548D01*
X44618Y4562D01*
X44601Y4573D01*
X44586Y4584D01*
X44572Y4593D01*
X44561Y4600D01*
X44552Y4607D01*
X44544Y4612D01*
X44537Y4617D01*
X44532Y4620D01*
X44527Y4623D01*
X44524Y4625D01*
X44521Y4626D01*
X44519Y4627D01*
X44518Y4627D01*
X44517Y4627D01*
X44516Y4627D01*
X44514Y4627D01*
X44513Y4627D01*
X44512Y4627D01*
X44510Y4627D01*
X44507Y4627D01*
X44505Y4626D01*
X44501Y4625D01*
X44498Y4624D01*
X44492Y4621D01*
X44486Y4618D01*
X44477Y4614D01*
X44467Y4608D01*
X44455Y4602D01*
X44439Y4594D01*
X44425Y4586D01*
X44406Y4576D01*
X44391Y4568D01*
X44377Y4561D01*
X44367Y4555D01*
X44358Y4551D01*
X44351Y4548D01*
X44345Y4546D01*
X44341Y4545D01*
X44338Y4545D01*
X44335Y4545D01*
X44333Y4547D01*
X44331Y4548D01*
X44330Y4550D01*
X44329Y4552D01*
X44326Y4557D01*
X44323Y4565D01*
X44318Y4576D01*
X44312Y4589D01*
X44306Y4605D01*
X44298Y4623D01*
X44290Y4643D01*
X44280Y4665D01*
X44271Y4688D01*
X44260Y4713D01*
X44249Y4740D01*
X44238Y4767D01*
X44226Y4795D01*
X44214Y4824D01*
X44202Y4854D01*
X44189Y4884D01*
X44177Y4914D01*
X44164Y4945D01*
X44151Y4975D01*
X44139Y5005D01*
X44127Y5034D01*
X44115Y5063D01*
X44104Y5091D01*
X44093Y5117D01*
X44082Y5143D01*
X44072Y5167D01*
X44063Y5190D01*
X44055Y5210D01*
X44047Y5229D01*
X44040Y5246D01*
X44034Y5261D01*
X44030Y5273D01*
X44026Y5282D01*
X44023Y5288D01*
X44022Y5292D01*
X44022Y5292D01*
X44022Y5297D01*
X44023Y5301D01*
X44026Y5306D01*
X44030Y5310D01*
X44037Y5316D01*
X44047Y5322D01*
X44055Y5328D01*
X44064Y5334D01*
X44074Y5340D01*
X44082Y5346D01*
X44089Y5351D01*
X44092Y5352D01*
X44098Y5357D01*
X44105Y5363D01*
X44114Y5369D01*
X44123Y5376D01*
X44125Y5377D01*
X44146Y5394D01*
X44167Y5413D01*
X44187Y5435D01*
X44207Y5457D01*
X44224Y5480D01*
X44235Y5495D01*
X44255Y5530D01*
X44272Y5566D01*
X44286Y5603D01*
X44298Y5641D01*
X44305Y5680D01*
X44310Y5719D01*
X44311Y5759D01*
X44309Y5798D01*
X44304Y5837D01*
X44296Y5876D01*
X44284Y5914D01*
X44279Y5928D01*
X44262Y5966D01*
X44242Y6002D01*
X44220Y6036D01*
X44195Y6067D01*
X44167Y6096D01*
X44137Y6123D01*
X44104Y6147D01*
X44070Y6169D01*
X44046Y6181D01*
X44010Y6197D01*
X43975Y6210D01*
X43940Y6219D01*
X43903Y6225D01*
X43866Y6229D01*
X43836Y6230D01*
X43818Y6229D01*
X43802Y6229D01*
X43788Y6228D01*
X43774Y6226D01*
X43758Y6224D01*
X43747Y6222D01*
X43710Y6213D01*
X43673Y6201D01*
X43637Y6186D01*
X43602Y6169D01*
X43569Y6148D01*
X43538Y6125D01*
X43508Y6100D01*
X43484Y6075D01*
X43458Y6043D01*
X43434Y6010D01*
X43414Y5975D01*
X43397Y5938D01*
X43383Y5900D01*
X43372Y5860D01*
X43364Y5818D01*
X43363Y5812D01*
X43362Y5801D01*
X43361Y5788D01*
X43361Y5773D01*
X43361Y5757D01*
X43361Y5740D01*
X43362Y5724D01*
X43363Y5710D01*
X43364Y5697D01*
X43364Y5693D01*
X43371Y5652D01*
X43382Y5612D01*
X43396Y5574D01*
X43413Y5537D01*
X43433Y5502D01*
X43457Y5467D01*
X43461Y5461D01*
X43472Y5448D01*
X43485Y5434D01*
X43499Y5420D01*
X43514Y5405D01*
X43528Y5392D01*
X43542Y5381D01*
X43547Y5377D01*
X43555Y5371D01*
X43564Y5364D01*
X43573Y5358D01*
X43579Y5353D01*
X43580Y5352D01*
X43586Y5348D01*
X43594Y5343D01*
X43603Y5337D01*
X43612Y5331D01*
X43617Y5328D01*
X43628Y5320D01*
X43637Y5314D01*
X43643Y5309D01*
X43647Y5304D01*
X43649Y5300D01*
X43650Y5296D01*
X43650Y5292D01*
X43649Y5290D01*
X43647Y5284D01*
X43643Y5276D01*
X43639Y5265D01*
X43634Y5251D01*
X43627Y5235D01*
X43620Y5217D01*
X43612Y5197D01*
X43603Y5175D01*
X43593Y5151D01*
X43583Y5126D01*
X43572Y5100D01*
X43560Y5072D01*
X43549Y5044D01*
X43537Y5015D01*
X43524Y4985D01*
X43512Y4955D01*
X43499Y4925D01*
X43487Y4894D01*
X43474Y4864D01*
X43462Y4834D01*
X43450Y4805D01*
X43438Y4776D01*
X43426Y4749D01*
X43415Y4722D01*
X43405Y4697D01*
X43394Y4673D01*
X43385Y4650D01*
X43376Y4630D01*
X43369Y4611D01*
X43361Y4594D01*
X43355Y4580D01*
X43350Y4568D01*
X43346Y4559D01*
X43344Y4553D01*
X43342Y4550D01*
X43342Y4550D01*
X43340Y4548D01*
X43338Y4546D01*
X43336Y4545D01*
X43333Y4545D01*
X43329Y4545D01*
X43325Y4547D01*
X43319Y4549D01*
X43311Y4553D01*
X43301Y4557D01*
X43290Y4563D01*
X43276Y4571D01*
X43259Y4580D01*
X43247Y4586D01*
X43229Y4595D01*
X43215Y4603D01*
X43202Y4610D01*
X43193Y4615D01*
X43185Y4619D01*
X43178Y4622D01*
X43173Y4624D01*
X43170Y4625D01*
X43167Y4626D01*
X43164Y4627D01*
X43162Y4627D01*
X43160Y4627D01*
X43158Y4627D01*
X43157Y4627D01*
X43156Y4627D01*
X43155Y4627D01*
X43154Y4627D01*
X43152Y4627D01*
X43150Y4626D01*
X43147Y4624D01*
X43143Y4622D01*
X43139Y4619D01*
X43133Y4616D01*
X43126Y4611D01*
X43117Y4605D01*
X43107Y4598D01*
X43095Y4590D01*
X43081Y4580D01*
X43065Y4569D01*
X43047Y4557D01*
X43026Y4543D01*
X43003Y4526D01*
X42978Y4509D01*
X42957Y4495D01*
X42937Y4481D01*
X42917Y4468D01*
X42899Y4455D01*
X42882Y4444D01*
X42866Y4433D01*
X42852Y4424D01*
X42841Y4415D01*
X42831Y4409D01*
X42823Y4404D01*
X42819Y4401D01*
X42817Y4399D01*
X42808Y4394D01*
X42800Y4392D01*
X42792Y4392D01*
X42792Y4392D01*
X42790Y4393D01*
X42786Y4397D01*
X42779Y4403D01*
X42770Y4412D01*
X42759Y4423D01*
X42745Y4436D01*
X42729Y4452D01*
X42710Y4471D01*
X42689Y4491D01*
X42666Y4515D01*
X42640Y4541D01*
X42630Y4551D01*
X42607Y4574D01*
X42586Y4595D01*
X42567Y4614D01*
X42551Y4630D01*
X42536Y4645D01*
X42523Y4657D01*
X42513Y4669D01*
X42503Y4678D01*
X42495Y4686D01*
X42489Y4693D01*
X42484Y4698D01*
X42480Y4703D01*
X42476Y4707D01*
X42474Y4710D01*
X42473Y4712D01*
X42472Y4713D01*
X42471Y4715D01*
X42471Y4715D01*
X42470Y4721D01*
X42471Y4726D01*
X42471Y4727D01*
X42473Y4729D01*
X42476Y4734D01*
X42480Y4741D01*
X42487Y4751D01*
X42495Y4762D01*
X42504Y4776D01*
X42515Y4792D01*
X42526Y4809D01*
X42539Y4828D01*
X42553Y4847D01*
X42567Y4868D01*
X42582Y4890D01*
X42589Y4900D01*
X42604Y4922D01*
X42618Y4943D01*
X42632Y4963D01*
X42645Y4983D01*
X42658Y5000D01*
X42669Y5017D01*
X42679Y5032D01*
X42688Y5045D01*
X42695Y5055D01*
X42701Y5064D01*
X42705Y5070D01*
X42707Y5074D01*
X42707Y5074D01*
X42708Y5076D01*
X42709Y5078D01*
X42710Y5081D01*
X42711Y5083D01*
X42711Y5086D01*
X42710Y5090D01*
X42709Y5094D01*
X42708Y5099D01*
X42706Y5106D01*
X42703Y5114D01*
X42699Y5124D01*
X42695Y5136D01*
X42689Y5150D01*
X42683Y5166D01*
X42676Y5184D01*
X42667Y5206D01*
X42658Y5230D01*
X42647Y5257D01*
X42645Y5261D01*
X42636Y5284D01*
X42627Y5306D01*
X42618Y5327D01*
X42611Y5347D01*
X42603Y5365D01*
X42597Y5381D01*
X42591Y5396D01*
X42586Y5408D01*
X42582Y5417D01*
X42579Y5424D01*
X42577Y5428D01*
X42577Y5429D01*
X42576Y5431D01*
X42575Y5432D01*
X42574Y5433D01*
X42572Y5435D01*
X42570Y5436D01*
X42567Y5437D01*
X42563Y5439D01*
X42558Y5440D01*
X42552Y5442D01*
X42544Y5444D01*
X42534Y5446D01*
X42523Y5448D01*
X42509Y5451D01*
X42493Y5454D01*
X42475Y5457D01*
X42454Y5461D01*
X42431Y5466D01*
X42404Y5471D01*
X42374Y5476D01*
X42360Y5479D01*
X42334Y5484D01*
X42309Y5488D01*
X42284Y5493D01*
X42261Y5497D01*
X42240Y5501D01*
X42220Y5505D01*
X42202Y5508D01*
X42187Y5511D01*
X42174Y5514D01*
X42164Y5516D01*
X42156Y5517D01*
X42152Y5518D01*
X42151Y5518D01*
X42143Y5522D01*
X42136Y5528D01*
X42131Y5535D01*
X42131Y5537D01*
X42130Y5540D01*
X42130Y5545D01*
X42130Y5553D01*
X42129Y5563D01*
X42129Y5577D01*
X42129Y5594D01*
X42129Y5614D01*
X42129Y5636D01*
X42129Y5663D01*
X42129Y5692D01*
X42129Y5725D01*
X42129Y5761D01*
X42129Y5762D01*
X42130Y5979D01*
X42135Y5986D01*
X42139Y5990D01*
X42143Y5993D01*
X42144Y5994D01*
X42147Y5995D01*
X42152Y5996D01*
X42161Y5997D01*
X42172Y6000D01*
X42186Y6002D01*
X42203Y6005D01*
X42221Y6009D01*
X42242Y6013D01*
X42264Y6017D01*
X42288Y6022D01*
X42313Y6026D01*
X42339Y6031D01*
X42359Y6035D01*
X42392Y6041D01*
X42424Y6047D01*
X42452Y6052D01*
X42478Y6057D01*
X42501Y6062D01*
X42521Y6065D01*
X42538Y6069D01*
X42552Y6072D01*
X42563Y6074D01*
X42570Y6076D01*
X42575Y6077D01*
X42575Y6077D01*
X42581Y6081D01*
X42586Y6086D01*
X42587Y6087D01*
X42588Y6090D01*
X42591Y6096D01*
X42595Y6104D01*
X42600Y6115D01*
X42606Y6128D01*
X42612Y6142D01*
X42619Y6159D01*
X42627Y6176D01*
X42635Y6195D01*
X42643Y6214D01*
X42651Y6234D01*
X42660Y6254D01*
X42668Y6273D01*
X42677Y6293D01*
X42685Y6312D01*
X42692Y6329D01*
X42699Y6346D01*
X42705Y6361D01*
X42711Y6374D01*
X42715Y6386D01*
X42719Y6394D01*
X42721Y6401D01*
X42723Y6404D01*
X42723Y6404D01*
X42723Y6411D01*
X42721Y6417D01*
X42721Y6418D01*
X42720Y6420D01*
X42717Y6425D01*
X42712Y6433D01*
X42705Y6443D01*
X42697Y6455D01*
X42688Y6469D01*
X42677Y6485D01*
X42665Y6502D01*
X42652Y6521D01*
X42639Y6541D01*
X42624Y6562D01*
X42609Y6585D01*
X42597Y6602D01*
X42582Y6625D01*
X42567Y6647D01*
X42552Y6668D01*
X42539Y6688D01*
X42526Y6706D01*
X42514Y6723D01*
X42504Y6738D01*
X42495Y6752D01*
X42487Y6763D01*
X42481Y6773D01*
X42476Y6780D01*
X42473Y6784D01*
X42472Y6785D01*
X42471Y6791D01*
X42471Y6798D01*
X42471Y6800D01*
X42472Y6801D01*
X42472Y6802D01*
X42473Y6804D01*
X42475Y6806D01*
X42477Y6809D01*
X42480Y6813D01*
X42484Y6817D01*
X42489Y6823D01*
X42495Y6829D01*
X42503Y6837D01*
X42512Y6846D01*
X42522Y6857D01*
X42535Y6869D01*
X42549Y6883D01*
X42565Y6899D01*
X42583Y6918D01*
X42603Y6938D01*
X42626Y6961D01*
X42629Y6964D01*
X42652Y6987D01*
X42673Y7008D01*
X42692Y7026D01*
X42708Y7043D01*
X42723Y7057D01*
X42736Y7070D01*
X42747Y7081D01*
X42756Y7090D01*
X42764Y7098D01*
X42771Y7104D01*
X42776Y7109D01*
X42781Y7113D01*
X42784Y7116D01*
X42787Y7119D01*
X42789Y7120D01*
X42791Y7121D01*
X42792Y7122D01*
X42793Y7122D01*
X42799Y7122D01*
X42805Y7121D01*
X42805Y7121D01*
X42807Y7120D01*
X42812Y7117D01*
X42820Y7112D01*
X42829Y7106D01*
X42841Y7098D01*
X42855Y7088D01*
X42871Y7078D01*
X42888Y7066D01*
X42907Y7053D01*
X42927Y7039D01*
X42948Y7025D01*
X42971Y7010D01*
X42989Y6997D01*
X43012Y6981D01*
X43034Y6966D01*
X43055Y6952D01*
X43075Y6938D01*
X43094Y6925D01*
X43111Y6913D01*
X43127Y6903D01*
X43141Y6893D01*
X43153Y6885D01*
X43162Y6879D01*
X43169Y6874D01*
X43174Y6871D01*
X43176Y6870D01*
X43178Y6868D01*
X43180Y6867D01*
X43183Y6867D01*
X43185Y6866D01*
X43188Y6866D01*
X43192Y6866D01*
X43197Y6867D01*
X43203Y6869D01*
X43210Y6871D01*
X43219Y6874D01*
X43229Y6878D01*
X43241Y6883D01*
X43256Y6889D01*
X43273Y6896D01*
X43292Y6904D01*
X43314Y6913D01*
X43339Y6923D01*
X43353Y6928D01*
X43382Y6940D01*
X43407Y6951D01*
X43430Y6960D01*
X43449Y6968D01*
X43465Y6975D01*
X43479Y6981D01*
X43490Y6986D01*
X43498Y6990D01*
X43504Y6992D01*
X43507Y6994D01*
X43507Y6994D01*
X43511Y6999D01*
X43514Y7005D01*
X43515Y7006D01*
X43515Y7009D01*
X43517Y7015D01*
X43518Y7024D01*
X43521Y7036D01*
X43523Y7050D01*
X43527Y7067D01*
X43530Y7086D01*
X43534Y7107D01*
X43539Y7129D01*
X43543Y7153D01*
X43548Y7179D01*
X43553Y7205D01*
X43557Y7230D01*
X43562Y7257D01*
X43567Y7283D01*
X43572Y7308D01*
X43577Y7332D01*
X43581Y7354D01*
X43585Y7375D01*
X43588Y7393D01*
X43591Y7409D01*
X43594Y7423D01*
X43596Y7434D01*
X43598Y7443D01*
X43599Y7448D01*
X43600Y7450D01*
X43603Y7454D01*
X43607Y7458D01*
X43608Y7459D01*
X43614Y7463D01*
X43836Y7463D01*
X44058Y7463D01*
X44064Y7458D01*
X44069Y7454D01*
X44072Y7450D01*
X44073Y7449D01*
X44073Y7446D01*
X44074Y7441D01*
X44076Y7432D01*
X44078Y7420D01*
X44081Y7406D01*
X44084Y7390D01*
X44088Y7371D01*
X44092Y7350D01*
X44096Y7328D01*
X44101Y7304D01*
X44105Y7279D01*
X44110Y7252D01*
X44115Y7225D01*
X44121Y7193D01*
X44127Y7163D01*
X44132Y7137D01*
X44136Y7113D01*
X44140Y7093D01*
X44144Y7075D01*
X44147Y7059D01*
X44149Y7046D01*
X44152Y7034D01*
X44154Y7025D01*
X44156Y7017D01*
X44157Y7011D01*
X44159Y7005D01*
X44160Y7001D01*
X44161Y6998D01*
X44163Y6996D01*
X44164Y6995D01*
X44165Y6993D01*
X44167Y6992D01*
X44168Y6991D01*
X44169Y6991D01*
X44171Y6990D01*
X44176Y6987D01*
X44184Y6984D01*
X44195Y6980D01*
X44208Y6974D01*
X44223Y6968D01*
X44240Y6961D01*
X44258Y6953D01*
X44278Y6945D01*
X44299Y6937D01*
X44321Y6928D01*
X44321Y6928D01*
X44347Y6917D01*
X44371Y6907D01*
X44391Y6899D01*
X44409Y6891D01*
X44425Y6885D01*
X44438Y6880D01*
X44449Y6876D01*
X44459Y6872D01*
X44467Y6870D01*
X44473Y6868D01*
X44479Y6867D01*
X44483Y6866D01*
X44486Y6866D01*
X44489Y6867D01*
X44492Y6867D01*
X44494Y6869D01*
X44497Y6870D01*
X44499Y6872D01*
X44502Y6873D01*
X44507Y6877D01*
X44515Y6882D01*
X44526Y6889D01*
X44538Y6898D01*
X44552Y6908D01*
X44569Y6919D01*
X44586Y6931D01*
X44606Y6944D01*
X44626Y6958D01*
X44647Y6973D01*
X44669Y6988D01*
X44685Y6999D01*
X44708Y7014D01*
X44729Y7029D01*
X44750Y7043D01*
X44770Y7057D01*
X44788Y7069D01*
X44805Y7081D01*
X44821Y7091D01*
X44834Y7100D01*
X44845Y7107D01*
X44854Y7114D01*
X44861Y7118D01*
X44865Y7120D01*
X44867Y7121D01*
X44872Y7122D01*
X44878Y7122D01*
X44879Y7122D01*
X44880Y7121D01*
X44882Y7121D01*
X44884Y7119D01*
X44886Y7117D01*
X44890Y7114D01*
X44894Y7111D01*
X44899Y7106D01*
X44905Y7100D01*
X44913Y7093D01*
X44922Y7084D01*
X44932Y7074D01*
X44944Y7062D01*
X44958Y7048D01*
X44974Y7032D01*
X44992Y7015D01*
X45012Y6995D01*
X45034Y6972D01*
X45043Y6964D01*
X45066Y6941D01*
X45086Y6920D01*
X45105Y6901D01*
X45121Y6885D01*
X45136Y6871D01*
X45148Y6858D01*
X45159Y6847D01*
X45168Y6838D01*
X45176Y6830D01*
X45182Y6823D01*
X45187Y6818D01*
X45191Y6813D01*
X45194Y6810D01*
X45197Y6807D01*
X45198Y6804D01*
X45199Y6803D01*
X45200Y6801D01*
X45201Y6800D01*
X45201Y6799D01*
X45201Y6798D01*
X45201Y6791D01*
X45199Y6785D01*
X45198Y6783D01*
X45195Y6778D01*
X45190Y6771D01*
X45183Y6761D01*
X45175Y6749D01*
X45166Y6735D01*
X45155Y6719D01*
X45143Y6702D01*
X45130Y6683D01*
X45117Y6663D01*
X45102Y6642D01*
X45087Y6620D01*
X45076Y6604D01*
X45060Y6581D01*
X45045Y6560D01*
X45031Y6539D01*
X45018Y6519D01*
X45005Y6500D01*
X44993Y6483D01*
X44983Y6468D01*
X44974Y6454D01*
X44966Y6442D01*
X44960Y6433D01*
X44955Y6426D01*
X44953Y6422D01*
X44952Y6420D01*
X44949Y6411D01*
X44949Y6405D01*
X44950Y6403D01*
X44952Y6397D01*
X44955Y6389D01*
X44960Y6378D01*
X44965Y6365D01*
X44971Y6350D01*
X44978Y6334D01*
X44985Y6317D01*
X44993Y6298D01*
X45001Y6279D01*
X45010Y6259D01*
X45018Y6239D01*
X45026Y6219D01*
X45035Y6200D01*
X45043Y6181D01*
X45051Y6163D01*
X45058Y6146D01*
X45065Y6131D01*
X45070Y6118D01*
X45076Y6106D01*
X45080Y6097D01*
X45083Y6091D01*
X45084Y6087D01*
X45085Y6087D01*
X45089Y6082D01*
X45095Y6078D01*
X45096Y6077D01*
X45099Y6076D01*
X45106Y6075D01*
X45115Y6073D01*
X45128Y6070D01*
X45144Y6067D01*
X45163Y6063D01*
X45185Y6059D01*
X45210Y6054D01*
X45237Y6049D01*
X45268Y6043D01*
X45300Y6037D01*
X45310Y6035D01*
X45337Y6030D01*
X45363Y6026D01*
X45388Y6021D01*
X45411Y6017D01*
X45433Y6013D01*
X45453Y6009D01*
X45471Y6005D01*
X45487Y6002D01*
X45500Y6000D01*
X45511Y5998D01*
X45518Y5996D01*
X45523Y5995D01*
X45524Y5995D01*
X45531Y5991D01*
X45537Y5986D01*
X45542Y5979D01*
X45542Y5979D01*
X45542Y5979D01*
G37*
G54D13*
X36100Y-11250D03*
X36100Y-8750D03*
X30600Y-8750D03*
X30600Y-11250D03*
G54D14*
X46900Y-22100D03*
G54D15*
X48900Y-22100D03*
G54D14*
X7900Y-22100D03*
G54D15*
X9900Y-22100D03*
G54D14*
X11900Y-22100D03*
G54D15*
X13900Y-22100D03*
G54D14*
X15900Y-22100D03*
G54D15*
X17900Y-22100D03*
G54D14*
X27700Y-22100D03*
G54D15*
X29700Y-22100D03*
G54D16*
X30550Y-3600D03*
X30550Y-4600D03*
X36050Y-3600D03*
X36050Y-4600D03*
G54D17*
X34200Y-21850D03*
X35200Y-21850D03*
X33200Y-21850D03*
G54D14*
X50900Y-22100D03*
G54D15*
X52900Y-22100D03*
G54D18*
X55400Y-8100D03*
G54D19*
X53400Y-8100D03*
G54D20*
X4679Y-23125D03*
X55860Y8370D03*
X55860Y-23125D03*
G54D21*
X52900Y-10600D03*
G54D22*
X52900Y-11600D03*
X52900Y-12600D03*
X52900Y-13600D03*
X55900Y-13600D03*
X55900Y-12600D03*
X55900Y-11600D03*
X55900Y-10600D03*
G54D21*
X45650Y-10600D03*
G54D22*
X45650Y-11600D03*
X45650Y-12600D03*
X45650Y-13600D03*
X48650Y-13600D03*
X48650Y-12600D03*
X48650Y-11600D03*
X48650Y-10600D03*
G54D18*
X48150Y-8100D03*
G54D19*
X46150Y-8100D03*
G54D20*
X4679Y8370D03*
G54D23*
X28850Y-10750D03*
G54D16*
X28850Y-9750D03*
G54D23*
X34350Y-10750D03*
G54D16*
X34350Y-9750D03*
G54D14*
X43700Y-22100D03*
G54D15*
X41700Y-22100D03*
G54D24*
X43050Y-21200D03*
X42250Y-21200D03*
G54D14*
X39700Y-22100D03*
G54D15*
X37700Y-22100D03*
G54D24*
X39050Y-21200D03*
X38250Y-21200D03*
G54D16*
X39400Y6650D03*
X13650Y-5350D03*
X11150Y-5350D03*
X7400Y-5350D03*
X3650Y-5350D03*
X15150Y-11350D03*
X11400Y-11350D03*
X7650Y-11350D03*
X3900Y-11350D03*
X37400Y1650D03*
X21900Y-3850D03*
X42900Y-19850D03*
X42900Y-6600D03*
X52900Y-6600D03*
X45650Y-6350D03*
X14900Y6650D03*
X11150Y6650D03*
X7150Y6650D03*
X3400Y6650D03*
X21900Y-5100D03*
G54D23*
X8900Y-6850D03*
G54D16*
X8900Y-7850D03*
X8900Y-8850D03*
X8900Y-9850D03*
G54D25*
X9731Y-7168D03*
G54D26*
X9731Y-7956D03*
X9731Y-8743D03*
X9731Y-9531D03*
G54D23*
X5150Y-6850D03*
G54D16*
X5150Y-7850D03*
X5150Y-8850D03*
X5150Y-9850D03*
G54D25*
X5981Y-7168D03*
G54D26*
X5981Y-7956D03*
X5981Y-8743D03*
X5981Y-9531D03*
G54D23*
X12650Y-6850D03*
G54D16*
X12650Y-7850D03*
X12650Y-8850D03*
X12650Y-9850D03*
G54D25*
X13481Y-7168D03*
G54D26*
X13481Y-7956D03*
X13481Y-8743D03*
X13481Y-9531D03*
G54D23*
X16400Y-6850D03*
G54D16*
X16400Y-7850D03*
X16400Y-8850D03*
X16400Y-9850D03*
G54D25*
X17231Y-7168D03*
G54D26*
X17231Y-7956D03*
X17231Y-8743D03*
X17231Y-9531D03*
G54D23*
X8900Y-850D03*
G54D16*
X8900Y-1850D03*
X8900Y-2850D03*
X8900Y-3850D03*
G54D25*
X9731Y-1168D03*
G54D26*
X9731Y-1956D03*
X9731Y-2743D03*
X9731Y-3531D03*
G54D23*
X5150Y-850D03*
G54D16*
X5150Y-1850D03*
X5150Y-2850D03*
X5150Y-3850D03*
G54D25*
X5981Y-1168D03*
G54D26*
X5981Y-1956D03*
X5981Y-2743D03*
X5981Y-3531D03*
G54D23*
X12650Y-850D03*
G54D16*
X12650Y-1850D03*
X12650Y-2850D03*
X12650Y-3850D03*
G54D25*
X13481Y-1168D03*
G54D26*
X13481Y-1956D03*
X13481Y-2743D03*
X13481Y-3531D03*
G54D23*
X16400Y-850D03*
G54D16*
X16400Y-1850D03*
X16400Y-2850D03*
X16400Y-3850D03*
G54D25*
X17231Y-1168D03*
G54D26*
X17231Y-1956D03*
X17231Y-2743D03*
X17231Y-3531D03*
G54D23*
X16400Y5150D03*
G54D16*
X16400Y4150D03*
X16400Y3150D03*
X16400Y2150D03*
G54D25*
X17231Y4831D03*
G54D26*
X17231Y4043D03*
X17231Y3256D03*
X17231Y2468D03*
G54D23*
X12650Y5150D03*
G54D16*
X12650Y4150D03*
X12650Y3150D03*
X12650Y2150D03*
G54D25*
X13481Y4831D03*
G54D26*
X13481Y4043D03*
X13481Y3256D03*
X13481Y2468D03*
G54D23*
X8900Y5150D03*
G54D16*
X8900Y4150D03*
X8900Y3150D03*
X8900Y2150D03*
G54D25*
X9731Y4831D03*
G54D26*
X9731Y4043D03*
X9731Y3256D03*
X9731Y2468D03*
G54D23*
X5150Y5150D03*
G54D16*
X5150Y4150D03*
X5150Y3150D03*
X5150Y2150D03*
G54D25*
X5981Y4831D03*
G54D26*
X5981Y4043D03*
X5981Y3256D03*
X5981Y2468D03*
G54D23*
X8900Y-15350D03*
G54D16*
X8900Y-16350D03*
X8900Y-17350D03*
X8900Y-18350D03*
G54D25*
X9731Y-15668D03*
G54D26*
X9731Y-16456D03*
X9731Y-17243D03*
X9731Y-18031D03*
G54D23*
X12650Y-15350D03*
G54D16*
X12650Y-16350D03*
X12650Y-17350D03*
X12650Y-18350D03*
G54D25*
X13481Y-15668D03*
G54D26*
X13481Y-16456D03*
X13481Y-17243D03*
X13481Y-18031D03*
G54D23*
X44400Y-850D03*
G54D16*
X44400Y-1850D03*
X44400Y-2850D03*
X44400Y-3850D03*
G54D25*
X45231Y-1168D03*
G54D26*
X45231Y-1956D03*
X45231Y-2743D03*
X45231Y-3531D03*
G54D23*
X48150Y-850D03*
G54D16*
X48150Y-1850D03*
X48150Y-2850D03*
X48150Y-3850D03*
G54D25*
X48981Y-1168D03*
G54D26*
X48981Y-1956D03*
X48981Y-2743D03*
X48981Y-3531D03*
G54D23*
X5150Y-15350D03*
G54D16*
X5150Y-16350D03*
X5150Y-17350D03*
X5150Y-18350D03*
G54D25*
X5981Y-15668D03*
G54D26*
X5981Y-16456D03*
X5981Y-17243D03*
X5981Y-18031D03*
G54D23*
X48150Y5150D03*
G54D16*
X48150Y4150D03*
X48150Y3150D03*
X48150Y2150D03*
G54D25*
X48981Y4831D03*
G54D26*
X48981Y4043D03*
X48981Y3256D03*
X48981Y2468D03*
G54D23*
X55650Y5150D03*
G54D16*
X55650Y4150D03*
X55650Y3150D03*
X55650Y2150D03*
G54D25*
X56481Y4831D03*
G54D26*
X56481Y4043D03*
X56481Y3256D03*
X56481Y2468D03*
G54D23*
X55650Y-850D03*
G54D16*
X55650Y-1850D03*
X55650Y-2850D03*
X55650Y-3850D03*
G54D25*
X56481Y-1168D03*
G54D26*
X56481Y-1956D03*
X56481Y-2743D03*
X56481Y-3531D03*
G54D23*
X51900Y-850D03*
G54D16*
X51900Y-1850D03*
X51900Y-2850D03*
X51900Y-3850D03*
G54D25*
X52731Y-1168D03*
G54D26*
X52731Y-1956D03*
X52731Y-2743D03*
X52731Y-3531D03*
G54D23*
X51900Y5150D03*
G54D16*
X51900Y4150D03*
X51900Y3150D03*
X51900Y2150D03*
G54D25*
X52731Y4831D03*
G54D26*
X52731Y4043D03*
X52731Y3256D03*
X52731Y2468D03*
G54D27*
X20400Y-15850D03*
X20400Y-14850D03*
X20400Y-13850D03*
X20400Y-10850D03*
X20400Y-11850D03*
X20400Y-12850D03*
X20400Y-8850D03*
X20400Y-7850D03*
X20400Y-6850D03*
X20400Y-4850D03*
X20400Y-3850D03*
X39400Y-15850D03*
X39400Y-14850D03*
X39400Y-13850D03*
X39400Y-12850D03*
X39400Y-11850D03*
X39400Y-10850D03*
X39400Y-9850D03*
X39400Y-8850D03*
X39400Y-7250D03*
X39400Y-6250D03*
X39400Y-5250D03*
X39400Y-4250D03*
X39400Y-3250D03*
X39400Y-2250D03*
X39400Y-1250D03*
X39400Y-250D03*
X20400Y-5850D03*
X20400Y-2850D03*
X20400Y-1850D03*
X39400Y750D03*
X39350Y1750D03*
G54D28*
X39281Y3047D03*
X22155Y-17031D03*
X33376Y-17227D03*
G54D29*
X43800Y5750D03*
G54D30*
X37950Y-5550D03*
X19150Y-17350D03*
X14900Y-17350D03*
X18100Y-14900D03*
X18000Y-5900D03*
X19800Y6750D03*
X30417Y4532D03*
X24167Y5032D03*
X25367Y5182D03*
X32667Y4582D03*
X42750Y-850D03*
X28167Y5882D03*
X35617Y5932D03*
X22267Y5882D03*
X18400Y-13950D03*
X23117Y6382D03*
X35617Y4182D03*
X28917Y6382D03*
X36367Y6432D03*
X15750Y-5250D03*
X15450Y-5625D03*
X11100Y750D03*
X10050Y1100D03*
X11600Y1700D03*
X15450Y1600D03*
X53150Y-5150D03*
X39400Y-14850D03*
X52650Y-4950D03*
X43950Y-16900D03*
X43550Y-16600D03*
X44250Y-16600D03*
X43900Y-16450D03*
X26250Y2900D03*
X21500Y2900D03*
X30417Y4082D03*
X32917Y4132D03*
X37817Y4332D03*
X35667Y7632D03*
X37817Y5882D03*
X42350Y-16150D03*
X41750Y-16600D03*
X42200Y-16600D03*
X40500Y5300D03*
X32850Y-12300D03*
X31750Y-11850D03*
X43100Y-14700D03*
X42600Y-14700D03*
X42200Y-14500D03*
X42700Y-14250D03*
X43100Y-14250D03*
X27017Y5432D03*
X28567Y3632D03*
X34667Y3932D03*
X34567Y5532D03*
G54D31*
X56481Y3256D02*
X48256Y3256D01*
X48256Y3256D02*
X48150Y3150D01*
X56481Y-2743D02*
X56606Y-2743D01*
X56606Y-2743D02*
X57250Y-2100D01*
X57250Y-2100D02*
X57250Y2900D01*
X57250Y2900D02*
X56893Y3256D01*
X56893Y3256D02*
X56481Y3256D01*
X51900Y-2850D02*
X56374Y-2850D01*
X56374Y-2850D02*
X56481Y-2743D01*
X36650Y-5550D02*
X37950Y-5550D01*
X21900Y-3850D02*
X22200Y-3850D01*
X22200Y-3850D02*
X23900Y-5550D01*
X23900Y-5550D02*
X36650Y-5550D01*
X20400Y-4850D02*
X20900Y-4850D01*
X20900Y-4850D02*
X21900Y-3850D01*
G54D32*
X19150Y-17350D02*
X18050Y-17350D01*
X23900Y-5550D02*
X22200Y-3850D01*
X37950Y-5550D02*
X23900Y-5550D01*
X56606Y-2743D02*
X57250Y-2100D01*
X57250Y-2100D02*
X57250Y2650D01*
X57250Y2650D02*
X56643Y3256D01*
X56643Y3256D02*
X56481Y3256D01*
X15850Y-17350D02*
X18050Y-17350D01*
X14250Y-17350D02*
X15850Y-17350D01*
X20900Y-4850D02*
X21900Y-3850D01*
G54D33*
X20900Y-4850D02*
X21900Y-3850D01*
G54D32*
X52731Y3256D02*
X55543Y3256D01*
X55543Y3256D02*
X55650Y3150D01*
X48981Y3256D02*
X51793Y3256D01*
X51793Y3256D02*
X51900Y3150D01*
X51900Y-2850D02*
X55650Y-2850D01*
X56481Y-2743D02*
X55756Y-2743D01*
X55756Y-2743D02*
X55650Y-2850D01*
X52731Y-2743D02*
X52006Y-2743D01*
X52006Y-2743D02*
X51900Y-2850D01*
X48981Y3256D02*
X48256Y3256D01*
X48256Y3256D02*
X48150Y3150D01*
X52731Y3256D02*
X52006Y3256D01*
X52006Y3256D02*
X51900Y3150D01*
X56481Y3256D02*
X55756Y3256D01*
X55756Y3256D02*
X55650Y3150D01*
X14900Y-17350D02*
X14250Y-17350D01*
X14250Y-17350D02*
X12650Y-17350D01*
X8900Y-17350D02*
X12650Y-17350D01*
X5150Y-17350D02*
X8900Y-17350D01*
G54D31*
X21900Y-5100D02*
X23250Y-6450D01*
X23250Y-6450D02*
X36850Y-6450D01*
X36850Y-6450D02*
X38450Y-8050D01*
X38450Y-8050D02*
X40500Y-8050D01*
X40500Y-8050D02*
X41900Y-6650D01*
X41900Y-6650D02*
X41900Y-4850D01*
X41900Y-4850D02*
X43900Y-2850D01*
X43900Y-2850D02*
X44400Y-2850D01*
X20400Y-5850D02*
X21150Y-5850D01*
X21150Y-5850D02*
X21900Y-5100D01*
X18550Y-4750D02*
X18550Y-2089D01*
X18550Y-2089D02*
X18500Y-2039D01*
X18550Y-5900D02*
X18000Y-5900D01*
X18550Y-9000D02*
X18550Y-5900D01*
X18550Y-5900D02*
X18550Y-4750D01*
X18550Y-4750D02*
X18550Y-4700D01*
X18550Y-4700D02*
X18500Y-4650D01*
X18550Y-9500D02*
X18550Y-9000D01*
X18550Y-9000D02*
X18550Y-8200D01*
X17850Y-8850D02*
X17900Y-8850D01*
X17900Y-8850D02*
X18550Y-8200D01*
X17650Y-8850D02*
X17850Y-8850D01*
X17900Y-8850D02*
X18550Y-9500D01*
X18100Y-14900D02*
X17950Y-14900D01*
X17950Y-14900D02*
X17650Y-14600D01*
X17650Y-14600D02*
X17650Y-13600D01*
X17650Y-13600D02*
X18550Y-12700D01*
X18550Y-12700D02*
X18550Y-9500D01*
X18550Y-8200D02*
X18500Y-8200D01*
X5150Y-2850D02*
X18386Y-2850D01*
X18386Y-2850D02*
X18500Y-2963D01*
X16400Y3150D02*
X18500Y3150D01*
X5150Y3150D02*
X16400Y3150D01*
X16400Y-8850D02*
X17650Y-8850D01*
X17650Y-8850D02*
X18400Y-8850D01*
X18500Y-8750D02*
X18500Y-8200D01*
X18400Y-8850D02*
X18500Y-8750D01*
X18500Y-8200D02*
X18500Y-4650D01*
X18500Y-4650D02*
X18500Y-2963D01*
X18500Y-2963D02*
X18500Y-2039D01*
X18500Y-2039D02*
X18500Y3150D01*
X18500Y5450D02*
X19800Y6750D01*
X18500Y3150D02*
X18500Y5450D01*
X5150Y-8850D02*
X16400Y-8850D01*
G54D32*
X25450Y-6450D02*
X23250Y-6450D01*
X44400Y-2850D02*
X43900Y-2850D01*
X36850Y-6450D02*
X25450Y-6450D01*
X25450Y-6450D02*
X24850Y-6450D01*
X21150Y-5850D02*
X21900Y-5100D01*
G54D33*
X21150Y-5850D02*
X21900Y-5100D01*
G54D32*
X18700Y2200D02*
X18700Y5650D01*
X18700Y5650D02*
X19800Y6750D01*
X17231Y3256D02*
X16506Y3256D01*
X16506Y3256D02*
X16400Y3150D01*
X13481Y3256D02*
X12756Y3256D01*
X12756Y3256D02*
X12650Y3150D01*
X9731Y3256D02*
X9006Y3256D01*
X9006Y3256D02*
X8900Y3150D01*
X5981Y3256D02*
X5256Y3256D01*
X5256Y3256D02*
X5150Y3150D01*
X5981Y-2743D02*
X5256Y-2743D01*
X5256Y-2743D02*
X5150Y-2850D01*
X9731Y-2743D02*
X9006Y-2743D01*
X9006Y-2743D02*
X8900Y-2850D01*
X13481Y-2743D02*
X12756Y-2743D01*
X12756Y-2743D02*
X12650Y-2850D01*
X17231Y-2743D02*
X16506Y-2743D01*
X16506Y-2743D02*
X16400Y-2850D01*
X17231Y-2743D02*
X18700Y-2743D01*
X13481Y-8743D02*
X12756Y-8743D01*
X12756Y-8743D02*
X12650Y-8850D01*
X17231Y-8743D02*
X16506Y-8743D01*
X16506Y-8743D02*
X16400Y-8850D01*
X17231Y3256D02*
X17843Y3256D01*
X17843Y3256D02*
X18700Y2400D01*
X18700Y2400D02*
X18700Y2200D01*
X18700Y2200D02*
X18700Y-2743D01*
X45231Y-2743D02*
X48043Y-2743D01*
X48043Y-2743D02*
X48150Y-2850D01*
X45231Y-2743D02*
X44506Y-2743D01*
X44506Y-2743D02*
X44400Y-2850D01*
X48981Y-2743D02*
X48256Y-2743D01*
X48256Y-2743D02*
X48150Y-2850D01*
G54D33*
X31225Y4582D02*
X32667Y4582D01*
X31775Y4582D02*
X31225Y4582D01*
X31225Y4582D02*
X30467Y4582D01*
X30467Y4582D02*
X30417Y4532D01*
G54D32*
X12650Y3150D02*
X16400Y3150D01*
X8900Y3150D02*
X12650Y3150D01*
X5150Y3150D02*
X8900Y3150D01*
X12650Y-2850D02*
X16400Y-2850D01*
X8900Y-2850D02*
X12650Y-2850D01*
X5150Y-2850D02*
X8900Y-2850D01*
X12650Y-8850D02*
X16400Y-8850D01*
X8900Y-8850D02*
X12650Y-8850D01*
X5150Y-8850D02*
X8900Y-8850D01*
G54D34*
X24267Y5032D02*
X24167Y5032D01*
X24417Y5182D02*
X24267Y5032D01*
X25367Y5182D02*
X24417Y5182D01*
X32667Y4582D02*
X31775Y4582D01*
X31775Y4582D02*
X31617Y4582D01*
G54D33*
X35950Y3350D02*
X37900Y3350D01*
X42750Y1100D02*
X42750Y-850D01*
X39700Y4150D02*
X42750Y1100D01*
X38700Y4150D02*
X39700Y4150D01*
X37900Y3350D02*
X38700Y4150D01*
X35100Y5882D02*
X35100Y4000D01*
X35750Y3350D02*
X35950Y3350D01*
X35100Y4000D02*
X35750Y3350D01*
X22267Y5882D02*
X20582Y5882D01*
X19950Y-15850D02*
X20400Y-15850D01*
X19400Y-15300D02*
X19950Y-15850D01*
X19400Y4700D02*
X19400Y-15300D01*
X20582Y5882D02*
X19400Y4700D01*
X35400Y5882D02*
X35567Y5882D01*
X35567Y5882D02*
X35617Y5932D01*
X28167Y5882D02*
X35100Y5882D01*
X35100Y5882D02*
X35400Y5882D01*
X35567Y5882D02*
X35617Y5932D01*
G54D32*
X45231Y-1168D02*
X47831Y-1168D01*
X47831Y-1168D02*
X48150Y-850D01*
X45231Y-1168D02*
X44718Y-1168D01*
X44718Y-1168D02*
X44400Y-850D01*
X48981Y-1168D02*
X48468Y-1168D01*
X48468Y-1168D02*
X48150Y-850D01*
G54D34*
X28167Y5882D02*
X27867Y5882D01*
X22267Y5882D02*
X27867Y5882D01*
G54D33*
X37250Y3700D02*
X37800Y3700D01*
X43350Y1000D02*
X43350Y-1100D01*
X39850Y4500D02*
X43350Y1000D01*
X38600Y4500D02*
X39850Y4500D01*
X37800Y3700D02*
X38600Y4500D01*
X36117Y4750D02*
X36117Y4732D01*
X43600Y-1850D02*
X44400Y-1850D01*
X43350Y-1600D02*
X43600Y-1850D01*
X43350Y-1100D02*
X43350Y-1600D01*
X37150Y3700D02*
X37250Y3700D01*
X36117Y4732D02*
X37150Y3700D01*
X19100Y-11200D02*
X19100Y-13250D01*
X19100Y-13250D02*
X18400Y-13950D01*
X23117Y6382D02*
X20632Y6382D01*
X19100Y4850D02*
X19100Y-11200D01*
X20632Y6382D02*
X19100Y4850D01*
G54D34*
X28917Y6382D02*
X29267Y6382D01*
X29267Y6382D02*
X23117Y6382D01*
G54D33*
X36367Y6432D02*
X28967Y6432D01*
X28967Y6432D02*
X28917Y6382D01*
G54D32*
X45231Y-1956D02*
X48043Y-1956D01*
X48043Y-1956D02*
X48150Y-1850D01*
X45231Y-1956D02*
X44506Y-1956D01*
X44506Y-1956D02*
X44400Y-1850D01*
X48981Y-1956D02*
X48256Y-1956D01*
X48256Y-1956D02*
X48150Y-1850D01*
G54D34*
X36117Y4682D02*
X36117Y4750D01*
X36117Y4750D02*
X36117Y5282D01*
X35617Y4182D02*
X36117Y4682D01*
X36117Y6432D02*
X36117Y5282D01*
X36367Y6432D02*
X36117Y6432D01*
X36117Y6432D02*
X30467Y6432D01*
G54D33*
X7900Y-6100D02*
X11350Y-6100D01*
X14550Y-5950D02*
X15250Y-5250D01*
X11500Y-5950D02*
X14550Y-5950D01*
X11350Y-6100D02*
X11500Y-5950D01*
X5981Y-7956D02*
X6043Y-7956D01*
X15250Y-5250D02*
X15750Y-5250D01*
X6043Y-7956D02*
X7325Y-6675D01*
X7325Y-6675D02*
X7775Y-6225D01*
X7775Y-6225D02*
X7900Y-6100D01*
X9731Y-7956D02*
X9993Y-7956D01*
X14825Y-6250D02*
X15450Y-5625D01*
X11700Y-6250D02*
X14825Y-6250D01*
X9993Y-7956D02*
X11700Y-6250D01*
X5150Y-850D02*
X5150Y500D01*
X10350Y1500D02*
X11100Y750D01*
X6150Y1500D02*
X10350Y1500D01*
X5150Y500D02*
X6150Y1500D01*
X8900Y-850D02*
X8900Y700D01*
X9300Y1100D02*
X10050Y1100D01*
X8900Y700D02*
X9300Y1100D01*
G54D32*
X12650Y-850D02*
X12450Y-850D01*
X11600Y0D02*
X11600Y1700D01*
X12450Y-850D02*
X11600Y0D01*
X16400Y-850D02*
X16150Y-850D01*
X15450Y-150D02*
X15450Y1600D01*
X16150Y-850D02*
X15450Y-150D01*
X56481Y4043D02*
X55756Y4043D01*
X55756Y4043D02*
X55650Y4150D01*
X56481Y4831D02*
X55968Y4831D01*
X55968Y4831D02*
X55650Y5150D01*
X52731Y4043D02*
X52006Y4043D01*
X52006Y4043D02*
X51900Y4150D01*
X52731Y4831D02*
X52218Y4831D01*
X52218Y4831D02*
X51900Y5150D01*
X48981Y4043D02*
X48256Y4043D01*
X48256Y4043D02*
X48150Y4150D01*
X48981Y4831D02*
X48468Y4831D01*
X48468Y4831D02*
X48150Y5150D01*
G54D33*
X39400Y-15850D02*
X39500Y-15850D01*
X44650Y-10700D02*
X44650Y-8600D01*
X39500Y-15850D02*
X44650Y-10700D01*
X52900Y-5400D02*
X53150Y-5150D01*
X45450Y-5400D02*
X52900Y-5400D01*
X44650Y-6200D02*
X45450Y-5400D01*
X44650Y-8600D02*
X44650Y-6200D01*
G54D32*
X52731Y-1168D02*
X55331Y-1168D01*
X55331Y-1168D02*
X55650Y-850D01*
X52731Y-1168D02*
X52218Y-1168D01*
X52218Y-1168D02*
X51900Y-850D01*
X56481Y-1168D02*
X55968Y-1168D01*
X55968Y-1168D02*
X55650Y-850D01*
G54D33*
X39400Y-14850D02*
X44300Y-9950D01*
X44300Y-9950D02*
X44300Y-6750D01*
X45450Y-4950D02*
X52650Y-4950D01*
X44300Y-6100D02*
X45450Y-4950D01*
X44300Y-6750D02*
X44300Y-6100D01*
G54D32*
X52731Y-1956D02*
X55543Y-1956D01*
X55543Y-1956D02*
X55650Y-1850D01*
X52731Y-1956D02*
X52006Y-1956D01*
X52006Y-1956D02*
X51900Y-1850D01*
X56481Y-1956D02*
X55756Y-1956D01*
X55756Y-1956D02*
X55650Y-1850D01*
G54D31*
X43700Y-22100D02*
X43700Y-16850D01*
X44150Y-16450D02*
X43900Y-16450D01*
X43550Y-17000D02*
X43850Y-16700D01*
X43400Y-16500D02*
X43700Y-16200D01*
X43700Y-16200D02*
X44150Y-16200D01*
X44150Y-16200D02*
X44150Y-16450D01*
X43550Y-17000D02*
X43400Y-16850D01*
X43400Y-16850D02*
X43400Y-16500D01*
X43700Y-16850D02*
X43850Y-16700D01*
G54D34*
X44250Y-16600D02*
X43950Y-16900D01*
X43900Y-16450D02*
X43750Y-16600D01*
X43750Y-16600D02*
X43550Y-16600D01*
G54D32*
X35200Y-21850D02*
X35200Y-22850D01*
X43700Y-23400D02*
X43700Y-22100D01*
X43050Y-24050D02*
X43700Y-23400D01*
X36400Y-24050D02*
X43050Y-24050D01*
X35200Y-22850D02*
X36400Y-24050D01*
X21500Y2900D02*
X26250Y2900D01*
X5150Y-3850D02*
X4300Y-3850D01*
X5150Y-9850D02*
X4800Y-9850D01*
X4800Y-9850D02*
X4300Y-9350D01*
X4300Y-9350D02*
X4300Y-3850D01*
X4300Y1300D02*
X5150Y2150D01*
X4300Y-3850D02*
X4300Y1300D01*
G54D33*
X32917Y4132D02*
X30467Y4132D01*
X30467Y4132D02*
X30417Y4082D01*
G54D32*
X12650Y2150D02*
X16400Y2150D01*
X8900Y2150D02*
X12650Y2150D01*
X5150Y2150D02*
X8900Y2150D01*
X12650Y-3850D02*
X16400Y-3850D01*
X8900Y-3850D02*
X12650Y-3850D01*
X5150Y-3850D02*
X8900Y-3850D01*
X12650Y-9850D02*
X16400Y-9850D01*
X8900Y-9850D02*
X12650Y-9850D01*
X5150Y-9850D02*
X8900Y-9850D01*
G54D34*
X31617Y4132D02*
X32917Y4132D01*
X37817Y5882D02*
X37817Y4332D01*
X35667Y7632D02*
X37467Y7632D01*
X37467Y7632D02*
X37817Y7282D01*
X37817Y7282D02*
X37817Y5882D01*
G54D31*
X42350Y-16150D02*
X41700Y-16150D01*
X42500Y-16500D02*
X41950Y-16500D01*
X42550Y-16450D02*
X42500Y-16500D01*
X42550Y-16750D02*
X42550Y-16450D01*
X42400Y-16900D02*
X42550Y-16750D01*
X41750Y-16900D02*
X42400Y-16900D01*
X41450Y-16600D02*
X41750Y-16900D01*
X41450Y-16400D02*
X41450Y-16600D01*
X41700Y-16150D02*
X41450Y-16400D01*
G54D34*
X42200Y-16300D02*
X42200Y-16550D01*
X42350Y-16150D02*
X42200Y-16300D01*
X42200Y-16600D02*
X41750Y-16600D01*
G54D32*
X29300Y-7850D02*
X35200Y-7850D01*
X35200Y-7850D02*
X36100Y-8750D01*
X20400Y-7850D02*
X29300Y-7850D01*
X29300Y-7850D02*
X29700Y-7850D01*
X29700Y-7850D02*
X30600Y-8750D01*
X49650Y-3531D02*
X49650Y2468D01*
X55650Y-3850D02*
X54150Y-5350D01*
X53650Y-11600D02*
X54150Y-11100D01*
X54150Y-11100D02*
X54150Y-5350D01*
X53650Y-11600D02*
X52900Y-11600D01*
X48150Y2150D02*
X43650Y2150D01*
X43650Y2150D02*
X40500Y5300D01*
X48150Y2150D02*
X43900Y2150D01*
X43900Y2150D02*
X39400Y6650D01*
G54D33*
X20400Y-7850D02*
X20400Y-6850D01*
G54D32*
X45650Y-12600D02*
X45650Y-11600D01*
X45650Y-13600D02*
X45650Y-12600D01*
X52900Y-12600D02*
X52900Y-13600D01*
X52900Y-11600D02*
X52900Y-12600D01*
X52731Y2468D02*
X55331Y2468D01*
X55331Y2468D02*
X55650Y2150D01*
X48981Y2468D02*
X49650Y2468D01*
X49650Y2468D02*
X51581Y2468D01*
X51581Y2468D02*
X51900Y2150D01*
X52731Y-3531D02*
X55331Y-3531D01*
X55331Y-3531D02*
X55650Y-3850D01*
X48981Y-3531D02*
X49650Y-3531D01*
X49650Y-3531D02*
X51581Y-3531D01*
X51581Y-3531D02*
X51900Y-3850D01*
X45231Y-3531D02*
X47831Y-3531D01*
X47831Y-3531D02*
X48150Y-3850D01*
X45231Y-3531D02*
X44718Y-3531D01*
X44718Y-3531D02*
X44400Y-3850D01*
X48981Y-3531D02*
X48468Y-3531D01*
X48468Y-3531D02*
X48150Y-3850D01*
X56481Y-3531D02*
X55968Y-3531D01*
X55968Y-3531D02*
X55650Y-3850D01*
X52731Y-3531D02*
X52218Y-3531D01*
X52218Y-3531D02*
X51900Y-3850D01*
X48981Y2468D02*
X48468Y2468D01*
X48468Y2468D02*
X48150Y2150D01*
X52731Y2468D02*
X52218Y2468D01*
X52218Y2468D02*
X51900Y2150D01*
X56481Y2468D02*
X55968Y2468D01*
X55968Y2468D02*
X55650Y2150D01*
X8900Y-18350D02*
X12650Y-18350D01*
X5150Y-18350D02*
X8900Y-18350D01*
X39400Y-11850D02*
X38800Y-11850D01*
X33900Y-13350D02*
X32850Y-12300D01*
X37300Y-13350D02*
X33900Y-13350D01*
X38800Y-11850D02*
X37300Y-13350D01*
X39050Y-10850D02*
X39400Y-10850D01*
X37050Y-12850D02*
X39050Y-10850D01*
X34300Y-12850D02*
X37050Y-12850D01*
X33200Y-11750D02*
X34300Y-12850D01*
X31850Y-11750D02*
X33200Y-11750D01*
X31750Y-11850D02*
X31850Y-11750D01*
X30600Y-11250D02*
X33400Y-11250D01*
X33400Y-11250D02*
X34500Y-12350D01*
X39400Y-9850D02*
X39300Y-9850D01*
X39300Y-9850D02*
X36800Y-12350D01*
X36800Y-12350D02*
X34500Y-12350D01*
X36100Y-11250D02*
X36100Y-10900D01*
X38150Y-8850D02*
X39400Y-8850D01*
X36100Y-10900D02*
X38150Y-8850D01*
G54D31*
X42950Y-14350D02*
X42400Y-14350D01*
X41900Y-14850D02*
X42900Y-14850D01*
X42400Y-14350D02*
X41900Y-14850D01*
G54D33*
X43100Y-14700D02*
X42600Y-14700D01*
X42950Y-14400D02*
X42950Y-14350D01*
X42950Y-14350D02*
X42950Y-14700D01*
X42200Y-14500D02*
X42450Y-14250D01*
X42450Y-14250D02*
X42700Y-14250D01*
X43100Y-14250D02*
X42950Y-14400D01*
X46150Y-8100D02*
X46150Y-6850D01*
X46150Y-6850D02*
X45650Y-6350D01*
X53400Y-8100D02*
X53400Y-7100D01*
X53400Y-7100D02*
X52900Y-6600D01*
G54D34*
X27017Y5182D02*
X27017Y5432D01*
X28567Y3632D02*
X27017Y5182D01*
X34667Y3932D02*
X34567Y4032D01*
X34567Y4032D02*
X34567Y5532D01*
G54D10*
G36*
X56557Y2463D02*
X56486Y2392D01*
X56481Y2398D01*
X56475Y2392D01*
X56404Y2463D01*
X56410Y2468D01*
X56404Y2474D01*
X56475Y2545D01*
X56481Y2539D01*
X56486Y2545D01*
X56557Y2474D01*
X56551Y2468D01*
X56557Y2463D01*
X56557Y2463D01*
G37*
G54D35*
X56557Y2463D02*
X56486Y2392D01*
X56481Y2398D01*
X56475Y2392D01*
X56404Y2463D01*
X56410Y2468D01*
X56404Y2474D01*
X56475Y2545D01*
X56481Y2539D01*
X56486Y2545D01*
X56557Y2474D01*
X56551Y2468D01*
X56557Y2463D01*
G54D10*
G36*
X57953Y-23103D02*
X57789Y-23922D01*
X57750Y-23981D01*
X57750Y-2100D01*
X57750Y2900D01*
X57711Y3091D01*
X57603Y3253D01*
X57603Y3253D01*
X57426Y3430D01*
X57426Y8680D01*
X57188Y9256D01*
X56748Y9696D01*
X56173Y9935D01*
X55550Y9936D01*
X54975Y9698D01*
X54534Y9258D01*
X54295Y8683D01*
X54294Y8060D01*
X54532Y7484D01*
X54972Y7044D01*
X55547Y6805D01*
X56170Y6804D01*
X56746Y7042D01*
X57187Y7482D01*
X57425Y8057D01*
X57426Y8680D01*
X57426Y3430D01*
X57247Y3609D01*
X57085Y3718D01*
X56947Y3745D01*
X57026Y3934D01*
X57026Y4151D01*
X56944Y4350D01*
X56988Y4394D01*
X57026Y4485D01*
X57026Y4585D01*
X57026Y5175D01*
X56988Y5267D01*
X56918Y5338D01*
X56826Y5376D01*
X56726Y5376D01*
X56300Y5376D01*
X56300Y5599D01*
X56262Y5691D01*
X56191Y5761D01*
X56099Y5799D01*
X56000Y5800D01*
X55200Y5800D01*
X55108Y5762D01*
X55038Y5691D01*
X55000Y5599D01*
X54999Y5500D01*
X54999Y4700D01*
X55037Y4608D01*
X55108Y4538D01*
X55115Y4535D01*
X55099Y4518D01*
X55000Y4279D01*
X54999Y4021D01*
X55098Y3782D01*
X55124Y3756D01*
X53202Y3756D01*
X53276Y3934D01*
X53276Y4151D01*
X53194Y4350D01*
X53238Y4394D01*
X53276Y4485D01*
X53276Y4585D01*
X53276Y5175D01*
X53238Y5267D01*
X53168Y5338D01*
X53076Y5376D01*
X52976Y5376D01*
X52550Y5376D01*
X52550Y5599D01*
X52512Y5691D01*
X52441Y5761D01*
X52349Y5799D01*
X52250Y5800D01*
X51450Y5800D01*
X51358Y5762D01*
X51288Y5691D01*
X51250Y5599D01*
X51249Y5500D01*
X51249Y4700D01*
X51287Y4608D01*
X51358Y4538D01*
X51365Y4535D01*
X51349Y4518D01*
X51250Y4279D01*
X51249Y4021D01*
X51348Y3782D01*
X51374Y3756D01*
X49452Y3756D01*
X49526Y3934D01*
X49526Y4151D01*
X49444Y4350D01*
X49488Y4394D01*
X49526Y4485D01*
X49526Y4585D01*
X49526Y5175D01*
X49488Y5267D01*
X49418Y5338D01*
X49326Y5376D01*
X49226Y5376D01*
X48800Y5376D01*
X48800Y5599D01*
X48762Y5691D01*
X48691Y5761D01*
X48599Y5799D01*
X48500Y5800D01*
X47700Y5800D01*
X47608Y5762D01*
X47538Y5691D01*
X47500Y5599D01*
X47499Y5500D01*
X47499Y4700D01*
X47537Y4608D01*
X47608Y4538D01*
X47615Y4535D01*
X47599Y4518D01*
X47500Y4279D01*
X47499Y4021D01*
X47598Y3782D01*
X47730Y3649D01*
X47599Y3518D01*
X47500Y3279D01*
X47499Y3021D01*
X47598Y2782D01*
X47765Y2615D01*
X47762Y2608D01*
X48150Y2220D01*
X48155Y2226D01*
X48226Y2155D01*
X48220Y2150D01*
X48608Y1762D01*
X48714Y1802D01*
X48774Y1963D01*
X48900Y1918D01*
X49117Y1929D01*
X49266Y1991D01*
X49292Y2086D01*
X48981Y2398D01*
X48975Y2392D01*
X48904Y2463D01*
X48910Y2468D01*
X48904Y2474D01*
X48975Y2545D01*
X48981Y2539D01*
X48986Y2545D01*
X49057Y2474D01*
X49051Y2468D01*
X49363Y2157D01*
X49458Y2183D01*
X49531Y2388D01*
X49520Y2604D01*
X49458Y2753D01*
X49449Y2756D01*
X51374Y2756D01*
X51515Y2615D01*
X51512Y2608D01*
X51900Y2220D01*
X51905Y2226D01*
X51976Y2155D01*
X51970Y2150D01*
X52358Y1762D01*
X52464Y1802D01*
X52524Y1963D01*
X52650Y1918D01*
X52867Y1929D01*
X53016Y1991D01*
X53042Y2086D01*
X52731Y2398D01*
X52725Y2392D01*
X52654Y2463D01*
X52660Y2468D01*
X52654Y2474D01*
X52725Y2545D01*
X52731Y2539D01*
X52736Y2545D01*
X52807Y2474D01*
X52801Y2468D01*
X53113Y2157D01*
X53208Y2183D01*
X53281Y2388D01*
X53270Y2604D01*
X53208Y2753D01*
X53199Y2756D01*
X55124Y2756D01*
X55265Y2615D01*
X55262Y2608D01*
X55650Y2220D01*
X55655Y2226D01*
X55726Y2155D01*
X55720Y2150D01*
X56108Y1762D01*
X56214Y1802D01*
X56274Y1963D01*
X56400Y1918D01*
X56617Y1929D01*
X56750Y1984D01*
X56750Y-623D01*
X56726Y-623D01*
X56300Y-623D01*
X56300Y-400D01*
X56262Y-308D01*
X56191Y-238D01*
X56099Y-200D01*
X56037Y-199D01*
X56037Y1691D01*
X55650Y2079D01*
X55579Y2008D01*
X55579Y2150D01*
X55191Y2537D01*
X55085Y2497D01*
X54995Y2255D01*
X55005Y1997D01*
X55085Y1802D01*
X55191Y1762D01*
X55579Y2150D01*
X55579Y2008D01*
X55262Y1691D01*
X55302Y1585D01*
X55544Y1495D01*
X55802Y1505D01*
X55997Y1585D01*
X56037Y1691D01*
X56037Y-199D01*
X56000Y-199D01*
X55200Y-199D01*
X55108Y-237D01*
X55038Y-308D01*
X55000Y-400D01*
X54999Y-499D01*
X54999Y-768D01*
X53253Y-768D01*
X53238Y-732D01*
X53168Y-661D01*
X53076Y-623D01*
X52976Y-623D01*
X52550Y-623D01*
X52550Y-400D01*
X52512Y-308D01*
X52441Y-238D01*
X52349Y-200D01*
X52287Y-199D01*
X52287Y1691D01*
X51900Y2079D01*
X51829Y2008D01*
X51829Y2150D01*
X51441Y2537D01*
X51335Y2497D01*
X51245Y2255D01*
X51255Y1997D01*
X51335Y1802D01*
X51441Y1762D01*
X51829Y2150D01*
X51829Y2008D01*
X51512Y1691D01*
X51552Y1585D01*
X51794Y1495D01*
X52052Y1505D01*
X52247Y1585D01*
X52287Y1691D01*
X52287Y-199D01*
X52250Y-199D01*
X51450Y-199D01*
X51358Y-237D01*
X51288Y-308D01*
X51250Y-400D01*
X51249Y-499D01*
X51249Y-1299D01*
X51287Y-1391D01*
X51358Y-1461D01*
X51365Y-1464D01*
X51349Y-1481D01*
X51250Y-1720D01*
X51249Y-1978D01*
X51348Y-2217D01*
X51480Y-2350D01*
X51349Y-2481D01*
X51250Y-2720D01*
X51249Y-2978D01*
X51348Y-3217D01*
X51515Y-3384D01*
X51512Y-3391D01*
X51900Y-3779D01*
X51905Y-3773D01*
X51976Y-3844D01*
X51970Y-3850D01*
X52358Y-4237D01*
X52464Y-4197D01*
X52524Y-4036D01*
X52650Y-4081D01*
X52867Y-4070D01*
X53016Y-4008D01*
X53042Y-3913D01*
X52731Y-3601D01*
X52725Y-3607D01*
X52654Y-3536D01*
X52660Y-3531D01*
X52654Y-3525D01*
X52725Y-3454D01*
X52731Y-3460D01*
X52736Y-3454D01*
X52807Y-3525D01*
X52801Y-3531D01*
X53113Y-3842D01*
X53208Y-3816D01*
X53281Y-3611D01*
X53270Y-3395D01*
X53251Y-3350D01*
X55230Y-3350D01*
X55265Y-3384D01*
X55262Y-3391D01*
X55650Y-3779D01*
X55655Y-3773D01*
X55726Y-3844D01*
X55720Y-3850D01*
X56108Y-4237D01*
X56214Y-4197D01*
X56274Y-4036D01*
X56400Y-4081D01*
X56617Y-4070D01*
X56766Y-4008D01*
X56792Y-3913D01*
X56481Y-3601D01*
X56475Y-3607D01*
X56404Y-3536D01*
X56410Y-3531D01*
X56404Y-3525D01*
X56475Y-3454D01*
X56481Y-3460D01*
X56486Y-3454D01*
X56557Y-3525D01*
X56551Y-3531D01*
X56863Y-3842D01*
X56958Y-3816D01*
X57031Y-3611D01*
X57020Y-3395D01*
X56958Y-3246D01*
X56863Y-3219D01*
X56908Y-3174D01*
X56883Y-3148D01*
X56959Y-3097D01*
X57603Y-2453D01*
X57603Y-2453D01*
X57603Y-2453D01*
X57711Y-2291D01*
X57750Y-2100D01*
X57750Y-23981D01*
X57426Y-24466D01*
X57426Y-22815D01*
X57188Y-22239D01*
X57031Y-22082D01*
X56748Y-21799D01*
X56613Y-21743D01*
X56613Y-13600D01*
X56571Y-13385D01*
X56449Y-13204D01*
X56294Y-13099D01*
X56449Y-12995D01*
X56571Y-12814D01*
X56613Y-12600D01*
X56571Y-12385D01*
X56449Y-12204D01*
X56294Y-12099D01*
X56449Y-11995D01*
X56571Y-11814D01*
X56613Y-11600D01*
X56571Y-11385D01*
X56449Y-11204D01*
X56294Y-11099D01*
X56449Y-10995D01*
X56571Y-10814D01*
X56613Y-10600D01*
X56571Y-10385D01*
X56449Y-10204D01*
X56268Y-10082D01*
X56053Y-10040D01*
X56037Y-10040D01*
X56037Y-4308D01*
X55650Y-3920D01*
X55579Y-3991D01*
X55579Y-3850D01*
X55191Y-3462D01*
X55085Y-3502D01*
X54995Y-3744D01*
X55005Y-4002D01*
X55085Y-4197D01*
X55191Y-4237D01*
X55579Y-3850D01*
X55579Y-3991D01*
X55262Y-4308D01*
X55302Y-4414D01*
X55544Y-4504D01*
X55802Y-4494D01*
X55997Y-4414D01*
X56037Y-4308D01*
X56037Y-10040D01*
X56025Y-10040D01*
X56025Y-8425D01*
X56025Y-7675D01*
X55987Y-7583D01*
X55916Y-7513D01*
X55824Y-7475D01*
X55725Y-7474D01*
X54975Y-7474D01*
X54883Y-7512D01*
X54813Y-7583D01*
X54775Y-7675D01*
X54774Y-7774D01*
X54774Y-8524D01*
X54812Y-8616D01*
X54883Y-8686D01*
X54975Y-8724D01*
X55074Y-8725D01*
X55824Y-8725D01*
X55916Y-8687D01*
X55986Y-8616D01*
X56024Y-8524D01*
X56025Y-8425D01*
X56025Y-10040D01*
X55746Y-10040D01*
X55531Y-10082D01*
X55350Y-10204D01*
X55228Y-10385D01*
X55186Y-10600D01*
X55228Y-10814D01*
X55350Y-10995D01*
X55505Y-11099D01*
X55350Y-11204D01*
X55228Y-11385D01*
X55186Y-11600D01*
X55228Y-11814D01*
X55350Y-11995D01*
X55505Y-12099D01*
X55350Y-12204D01*
X55228Y-12385D01*
X55186Y-12600D01*
X55228Y-12814D01*
X55350Y-12995D01*
X55505Y-13099D01*
X55350Y-13204D01*
X55228Y-13385D01*
X55186Y-13600D01*
X55228Y-13814D01*
X55350Y-13995D01*
X55531Y-14117D01*
X55746Y-14160D01*
X56053Y-14160D01*
X56268Y-14117D01*
X56449Y-13995D01*
X56571Y-13814D01*
X56613Y-13600D01*
X56613Y-21743D01*
X56173Y-21560D01*
X55550Y-21559D01*
X54975Y-21797D01*
X54534Y-22237D01*
X54295Y-22812D01*
X54294Y-23435D01*
X54532Y-24011D01*
X54972Y-24451D01*
X55547Y-24690D01*
X56170Y-24691D01*
X56746Y-24453D01*
X57187Y-24013D01*
X57425Y-23438D01*
X57426Y-22815D01*
X57426Y-24466D01*
X57335Y-24603D01*
X56661Y-25052D01*
X55833Y-25218D01*
X54025Y-25218D01*
X54025Y-7976D01*
X53930Y-7746D01*
X53754Y-7570D01*
X53750Y-7568D01*
X53750Y-7100D01*
X53723Y-6966D01*
X53723Y-6966D01*
X53647Y-6852D01*
X53542Y-6747D01*
X53549Y-6729D01*
X53550Y-6471D01*
X53451Y-6232D01*
X53268Y-6049D01*
X53029Y-5950D01*
X52771Y-5949D01*
X52532Y-6048D01*
X52349Y-6231D01*
X52250Y-6470D01*
X52249Y-6728D01*
X52348Y-6967D01*
X52531Y-7150D01*
X52770Y-7249D01*
X53028Y-7250D01*
X53047Y-7242D01*
X53050Y-7244D01*
X53050Y-7568D01*
X53046Y-7569D01*
X52870Y-7745D01*
X52775Y-7975D01*
X52774Y-8223D01*
X52869Y-8453D01*
X53045Y-8629D01*
X53275Y-8724D01*
X53523Y-8725D01*
X53753Y-8630D01*
X53929Y-8454D01*
X54024Y-8224D01*
X54025Y-7976D01*
X54025Y-25218D01*
X53645Y-25218D01*
X53645Y-22227D01*
X53637Y-21932D01*
X53600Y-21841D01*
X53600Y-10860D01*
X53600Y-10240D01*
X53562Y-10148D01*
X53491Y-10078D01*
X53399Y-10040D01*
X53300Y-10039D01*
X52400Y-10039D01*
X52308Y-10077D01*
X52238Y-10148D01*
X52200Y-10240D01*
X52199Y-10339D01*
X52199Y-10959D01*
X52237Y-11051D01*
X52308Y-11121D01*
X52400Y-11159D01*
X52427Y-11159D01*
X52328Y-11239D01*
X52223Y-11431D01*
X52216Y-11463D01*
X52265Y-11550D01*
X52850Y-11550D01*
X52850Y-11542D01*
X52950Y-11542D01*
X52950Y-11550D01*
X53534Y-11550D01*
X53583Y-11463D01*
X53576Y-11431D01*
X53471Y-11239D01*
X53372Y-11160D01*
X53399Y-11160D01*
X53491Y-11122D01*
X53561Y-11051D01*
X53599Y-10959D01*
X53600Y-10860D01*
X53600Y-21841D01*
X53583Y-21800D01*
X53583Y-13736D01*
X53583Y-13463D01*
X53576Y-13431D01*
X53471Y-13239D01*
X53300Y-13101D01*
X53294Y-13100D01*
X53300Y-13098D01*
X53471Y-12960D01*
X53576Y-12768D01*
X53583Y-12736D01*
X53583Y-12463D01*
X53576Y-12431D01*
X53471Y-12239D01*
X53300Y-12101D01*
X53294Y-12100D01*
X53300Y-12098D01*
X53471Y-11960D01*
X53576Y-11768D01*
X53583Y-11736D01*
X53534Y-11650D01*
X52950Y-11650D01*
X52950Y-12040D01*
X52950Y-12160D01*
X52950Y-12550D01*
X53534Y-12550D01*
X53583Y-12463D01*
X53583Y-12736D01*
X53534Y-12650D01*
X52950Y-12650D01*
X52950Y-13040D01*
X52950Y-13160D01*
X52950Y-13550D01*
X53534Y-13550D01*
X53583Y-13463D01*
X53583Y-13736D01*
X53534Y-13650D01*
X52950Y-13650D01*
X52950Y-14160D01*
X53090Y-14160D01*
X53300Y-14098D01*
X53471Y-13960D01*
X53576Y-13768D01*
X53583Y-13736D01*
X53583Y-21800D01*
X53540Y-21696D01*
X53424Y-21645D01*
X53354Y-21716D01*
X53354Y-21575D01*
X53303Y-21459D01*
X53027Y-21354D01*
X52850Y-21359D01*
X52850Y-14160D01*
X52850Y-13650D01*
X52850Y-13550D01*
X52850Y-13160D01*
X52850Y-13040D01*
X52850Y-12650D01*
X52850Y-12550D01*
X52850Y-12160D01*
X52850Y-12040D01*
X52850Y-11650D01*
X52265Y-11650D01*
X52216Y-11736D01*
X52223Y-11768D01*
X52328Y-11960D01*
X52499Y-12098D01*
X52505Y-12100D01*
X52499Y-12101D01*
X52328Y-12239D01*
X52223Y-12431D01*
X52216Y-12463D01*
X52265Y-12550D01*
X52850Y-12550D01*
X52850Y-12650D01*
X52265Y-12650D01*
X52216Y-12736D01*
X52223Y-12768D01*
X52328Y-12960D01*
X52499Y-13098D01*
X52505Y-13100D01*
X52499Y-13101D01*
X52328Y-13239D01*
X52223Y-13431D01*
X52216Y-13463D01*
X52265Y-13550D01*
X52850Y-13550D01*
X52850Y-13650D01*
X52265Y-13650D01*
X52216Y-13736D01*
X52223Y-13768D01*
X52328Y-13960D01*
X52499Y-14098D01*
X52710Y-14160D01*
X52850Y-14160D01*
X52850Y-21359D01*
X52732Y-21362D01*
X52496Y-21459D01*
X52445Y-21575D01*
X52900Y-22029D01*
X53354Y-21575D01*
X53354Y-21716D01*
X52970Y-22100D01*
X53424Y-22554D01*
X53540Y-22503D01*
X53645Y-22227D01*
X53645Y-25218D01*
X53354Y-25218D01*
X53354Y-22624D01*
X52900Y-22170D01*
X52829Y-22241D01*
X52829Y-22100D01*
X52375Y-21645D01*
X52259Y-21696D01*
X52154Y-21972D01*
X52162Y-22267D01*
X52259Y-22503D01*
X52375Y-22554D01*
X52829Y-22100D01*
X52829Y-22241D01*
X52445Y-22624D01*
X52496Y-22740D01*
X52772Y-22845D01*
X53067Y-22837D01*
X53303Y-22740D01*
X53354Y-22624D01*
X53354Y-25218D01*
X51642Y-25218D01*
X51642Y-22542D01*
X51642Y-21558D01*
X51604Y-21466D01*
X51533Y-21396D01*
X51441Y-21358D01*
X51342Y-21357D01*
X50358Y-21357D01*
X50266Y-21395D01*
X50196Y-21466D01*
X50158Y-21558D01*
X50157Y-21657D01*
X50157Y-22641D01*
X50195Y-22733D01*
X50266Y-22803D01*
X50358Y-22841D01*
X50457Y-22842D01*
X51441Y-22842D01*
X51533Y-22804D01*
X51603Y-22733D01*
X51641Y-22641D01*
X51642Y-22542D01*
X51642Y-25218D01*
X49645Y-25218D01*
X49645Y-22227D01*
X49637Y-21932D01*
X49540Y-21696D01*
X49424Y-21645D01*
X49363Y-21706D01*
X49363Y-13600D01*
X49321Y-13385D01*
X49199Y-13204D01*
X49044Y-13099D01*
X49199Y-12995D01*
X49321Y-12814D01*
X49363Y-12600D01*
X49321Y-12385D01*
X49199Y-12204D01*
X49044Y-12099D01*
X49199Y-11995D01*
X49321Y-11814D01*
X49363Y-11600D01*
X49321Y-11385D01*
X49199Y-11204D01*
X49044Y-11099D01*
X49199Y-10995D01*
X49321Y-10814D01*
X49363Y-10600D01*
X49321Y-10385D01*
X49199Y-10204D01*
X49018Y-10082D01*
X48803Y-10040D01*
X48775Y-10040D01*
X48775Y-8425D01*
X48775Y-7675D01*
X48737Y-7583D01*
X48666Y-7513D01*
X48574Y-7475D01*
X48475Y-7474D01*
X47725Y-7474D01*
X47633Y-7512D01*
X47563Y-7583D01*
X47525Y-7675D01*
X47524Y-7774D01*
X47524Y-8524D01*
X47562Y-8616D01*
X47633Y-8686D01*
X47725Y-8724D01*
X47824Y-8725D01*
X48574Y-8725D01*
X48666Y-8687D01*
X48736Y-8616D01*
X48774Y-8524D01*
X48775Y-8425D01*
X48775Y-10040D01*
X48496Y-10040D01*
X48281Y-10082D01*
X48100Y-10204D01*
X47978Y-10385D01*
X47936Y-10600D01*
X47978Y-10814D01*
X48100Y-10995D01*
X48255Y-11099D01*
X48100Y-11204D01*
X47978Y-11385D01*
X47936Y-11600D01*
X47978Y-11814D01*
X48100Y-11995D01*
X48255Y-12099D01*
X48100Y-12204D01*
X47978Y-12385D01*
X47936Y-12600D01*
X47978Y-12814D01*
X48100Y-12995D01*
X48255Y-13099D01*
X48100Y-13204D01*
X47978Y-13385D01*
X47936Y-13600D01*
X47978Y-13814D01*
X48100Y-13995D01*
X48281Y-14117D01*
X48496Y-14160D01*
X48803Y-14160D01*
X49018Y-14117D01*
X49199Y-13995D01*
X49321Y-13814D01*
X49363Y-13600D01*
X49363Y-21706D01*
X49354Y-21716D01*
X49354Y-21575D01*
X49303Y-21459D01*
X49027Y-21354D01*
X48732Y-21362D01*
X48496Y-21459D01*
X48445Y-21575D01*
X48900Y-22029D01*
X49354Y-21575D01*
X49354Y-21716D01*
X48970Y-22100D01*
X49424Y-22554D01*
X49540Y-22503D01*
X49645Y-22227D01*
X49645Y-25218D01*
X49354Y-25218D01*
X49354Y-22624D01*
X48900Y-22170D01*
X48829Y-22241D01*
X48829Y-22100D01*
X48375Y-21645D01*
X48259Y-21696D01*
X48154Y-21972D01*
X48162Y-22267D01*
X48259Y-22503D01*
X48375Y-22554D01*
X48829Y-22100D01*
X48829Y-22241D01*
X48445Y-22624D01*
X48496Y-22740D01*
X48772Y-22845D01*
X49067Y-22837D01*
X49303Y-22740D01*
X49354Y-22624D01*
X49354Y-25218D01*
X47642Y-25218D01*
X47642Y-22542D01*
X47642Y-21558D01*
X47604Y-21466D01*
X47533Y-21396D01*
X47441Y-21358D01*
X47342Y-21357D01*
X46358Y-21357D01*
X46333Y-21368D01*
X46333Y-13736D01*
X46333Y-13463D01*
X46326Y-13431D01*
X46221Y-13239D01*
X46050Y-13101D01*
X46044Y-13100D01*
X46050Y-13098D01*
X46221Y-12960D01*
X46326Y-12768D01*
X46333Y-12736D01*
X46333Y-12463D01*
X46326Y-12431D01*
X46221Y-12239D01*
X46050Y-12101D01*
X46044Y-12100D01*
X46050Y-12098D01*
X46221Y-11960D01*
X46326Y-11768D01*
X46333Y-11736D01*
X46284Y-11650D01*
X45700Y-11650D01*
X45700Y-12040D01*
X45700Y-12160D01*
X45700Y-12550D01*
X46284Y-12550D01*
X46333Y-12463D01*
X46333Y-12736D01*
X46284Y-12650D01*
X45700Y-12650D01*
X45700Y-13040D01*
X45700Y-13160D01*
X45700Y-13550D01*
X46284Y-13550D01*
X46333Y-13463D01*
X46333Y-13736D01*
X46284Y-13650D01*
X45700Y-13650D01*
X45700Y-14160D01*
X45840Y-14160D01*
X46050Y-14098D01*
X46221Y-13960D01*
X46326Y-13768D01*
X46333Y-13736D01*
X46333Y-21368D01*
X46266Y-21395D01*
X46196Y-21466D01*
X46158Y-21558D01*
X46157Y-21657D01*
X46157Y-22641D01*
X46195Y-22733D01*
X46266Y-22803D01*
X46358Y-22841D01*
X46457Y-22842D01*
X47441Y-22842D01*
X47533Y-22804D01*
X47603Y-22733D01*
X47641Y-22641D01*
X47642Y-22542D01*
X47642Y-25218D01*
X45600Y-25218D01*
X45600Y-14160D01*
X45600Y-13650D01*
X45600Y-13550D01*
X45600Y-13160D01*
X45600Y-13040D01*
X45600Y-12650D01*
X45600Y-12550D01*
X45600Y-12160D01*
X45600Y-12040D01*
X45600Y-11650D01*
X45015Y-11650D01*
X44966Y-11736D01*
X44973Y-11768D01*
X45078Y-11960D01*
X45249Y-12098D01*
X45255Y-12100D01*
X45249Y-12101D01*
X45078Y-12239D01*
X44973Y-12431D01*
X44966Y-12463D01*
X45015Y-12550D01*
X45600Y-12550D01*
X45600Y-12650D01*
X45015Y-12650D01*
X44966Y-12736D01*
X44973Y-12768D01*
X45078Y-12960D01*
X45249Y-13098D01*
X45255Y-13100D01*
X45249Y-13101D01*
X45078Y-13239D01*
X44973Y-13431D01*
X44966Y-13463D01*
X45015Y-13550D01*
X45600Y-13550D01*
X45600Y-13650D01*
X45015Y-13650D01*
X44966Y-13736D01*
X44973Y-13768D01*
X45078Y-13960D01*
X45249Y-14098D01*
X45460Y-14160D01*
X45600Y-14160D01*
X45600Y-25218D01*
X35558Y-25218D01*
X35558Y-23774D01*
X36117Y-24332D01*
X36117Y-24332D01*
X36246Y-24419D01*
X36246Y-24419D01*
X36399Y-24449D01*
X36400Y-24450D01*
X43050Y-24450D01*
X43050Y-24449D01*
X43177Y-24424D01*
X43203Y-24419D01*
X43203Y-24419D01*
X43332Y-24332D01*
X43982Y-23682D01*
X43982Y-23682D01*
X44040Y-23596D01*
X44069Y-23553D01*
X44069Y-23553D01*
X44099Y-23400D01*
X44100Y-23400D01*
X44100Y-22842D01*
X44241Y-22842D01*
X44333Y-22804D01*
X44403Y-22733D01*
X44441Y-22641D01*
X44442Y-22542D01*
X44442Y-21558D01*
X44404Y-21466D01*
X44333Y-21396D01*
X44241Y-21358D01*
X44200Y-21358D01*
X44200Y-17250D01*
X44310Y-17141D01*
X44363Y-17013D01*
X44490Y-16960D01*
X44610Y-16841D01*
X44674Y-16684D01*
X44675Y-16515D01*
X44649Y-16453D01*
X44650Y-16450D01*
X44650Y-16200D01*
X44611Y-16008D01*
X44503Y-15846D01*
X44341Y-15738D01*
X44150Y-15700D01*
X43700Y-15700D01*
X43699Y-15700D01*
X43525Y-15734D01*
X43525Y-14615D01*
X43466Y-14474D01*
X43524Y-14334D01*
X43525Y-14165D01*
X43460Y-14009D01*
X43341Y-13889D01*
X43184Y-13825D01*
X43015Y-13824D01*
X42953Y-13850D01*
X42950Y-13850D01*
X42844Y-13850D01*
X42784Y-13825D01*
X42615Y-13824D01*
X42555Y-13850D01*
X42400Y-13850D01*
X42208Y-13888D01*
X42046Y-13996D01*
X42046Y-13996D01*
X41546Y-14496D01*
X41438Y-14658D01*
X41399Y-14850D01*
X41438Y-15041D01*
X41546Y-15203D01*
X41708Y-15311D01*
X41900Y-15350D01*
X41900Y-15350D01*
X41900Y-15350D01*
X42900Y-15350D01*
X43091Y-15311D01*
X43253Y-15203D01*
X43361Y-15041D01*
X43362Y-15038D01*
X43460Y-14941D01*
X43524Y-14784D01*
X43525Y-14615D01*
X43525Y-15734D01*
X43508Y-15738D01*
X43346Y-15846D01*
X43346Y-15846D01*
X43046Y-16146D01*
X42938Y-16308D01*
X42899Y-16500D01*
X42900Y-16500D01*
X42900Y-16849D01*
X42899Y-16850D01*
X42938Y-17041D01*
X43046Y-17203D01*
X43196Y-17353D01*
X43196Y-17353D01*
X43200Y-17355D01*
X43200Y-19270D01*
X43029Y-19200D01*
X42771Y-19199D01*
X42532Y-19298D01*
X42349Y-19481D01*
X42250Y-19720D01*
X42249Y-19978D01*
X42348Y-20217D01*
X42531Y-20400D01*
X42770Y-20499D01*
X43028Y-20500D01*
X43200Y-20429D01*
X43200Y-20650D01*
X43162Y-20635D01*
X42938Y-20634D01*
X42730Y-20720D01*
X42576Y-20874D01*
X42576Y-20803D01*
X42546Y-20706D01*
X42335Y-20630D01*
X42110Y-20641D01*
X41953Y-20706D01*
X41923Y-20803D01*
X42250Y-21129D01*
X42576Y-20803D01*
X42576Y-20874D01*
X42571Y-20879D01*
X42521Y-20998D01*
X42320Y-21200D01*
X42521Y-21401D01*
X42570Y-21519D01*
X42729Y-21678D01*
X42937Y-21764D01*
X42957Y-21764D01*
X42957Y-22641D01*
X42995Y-22733D01*
X43066Y-22803D01*
X43158Y-22841D01*
X43257Y-22842D01*
X43300Y-22842D01*
X43300Y-23234D01*
X42884Y-23650D01*
X42576Y-23650D01*
X42576Y-21596D01*
X42250Y-21270D01*
X42244Y-21276D01*
X42173Y-21205D01*
X42179Y-21200D01*
X41853Y-20873D01*
X41756Y-20903D01*
X41680Y-21114D01*
X41691Y-21339D01*
X41698Y-21357D01*
X41532Y-21362D01*
X41296Y-21459D01*
X41245Y-21575D01*
X41700Y-22029D01*
X41705Y-22023D01*
X41776Y-22094D01*
X41770Y-22100D01*
X42224Y-22554D01*
X42340Y-22503D01*
X42445Y-22227D01*
X42437Y-21932D01*
X42366Y-21760D01*
X42389Y-21758D01*
X42546Y-21693D01*
X42576Y-21596D01*
X42576Y-23650D01*
X42154Y-23650D01*
X42154Y-22624D01*
X41700Y-22170D01*
X41629Y-22241D01*
X41629Y-22100D01*
X41175Y-21645D01*
X41059Y-21696D01*
X40954Y-21972D01*
X40962Y-22267D01*
X41059Y-22503D01*
X41175Y-22554D01*
X41629Y-22100D01*
X41629Y-22241D01*
X41245Y-22624D01*
X41296Y-22740D01*
X41572Y-22845D01*
X41867Y-22837D01*
X42103Y-22740D01*
X42154Y-22624D01*
X42154Y-23650D01*
X40442Y-23650D01*
X40442Y-22542D01*
X40442Y-21558D01*
X40404Y-21466D01*
X40333Y-21396D01*
X40241Y-21358D01*
X40142Y-21357D01*
X39596Y-21357D01*
X39614Y-21312D01*
X39615Y-21088D01*
X39529Y-20880D01*
X39370Y-20721D01*
X39162Y-20635D01*
X38938Y-20634D01*
X38730Y-20720D01*
X38576Y-20874D01*
X38576Y-20803D01*
X38546Y-20706D01*
X38335Y-20630D01*
X38110Y-20641D01*
X37953Y-20706D01*
X37923Y-20803D01*
X38250Y-21129D01*
X38576Y-20803D01*
X38576Y-20874D01*
X38571Y-20879D01*
X38521Y-20998D01*
X38320Y-21200D01*
X38521Y-21401D01*
X38570Y-21519D01*
X38729Y-21678D01*
X38937Y-21764D01*
X38957Y-21764D01*
X38957Y-22641D01*
X38995Y-22733D01*
X39066Y-22803D01*
X39158Y-22841D01*
X39257Y-22842D01*
X40241Y-22842D01*
X40333Y-22804D01*
X40403Y-22733D01*
X40441Y-22641D01*
X40442Y-22542D01*
X40442Y-23650D01*
X38576Y-23650D01*
X38576Y-21596D01*
X38250Y-21270D01*
X38244Y-21276D01*
X38173Y-21205D01*
X38179Y-21200D01*
X37853Y-20873D01*
X37756Y-20903D01*
X37680Y-21114D01*
X37691Y-21339D01*
X37698Y-21357D01*
X37532Y-21362D01*
X37296Y-21459D01*
X37245Y-21575D01*
X37700Y-22029D01*
X37705Y-22023D01*
X37776Y-22094D01*
X37770Y-22100D01*
X38224Y-22554D01*
X38340Y-22503D01*
X38445Y-22227D01*
X38437Y-21932D01*
X38366Y-21760D01*
X38389Y-21758D01*
X38546Y-21693D01*
X38576Y-21596D01*
X38576Y-23650D01*
X38154Y-23650D01*
X38154Y-22624D01*
X37700Y-22170D01*
X37629Y-22241D01*
X37629Y-22100D01*
X37175Y-21645D01*
X37059Y-21696D01*
X36954Y-21972D01*
X36962Y-22267D01*
X37059Y-22503D01*
X37175Y-22554D01*
X37629Y-22100D01*
X37629Y-22241D01*
X37245Y-22624D01*
X37296Y-22740D01*
X37572Y-22845D01*
X37867Y-22837D01*
X38103Y-22740D01*
X38154Y-22624D01*
X38154Y-23650D01*
X36565Y-23650D01*
X35600Y-22684D01*
X35600Y-22360D01*
X35745Y-22215D01*
X35843Y-21978D01*
X35843Y-21722D01*
X35746Y-21485D01*
X35565Y-21304D01*
X35328Y-21206D01*
X35072Y-21206D01*
X34835Y-21303D01*
X34699Y-21439D01*
X34565Y-21304D01*
X34328Y-21206D01*
X34256Y-21206D01*
X34256Y-17053D01*
X34122Y-16730D01*
X33875Y-16482D01*
X33552Y-16348D01*
X33202Y-16347D01*
X32878Y-16481D01*
X32630Y-16728D01*
X32496Y-17052D01*
X32496Y-17402D01*
X32629Y-17725D01*
X32877Y-17973D01*
X33200Y-18107D01*
X33550Y-18108D01*
X33874Y-17974D01*
X34121Y-17727D01*
X34256Y-17403D01*
X34256Y-17053D01*
X34256Y-21206D01*
X34072Y-21206D01*
X33835Y-21303D01*
X33699Y-21439D01*
X33565Y-21304D01*
X33328Y-21206D01*
X33072Y-21206D01*
X32835Y-21303D01*
X32654Y-21484D01*
X32556Y-21721D01*
X32556Y-21977D01*
X32653Y-22214D01*
X32834Y-22395D01*
X33071Y-22493D01*
X33327Y-22493D01*
X33564Y-22396D01*
X33700Y-22260D01*
X33834Y-22395D01*
X34071Y-22493D01*
X34327Y-22493D01*
X34564Y-22396D01*
X34700Y-22260D01*
X34800Y-22360D01*
X34800Y-22630D01*
X30445Y-22630D01*
X30238Y-22630D01*
X30269Y-22598D01*
X30224Y-22554D01*
X30340Y-22503D01*
X30445Y-22227D01*
X30437Y-21932D01*
X30340Y-21696D01*
X30224Y-21645D01*
X30154Y-21716D01*
X30154Y-21575D01*
X30103Y-21459D01*
X29827Y-21354D01*
X29532Y-21362D01*
X29504Y-21373D01*
X29504Y-9855D01*
X29494Y-9597D01*
X29414Y-9402D01*
X29308Y-9362D01*
X29237Y-9433D01*
X29237Y-9291D01*
X29197Y-9185D01*
X28955Y-9095D01*
X28697Y-9105D01*
X28502Y-9185D01*
X28462Y-9291D01*
X28850Y-9679D01*
X29237Y-9291D01*
X29237Y-9433D01*
X28920Y-9750D01*
X28926Y-9755D01*
X28855Y-9826D01*
X28850Y-9820D01*
X28844Y-9826D01*
X28773Y-9755D01*
X28779Y-9750D01*
X28391Y-9362D01*
X28285Y-9402D01*
X28195Y-9644D01*
X28205Y-9902D01*
X28285Y-10097D01*
X28348Y-10121D01*
X28308Y-10137D01*
X28238Y-10208D01*
X28200Y-10300D01*
X28199Y-10399D01*
X28199Y-11199D01*
X28237Y-11291D01*
X28308Y-11361D01*
X28400Y-11399D01*
X28499Y-11400D01*
X29299Y-11400D01*
X29391Y-11362D01*
X29461Y-11291D01*
X29499Y-11199D01*
X29500Y-11100D01*
X29500Y-10300D01*
X29462Y-10208D01*
X29391Y-10138D01*
X29351Y-10121D01*
X29414Y-10097D01*
X29504Y-9855D01*
X29504Y-21373D01*
X29296Y-21459D01*
X29245Y-21575D01*
X29700Y-22029D01*
X30154Y-21575D01*
X30154Y-21716D01*
X29770Y-22100D01*
X29776Y-22105D01*
X29705Y-22176D01*
X29700Y-22170D01*
X29694Y-22176D01*
X29629Y-22111D01*
X29623Y-22105D01*
X29629Y-22100D01*
X29175Y-21645D01*
X29059Y-21696D01*
X28954Y-21972D01*
X28962Y-22267D01*
X29059Y-22503D01*
X29175Y-22554D01*
X29130Y-22598D01*
X29161Y-22630D01*
X28441Y-22630D01*
X28442Y-22542D01*
X28442Y-21558D01*
X28404Y-21466D01*
X28333Y-21396D01*
X28241Y-21358D01*
X28142Y-21357D01*
X27158Y-21357D01*
X27066Y-21395D01*
X26996Y-21466D01*
X26958Y-21558D01*
X26957Y-21657D01*
X26957Y-22630D01*
X23035Y-22630D01*
X23035Y-16856D01*
X22902Y-16533D01*
X22654Y-16285D01*
X22331Y-16151D01*
X21981Y-16151D01*
X21658Y-16284D01*
X21410Y-16532D01*
X21276Y-16855D01*
X21275Y-17205D01*
X21409Y-17528D01*
X21656Y-17776D01*
X21980Y-17910D01*
X22330Y-17911D01*
X22653Y-17777D01*
X22901Y-17530D01*
X23035Y-17206D01*
X23035Y-16856D01*
X23035Y-22630D01*
X19575Y-22630D01*
X19575Y-17265D01*
X19510Y-17109D01*
X19391Y-16989D01*
X19234Y-16925D01*
X19065Y-16924D01*
X19005Y-16950D01*
X18050Y-16950D01*
X15850Y-16950D01*
X15044Y-16950D01*
X14984Y-16925D01*
X14815Y-16924D01*
X14755Y-16950D01*
X14250Y-16950D01*
X13949Y-16950D01*
X13943Y-16935D01*
X13858Y-16849D01*
X13943Y-16765D01*
X14026Y-16565D01*
X14026Y-16348D01*
X13944Y-16149D01*
X13988Y-16105D01*
X14026Y-16014D01*
X14026Y-15914D01*
X14026Y-15324D01*
X13988Y-15232D01*
X13918Y-15161D01*
X13826Y-15123D01*
X13726Y-15123D01*
X13300Y-15123D01*
X13300Y-14900D01*
X13262Y-14808D01*
X13191Y-14738D01*
X13099Y-14700D01*
X13000Y-14699D01*
X12200Y-14699D01*
X12108Y-14737D01*
X12038Y-14808D01*
X12000Y-14900D01*
X11999Y-14999D01*
X11999Y-15799D01*
X12037Y-15891D01*
X12108Y-15961D01*
X12115Y-15964D01*
X12099Y-15981D01*
X12000Y-16220D01*
X11999Y-16478D01*
X12098Y-16717D01*
X12230Y-16850D01*
X12130Y-16950D01*
X10199Y-16950D01*
X10193Y-16935D01*
X10108Y-16849D01*
X10193Y-16765D01*
X10276Y-16565D01*
X10276Y-16348D01*
X10194Y-16149D01*
X10238Y-16105D01*
X10276Y-16014D01*
X10276Y-15914D01*
X10276Y-15324D01*
X10238Y-15232D01*
X10168Y-15161D01*
X10076Y-15123D01*
X9976Y-15123D01*
X9550Y-15123D01*
X9550Y-14900D01*
X9512Y-14808D01*
X9441Y-14738D01*
X9349Y-14700D01*
X9250Y-14699D01*
X8450Y-14699D01*
X8358Y-14737D01*
X8288Y-14808D01*
X8250Y-14900D01*
X8249Y-14999D01*
X8249Y-15799D01*
X8287Y-15891D01*
X8358Y-15961D01*
X8365Y-15964D01*
X8349Y-15981D01*
X8250Y-16220D01*
X8249Y-16478D01*
X8348Y-16717D01*
X8480Y-16850D01*
X8380Y-16950D01*
X6449Y-16950D01*
X6443Y-16935D01*
X6358Y-16849D01*
X6443Y-16765D01*
X6526Y-16565D01*
X6526Y-16348D01*
X6444Y-16149D01*
X6488Y-16105D01*
X6526Y-16014D01*
X6526Y-15914D01*
X6526Y-15324D01*
X6488Y-15232D01*
X6418Y-15161D01*
X6326Y-15123D01*
X6226Y-15123D01*
X5800Y-15123D01*
X5800Y-14900D01*
X5762Y-14808D01*
X5691Y-14738D01*
X5599Y-14700D01*
X5500Y-14699D01*
X4700Y-14699D01*
X4608Y-14737D01*
X4538Y-14808D01*
X4500Y-14900D01*
X4499Y-14999D01*
X4499Y-15799D01*
X4537Y-15891D01*
X4608Y-15961D01*
X4615Y-15964D01*
X4599Y-15981D01*
X4500Y-16220D01*
X4499Y-16478D01*
X4598Y-16717D01*
X4730Y-16850D01*
X4599Y-16981D01*
X4500Y-17220D01*
X4499Y-17478D01*
X4598Y-17717D01*
X4765Y-17884D01*
X4762Y-17891D01*
X5150Y-18279D01*
X5155Y-18273D01*
X5226Y-18344D01*
X5220Y-18350D01*
X5608Y-18737D01*
X5714Y-18697D01*
X5774Y-18536D01*
X5900Y-18581D01*
X6117Y-18570D01*
X6266Y-18508D01*
X6292Y-18413D01*
X5981Y-18101D01*
X5975Y-18107D01*
X5904Y-18036D01*
X5910Y-18031D01*
X5904Y-18025D01*
X5975Y-17954D01*
X5981Y-17960D01*
X5986Y-17954D01*
X6057Y-18025D01*
X6051Y-18031D01*
X6363Y-18342D01*
X6458Y-18316D01*
X6531Y-18111D01*
X6520Y-17895D01*
X6460Y-17750D01*
X8380Y-17750D01*
X8515Y-17884D01*
X8512Y-17891D01*
X8900Y-18279D01*
X8905Y-18273D01*
X8976Y-18344D01*
X8970Y-18350D01*
X9358Y-18737D01*
X9464Y-18697D01*
X9524Y-18536D01*
X9650Y-18581D01*
X9867Y-18570D01*
X10016Y-18508D01*
X10042Y-18413D01*
X9731Y-18101D01*
X9725Y-18107D01*
X9654Y-18036D01*
X9660Y-18031D01*
X9654Y-18025D01*
X9725Y-17954D01*
X9731Y-17960D01*
X9736Y-17954D01*
X9807Y-18025D01*
X9801Y-18031D01*
X10113Y-18342D01*
X10208Y-18316D01*
X10281Y-18111D01*
X10270Y-17895D01*
X10210Y-17750D01*
X12130Y-17750D01*
X12265Y-17884D01*
X12262Y-17891D01*
X12650Y-18279D01*
X12655Y-18273D01*
X12726Y-18344D01*
X12720Y-18350D01*
X13108Y-18737D01*
X13214Y-18697D01*
X13274Y-18536D01*
X13400Y-18581D01*
X13617Y-18570D01*
X13766Y-18508D01*
X13792Y-18413D01*
X13481Y-18101D01*
X13475Y-18107D01*
X13404Y-18036D01*
X13410Y-18031D01*
X13404Y-18025D01*
X13475Y-17954D01*
X13481Y-17960D01*
X13486Y-17954D01*
X13557Y-18025D01*
X13551Y-18031D01*
X13863Y-18342D01*
X13958Y-18316D01*
X14031Y-18111D01*
X14020Y-17895D01*
X13960Y-17750D01*
X14250Y-17750D01*
X14755Y-17750D01*
X14815Y-17774D01*
X14984Y-17775D01*
X15044Y-17750D01*
X15850Y-17750D01*
X18050Y-17750D01*
X19005Y-17750D01*
X19065Y-17774D01*
X19234Y-17775D01*
X19390Y-17710D01*
X19510Y-17591D01*
X19574Y-17434D01*
X19575Y-17265D01*
X19575Y-22630D01*
X18419Y-22630D01*
X18528Y-22520D01*
X18641Y-22248D01*
X18642Y-21953D01*
X18529Y-21680D01*
X18320Y-21471D01*
X18048Y-21358D01*
X17753Y-21357D01*
X17480Y-21470D01*
X17271Y-21679D01*
X17158Y-21951D01*
X17157Y-22246D01*
X17270Y-22519D01*
X17380Y-22630D01*
X16641Y-22630D01*
X16642Y-22542D01*
X16642Y-21657D01*
X16641Y-21558D01*
X16603Y-21466D01*
X16533Y-21395D01*
X16441Y-21357D01*
X16012Y-21358D01*
X15950Y-21420D01*
X15950Y-22050D01*
X16579Y-22050D01*
X16642Y-21987D01*
X16642Y-21657D01*
X16642Y-22542D01*
X16642Y-22212D01*
X16579Y-22150D01*
X15950Y-22150D01*
X15950Y-22157D01*
X15850Y-22157D01*
X15850Y-22150D01*
X15850Y-22050D01*
X15850Y-21420D01*
X15787Y-21358D01*
X15358Y-21357D01*
X15266Y-21395D01*
X15196Y-21466D01*
X15158Y-21558D01*
X15157Y-21657D01*
X15158Y-21987D01*
X15220Y-22050D01*
X15850Y-22050D01*
X15850Y-22150D01*
X15220Y-22150D01*
X15158Y-22212D01*
X15157Y-22542D01*
X15158Y-22630D01*
X14419Y-22630D01*
X14528Y-22520D01*
X14641Y-22248D01*
X14642Y-21953D01*
X14529Y-21680D01*
X14320Y-21471D01*
X14048Y-21358D01*
X13753Y-21357D01*
X13480Y-21470D01*
X13271Y-21679D01*
X13158Y-21951D01*
X13157Y-22246D01*
X13270Y-22519D01*
X13380Y-22630D01*
X13037Y-22630D01*
X13037Y-18808D01*
X12650Y-18420D01*
X12579Y-18491D01*
X12579Y-18350D01*
X12191Y-17962D01*
X12085Y-18002D01*
X11995Y-18244D01*
X12005Y-18502D01*
X12085Y-18697D01*
X12191Y-18737D01*
X12579Y-18350D01*
X12579Y-18491D01*
X12262Y-18808D01*
X12302Y-18914D01*
X12544Y-19004D01*
X12802Y-18994D01*
X12997Y-18914D01*
X13037Y-18808D01*
X13037Y-22630D01*
X12941Y-22630D01*
X12941Y-25218D01*
X12642Y-25218D01*
X12642Y-22542D01*
X12642Y-21657D01*
X12641Y-21558D01*
X12603Y-21466D01*
X12533Y-21395D01*
X12441Y-21357D01*
X12012Y-21358D01*
X11950Y-21420D01*
X11950Y-22050D01*
X12579Y-22050D01*
X12642Y-21987D01*
X12642Y-21657D01*
X12642Y-22542D01*
X12642Y-22212D01*
X12579Y-22150D01*
X11950Y-22150D01*
X11950Y-22779D01*
X12012Y-22842D01*
X12441Y-22842D01*
X12533Y-22804D01*
X12603Y-22733D01*
X12641Y-22641D01*
X12642Y-22542D01*
X12642Y-25218D01*
X11850Y-25218D01*
X11850Y-22779D01*
X11850Y-22150D01*
X11850Y-22050D01*
X11850Y-21420D01*
X11787Y-21358D01*
X11358Y-21357D01*
X11266Y-21395D01*
X11196Y-21466D01*
X11158Y-21558D01*
X11157Y-21657D01*
X11158Y-21987D01*
X11220Y-22050D01*
X11850Y-22050D01*
X11850Y-22150D01*
X11220Y-22150D01*
X11158Y-22212D01*
X11157Y-22542D01*
X11158Y-22641D01*
X11196Y-22733D01*
X11266Y-22804D01*
X11358Y-22842D01*
X11787Y-22842D01*
X11850Y-22779D01*
X11850Y-25218D01*
X10642Y-25218D01*
X10642Y-21953D01*
X10529Y-21680D01*
X10320Y-21471D01*
X10048Y-21358D01*
X9753Y-21357D01*
X9480Y-21470D01*
X9287Y-21662D01*
X9287Y-18808D01*
X8900Y-18420D01*
X8829Y-18491D01*
X8829Y-18350D01*
X8441Y-17962D01*
X8335Y-18002D01*
X8245Y-18244D01*
X8255Y-18502D01*
X8335Y-18697D01*
X8441Y-18737D01*
X8829Y-18350D01*
X8829Y-18491D01*
X8512Y-18808D01*
X8552Y-18914D01*
X8794Y-19004D01*
X9052Y-18994D01*
X9247Y-18914D01*
X9287Y-18808D01*
X9287Y-21662D01*
X9271Y-21679D01*
X9158Y-21951D01*
X9157Y-22246D01*
X9270Y-22519D01*
X9479Y-22728D01*
X9751Y-22841D01*
X10046Y-22842D01*
X10319Y-22729D01*
X10528Y-22520D01*
X10641Y-22248D01*
X10642Y-21953D01*
X10642Y-25218D01*
X8642Y-25218D01*
X8642Y-22542D01*
X8642Y-21657D01*
X8641Y-21558D01*
X8603Y-21466D01*
X8533Y-21395D01*
X8441Y-21357D01*
X8012Y-21358D01*
X7950Y-21420D01*
X7950Y-22050D01*
X8579Y-22050D01*
X8642Y-21987D01*
X8642Y-21657D01*
X8642Y-22542D01*
X8642Y-22212D01*
X8579Y-22150D01*
X7950Y-22150D01*
X7950Y-22779D01*
X8012Y-22842D01*
X8441Y-22842D01*
X8533Y-22804D01*
X8603Y-22733D01*
X8641Y-22641D01*
X8642Y-22542D01*
X8642Y-25218D01*
X7850Y-25218D01*
X7850Y-22779D01*
X7850Y-22150D01*
X7850Y-22050D01*
X7850Y-21420D01*
X7787Y-21358D01*
X7358Y-21357D01*
X7266Y-21395D01*
X7196Y-21466D01*
X7158Y-21558D01*
X7157Y-21657D01*
X7158Y-21987D01*
X7220Y-22050D01*
X7850Y-22050D01*
X7850Y-22150D01*
X7220Y-22150D01*
X7158Y-22212D01*
X7157Y-22542D01*
X7158Y-22641D01*
X7196Y-22733D01*
X7266Y-22804D01*
X7358Y-22842D01*
X7787Y-22842D01*
X7850Y-22779D01*
X7850Y-25218D01*
X6245Y-25218D01*
X6245Y-22815D01*
X6007Y-22239D01*
X5567Y-21799D01*
X5537Y-21786D01*
X5537Y-18808D01*
X5150Y-18420D01*
X5079Y-18491D01*
X5079Y-18350D01*
X4691Y-17962D01*
X4585Y-18002D01*
X4495Y-18244D01*
X4505Y-18502D01*
X4585Y-18697D01*
X4691Y-18737D01*
X5079Y-18350D01*
X5079Y-18491D01*
X4762Y-18808D01*
X4802Y-18914D01*
X5044Y-19004D01*
X5302Y-18994D01*
X5497Y-18914D01*
X5537Y-18808D01*
X5537Y-21786D01*
X4992Y-21560D01*
X4369Y-21559D01*
X3793Y-21797D01*
X3353Y-22237D01*
X3114Y-22812D01*
X3113Y-23435D01*
X3351Y-24011D01*
X3791Y-24451D01*
X4366Y-24690D01*
X4989Y-24691D01*
X5565Y-24453D01*
X6005Y-24013D01*
X6244Y-23438D01*
X6245Y-22815D01*
X6245Y-25218D01*
X4702Y-25218D01*
X3882Y-25054D01*
X3201Y-24600D01*
X2752Y-23926D01*
X2587Y-23098D01*
X2587Y-12400D01*
X18050Y-12400D01*
X18050Y-12492D01*
X17296Y-13246D01*
X17188Y-13408D01*
X17149Y-13600D01*
X17150Y-13600D01*
X17150Y-14599D01*
X17149Y-14600D01*
X17188Y-14791D01*
X17296Y-14953D01*
X17596Y-15253D01*
X17596Y-15253D01*
X17758Y-15361D01*
X17949Y-15400D01*
X17949Y-15399D01*
X17950Y-15400D01*
X18100Y-15400D01*
X18291Y-15361D01*
X18453Y-15253D01*
X18561Y-15091D01*
X18600Y-14900D01*
X18561Y-14708D01*
X18453Y-14546D01*
X18291Y-14438D01*
X18171Y-14414D01*
X18150Y-14392D01*
X18150Y-14301D01*
X18158Y-14310D01*
X18315Y-14374D01*
X18484Y-14375D01*
X18640Y-14310D01*
X18760Y-14191D01*
X18824Y-14034D01*
X18824Y-14020D01*
X19050Y-13794D01*
X19050Y-15300D01*
X19076Y-15433D01*
X19152Y-15547D01*
X19680Y-16075D01*
X19681Y-16081D01*
X19812Y-16277D01*
X20008Y-16408D01*
X20239Y-16454D01*
X20560Y-16454D01*
X20791Y-16408D01*
X20987Y-16277D01*
X21118Y-16081D01*
X21164Y-15850D01*
X21118Y-15618D01*
X20987Y-15422D01*
X20879Y-15350D01*
X20987Y-15277D01*
X21118Y-15081D01*
X21164Y-14850D01*
X21118Y-14618D01*
X20987Y-14422D01*
X20879Y-14350D01*
X20987Y-14277D01*
X21118Y-14081D01*
X21164Y-13850D01*
X21118Y-13618D01*
X20987Y-13422D01*
X20879Y-13350D01*
X20987Y-13277D01*
X21118Y-13081D01*
X21164Y-12850D01*
X21118Y-12618D01*
X20987Y-12422D01*
X20879Y-12350D01*
X20987Y-12277D01*
X21118Y-12081D01*
X21164Y-11850D01*
X21118Y-11618D01*
X20987Y-11422D01*
X20879Y-11350D01*
X20987Y-11277D01*
X21118Y-11081D01*
X21164Y-10850D01*
X21118Y-10618D01*
X20987Y-10422D01*
X20791Y-10291D01*
X20560Y-10245D01*
X20239Y-10245D01*
X20008Y-10291D01*
X19950Y-10330D01*
X19950Y-9369D01*
X20008Y-9408D01*
X20239Y-9454D01*
X20560Y-9454D01*
X20791Y-9408D01*
X20987Y-9277D01*
X21118Y-9081D01*
X21164Y-8850D01*
X21118Y-8618D01*
X20987Y-8422D01*
X20875Y-8347D01*
X21008Y-8242D01*
X21123Y-8035D01*
X21132Y-7993D01*
X21132Y-7706D01*
X21123Y-7664D01*
X21008Y-7457D01*
X20872Y-7350D01*
X21008Y-7242D01*
X21123Y-7035D01*
X21132Y-6993D01*
X21085Y-6900D01*
X20450Y-6900D01*
X20450Y-7245D01*
X20450Y-7454D01*
X20450Y-7800D01*
X21085Y-7800D01*
X21132Y-7706D01*
X21132Y-7993D01*
X21085Y-7900D01*
X20450Y-7900D01*
X20450Y-7907D01*
X20350Y-7907D01*
X20350Y-7900D01*
X20342Y-7900D01*
X20342Y-7800D01*
X20350Y-7800D01*
X20350Y-7454D01*
X20350Y-7245D01*
X20350Y-6900D01*
X20342Y-6900D01*
X20342Y-6800D01*
X20350Y-6800D01*
X20350Y-6792D01*
X20450Y-6792D01*
X20450Y-6800D01*
X21085Y-6800D01*
X21132Y-6706D01*
X21123Y-6664D01*
X21008Y-6457D01*
X20875Y-6352D01*
X20879Y-6350D01*
X21149Y-6350D01*
X21150Y-6350D01*
X21150Y-6350D01*
X21341Y-6311D01*
X21503Y-6203D01*
X21899Y-5807D01*
X22896Y-6803D01*
X22896Y-6803D01*
X23058Y-6911D01*
X23250Y-6950D01*
X36642Y-6950D01*
X38096Y-8403D01*
X38096Y-8403D01*
X38165Y-8450D01*
X38150Y-8450D01*
X38022Y-8475D01*
X37996Y-8480D01*
X37867Y-8567D01*
X36826Y-9607D01*
X36826Y-8872D01*
X36818Y-8585D01*
X36723Y-8358D01*
X36610Y-8309D01*
X36540Y-8380D01*
X36540Y-8239D01*
X36491Y-8126D01*
X36222Y-8023D01*
X35935Y-8031D01*
X35708Y-8126D01*
X35659Y-8239D01*
X36100Y-8679D01*
X36540Y-8239D01*
X36540Y-8380D01*
X36170Y-8750D01*
X36610Y-9190D01*
X36723Y-9141D01*
X36826Y-8872D01*
X36826Y-9607D01*
X36540Y-9894D01*
X36540Y-9260D01*
X36100Y-8820D01*
X36029Y-8891D01*
X36029Y-8750D01*
X35589Y-8309D01*
X35476Y-8358D01*
X35373Y-8627D01*
X35381Y-8914D01*
X35476Y-9141D01*
X35589Y-9190D01*
X36029Y-8750D01*
X36029Y-8891D01*
X35659Y-9260D01*
X35708Y-9373D01*
X35977Y-9476D01*
X36264Y-9468D01*
X36491Y-9373D01*
X36540Y-9260D01*
X36540Y-9894D01*
X35871Y-10562D01*
X35691Y-10637D01*
X35487Y-10840D01*
X35377Y-11105D01*
X35377Y-11393D01*
X35487Y-11658D01*
X35690Y-11862D01*
X35901Y-11950D01*
X34665Y-11950D01*
X34115Y-11400D01*
X34799Y-11400D01*
X34891Y-11362D01*
X34961Y-11291D01*
X34999Y-11199D01*
X35000Y-11100D01*
X35000Y-10300D01*
X34962Y-10208D01*
X34891Y-10138D01*
X34851Y-10121D01*
X34914Y-10097D01*
X35004Y-9855D01*
X34994Y-9597D01*
X34914Y-9402D01*
X34808Y-9362D01*
X34737Y-9433D01*
X34737Y-9291D01*
X34697Y-9185D01*
X34455Y-9095D01*
X34197Y-9105D01*
X34002Y-9185D01*
X33962Y-9291D01*
X34350Y-9679D01*
X34737Y-9291D01*
X34737Y-9433D01*
X34420Y-9750D01*
X34426Y-9755D01*
X34355Y-9826D01*
X34350Y-9820D01*
X34344Y-9826D01*
X34273Y-9755D01*
X34279Y-9750D01*
X33891Y-9362D01*
X33785Y-9402D01*
X33695Y-9644D01*
X33705Y-9902D01*
X33785Y-10097D01*
X33848Y-10121D01*
X33808Y-10137D01*
X33738Y-10208D01*
X33700Y-10300D01*
X33699Y-10399D01*
X33699Y-10984D01*
X33682Y-10967D01*
X33553Y-10880D01*
X33527Y-10875D01*
X33400Y-10850D01*
X31326Y-10850D01*
X31326Y-8872D01*
X31318Y-8585D01*
X31223Y-8358D01*
X31110Y-8309D01*
X31040Y-8380D01*
X31040Y-8239D01*
X30991Y-8126D01*
X30722Y-8023D01*
X30435Y-8031D01*
X30208Y-8126D01*
X30159Y-8239D01*
X30600Y-8679D01*
X31040Y-8239D01*
X31040Y-8380D01*
X30670Y-8750D01*
X31110Y-9190D01*
X31223Y-9141D01*
X31326Y-8872D01*
X31326Y-10850D01*
X31216Y-10850D01*
X31212Y-10841D01*
X31040Y-10668D01*
X31040Y-9260D01*
X30600Y-8820D01*
X30529Y-8891D01*
X30529Y-8750D01*
X30089Y-8309D01*
X29976Y-8358D01*
X29873Y-8627D01*
X29881Y-8914D01*
X29976Y-9141D01*
X30089Y-9190D01*
X30529Y-8750D01*
X30529Y-8891D01*
X30159Y-9260D01*
X30208Y-9373D01*
X30477Y-9476D01*
X30764Y-9468D01*
X30991Y-9373D01*
X31040Y-9260D01*
X31040Y-10668D01*
X31009Y-10637D01*
X30744Y-10527D01*
X30456Y-10527D01*
X30191Y-10637D01*
X29987Y-10840D01*
X29877Y-11105D01*
X29877Y-11393D01*
X29987Y-11658D01*
X30190Y-11862D01*
X30455Y-11972D01*
X30743Y-11972D01*
X31008Y-11862D01*
X31212Y-11659D01*
X31216Y-11650D01*
X31372Y-11650D01*
X31325Y-11765D01*
X31324Y-11934D01*
X31389Y-12090D01*
X31508Y-12210D01*
X31665Y-12274D01*
X31834Y-12275D01*
X31990Y-12210D01*
X32051Y-12150D01*
X32452Y-12150D01*
X32425Y-12215D01*
X32424Y-12384D01*
X32489Y-12540D01*
X32608Y-12660D01*
X32669Y-12685D01*
X33617Y-13632D01*
X33617Y-13632D01*
X33703Y-13690D01*
X33746Y-13719D01*
X33746Y-13719D01*
X33900Y-13750D01*
X37300Y-13750D01*
X37300Y-13749D01*
X37427Y-13724D01*
X37453Y-13719D01*
X37453Y-13719D01*
X37582Y-13632D01*
X38887Y-12327D01*
X38920Y-12350D01*
X38812Y-12422D01*
X38681Y-12618D01*
X38635Y-12850D01*
X38681Y-13081D01*
X38812Y-13277D01*
X38920Y-13350D01*
X38812Y-13422D01*
X38681Y-13618D01*
X38635Y-13850D01*
X38681Y-14081D01*
X38812Y-14277D01*
X38920Y-14350D01*
X38812Y-14422D01*
X38681Y-14618D01*
X38635Y-14850D01*
X38681Y-15081D01*
X38812Y-15277D01*
X38920Y-15350D01*
X38812Y-15422D01*
X38681Y-15618D01*
X38635Y-15850D01*
X38681Y-16081D01*
X38812Y-16277D01*
X39008Y-16408D01*
X39239Y-16454D01*
X39560Y-16454D01*
X39791Y-16408D01*
X39987Y-16277D01*
X40118Y-16081D01*
X40164Y-15850D01*
X40136Y-15708D01*
X44897Y-10947D01*
X44897Y-10947D01*
X44897Y-10947D01*
X44949Y-10868D01*
X44949Y-10959D01*
X44987Y-11051D01*
X45058Y-11121D01*
X45150Y-11159D01*
X45177Y-11159D01*
X45078Y-11239D01*
X44973Y-11431D01*
X44966Y-11463D01*
X45015Y-11550D01*
X45600Y-11550D01*
X45600Y-11542D01*
X45700Y-11542D01*
X45700Y-11550D01*
X46284Y-11550D01*
X46333Y-11463D01*
X46326Y-11431D01*
X46221Y-11239D01*
X46122Y-11160D01*
X46149Y-11160D01*
X46241Y-11122D01*
X46311Y-11051D01*
X46349Y-10959D01*
X46350Y-10860D01*
X46350Y-10240D01*
X46312Y-10148D01*
X46241Y-10078D01*
X46149Y-10040D01*
X46050Y-10039D01*
X45150Y-10039D01*
X45058Y-10077D01*
X45000Y-10136D01*
X45000Y-8600D01*
X45000Y-6478D01*
X45098Y-6717D01*
X45281Y-6900D01*
X45520Y-6999D01*
X45778Y-7000D01*
X45797Y-6992D01*
X45800Y-6994D01*
X45800Y-7568D01*
X45796Y-7569D01*
X45620Y-7745D01*
X45525Y-7975D01*
X45524Y-8223D01*
X45619Y-8453D01*
X45795Y-8629D01*
X46025Y-8724D01*
X46273Y-8725D01*
X46503Y-8630D01*
X46679Y-8454D01*
X46774Y-8224D01*
X46775Y-7976D01*
X46680Y-7746D01*
X46504Y-7570D01*
X46500Y-7568D01*
X46500Y-6850D01*
X46473Y-6716D01*
X46473Y-6716D01*
X46397Y-6602D01*
X46292Y-6497D01*
X46299Y-6479D01*
X46300Y-6221D01*
X46201Y-5982D01*
X46018Y-5799D01*
X45900Y-5750D01*
X52900Y-5750D01*
X53033Y-5723D01*
X53033Y-5723D01*
X53147Y-5647D01*
X53219Y-5575D01*
X53234Y-5575D01*
X53390Y-5510D01*
X53510Y-5391D01*
X53574Y-5234D01*
X53575Y-5065D01*
X53510Y-4909D01*
X53391Y-4789D01*
X53234Y-4725D01*
X53065Y-4724D01*
X53023Y-4742D01*
X53010Y-4709D01*
X52891Y-4589D01*
X52734Y-4525D01*
X52565Y-4524D01*
X52409Y-4589D01*
X52399Y-4600D01*
X52287Y-4600D01*
X52287Y-4308D01*
X51900Y-3920D01*
X51829Y-3991D01*
X51829Y-3850D01*
X51441Y-3462D01*
X51335Y-3502D01*
X51245Y-3744D01*
X51255Y-4002D01*
X51335Y-4197D01*
X51441Y-4237D01*
X51829Y-3850D01*
X51829Y-3991D01*
X51512Y-4308D01*
X51552Y-4414D01*
X51794Y-4504D01*
X52052Y-4494D01*
X52247Y-4414D01*
X52287Y-4308D01*
X52287Y-4600D01*
X49531Y-4600D01*
X49531Y-3611D01*
X49520Y-3395D01*
X49458Y-3246D01*
X49363Y-3219D01*
X49051Y-3531D01*
X49363Y-3842D01*
X49458Y-3816D01*
X49531Y-3611D01*
X49531Y-4600D01*
X48537Y-4600D01*
X48537Y-4308D01*
X48150Y-3920D01*
X48079Y-3991D01*
X48079Y-3850D01*
X47691Y-3462D01*
X47585Y-3502D01*
X47495Y-3744D01*
X47505Y-4002D01*
X47585Y-4197D01*
X47691Y-4237D01*
X48079Y-3850D01*
X48079Y-3991D01*
X47762Y-4308D01*
X47802Y-4414D01*
X48044Y-4504D01*
X48302Y-4494D01*
X48497Y-4414D01*
X48537Y-4308D01*
X48537Y-4600D01*
X45781Y-4600D01*
X45450Y-4600D01*
X45449Y-4600D01*
X45316Y-4626D01*
X45202Y-4702D01*
X45202Y-4702D01*
X45202Y-4702D01*
X44787Y-5117D01*
X44787Y-4308D01*
X44400Y-3920D01*
X44012Y-4308D01*
X44052Y-4414D01*
X44294Y-4504D01*
X44552Y-4494D01*
X44747Y-4414D01*
X44787Y-4308D01*
X44787Y-5117D01*
X44052Y-5852D01*
X43976Y-5966D01*
X43950Y-6100D01*
X43950Y-6750D01*
X43950Y-9805D01*
X40121Y-13633D01*
X40118Y-13618D01*
X39987Y-13422D01*
X39879Y-13350D01*
X39987Y-13277D01*
X40118Y-13081D01*
X40164Y-12850D01*
X40118Y-12618D01*
X39987Y-12422D01*
X39879Y-12350D01*
X39987Y-12277D01*
X40118Y-12081D01*
X40164Y-11850D01*
X40118Y-11618D01*
X39987Y-11422D01*
X39879Y-11350D01*
X39987Y-11277D01*
X40118Y-11081D01*
X40164Y-10850D01*
X40118Y-10618D01*
X39987Y-10422D01*
X39879Y-10350D01*
X39987Y-10277D01*
X40118Y-10081D01*
X40164Y-9850D01*
X40118Y-9618D01*
X39987Y-9422D01*
X39879Y-9350D01*
X39987Y-9277D01*
X40118Y-9081D01*
X40164Y-8850D01*
X40118Y-8618D01*
X40072Y-8550D01*
X40499Y-8550D01*
X40500Y-8550D01*
X40500Y-8550D01*
X40691Y-8511D01*
X40853Y-8403D01*
X42253Y-7003D01*
X42253Y-7003D01*
X42253Y-7003D01*
X42321Y-6901D01*
X42348Y-6967D01*
X42531Y-7150D01*
X42770Y-7249D01*
X43028Y-7250D01*
X43267Y-7151D01*
X43450Y-6968D01*
X43549Y-6729D01*
X43550Y-6471D01*
X43451Y-6232D01*
X43268Y-6049D01*
X43029Y-5950D01*
X42771Y-5949D01*
X42532Y-6048D01*
X42400Y-6180D01*
X42400Y-5057D01*
X43765Y-3691D01*
X43745Y-3744D01*
X43755Y-4002D01*
X43835Y-4197D01*
X43941Y-4237D01*
X44329Y-3850D01*
X44323Y-3844D01*
X44394Y-3773D01*
X44400Y-3779D01*
X44405Y-3773D01*
X44476Y-3844D01*
X44470Y-3850D01*
X44858Y-4237D01*
X44964Y-4197D01*
X45024Y-4036D01*
X45150Y-4081D01*
X45367Y-4070D01*
X45516Y-4008D01*
X45542Y-3913D01*
X45231Y-3601D01*
X45225Y-3607D01*
X45154Y-3536D01*
X45160Y-3531D01*
X45154Y-3525D01*
X45225Y-3454D01*
X45231Y-3460D01*
X45236Y-3454D01*
X45307Y-3525D01*
X45301Y-3531D01*
X45613Y-3842D01*
X45708Y-3816D01*
X45781Y-3611D01*
X45770Y-3395D01*
X45708Y-3246D01*
X45613Y-3219D01*
X45658Y-3174D01*
X45628Y-3143D01*
X47568Y-3143D01*
X47598Y-3217D01*
X47765Y-3384D01*
X47762Y-3391D01*
X48150Y-3779D01*
X48155Y-3773D01*
X48226Y-3844D01*
X48220Y-3850D01*
X48608Y-4237D01*
X48714Y-4197D01*
X48774Y-4036D01*
X48900Y-4081D01*
X49117Y-4070D01*
X49266Y-4008D01*
X49292Y-3913D01*
X48981Y-3601D01*
X48975Y-3607D01*
X48904Y-3536D01*
X48910Y-3531D01*
X48904Y-3525D01*
X48975Y-3454D01*
X48981Y-3460D01*
X49197Y-3244D01*
X49289Y-3206D01*
X49443Y-3052D01*
X49526Y-2852D01*
X49526Y-2635D01*
X49443Y-2435D01*
X49358Y-2349D01*
X49443Y-2265D01*
X49526Y-2065D01*
X49526Y-1848D01*
X49444Y-1649D01*
X49488Y-1605D01*
X49526Y-1514D01*
X49526Y-1414D01*
X49526Y-824D01*
X49488Y-732D01*
X49418Y-661D01*
X49326Y-623D01*
X49226Y-623D01*
X48800Y-623D01*
X48800Y-400D01*
X48762Y-308D01*
X48691Y-238D01*
X48599Y-200D01*
X48537Y-199D01*
X48537Y1691D01*
X48150Y2079D01*
X48079Y2008D01*
X48079Y2150D01*
X47691Y2537D01*
X47585Y2497D01*
X47495Y2255D01*
X47505Y1997D01*
X47585Y1802D01*
X47691Y1762D01*
X48079Y2150D01*
X48079Y2008D01*
X47762Y1691D01*
X47802Y1585D01*
X48044Y1495D01*
X48302Y1505D01*
X48497Y1585D01*
X48537Y1691D01*
X48537Y-199D01*
X48500Y-199D01*
X47700Y-199D01*
X47608Y-237D01*
X47538Y-308D01*
X47500Y-400D01*
X47499Y-499D01*
X47499Y-768D01*
X45819Y-768D01*
X45819Y6149D01*
X45512Y6892D01*
X44945Y7460D01*
X44203Y7768D01*
X43400Y7769D01*
X42657Y7462D01*
X42089Y6895D01*
X41781Y6153D01*
X41780Y5350D01*
X42087Y4607D01*
X42654Y4039D01*
X43396Y3731D01*
X44199Y3730D01*
X44942Y4037D01*
X45510Y4604D01*
X45818Y5346D01*
X45819Y6149D01*
X45819Y-768D01*
X45753Y-768D01*
X45738Y-732D01*
X45668Y-661D01*
X45576Y-623D01*
X45476Y-623D01*
X45050Y-623D01*
X45050Y-400D01*
X45012Y-308D01*
X44941Y-238D01*
X44849Y-200D01*
X44750Y-199D01*
X43950Y-199D01*
X43858Y-237D01*
X43788Y-308D01*
X43750Y-400D01*
X43749Y-499D01*
X43749Y-1299D01*
X43787Y-1391D01*
X43858Y-1461D01*
X43865Y-1464D01*
X43849Y-1481D01*
X43841Y-1500D01*
X43744Y-1500D01*
X43700Y-1455D01*
X43700Y-1100D01*
X43700Y1000D01*
X43673Y1133D01*
X43597Y1247D01*
X40097Y4747D01*
X40054Y4776D01*
X40054Y6544D01*
X40044Y6802D01*
X39964Y6997D01*
X39858Y7037D01*
X39787Y6966D01*
X39470Y6650D01*
X39858Y6262D01*
X39964Y6302D01*
X40054Y6544D01*
X40054Y4776D01*
X39983Y4823D01*
X39850Y4850D01*
X39787Y4850D01*
X38950Y4850D01*
X38950Y6164D01*
X38967Y6146D01*
X39012Y6191D01*
X39052Y6085D01*
X39294Y5995D01*
X39552Y6005D01*
X39747Y6085D01*
X39787Y6191D01*
X39400Y6579D01*
X39394Y6573D01*
X39323Y6644D01*
X39329Y6650D01*
X39323Y6655D01*
X39394Y6726D01*
X39400Y6720D01*
X39787Y7108D01*
X39747Y7214D01*
X39505Y7304D01*
X39247Y7294D01*
X39052Y7214D01*
X39012Y7108D01*
X38967Y7153D01*
X38950Y7135D01*
X38950Y10462D01*
X55833Y10462D01*
X56661Y10297D01*
X57335Y9848D01*
X57789Y9167D01*
X57953Y8347D01*
X57953Y-23103D01*
X57953Y-23103D01*
G37*
G54D35*
X57953Y-23103D02*
X57789Y-23922D01*
X57750Y-23981D01*
X57750Y-2100D01*
X57750Y2900D01*
X57711Y3091D01*
X57603Y3253D01*
X57603Y3253D01*
X57426Y3430D01*
X57426Y8680D01*
X57188Y9256D01*
X56748Y9696D01*
X56173Y9935D01*
X55550Y9936D01*
X54975Y9698D01*
X54534Y9258D01*
X54295Y8683D01*
X54294Y8060D01*
X54532Y7484D01*
X54972Y7044D01*
X55547Y6805D01*
X56170Y6804D01*
X56746Y7042D01*
X57187Y7482D01*
X57425Y8057D01*
X57426Y8680D01*
X57426Y3430D01*
X57247Y3609D01*
X57085Y3718D01*
X56947Y3745D01*
X57026Y3934D01*
X57026Y4151D01*
X56944Y4350D01*
X56988Y4394D01*
X57026Y4485D01*
X57026Y4585D01*
X57026Y5175D01*
X56988Y5267D01*
X56918Y5338D01*
X56826Y5376D01*
X56726Y5376D01*
X56300Y5376D01*
X56300Y5599D01*
X56262Y5691D01*
X56191Y5761D01*
X56099Y5799D01*
X56000Y5800D01*
X55200Y5800D01*
X55108Y5762D01*
X55038Y5691D01*
X55000Y5599D01*
X54999Y5500D01*
X54999Y4700D01*
X55037Y4608D01*
X55108Y4538D01*
X55115Y4535D01*
X55099Y4518D01*
X55000Y4279D01*
X54999Y4021D01*
X55098Y3782D01*
X55124Y3756D01*
X53202Y3756D01*
X53276Y3934D01*
X53276Y4151D01*
X53194Y4350D01*
X53238Y4394D01*
X53276Y4485D01*
X53276Y4585D01*
X53276Y5175D01*
X53238Y5267D01*
X53168Y5338D01*
X53076Y5376D01*
X52976Y5376D01*
X52550Y5376D01*
X52550Y5599D01*
X52512Y5691D01*
X52441Y5761D01*
X52349Y5799D01*
X52250Y5800D01*
X51450Y5800D01*
X51358Y5762D01*
X51288Y5691D01*
X51250Y5599D01*
X51249Y5500D01*
X51249Y4700D01*
X51287Y4608D01*
X51358Y4538D01*
X51365Y4535D01*
X51349Y4518D01*
X51250Y4279D01*
X51249Y4021D01*
X51348Y3782D01*
X51374Y3756D01*
X49452Y3756D01*
X49526Y3934D01*
X49526Y4151D01*
X49444Y4350D01*
X49488Y4394D01*
X49526Y4485D01*
X49526Y4585D01*
X49526Y5175D01*
X49488Y5267D01*
X49418Y5338D01*
X49326Y5376D01*
X49226Y5376D01*
X48800Y5376D01*
X48800Y5599D01*
X48762Y5691D01*
X48691Y5761D01*
X48599Y5799D01*
X48500Y5800D01*
X47700Y5800D01*
X47608Y5762D01*
X47538Y5691D01*
X47500Y5599D01*
X47499Y5500D01*
X47499Y4700D01*
X47537Y4608D01*
X47608Y4538D01*
X47615Y4535D01*
X47599Y4518D01*
X47500Y4279D01*
X47499Y4021D01*
X47598Y3782D01*
X47730Y3649D01*
X47599Y3518D01*
X47500Y3279D01*
X47499Y3021D01*
X47598Y2782D01*
X47765Y2615D01*
X47762Y2608D01*
X48150Y2220D01*
X48155Y2226D01*
X48226Y2155D01*
X48220Y2150D01*
X48608Y1762D01*
X48714Y1802D01*
X48774Y1963D01*
X48900Y1918D01*
X49117Y1929D01*
X49266Y1991D01*
X49292Y2086D01*
X48981Y2398D01*
X48975Y2392D01*
X48904Y2463D01*
X48910Y2468D01*
X48904Y2474D01*
X48975Y2545D01*
X48981Y2539D01*
X48986Y2545D01*
X49057Y2474D01*
X49051Y2468D01*
X49363Y2157D01*
X49458Y2183D01*
X49531Y2388D01*
X49520Y2604D01*
X49458Y2753D01*
X49449Y2756D01*
X51374Y2756D01*
X51515Y2615D01*
X51512Y2608D01*
X51900Y2220D01*
X51905Y2226D01*
X51976Y2155D01*
X51970Y2150D01*
X52358Y1762D01*
X52464Y1802D01*
X52524Y1963D01*
X52650Y1918D01*
X52867Y1929D01*
X53016Y1991D01*
X53042Y2086D01*
X52731Y2398D01*
X52725Y2392D01*
X52654Y2463D01*
X52660Y2468D01*
X52654Y2474D01*
X52725Y2545D01*
X52731Y2539D01*
X52736Y2545D01*
X52807Y2474D01*
X52801Y2468D01*
X53113Y2157D01*
X53208Y2183D01*
X53281Y2388D01*
X53270Y2604D01*
X53208Y2753D01*
X53199Y2756D01*
X55124Y2756D01*
X55265Y2615D01*
X55262Y2608D01*
X55650Y2220D01*
X55655Y2226D01*
X55726Y2155D01*
X55720Y2150D01*
X56108Y1762D01*
X56214Y1802D01*
X56274Y1963D01*
X56400Y1918D01*
X56617Y1929D01*
X56750Y1984D01*
X56750Y-623D01*
X56726Y-623D01*
X56300Y-623D01*
X56300Y-400D01*
X56262Y-308D01*
X56191Y-238D01*
X56099Y-200D01*
X56037Y-199D01*
X56037Y1691D01*
X55650Y2079D01*
X55579Y2008D01*
X55579Y2150D01*
X55191Y2537D01*
X55085Y2497D01*
X54995Y2255D01*
X55005Y1997D01*
X55085Y1802D01*
X55191Y1762D01*
X55579Y2150D01*
X55579Y2008D01*
X55262Y1691D01*
X55302Y1585D01*
X55544Y1495D01*
X55802Y1505D01*
X55997Y1585D01*
X56037Y1691D01*
X56037Y-199D01*
X56000Y-199D01*
X55200Y-199D01*
X55108Y-237D01*
X55038Y-308D01*
X55000Y-400D01*
X54999Y-499D01*
X54999Y-768D01*
X53253Y-768D01*
X53238Y-732D01*
X53168Y-661D01*
X53076Y-623D01*
X52976Y-623D01*
X52550Y-623D01*
X52550Y-400D01*
X52512Y-308D01*
X52441Y-238D01*
X52349Y-200D01*
X52287Y-199D01*
X52287Y1691D01*
X51900Y2079D01*
X51829Y2008D01*
X51829Y2150D01*
X51441Y2537D01*
X51335Y2497D01*
X51245Y2255D01*
X51255Y1997D01*
X51335Y1802D01*
X51441Y1762D01*
X51829Y2150D01*
X51829Y2008D01*
X51512Y1691D01*
X51552Y1585D01*
X51794Y1495D01*
X52052Y1505D01*
X52247Y1585D01*
X52287Y1691D01*
X52287Y-199D01*
X52250Y-199D01*
X51450Y-199D01*
X51358Y-237D01*
X51288Y-308D01*
X51250Y-400D01*
X51249Y-499D01*
X51249Y-1299D01*
X51287Y-1391D01*
X51358Y-1461D01*
X51365Y-1464D01*
X51349Y-1481D01*
X51250Y-1720D01*
X51249Y-1978D01*
X51348Y-2217D01*
X51480Y-2350D01*
X51349Y-2481D01*
X51250Y-2720D01*
X51249Y-2978D01*
X51348Y-3217D01*
X51515Y-3384D01*
X51512Y-3391D01*
X51900Y-3779D01*
X51905Y-3773D01*
X51976Y-3844D01*
X51970Y-3850D01*
X52358Y-4237D01*
X52464Y-4197D01*
X52524Y-4036D01*
X52650Y-4081D01*
X52867Y-4070D01*
X53016Y-4008D01*
X53042Y-3913D01*
X52731Y-3601D01*
X52725Y-3607D01*
X52654Y-3536D01*
X52660Y-3531D01*
X52654Y-3525D01*
X52725Y-3454D01*
X52731Y-3460D01*
X52736Y-3454D01*
X52807Y-3525D01*
X52801Y-3531D01*
X53113Y-3842D01*
X53208Y-3816D01*
X53281Y-3611D01*
X53270Y-3395D01*
X53251Y-3350D01*
X55230Y-3350D01*
X55265Y-3384D01*
X55262Y-3391D01*
X55650Y-3779D01*
X55655Y-3773D01*
X55726Y-3844D01*
X55720Y-3850D01*
X56108Y-4237D01*
X56214Y-4197D01*
X56274Y-4036D01*
X56400Y-4081D01*
X56617Y-4070D01*
X56766Y-4008D01*
X56792Y-3913D01*
X56481Y-3601D01*
X56475Y-3607D01*
X56404Y-3536D01*
X56410Y-3531D01*
X56404Y-3525D01*
X56475Y-3454D01*
X56481Y-3460D01*
X56486Y-3454D01*
X56557Y-3525D01*
X56551Y-3531D01*
X56863Y-3842D01*
X56958Y-3816D01*
X57031Y-3611D01*
X57020Y-3395D01*
X56958Y-3246D01*
X56863Y-3219D01*
X56908Y-3174D01*
X56883Y-3148D01*
X56959Y-3097D01*
X57603Y-2453D01*
X57603Y-2453D01*
X57603Y-2453D01*
X57711Y-2291D01*
X57750Y-2100D01*
X57750Y-23981D01*
X57426Y-24466D01*
X57426Y-22815D01*
X57188Y-22239D01*
X57031Y-22082D01*
X56748Y-21799D01*
X56613Y-21743D01*
X56613Y-13600D01*
X56571Y-13385D01*
X56449Y-13204D01*
X56294Y-13099D01*
X56449Y-12995D01*
X56571Y-12814D01*
X56613Y-12600D01*
X56571Y-12385D01*
X56449Y-12204D01*
X56294Y-12099D01*
X56449Y-11995D01*
X56571Y-11814D01*
X56613Y-11600D01*
X56571Y-11385D01*
X56449Y-11204D01*
X56294Y-11099D01*
X56449Y-10995D01*
X56571Y-10814D01*
X56613Y-10600D01*
X56571Y-10385D01*
X56449Y-10204D01*
X56268Y-10082D01*
X56053Y-10040D01*
X56037Y-10040D01*
X56037Y-4308D01*
X55650Y-3920D01*
X55579Y-3991D01*
X55579Y-3850D01*
X55191Y-3462D01*
X55085Y-3502D01*
X54995Y-3744D01*
X55005Y-4002D01*
X55085Y-4197D01*
X55191Y-4237D01*
X55579Y-3850D01*
X55579Y-3991D01*
X55262Y-4308D01*
X55302Y-4414D01*
X55544Y-4504D01*
X55802Y-4494D01*
X55997Y-4414D01*
X56037Y-4308D01*
X56037Y-10040D01*
X56025Y-10040D01*
X56025Y-8425D01*
X56025Y-7675D01*
X55987Y-7583D01*
X55916Y-7513D01*
X55824Y-7475D01*
X55725Y-7474D01*
X54975Y-7474D01*
X54883Y-7512D01*
X54813Y-7583D01*
X54775Y-7675D01*
X54774Y-7774D01*
X54774Y-8524D01*
X54812Y-8616D01*
X54883Y-8686D01*
X54975Y-8724D01*
X55074Y-8725D01*
X55824Y-8725D01*
X55916Y-8687D01*
X55986Y-8616D01*
X56024Y-8524D01*
X56025Y-8425D01*
X56025Y-10040D01*
X55746Y-10040D01*
X55531Y-10082D01*
X55350Y-10204D01*
X55228Y-10385D01*
X55186Y-10600D01*
X55228Y-10814D01*
X55350Y-10995D01*
X55505Y-11099D01*
X55350Y-11204D01*
X55228Y-11385D01*
X55186Y-11600D01*
X55228Y-11814D01*
X55350Y-11995D01*
X55505Y-12099D01*
X55350Y-12204D01*
X55228Y-12385D01*
X55186Y-12600D01*
X55228Y-12814D01*
X55350Y-12995D01*
X55505Y-13099D01*
X55350Y-13204D01*
X55228Y-13385D01*
X55186Y-13600D01*
X55228Y-13814D01*
X55350Y-13995D01*
X55531Y-14117D01*
X55746Y-14160D01*
X56053Y-14160D01*
X56268Y-14117D01*
X56449Y-13995D01*
X56571Y-13814D01*
X56613Y-13600D01*
X56613Y-21743D01*
X56173Y-21560D01*
X55550Y-21559D01*
X54975Y-21797D01*
X54534Y-22237D01*
X54295Y-22812D01*
X54294Y-23435D01*
X54532Y-24011D01*
X54972Y-24451D01*
X55547Y-24690D01*
X56170Y-24691D01*
X56746Y-24453D01*
X57187Y-24013D01*
X57425Y-23438D01*
X57426Y-22815D01*
X57426Y-24466D01*
X57335Y-24603D01*
X56661Y-25052D01*
X55833Y-25218D01*
X54025Y-25218D01*
X54025Y-7976D01*
X53930Y-7746D01*
X53754Y-7570D01*
X53750Y-7568D01*
X53750Y-7100D01*
X53723Y-6966D01*
X53723Y-6966D01*
X53647Y-6852D01*
X53542Y-6747D01*
X53549Y-6729D01*
X53550Y-6471D01*
X53451Y-6232D01*
X53268Y-6049D01*
X53029Y-5950D01*
X52771Y-5949D01*
X52532Y-6048D01*
X52349Y-6231D01*
X52250Y-6470D01*
X52249Y-6728D01*
X52348Y-6967D01*
X52531Y-7150D01*
X52770Y-7249D01*
X53028Y-7250D01*
X53047Y-7242D01*
X53050Y-7244D01*
X53050Y-7568D01*
X53046Y-7569D01*
X52870Y-7745D01*
X52775Y-7975D01*
X52774Y-8223D01*
X52869Y-8453D01*
X53045Y-8629D01*
X53275Y-8724D01*
X53523Y-8725D01*
X53753Y-8630D01*
X53929Y-8454D01*
X54024Y-8224D01*
X54025Y-7976D01*
X54025Y-25218D01*
X53645Y-25218D01*
X53645Y-22227D01*
X53637Y-21932D01*
X53600Y-21841D01*
X53600Y-10860D01*
X53600Y-10240D01*
X53562Y-10148D01*
X53491Y-10078D01*
X53399Y-10040D01*
X53300Y-10039D01*
X52400Y-10039D01*
X52308Y-10077D01*
X52238Y-10148D01*
X52200Y-10240D01*
X52199Y-10339D01*
X52199Y-10959D01*
X52237Y-11051D01*
X52308Y-11121D01*
X52400Y-11159D01*
X52427Y-11159D01*
X52328Y-11239D01*
X52223Y-11431D01*
X52216Y-11463D01*
X52265Y-11550D01*
X52850Y-11550D01*
X52850Y-11542D01*
X52950Y-11542D01*
X52950Y-11550D01*
X53534Y-11550D01*
X53583Y-11463D01*
X53576Y-11431D01*
X53471Y-11239D01*
X53372Y-11160D01*
X53399Y-11160D01*
X53491Y-11122D01*
X53561Y-11051D01*
X53599Y-10959D01*
X53600Y-10860D01*
X53600Y-21841D01*
X53583Y-21800D01*
X53583Y-13736D01*
X53583Y-13463D01*
X53576Y-13431D01*
X53471Y-13239D01*
X53300Y-13101D01*
X53294Y-13100D01*
X53300Y-13098D01*
X53471Y-12960D01*
X53576Y-12768D01*
X53583Y-12736D01*
X53583Y-12463D01*
X53576Y-12431D01*
X53471Y-12239D01*
X53300Y-12101D01*
X53294Y-12100D01*
X53300Y-12098D01*
X53471Y-11960D01*
X53576Y-11768D01*
X53583Y-11736D01*
X53534Y-11650D01*
X52950Y-11650D01*
X52950Y-12040D01*
X52950Y-12160D01*
X52950Y-12550D01*
X53534Y-12550D01*
X53583Y-12463D01*
X53583Y-12736D01*
X53534Y-12650D01*
X52950Y-12650D01*
X52950Y-13040D01*
X52950Y-13160D01*
X52950Y-13550D01*
X53534Y-13550D01*
X53583Y-13463D01*
X53583Y-13736D01*
X53534Y-13650D01*
X52950Y-13650D01*
X52950Y-14160D01*
X53090Y-14160D01*
X53300Y-14098D01*
X53471Y-13960D01*
X53576Y-13768D01*
X53583Y-13736D01*
X53583Y-21800D01*
X53540Y-21696D01*
X53424Y-21645D01*
X53354Y-21716D01*
X53354Y-21575D01*
X53303Y-21459D01*
X53027Y-21354D01*
X52850Y-21359D01*
X52850Y-14160D01*
X52850Y-13650D01*
X52850Y-13550D01*
X52850Y-13160D01*
X52850Y-13040D01*
X52850Y-12650D01*
X52850Y-12550D01*
X52850Y-12160D01*
X52850Y-12040D01*
X52850Y-11650D01*
X52265Y-11650D01*
X52216Y-11736D01*
X52223Y-11768D01*
X52328Y-11960D01*
X52499Y-12098D01*
X52505Y-12100D01*
X52499Y-12101D01*
X52328Y-12239D01*
X52223Y-12431D01*
X52216Y-12463D01*
X52265Y-12550D01*
X52850Y-12550D01*
X52850Y-12650D01*
X52265Y-12650D01*
X52216Y-12736D01*
X52223Y-12768D01*
X52328Y-12960D01*
X52499Y-13098D01*
X52505Y-13100D01*
X52499Y-13101D01*
X52328Y-13239D01*
X52223Y-13431D01*
X52216Y-13463D01*
X52265Y-13550D01*
X52850Y-13550D01*
X52850Y-13650D01*
X52265Y-13650D01*
X52216Y-13736D01*
X52223Y-13768D01*
X52328Y-13960D01*
X52499Y-14098D01*
X52710Y-14160D01*
X52850Y-14160D01*
X52850Y-21359D01*
X52732Y-21362D01*
X52496Y-21459D01*
X52445Y-21575D01*
X52900Y-22029D01*
X53354Y-21575D01*
X53354Y-21716D01*
X52970Y-22100D01*
X53424Y-22554D01*
X53540Y-22503D01*
X53645Y-22227D01*
X53645Y-25218D01*
X53354Y-25218D01*
X53354Y-22624D01*
X52900Y-22170D01*
X52829Y-22241D01*
X52829Y-22100D01*
X52375Y-21645D01*
X52259Y-21696D01*
X52154Y-21972D01*
X52162Y-22267D01*
X52259Y-22503D01*
X52375Y-22554D01*
X52829Y-22100D01*
X52829Y-22241D01*
X52445Y-22624D01*
X52496Y-22740D01*
X52772Y-22845D01*
X53067Y-22837D01*
X53303Y-22740D01*
X53354Y-22624D01*
X53354Y-25218D01*
X51642Y-25218D01*
X51642Y-22542D01*
X51642Y-21558D01*
X51604Y-21466D01*
X51533Y-21396D01*
X51441Y-21358D01*
X51342Y-21357D01*
X50358Y-21357D01*
X50266Y-21395D01*
X50196Y-21466D01*
X50158Y-21558D01*
X50157Y-21657D01*
X50157Y-22641D01*
X50195Y-22733D01*
X50266Y-22803D01*
X50358Y-22841D01*
X50457Y-22842D01*
X51441Y-22842D01*
X51533Y-22804D01*
X51603Y-22733D01*
X51641Y-22641D01*
X51642Y-22542D01*
X51642Y-25218D01*
X49645Y-25218D01*
X49645Y-22227D01*
X49637Y-21932D01*
X49540Y-21696D01*
X49424Y-21645D01*
X49363Y-21706D01*
X49363Y-13600D01*
X49321Y-13385D01*
X49199Y-13204D01*
X49044Y-13099D01*
X49199Y-12995D01*
X49321Y-12814D01*
X49363Y-12600D01*
X49321Y-12385D01*
X49199Y-12204D01*
X49044Y-12099D01*
X49199Y-11995D01*
X49321Y-11814D01*
X49363Y-11600D01*
X49321Y-11385D01*
X49199Y-11204D01*
X49044Y-11099D01*
X49199Y-10995D01*
X49321Y-10814D01*
X49363Y-10600D01*
X49321Y-10385D01*
X49199Y-10204D01*
X49018Y-10082D01*
X48803Y-10040D01*
X48775Y-10040D01*
X48775Y-8425D01*
X48775Y-7675D01*
X48737Y-7583D01*
X48666Y-7513D01*
X48574Y-7475D01*
X48475Y-7474D01*
X47725Y-7474D01*
X47633Y-7512D01*
X47563Y-7583D01*
X47525Y-7675D01*
X47524Y-7774D01*
X47524Y-8524D01*
X47562Y-8616D01*
X47633Y-8686D01*
X47725Y-8724D01*
X47824Y-8725D01*
X48574Y-8725D01*
X48666Y-8687D01*
X48736Y-8616D01*
X48774Y-8524D01*
X48775Y-8425D01*
X48775Y-10040D01*
X48496Y-10040D01*
X48281Y-10082D01*
X48100Y-10204D01*
X47978Y-10385D01*
X47936Y-10600D01*
X47978Y-10814D01*
X48100Y-10995D01*
X48255Y-11099D01*
X48100Y-11204D01*
X47978Y-11385D01*
X47936Y-11600D01*
X47978Y-11814D01*
X48100Y-11995D01*
X48255Y-12099D01*
X48100Y-12204D01*
X47978Y-12385D01*
X47936Y-12600D01*
X47978Y-12814D01*
X48100Y-12995D01*
X48255Y-13099D01*
X48100Y-13204D01*
X47978Y-13385D01*
X47936Y-13600D01*
X47978Y-13814D01*
X48100Y-13995D01*
X48281Y-14117D01*
X48496Y-14160D01*
X48803Y-14160D01*
X49018Y-14117D01*
X49199Y-13995D01*
X49321Y-13814D01*
X49363Y-13600D01*
X49363Y-21706D01*
X49354Y-21716D01*
X49354Y-21575D01*
X49303Y-21459D01*
X49027Y-21354D01*
X48732Y-21362D01*
X48496Y-21459D01*
X48445Y-21575D01*
X48900Y-22029D01*
X49354Y-21575D01*
X49354Y-21716D01*
X48970Y-22100D01*
X49424Y-22554D01*
X49540Y-22503D01*
X49645Y-22227D01*
X49645Y-25218D01*
X49354Y-25218D01*
X49354Y-22624D01*
X48900Y-22170D01*
X48829Y-22241D01*
X48829Y-22100D01*
X48375Y-21645D01*
X48259Y-21696D01*
X48154Y-21972D01*
X48162Y-22267D01*
X48259Y-22503D01*
X48375Y-22554D01*
X48829Y-22100D01*
X48829Y-22241D01*
X48445Y-22624D01*
X48496Y-22740D01*
X48772Y-22845D01*
X49067Y-22837D01*
X49303Y-22740D01*
X49354Y-22624D01*
X49354Y-25218D01*
X47642Y-25218D01*
X47642Y-22542D01*
X47642Y-21558D01*
X47604Y-21466D01*
X47533Y-21396D01*
X47441Y-21358D01*
X47342Y-21357D01*
X46358Y-21357D01*
X46333Y-21368D01*
X46333Y-13736D01*
X46333Y-13463D01*
X46326Y-13431D01*
X46221Y-13239D01*
X46050Y-13101D01*
X46044Y-13100D01*
X46050Y-13098D01*
X46221Y-12960D01*
X46326Y-12768D01*
X46333Y-12736D01*
X46333Y-12463D01*
X46326Y-12431D01*
X46221Y-12239D01*
X46050Y-12101D01*
X46044Y-12100D01*
X46050Y-12098D01*
X46221Y-11960D01*
X46326Y-11768D01*
X46333Y-11736D01*
X46284Y-11650D01*
X45700Y-11650D01*
X45700Y-12040D01*
X45700Y-12160D01*
X45700Y-12550D01*
X46284Y-12550D01*
X46333Y-12463D01*
X46333Y-12736D01*
X46284Y-12650D01*
X45700Y-12650D01*
X45700Y-13040D01*
X45700Y-13160D01*
X45700Y-13550D01*
X46284Y-13550D01*
X46333Y-13463D01*
X46333Y-13736D01*
X46284Y-13650D01*
X45700Y-13650D01*
X45700Y-14160D01*
X45840Y-14160D01*
X46050Y-14098D01*
X46221Y-13960D01*
X46326Y-13768D01*
X46333Y-13736D01*
X46333Y-21368D01*
X46266Y-21395D01*
X46196Y-21466D01*
X46158Y-21558D01*
X46157Y-21657D01*
X46157Y-22641D01*
X46195Y-22733D01*
X46266Y-22803D01*
X46358Y-22841D01*
X46457Y-22842D01*
X47441Y-22842D01*
X47533Y-22804D01*
X47603Y-22733D01*
X47641Y-22641D01*
X47642Y-22542D01*
X47642Y-25218D01*
X45600Y-25218D01*
X45600Y-14160D01*
X45600Y-13650D01*
X45600Y-13550D01*
X45600Y-13160D01*
X45600Y-13040D01*
X45600Y-12650D01*
X45600Y-12550D01*
X45600Y-12160D01*
X45600Y-12040D01*
X45600Y-11650D01*
X45015Y-11650D01*
X44966Y-11736D01*
X44973Y-11768D01*
X45078Y-11960D01*
X45249Y-12098D01*
X45255Y-12100D01*
X45249Y-12101D01*
X45078Y-12239D01*
X44973Y-12431D01*
X44966Y-12463D01*
X45015Y-12550D01*
X45600Y-12550D01*
X45600Y-12650D01*
X45015Y-12650D01*
X44966Y-12736D01*
X44973Y-12768D01*
X45078Y-12960D01*
X45249Y-13098D01*
X45255Y-13100D01*
X45249Y-13101D01*
X45078Y-13239D01*
X44973Y-13431D01*
X44966Y-13463D01*
X45015Y-13550D01*
X45600Y-13550D01*
X45600Y-13650D01*
X45015Y-13650D01*
X44966Y-13736D01*
X44973Y-13768D01*
X45078Y-13960D01*
X45249Y-14098D01*
X45460Y-14160D01*
X45600Y-14160D01*
X45600Y-25218D01*
X35558Y-25218D01*
X35558Y-23774D01*
X36117Y-24332D01*
X36117Y-24332D01*
X36246Y-24419D01*
X36246Y-24419D01*
X36399Y-24449D01*
X36400Y-24450D01*
X43050Y-24450D01*
X43050Y-24449D01*
X43177Y-24424D01*
X43203Y-24419D01*
X43203Y-24419D01*
X43332Y-24332D01*
X43982Y-23682D01*
X43982Y-23682D01*
X44040Y-23596D01*
X44069Y-23553D01*
X44069Y-23553D01*
X44099Y-23400D01*
X44100Y-23400D01*
X44100Y-22842D01*
X44241Y-22842D01*
X44333Y-22804D01*
X44403Y-22733D01*
X44441Y-22641D01*
X44442Y-22542D01*
X44442Y-21558D01*
X44404Y-21466D01*
X44333Y-21396D01*
X44241Y-21358D01*
X44200Y-21358D01*
X44200Y-17250D01*
X44310Y-17141D01*
X44363Y-17013D01*
X44490Y-16960D01*
X44610Y-16841D01*
X44674Y-16684D01*
X44675Y-16515D01*
X44649Y-16453D01*
X44650Y-16450D01*
X44650Y-16200D01*
X44611Y-16008D01*
X44503Y-15846D01*
X44341Y-15738D01*
X44150Y-15700D01*
X43700Y-15700D01*
X43699Y-15700D01*
X43525Y-15734D01*
X43525Y-14615D01*
X43466Y-14474D01*
X43524Y-14334D01*
X43525Y-14165D01*
X43460Y-14009D01*
X43341Y-13889D01*
X43184Y-13825D01*
X43015Y-13824D01*
X42953Y-13850D01*
X42950Y-13850D01*
X42844Y-13850D01*
X42784Y-13825D01*
X42615Y-13824D01*
X42555Y-13850D01*
X42400Y-13850D01*
X42208Y-13888D01*
X42046Y-13996D01*
X42046Y-13996D01*
X41546Y-14496D01*
X41438Y-14658D01*
X41399Y-14850D01*
X41438Y-15041D01*
X41546Y-15203D01*
X41708Y-15311D01*
X41900Y-15350D01*
X41900Y-15350D01*
X41900Y-15350D01*
X42900Y-15350D01*
X43091Y-15311D01*
X43253Y-15203D01*
X43361Y-15041D01*
X43362Y-15038D01*
X43460Y-14941D01*
X43524Y-14784D01*
X43525Y-14615D01*
X43525Y-15734D01*
X43508Y-15738D01*
X43346Y-15846D01*
X43346Y-15846D01*
X43046Y-16146D01*
X42938Y-16308D01*
X42899Y-16500D01*
X42900Y-16500D01*
X42900Y-16849D01*
X42899Y-16850D01*
X42938Y-17041D01*
X43046Y-17203D01*
X43196Y-17353D01*
X43196Y-17353D01*
X43200Y-17355D01*
X43200Y-19270D01*
X43029Y-19200D01*
X42771Y-19199D01*
X42532Y-19298D01*
X42349Y-19481D01*
X42250Y-19720D01*
X42249Y-19978D01*
X42348Y-20217D01*
X42531Y-20400D01*
X42770Y-20499D01*
X43028Y-20500D01*
X43200Y-20429D01*
X43200Y-20650D01*
X43162Y-20635D01*
X42938Y-20634D01*
X42730Y-20720D01*
X42576Y-20874D01*
X42576Y-20803D01*
X42546Y-20706D01*
X42335Y-20630D01*
X42110Y-20641D01*
X41953Y-20706D01*
X41923Y-20803D01*
X42250Y-21129D01*
X42576Y-20803D01*
X42576Y-20874D01*
X42571Y-20879D01*
X42521Y-20998D01*
X42320Y-21200D01*
X42521Y-21401D01*
X42570Y-21519D01*
X42729Y-21678D01*
X42937Y-21764D01*
X42957Y-21764D01*
X42957Y-22641D01*
X42995Y-22733D01*
X43066Y-22803D01*
X43158Y-22841D01*
X43257Y-22842D01*
X43300Y-22842D01*
X43300Y-23234D01*
X42884Y-23650D01*
X42576Y-23650D01*
X42576Y-21596D01*
X42250Y-21270D01*
X42244Y-21276D01*
X42173Y-21205D01*
X42179Y-21200D01*
X41853Y-20873D01*
X41756Y-20903D01*
X41680Y-21114D01*
X41691Y-21339D01*
X41698Y-21357D01*
X41532Y-21362D01*
X41296Y-21459D01*
X41245Y-21575D01*
X41700Y-22029D01*
X41705Y-22023D01*
X41776Y-22094D01*
X41770Y-22100D01*
X42224Y-22554D01*
X42340Y-22503D01*
X42445Y-22227D01*
X42437Y-21932D01*
X42366Y-21760D01*
X42389Y-21758D01*
X42546Y-21693D01*
X42576Y-21596D01*
X42576Y-23650D01*
X42154Y-23650D01*
X42154Y-22624D01*
X41700Y-22170D01*
X41629Y-22241D01*
X41629Y-22100D01*
X41175Y-21645D01*
X41059Y-21696D01*
X40954Y-21972D01*
X40962Y-22267D01*
X41059Y-22503D01*
X41175Y-22554D01*
X41629Y-22100D01*
X41629Y-22241D01*
X41245Y-22624D01*
X41296Y-22740D01*
X41572Y-22845D01*
X41867Y-22837D01*
X42103Y-22740D01*
X42154Y-22624D01*
X42154Y-23650D01*
X40442Y-23650D01*
X40442Y-22542D01*
X40442Y-21558D01*
X40404Y-21466D01*
X40333Y-21396D01*
X40241Y-21358D01*
X40142Y-21357D01*
X39596Y-21357D01*
X39614Y-21312D01*
X39615Y-21088D01*
X39529Y-20880D01*
X39370Y-20721D01*
X39162Y-20635D01*
X38938Y-20634D01*
X38730Y-20720D01*
X38576Y-20874D01*
X38576Y-20803D01*
X38546Y-20706D01*
X38335Y-20630D01*
X38110Y-20641D01*
X37953Y-20706D01*
X37923Y-20803D01*
X38250Y-21129D01*
X38576Y-20803D01*
X38576Y-20874D01*
X38571Y-20879D01*
X38521Y-20998D01*
X38320Y-21200D01*
X38521Y-21401D01*
X38570Y-21519D01*
X38729Y-21678D01*
X38937Y-21764D01*
X38957Y-21764D01*
X38957Y-22641D01*
X38995Y-22733D01*
X39066Y-22803D01*
X39158Y-22841D01*
X39257Y-22842D01*
X40241Y-22842D01*
X40333Y-22804D01*
X40403Y-22733D01*
X40441Y-22641D01*
X40442Y-22542D01*
X40442Y-23650D01*
X38576Y-23650D01*
X38576Y-21596D01*
X38250Y-21270D01*
X38244Y-21276D01*
X38173Y-21205D01*
X38179Y-21200D01*
X37853Y-20873D01*
X37756Y-20903D01*
X37680Y-21114D01*
X37691Y-21339D01*
X37698Y-21357D01*
X37532Y-21362D01*
X37296Y-21459D01*
X37245Y-21575D01*
X37700Y-22029D01*
X37705Y-22023D01*
X37776Y-22094D01*
X37770Y-22100D01*
X38224Y-22554D01*
X38340Y-22503D01*
X38445Y-22227D01*
X38437Y-21932D01*
X38366Y-21760D01*
X38389Y-21758D01*
X38546Y-21693D01*
X38576Y-21596D01*
X38576Y-23650D01*
X38154Y-23650D01*
X38154Y-22624D01*
X37700Y-22170D01*
X37629Y-22241D01*
X37629Y-22100D01*
X37175Y-21645D01*
X37059Y-21696D01*
X36954Y-21972D01*
X36962Y-22267D01*
X37059Y-22503D01*
X37175Y-22554D01*
X37629Y-22100D01*
X37629Y-22241D01*
X37245Y-22624D01*
X37296Y-22740D01*
X37572Y-22845D01*
X37867Y-22837D01*
X38103Y-22740D01*
X38154Y-22624D01*
X38154Y-23650D01*
X36565Y-23650D01*
X35600Y-22684D01*
X35600Y-22360D01*
X35745Y-22215D01*
X35843Y-21978D01*
X35843Y-21722D01*
X35746Y-21485D01*
X35565Y-21304D01*
X35328Y-21206D01*
X35072Y-21206D01*
X34835Y-21303D01*
X34699Y-21439D01*
X34565Y-21304D01*
X34328Y-21206D01*
X34256Y-21206D01*
X34256Y-17053D01*
X34122Y-16730D01*
X33875Y-16482D01*
X33552Y-16348D01*
X33202Y-16347D01*
X32878Y-16481D01*
X32630Y-16728D01*
X32496Y-17052D01*
X32496Y-17402D01*
X32629Y-17725D01*
X32877Y-17973D01*
X33200Y-18107D01*
X33550Y-18108D01*
X33874Y-17974D01*
X34121Y-17727D01*
X34256Y-17403D01*
X34256Y-17053D01*
X34256Y-21206D01*
X34072Y-21206D01*
X33835Y-21303D01*
X33699Y-21439D01*
X33565Y-21304D01*
X33328Y-21206D01*
X33072Y-21206D01*
X32835Y-21303D01*
X32654Y-21484D01*
X32556Y-21721D01*
X32556Y-21977D01*
X32653Y-22214D01*
X32834Y-22395D01*
X33071Y-22493D01*
X33327Y-22493D01*
X33564Y-22396D01*
X33700Y-22260D01*
X33834Y-22395D01*
X34071Y-22493D01*
X34327Y-22493D01*
X34564Y-22396D01*
X34700Y-22260D01*
X34800Y-22360D01*
X34800Y-22630D01*
X30445Y-22630D01*
X30238Y-22630D01*
X30269Y-22598D01*
X30224Y-22554D01*
X30340Y-22503D01*
X30445Y-22227D01*
X30437Y-21932D01*
X30340Y-21696D01*
X30224Y-21645D01*
X30154Y-21716D01*
X30154Y-21575D01*
X30103Y-21459D01*
X29827Y-21354D01*
X29532Y-21362D01*
X29504Y-21373D01*
X29504Y-9855D01*
X29494Y-9597D01*
X29414Y-9402D01*
X29308Y-9362D01*
X29237Y-9433D01*
X29237Y-9291D01*
X29197Y-9185D01*
X28955Y-9095D01*
X28697Y-9105D01*
X28502Y-9185D01*
X28462Y-9291D01*
X28850Y-9679D01*
X29237Y-9291D01*
X29237Y-9433D01*
X28920Y-9750D01*
X28926Y-9755D01*
X28855Y-9826D01*
X28850Y-9820D01*
X28844Y-9826D01*
X28773Y-9755D01*
X28779Y-9750D01*
X28391Y-9362D01*
X28285Y-9402D01*
X28195Y-9644D01*
X28205Y-9902D01*
X28285Y-10097D01*
X28348Y-10121D01*
X28308Y-10137D01*
X28238Y-10208D01*
X28200Y-10300D01*
X28199Y-10399D01*
X28199Y-11199D01*
X28237Y-11291D01*
X28308Y-11361D01*
X28400Y-11399D01*
X28499Y-11400D01*
X29299Y-11400D01*
X29391Y-11362D01*
X29461Y-11291D01*
X29499Y-11199D01*
X29500Y-11100D01*
X29500Y-10300D01*
X29462Y-10208D01*
X29391Y-10138D01*
X29351Y-10121D01*
X29414Y-10097D01*
X29504Y-9855D01*
X29504Y-21373D01*
X29296Y-21459D01*
X29245Y-21575D01*
X29700Y-22029D01*
X30154Y-21575D01*
X30154Y-21716D01*
X29770Y-22100D01*
X29776Y-22105D01*
X29705Y-22176D01*
X29700Y-22170D01*
X29694Y-22176D01*
X29629Y-22111D01*
X29623Y-22105D01*
X29629Y-22100D01*
X29175Y-21645D01*
X29059Y-21696D01*
X28954Y-21972D01*
X28962Y-22267D01*
X29059Y-22503D01*
X29175Y-22554D01*
X29130Y-22598D01*
X29161Y-22630D01*
X28441Y-22630D01*
X28442Y-22542D01*
X28442Y-21558D01*
X28404Y-21466D01*
X28333Y-21396D01*
X28241Y-21358D01*
X28142Y-21357D01*
X27158Y-21357D01*
X27066Y-21395D01*
X26996Y-21466D01*
X26958Y-21558D01*
X26957Y-21657D01*
X26957Y-22630D01*
X23035Y-22630D01*
X23035Y-16856D01*
X22902Y-16533D01*
X22654Y-16285D01*
X22331Y-16151D01*
X21981Y-16151D01*
X21658Y-16284D01*
X21410Y-16532D01*
X21276Y-16855D01*
X21275Y-17205D01*
X21409Y-17528D01*
X21656Y-17776D01*
X21980Y-17910D01*
X22330Y-17911D01*
X22653Y-17777D01*
X22901Y-17530D01*
X23035Y-17206D01*
X23035Y-16856D01*
X23035Y-22630D01*
X19575Y-22630D01*
X19575Y-17265D01*
X19510Y-17109D01*
X19391Y-16989D01*
X19234Y-16925D01*
X19065Y-16924D01*
X19005Y-16950D01*
X18050Y-16950D01*
X15850Y-16950D01*
X15044Y-16950D01*
X14984Y-16925D01*
X14815Y-16924D01*
X14755Y-16950D01*
X14250Y-16950D01*
X13949Y-16950D01*
X13943Y-16935D01*
X13858Y-16849D01*
X13943Y-16765D01*
X14026Y-16565D01*
X14026Y-16348D01*
X13944Y-16149D01*
X13988Y-16105D01*
X14026Y-16014D01*
X14026Y-15914D01*
X14026Y-15324D01*
X13988Y-15232D01*
X13918Y-15161D01*
X13826Y-15123D01*
X13726Y-15123D01*
X13300Y-15123D01*
X13300Y-14900D01*
X13262Y-14808D01*
X13191Y-14738D01*
X13099Y-14700D01*
X13000Y-14699D01*
X12200Y-14699D01*
X12108Y-14737D01*
X12038Y-14808D01*
X12000Y-14900D01*
X11999Y-14999D01*
X11999Y-15799D01*
X12037Y-15891D01*
X12108Y-15961D01*
X12115Y-15964D01*
X12099Y-15981D01*
X12000Y-16220D01*
X11999Y-16478D01*
X12098Y-16717D01*
X12230Y-16850D01*
X12130Y-16950D01*
X10199Y-16950D01*
X10193Y-16935D01*
X10108Y-16849D01*
X10193Y-16765D01*
X10276Y-16565D01*
X10276Y-16348D01*
X10194Y-16149D01*
X10238Y-16105D01*
X10276Y-16014D01*
X10276Y-15914D01*
X10276Y-15324D01*
X10238Y-15232D01*
X10168Y-15161D01*
X10076Y-15123D01*
X9976Y-15123D01*
X9550Y-15123D01*
X9550Y-14900D01*
X9512Y-14808D01*
X9441Y-14738D01*
X9349Y-14700D01*
X9250Y-14699D01*
X8450Y-14699D01*
X8358Y-14737D01*
X8288Y-14808D01*
X8250Y-14900D01*
X8249Y-14999D01*
X8249Y-15799D01*
X8287Y-15891D01*
X8358Y-15961D01*
X8365Y-15964D01*
X8349Y-15981D01*
X8250Y-16220D01*
X8249Y-16478D01*
X8348Y-16717D01*
X8480Y-16850D01*
X8380Y-16950D01*
X6449Y-16950D01*
X6443Y-16935D01*
X6358Y-16849D01*
X6443Y-16765D01*
X6526Y-16565D01*
X6526Y-16348D01*
X6444Y-16149D01*
X6488Y-16105D01*
X6526Y-16014D01*
X6526Y-15914D01*
X6526Y-15324D01*
X6488Y-15232D01*
X6418Y-15161D01*
X6326Y-15123D01*
X6226Y-15123D01*
X5800Y-15123D01*
X5800Y-14900D01*
X5762Y-14808D01*
X5691Y-14738D01*
X5599Y-14700D01*
X5500Y-14699D01*
X4700Y-14699D01*
X4608Y-14737D01*
X4538Y-14808D01*
X4500Y-14900D01*
X4499Y-14999D01*
X4499Y-15799D01*
X4537Y-15891D01*
X4608Y-15961D01*
X4615Y-15964D01*
X4599Y-15981D01*
X4500Y-16220D01*
X4499Y-16478D01*
X4598Y-16717D01*
X4730Y-16850D01*
X4599Y-16981D01*
X4500Y-17220D01*
X4499Y-17478D01*
X4598Y-17717D01*
X4765Y-17884D01*
X4762Y-17891D01*
X5150Y-18279D01*
X5155Y-18273D01*
X5226Y-18344D01*
X5220Y-18350D01*
X5608Y-18737D01*
X5714Y-18697D01*
X5774Y-18536D01*
X5900Y-18581D01*
X6117Y-18570D01*
X6266Y-18508D01*
X6292Y-18413D01*
X5981Y-18101D01*
X5975Y-18107D01*
X5904Y-18036D01*
X5910Y-18031D01*
X5904Y-18025D01*
X5975Y-17954D01*
X5981Y-17960D01*
X5986Y-17954D01*
X6057Y-18025D01*
X6051Y-18031D01*
X6363Y-18342D01*
X6458Y-18316D01*
X6531Y-18111D01*
X6520Y-17895D01*
X6460Y-17750D01*
X8380Y-17750D01*
X8515Y-17884D01*
X8512Y-17891D01*
X8900Y-18279D01*
X8905Y-18273D01*
X8976Y-18344D01*
X8970Y-18350D01*
X9358Y-18737D01*
X9464Y-18697D01*
X9524Y-18536D01*
X9650Y-18581D01*
X9867Y-18570D01*
X10016Y-18508D01*
X10042Y-18413D01*
X9731Y-18101D01*
X9725Y-18107D01*
X9654Y-18036D01*
X9660Y-18031D01*
X9654Y-18025D01*
X9725Y-17954D01*
X9731Y-17960D01*
X9736Y-17954D01*
X9807Y-18025D01*
X9801Y-18031D01*
X10113Y-18342D01*
X10208Y-18316D01*
X10281Y-18111D01*
X10270Y-17895D01*
X10210Y-17750D01*
X12130Y-17750D01*
X12265Y-17884D01*
X12262Y-17891D01*
X12650Y-18279D01*
X12655Y-18273D01*
X12726Y-18344D01*
X12720Y-18350D01*
X13108Y-18737D01*
X13214Y-18697D01*
X13274Y-18536D01*
X13400Y-18581D01*
X13617Y-18570D01*
X13766Y-18508D01*
X13792Y-18413D01*
X13481Y-18101D01*
X13475Y-18107D01*
X13404Y-18036D01*
X13410Y-18031D01*
X13404Y-18025D01*
X13475Y-17954D01*
X13481Y-17960D01*
X13486Y-17954D01*
X13557Y-18025D01*
X13551Y-18031D01*
X13863Y-18342D01*
X13958Y-18316D01*
X14031Y-18111D01*
X14020Y-17895D01*
X13960Y-17750D01*
X14250Y-17750D01*
X14755Y-17750D01*
X14815Y-17774D01*
X14984Y-17775D01*
X15044Y-17750D01*
X15850Y-17750D01*
X18050Y-17750D01*
X19005Y-17750D01*
X19065Y-17774D01*
X19234Y-17775D01*
X19390Y-17710D01*
X19510Y-17591D01*
X19574Y-17434D01*
X19575Y-17265D01*
X19575Y-22630D01*
X18419Y-22630D01*
X18528Y-22520D01*
X18641Y-22248D01*
X18642Y-21953D01*
X18529Y-21680D01*
X18320Y-21471D01*
X18048Y-21358D01*
X17753Y-21357D01*
X17480Y-21470D01*
X17271Y-21679D01*
X17158Y-21951D01*
X17157Y-22246D01*
X17270Y-22519D01*
X17380Y-22630D01*
X16641Y-22630D01*
X16642Y-22542D01*
X16642Y-21657D01*
X16641Y-21558D01*
X16603Y-21466D01*
X16533Y-21395D01*
X16441Y-21357D01*
X16012Y-21358D01*
X15950Y-21420D01*
X15950Y-22050D01*
X16579Y-22050D01*
X16642Y-21987D01*
X16642Y-21657D01*
X16642Y-22542D01*
X16642Y-22212D01*
X16579Y-22150D01*
X15950Y-22150D01*
X15950Y-22157D01*
X15850Y-22157D01*
X15850Y-22150D01*
X15850Y-22050D01*
X15850Y-21420D01*
X15787Y-21358D01*
X15358Y-21357D01*
X15266Y-21395D01*
X15196Y-21466D01*
X15158Y-21558D01*
X15157Y-21657D01*
X15158Y-21987D01*
X15220Y-22050D01*
X15850Y-22050D01*
X15850Y-22150D01*
X15220Y-22150D01*
X15158Y-22212D01*
X15157Y-22542D01*
X15158Y-22630D01*
X14419Y-22630D01*
X14528Y-22520D01*
X14641Y-22248D01*
X14642Y-21953D01*
X14529Y-21680D01*
X14320Y-21471D01*
X14048Y-21358D01*
X13753Y-21357D01*
X13480Y-21470D01*
X13271Y-21679D01*
X13158Y-21951D01*
X13157Y-22246D01*
X13270Y-22519D01*
X13380Y-22630D01*
X13037Y-22630D01*
X13037Y-18808D01*
X12650Y-18420D01*
X12579Y-18491D01*
X12579Y-18350D01*
X12191Y-17962D01*
X12085Y-18002D01*
X11995Y-18244D01*
X12005Y-18502D01*
X12085Y-18697D01*
X12191Y-18737D01*
X12579Y-18350D01*
X12579Y-18491D01*
X12262Y-18808D01*
X12302Y-18914D01*
X12544Y-19004D01*
X12802Y-18994D01*
X12997Y-18914D01*
X13037Y-18808D01*
X13037Y-22630D01*
X12941Y-22630D01*
X12941Y-25218D01*
X12642Y-25218D01*
X12642Y-22542D01*
X12642Y-21657D01*
X12641Y-21558D01*
X12603Y-21466D01*
X12533Y-21395D01*
X12441Y-21357D01*
X12012Y-21358D01*
X11950Y-21420D01*
X11950Y-22050D01*
X12579Y-22050D01*
X12642Y-21987D01*
X12642Y-21657D01*
X12642Y-22542D01*
X12642Y-22212D01*
X12579Y-22150D01*
X11950Y-22150D01*
X11950Y-22779D01*
X12012Y-22842D01*
X12441Y-22842D01*
X12533Y-22804D01*
X12603Y-22733D01*
X12641Y-22641D01*
X12642Y-22542D01*
X12642Y-25218D01*
X11850Y-25218D01*
X11850Y-22779D01*
X11850Y-22150D01*
X11850Y-22050D01*
X11850Y-21420D01*
X11787Y-21358D01*
X11358Y-21357D01*
X11266Y-21395D01*
X11196Y-21466D01*
X11158Y-21558D01*
X11157Y-21657D01*
X11158Y-21987D01*
X11220Y-22050D01*
X11850Y-22050D01*
X11850Y-22150D01*
X11220Y-22150D01*
X11158Y-22212D01*
X11157Y-22542D01*
X11158Y-22641D01*
X11196Y-22733D01*
X11266Y-22804D01*
X11358Y-22842D01*
X11787Y-22842D01*
X11850Y-22779D01*
X11850Y-25218D01*
X10642Y-25218D01*
X10642Y-21953D01*
X10529Y-21680D01*
X10320Y-21471D01*
X10048Y-21358D01*
X9753Y-21357D01*
X9480Y-21470D01*
X9287Y-21662D01*
X9287Y-18808D01*
X8900Y-18420D01*
X8829Y-18491D01*
X8829Y-18350D01*
X8441Y-17962D01*
X8335Y-18002D01*
X8245Y-18244D01*
X8255Y-18502D01*
X8335Y-18697D01*
X8441Y-18737D01*
X8829Y-18350D01*
X8829Y-18491D01*
X8512Y-18808D01*
X8552Y-18914D01*
X8794Y-19004D01*
X9052Y-18994D01*
X9247Y-18914D01*
X9287Y-18808D01*
X9287Y-21662D01*
X9271Y-21679D01*
X9158Y-21951D01*
X9157Y-22246D01*
X9270Y-22519D01*
X9479Y-22728D01*
X9751Y-22841D01*
X10046Y-22842D01*
X10319Y-22729D01*
X10528Y-22520D01*
X10641Y-22248D01*
X10642Y-21953D01*
X10642Y-25218D01*
X8642Y-25218D01*
X8642Y-22542D01*
X8642Y-21657D01*
X8641Y-21558D01*
X8603Y-21466D01*
X8533Y-21395D01*
X8441Y-21357D01*
X8012Y-21358D01*
X7950Y-21420D01*
X7950Y-22050D01*
X8579Y-22050D01*
X8642Y-21987D01*
X8642Y-21657D01*
X8642Y-22542D01*
X8642Y-22212D01*
X8579Y-22150D01*
X7950Y-22150D01*
X7950Y-22779D01*
X8012Y-22842D01*
X8441Y-22842D01*
X8533Y-22804D01*
X8603Y-22733D01*
X8641Y-22641D01*
X8642Y-22542D01*
X8642Y-25218D01*
X7850Y-25218D01*
X7850Y-22779D01*
X7850Y-22150D01*
X7850Y-22050D01*
X7850Y-21420D01*
X7787Y-21358D01*
X7358Y-21357D01*
X7266Y-21395D01*
X7196Y-21466D01*
X7158Y-21558D01*
X7157Y-21657D01*
X7158Y-21987D01*
X7220Y-22050D01*
X7850Y-22050D01*
X7850Y-22150D01*
X7220Y-22150D01*
X7158Y-22212D01*
X7157Y-22542D01*
X7158Y-22641D01*
X7196Y-22733D01*
X7266Y-22804D01*
X7358Y-22842D01*
X7787Y-22842D01*
X7850Y-22779D01*
X7850Y-25218D01*
X6245Y-25218D01*
X6245Y-22815D01*
X6007Y-22239D01*
X5567Y-21799D01*
X5537Y-21786D01*
X5537Y-18808D01*
X5150Y-18420D01*
X5079Y-18491D01*
X5079Y-18350D01*
X4691Y-17962D01*
X4585Y-18002D01*
X4495Y-18244D01*
X4505Y-18502D01*
X4585Y-18697D01*
X4691Y-18737D01*
X5079Y-18350D01*
X5079Y-18491D01*
X4762Y-18808D01*
X4802Y-18914D01*
X5044Y-19004D01*
X5302Y-18994D01*
X5497Y-18914D01*
X5537Y-18808D01*
X5537Y-21786D01*
X4992Y-21560D01*
X4369Y-21559D01*
X3793Y-21797D01*
X3353Y-22237D01*
X3114Y-22812D01*
X3113Y-23435D01*
X3351Y-24011D01*
X3791Y-24451D01*
X4366Y-24690D01*
X4989Y-24691D01*
X5565Y-24453D01*
X6005Y-24013D01*
X6244Y-23438D01*
X6245Y-22815D01*
X6245Y-25218D01*
X4702Y-25218D01*
X3882Y-25054D01*
X3201Y-24600D01*
X2752Y-23926D01*
X2587Y-23098D01*
X2587Y-12400D01*
X18050Y-12400D01*
X18050Y-12492D01*
X17296Y-13246D01*
X17188Y-13408D01*
X17149Y-13600D01*
X17150Y-13600D01*
X17150Y-14599D01*
X17149Y-14600D01*
X17188Y-14791D01*
X17296Y-14953D01*
X17596Y-15253D01*
X17596Y-15253D01*
X17758Y-15361D01*
X17949Y-15400D01*
X17949Y-15399D01*
X17950Y-15400D01*
X18100Y-15400D01*
X18291Y-15361D01*
X18453Y-15253D01*
X18561Y-15091D01*
X18600Y-14900D01*
X18561Y-14708D01*
X18453Y-14546D01*
X18291Y-14438D01*
X18171Y-14414D01*
X18150Y-14392D01*
X18150Y-14301D01*
X18158Y-14310D01*
X18315Y-14374D01*
X18484Y-14375D01*
X18640Y-14310D01*
X18760Y-14191D01*
X18824Y-14034D01*
X18824Y-14020D01*
X19050Y-13794D01*
X19050Y-15300D01*
X19076Y-15433D01*
X19152Y-15547D01*
X19680Y-16075D01*
X19681Y-16081D01*
X19812Y-16277D01*
X20008Y-16408D01*
X20239Y-16454D01*
X20560Y-16454D01*
X20791Y-16408D01*
X20987Y-16277D01*
X21118Y-16081D01*
X21164Y-15850D01*
X21118Y-15618D01*
X20987Y-15422D01*
X20879Y-15350D01*
X20987Y-15277D01*
X21118Y-15081D01*
X21164Y-14850D01*
X21118Y-14618D01*
X20987Y-14422D01*
X20879Y-14350D01*
X20987Y-14277D01*
X21118Y-14081D01*
X21164Y-13850D01*
X21118Y-13618D01*
X20987Y-13422D01*
X20879Y-13350D01*
X20987Y-13277D01*
X21118Y-13081D01*
X21164Y-12850D01*
X21118Y-12618D01*
X20987Y-12422D01*
X20879Y-12350D01*
X20987Y-12277D01*
X21118Y-12081D01*
X21164Y-11850D01*
X21118Y-11618D01*
X20987Y-11422D01*
X20879Y-11350D01*
X20987Y-11277D01*
X21118Y-11081D01*
X21164Y-10850D01*
X21118Y-10618D01*
X20987Y-10422D01*
X20791Y-10291D01*
X20560Y-10245D01*
X20239Y-10245D01*
X20008Y-10291D01*
X19950Y-10330D01*
X19950Y-9369D01*
X20008Y-9408D01*
X20239Y-9454D01*
X20560Y-9454D01*
X20791Y-9408D01*
X20987Y-9277D01*
X21118Y-9081D01*
X21164Y-8850D01*
X21118Y-8618D01*
X20987Y-8422D01*
X20875Y-8347D01*
X21008Y-8242D01*
X21123Y-8035D01*
X21132Y-7993D01*
X21132Y-7706D01*
X21123Y-7664D01*
X21008Y-7457D01*
X20872Y-7350D01*
X21008Y-7242D01*
X21123Y-7035D01*
X21132Y-6993D01*
X21085Y-6900D01*
X20450Y-6900D01*
X20450Y-7245D01*
X20450Y-7454D01*
X20450Y-7800D01*
X21085Y-7800D01*
X21132Y-7706D01*
X21132Y-7993D01*
X21085Y-7900D01*
X20450Y-7900D01*
X20450Y-7907D01*
X20350Y-7907D01*
X20350Y-7900D01*
X20342Y-7900D01*
X20342Y-7800D01*
X20350Y-7800D01*
X20350Y-7454D01*
X20350Y-7245D01*
X20350Y-6900D01*
X20342Y-6900D01*
X20342Y-6800D01*
X20350Y-6800D01*
X20350Y-6792D01*
X20450Y-6792D01*
X20450Y-6800D01*
X21085Y-6800D01*
X21132Y-6706D01*
X21123Y-6664D01*
X21008Y-6457D01*
X20875Y-6352D01*
X20879Y-6350D01*
X21149Y-6350D01*
X21150Y-6350D01*
X21150Y-6350D01*
X21341Y-6311D01*
X21503Y-6203D01*
X21899Y-5807D01*
X22896Y-6803D01*
X22896Y-6803D01*
X23058Y-6911D01*
X23250Y-6950D01*
X36642Y-6950D01*
X38096Y-8403D01*
X38096Y-8403D01*
X38165Y-8450D01*
X38150Y-8450D01*
X38022Y-8475D01*
X37996Y-8480D01*
X37867Y-8567D01*
X36826Y-9607D01*
X36826Y-8872D01*
X36818Y-8585D01*
X36723Y-8358D01*
X36610Y-8309D01*
X36540Y-8380D01*
X36540Y-8239D01*
X36491Y-8126D01*
X36222Y-8023D01*
X35935Y-8031D01*
X35708Y-8126D01*
X35659Y-8239D01*
X36100Y-8679D01*
X36540Y-8239D01*
X36540Y-8380D01*
X36170Y-8750D01*
X36610Y-9190D01*
X36723Y-9141D01*
X36826Y-8872D01*
X36826Y-9607D01*
X36540Y-9894D01*
X36540Y-9260D01*
X36100Y-8820D01*
X36029Y-8891D01*
X36029Y-8750D01*
X35589Y-8309D01*
X35476Y-8358D01*
X35373Y-8627D01*
X35381Y-8914D01*
X35476Y-9141D01*
X35589Y-9190D01*
X36029Y-8750D01*
X36029Y-8891D01*
X35659Y-9260D01*
X35708Y-9373D01*
X35977Y-9476D01*
X36264Y-9468D01*
X36491Y-9373D01*
X36540Y-9260D01*
X36540Y-9894D01*
X35871Y-10562D01*
X35691Y-10637D01*
X35487Y-10840D01*
X35377Y-11105D01*
X35377Y-11393D01*
X35487Y-11658D01*
X35690Y-11862D01*
X35901Y-11950D01*
X34665Y-11950D01*
X34115Y-11400D01*
X34799Y-11400D01*
X34891Y-11362D01*
X34961Y-11291D01*
X34999Y-11199D01*
X35000Y-11100D01*
X35000Y-10300D01*
X34962Y-10208D01*
X34891Y-10138D01*
X34851Y-10121D01*
X34914Y-10097D01*
X35004Y-9855D01*
X34994Y-9597D01*
X34914Y-9402D01*
X34808Y-9362D01*
X34737Y-9433D01*
X34737Y-9291D01*
X34697Y-9185D01*
X34455Y-9095D01*
X34197Y-9105D01*
X34002Y-9185D01*
X33962Y-9291D01*
X34350Y-9679D01*
X34737Y-9291D01*
X34737Y-9433D01*
X34420Y-9750D01*
X34426Y-9755D01*
X34355Y-9826D01*
X34350Y-9820D01*
X34344Y-9826D01*
X34273Y-9755D01*
X34279Y-9750D01*
X33891Y-9362D01*
X33785Y-9402D01*
X33695Y-9644D01*
X33705Y-9902D01*
X33785Y-10097D01*
X33848Y-10121D01*
X33808Y-10137D01*
X33738Y-10208D01*
X33700Y-10300D01*
X33699Y-10399D01*
X33699Y-10984D01*
X33682Y-10967D01*
X33553Y-10880D01*
X33527Y-10875D01*
X33400Y-10850D01*
X31326Y-10850D01*
X31326Y-8872D01*
X31318Y-8585D01*
X31223Y-8358D01*
X31110Y-8309D01*
X31040Y-8380D01*
X31040Y-8239D01*
X30991Y-8126D01*
X30722Y-8023D01*
X30435Y-8031D01*
X30208Y-8126D01*
X30159Y-8239D01*
X30600Y-8679D01*
X31040Y-8239D01*
X31040Y-8380D01*
X30670Y-8750D01*
X31110Y-9190D01*
X31223Y-9141D01*
X31326Y-8872D01*
X31326Y-10850D01*
X31216Y-10850D01*
X31212Y-10841D01*
X31040Y-10668D01*
X31040Y-9260D01*
X30600Y-8820D01*
X30529Y-8891D01*
X30529Y-8750D01*
X30089Y-8309D01*
X29976Y-8358D01*
X29873Y-8627D01*
X29881Y-8914D01*
X29976Y-9141D01*
X30089Y-9190D01*
X30529Y-8750D01*
X30529Y-8891D01*
X30159Y-9260D01*
X30208Y-9373D01*
X30477Y-9476D01*
X30764Y-9468D01*
X30991Y-9373D01*
X31040Y-9260D01*
X31040Y-10668D01*
X31009Y-10637D01*
X30744Y-10527D01*
X30456Y-10527D01*
X30191Y-10637D01*
X29987Y-10840D01*
X29877Y-11105D01*
X29877Y-11393D01*
X29987Y-11658D01*
X30190Y-11862D01*
X30455Y-11972D01*
X30743Y-11972D01*
X31008Y-11862D01*
X31212Y-11659D01*
X31216Y-11650D01*
X31372Y-11650D01*
X31325Y-11765D01*
X31324Y-11934D01*
X31389Y-12090D01*
X31508Y-12210D01*
X31665Y-12274D01*
X31834Y-12275D01*
X31990Y-12210D01*
X32051Y-12150D01*
X32452Y-12150D01*
X32425Y-12215D01*
X32424Y-12384D01*
X32489Y-12540D01*
X32608Y-12660D01*
X32669Y-12685D01*
X33617Y-13632D01*
X33617Y-13632D01*
X33703Y-13690D01*
X33746Y-13719D01*
X33746Y-13719D01*
X33900Y-13750D01*
X37300Y-13750D01*
X37300Y-13749D01*
X37427Y-13724D01*
X37453Y-13719D01*
X37453Y-13719D01*
X37582Y-13632D01*
X38887Y-12327D01*
X38920Y-12350D01*
X38812Y-12422D01*
X38681Y-12618D01*
X38635Y-12850D01*
X38681Y-13081D01*
X38812Y-13277D01*
X38920Y-13350D01*
X38812Y-13422D01*
X38681Y-13618D01*
X38635Y-13850D01*
X38681Y-14081D01*
X38812Y-14277D01*
X38920Y-14350D01*
X38812Y-14422D01*
X38681Y-14618D01*
X38635Y-14850D01*
X38681Y-15081D01*
X38812Y-15277D01*
X38920Y-15350D01*
X38812Y-15422D01*
X38681Y-15618D01*
X38635Y-15850D01*
X38681Y-16081D01*
X38812Y-16277D01*
X39008Y-16408D01*
X39239Y-16454D01*
X39560Y-16454D01*
X39791Y-16408D01*
X39987Y-16277D01*
X40118Y-16081D01*
X40164Y-15850D01*
X40136Y-15708D01*
X44897Y-10947D01*
X44897Y-10947D01*
X44897Y-10947D01*
X44949Y-10868D01*
X44949Y-10959D01*
X44987Y-11051D01*
X45058Y-11121D01*
X45150Y-11159D01*
X45177Y-11159D01*
X45078Y-11239D01*
X44973Y-11431D01*
X44966Y-11463D01*
X45015Y-11550D01*
X45600Y-11550D01*
X45600Y-11542D01*
X45700Y-11542D01*
X45700Y-11550D01*
X46284Y-11550D01*
X46333Y-11463D01*
X46326Y-11431D01*
X46221Y-11239D01*
X46122Y-11160D01*
X46149Y-11160D01*
X46241Y-11122D01*
X46311Y-11051D01*
X46349Y-10959D01*
X46350Y-10860D01*
X46350Y-10240D01*
X46312Y-10148D01*
X46241Y-10078D01*
X46149Y-10040D01*
X46050Y-10039D01*
X45150Y-10039D01*
X45058Y-10077D01*
X45000Y-10136D01*
X45000Y-8600D01*
X45000Y-6478D01*
X45098Y-6717D01*
X45281Y-6900D01*
X45520Y-6999D01*
X45778Y-7000D01*
X45797Y-6992D01*
X45800Y-6994D01*
X45800Y-7568D01*
X45796Y-7569D01*
X45620Y-7745D01*
X45525Y-7975D01*
X45524Y-8223D01*
X45619Y-8453D01*
X45795Y-8629D01*
X46025Y-8724D01*
X46273Y-8725D01*
X46503Y-8630D01*
X46679Y-8454D01*
X46774Y-8224D01*
X46775Y-7976D01*
X46680Y-7746D01*
X46504Y-7570D01*
X46500Y-7568D01*
X46500Y-6850D01*
X46473Y-6716D01*
X46473Y-6716D01*
X46397Y-6602D01*
X46292Y-6497D01*
X46299Y-6479D01*
X46300Y-6221D01*
X46201Y-5982D01*
X46018Y-5799D01*
X45900Y-5750D01*
X52900Y-5750D01*
X53033Y-5723D01*
X53033Y-5723D01*
X53147Y-5647D01*
X53219Y-5575D01*
X53234Y-5575D01*
X53390Y-5510D01*
X53510Y-5391D01*
X53574Y-5234D01*
X53575Y-5065D01*
X53510Y-4909D01*
X53391Y-4789D01*
X53234Y-4725D01*
X53065Y-4724D01*
X53023Y-4742D01*
X53010Y-4709D01*
X52891Y-4589D01*
X52734Y-4525D01*
X52565Y-4524D01*
X52409Y-4589D01*
X52399Y-4600D01*
X52287Y-4600D01*
X52287Y-4308D01*
X51900Y-3920D01*
X51829Y-3991D01*
X51829Y-3850D01*
X51441Y-3462D01*
X51335Y-3502D01*
X51245Y-3744D01*
X51255Y-4002D01*
X51335Y-4197D01*
X51441Y-4237D01*
X51829Y-3850D01*
X51829Y-3991D01*
X51512Y-4308D01*
X51552Y-4414D01*
X51794Y-4504D01*
X52052Y-4494D01*
X52247Y-4414D01*
X52287Y-4308D01*
X52287Y-4600D01*
X49531Y-4600D01*
X49531Y-3611D01*
X49520Y-3395D01*
X49458Y-3246D01*
X49363Y-3219D01*
X49051Y-3531D01*
X49363Y-3842D01*
X49458Y-3816D01*
X49531Y-3611D01*
X49531Y-4600D01*
X48537Y-4600D01*
X48537Y-4308D01*
X48150Y-3920D01*
X48079Y-3991D01*
X48079Y-3850D01*
X47691Y-3462D01*
X47585Y-3502D01*
X47495Y-3744D01*
X47505Y-4002D01*
X47585Y-4197D01*
X47691Y-4237D01*
X48079Y-3850D01*
X48079Y-3991D01*
X47762Y-4308D01*
X47802Y-4414D01*
X48044Y-4504D01*
X48302Y-4494D01*
X48497Y-4414D01*
X48537Y-4308D01*
X48537Y-4600D01*
X45781Y-4600D01*
X45450Y-4600D01*
X45449Y-4600D01*
X45316Y-4626D01*
X45202Y-4702D01*
X45202Y-4702D01*
X45202Y-4702D01*
X44787Y-5117D01*
X44787Y-4308D01*
X44400Y-3920D01*
X44012Y-4308D01*
X44052Y-4414D01*
X44294Y-4504D01*
X44552Y-4494D01*
X44747Y-4414D01*
X44787Y-4308D01*
X44787Y-5117D01*
X44052Y-5852D01*
X43976Y-5966D01*
X43950Y-6100D01*
X43950Y-6750D01*
X43950Y-9805D01*
X40121Y-13633D01*
X40118Y-13618D01*
X39987Y-13422D01*
X39879Y-13350D01*
X39987Y-13277D01*
X40118Y-13081D01*
X40164Y-12850D01*
X40118Y-12618D01*
X39987Y-12422D01*
X39879Y-12350D01*
X39987Y-12277D01*
X40118Y-12081D01*
X40164Y-11850D01*
X40118Y-11618D01*
X39987Y-11422D01*
X39879Y-11350D01*
X39987Y-11277D01*
X40118Y-11081D01*
X40164Y-10850D01*
X40118Y-10618D01*
X39987Y-10422D01*
X39879Y-10350D01*
X39987Y-10277D01*
X40118Y-10081D01*
X40164Y-9850D01*
X40118Y-9618D01*
X39987Y-9422D01*
X39879Y-9350D01*
X39987Y-9277D01*
X40118Y-9081D01*
X40164Y-8850D01*
X40118Y-8618D01*
X40072Y-8550D01*
X40499Y-8550D01*
X40500Y-8550D01*
X40500Y-8550D01*
X40691Y-8511D01*
X40853Y-8403D01*
X42253Y-7003D01*
X42253Y-7003D01*
X42253Y-7003D01*
X42321Y-6901D01*
X42348Y-6967D01*
X42531Y-7150D01*
X42770Y-7249D01*
X43028Y-7250D01*
X43267Y-7151D01*
X43450Y-6968D01*
X43549Y-6729D01*
X43550Y-6471D01*
X43451Y-6232D01*
X43268Y-6049D01*
X43029Y-5950D01*
X42771Y-5949D01*
X42532Y-6048D01*
X42400Y-6180D01*
X42400Y-5057D01*
X43765Y-3691D01*
X43745Y-3744D01*
X43755Y-4002D01*
X43835Y-4197D01*
X43941Y-4237D01*
X44329Y-3850D01*
X44323Y-3844D01*
X44394Y-3773D01*
X44400Y-3779D01*
X44405Y-3773D01*
X44476Y-3844D01*
X44470Y-3850D01*
X44858Y-4237D01*
X44964Y-4197D01*
X45024Y-4036D01*
X45150Y-4081D01*
X45367Y-4070D01*
X45516Y-4008D01*
X45542Y-3913D01*
X45231Y-3601D01*
X45225Y-3607D01*
X45154Y-3536D01*
X45160Y-3531D01*
X45154Y-3525D01*
X45225Y-3454D01*
X45231Y-3460D01*
X45236Y-3454D01*
X45307Y-3525D01*
X45301Y-3531D01*
X45613Y-3842D01*
X45708Y-3816D01*
X45781Y-3611D01*
X45770Y-3395D01*
X45708Y-3246D01*
X45613Y-3219D01*
X45658Y-3174D01*
X45628Y-3143D01*
X47568Y-3143D01*
X47598Y-3217D01*
X47765Y-3384D01*
X47762Y-3391D01*
X48150Y-3779D01*
X48155Y-3773D01*
X48226Y-3844D01*
X48220Y-3850D01*
X48608Y-4237D01*
X48714Y-4197D01*
X48774Y-4036D01*
X48900Y-4081D01*
X49117Y-4070D01*
X49266Y-4008D01*
X49292Y-3913D01*
X48981Y-3601D01*
X48975Y-3607D01*
X48904Y-3536D01*
X48910Y-3531D01*
X48904Y-3525D01*
X48975Y-3454D01*
X48981Y-3460D01*
X49197Y-3244D01*
X49289Y-3206D01*
X49443Y-3052D01*
X49526Y-2852D01*
X49526Y-2635D01*
X49443Y-2435D01*
X49358Y-2349D01*
X49443Y-2265D01*
X49526Y-2065D01*
X49526Y-1848D01*
X49444Y-1649D01*
X49488Y-1605D01*
X49526Y-1514D01*
X49526Y-1414D01*
X49526Y-824D01*
X49488Y-732D01*
X49418Y-661D01*
X49326Y-623D01*
X49226Y-623D01*
X48800Y-623D01*
X48800Y-400D01*
X48762Y-308D01*
X48691Y-238D01*
X48599Y-200D01*
X48537Y-199D01*
X48537Y1691D01*
X48150Y2079D01*
X48079Y2008D01*
X48079Y2150D01*
X47691Y2537D01*
X47585Y2497D01*
X47495Y2255D01*
X47505Y1997D01*
X47585Y1802D01*
X47691Y1762D01*
X48079Y2150D01*
X48079Y2008D01*
X47762Y1691D01*
X47802Y1585D01*
X48044Y1495D01*
X48302Y1505D01*
X48497Y1585D01*
X48537Y1691D01*
X48537Y-199D01*
X48500Y-199D01*
X47700Y-199D01*
X47608Y-237D01*
X47538Y-308D01*
X47500Y-400D01*
X47499Y-499D01*
X47499Y-768D01*
X45819Y-768D01*
X45819Y6149D01*
X45512Y6892D01*
X44945Y7460D01*
X44203Y7768D01*
X43400Y7769D01*
X42657Y7462D01*
X42089Y6895D01*
X41781Y6153D01*
X41780Y5350D01*
X42087Y4607D01*
X42654Y4039D01*
X43396Y3731D01*
X44199Y3730D01*
X44942Y4037D01*
X45510Y4604D01*
X45818Y5346D01*
X45819Y6149D01*
X45819Y-768D01*
X45753Y-768D01*
X45738Y-732D01*
X45668Y-661D01*
X45576Y-623D01*
X45476Y-623D01*
X45050Y-623D01*
X45050Y-400D01*
X45012Y-308D01*
X44941Y-238D01*
X44849Y-200D01*
X44750Y-199D01*
X43950Y-199D01*
X43858Y-237D01*
X43788Y-308D01*
X43750Y-400D01*
X43749Y-499D01*
X43749Y-1299D01*
X43787Y-1391D01*
X43858Y-1461D01*
X43865Y-1464D01*
X43849Y-1481D01*
X43841Y-1500D01*
X43744Y-1500D01*
X43700Y-1455D01*
X43700Y-1100D01*
X43700Y1000D01*
X43673Y1133D01*
X43597Y1247D01*
X40097Y4747D01*
X40054Y4776D01*
X40054Y6544D01*
X40044Y6802D01*
X39964Y6997D01*
X39858Y7037D01*
X39787Y6966D01*
X39470Y6650D01*
X39858Y6262D01*
X39964Y6302D01*
X40054Y6544D01*
X40054Y4776D01*
X39983Y4823D01*
X39850Y4850D01*
X39787Y4850D01*
X38950Y4850D01*
X38950Y6164D01*
X38967Y6146D01*
X39012Y6191D01*
X39052Y6085D01*
X39294Y5995D01*
X39552Y6005D01*
X39747Y6085D01*
X39787Y6191D01*
X39400Y6579D01*
X39394Y6573D01*
X39323Y6644D01*
X39329Y6650D01*
X39323Y6655D01*
X39394Y6726D01*
X39400Y6720D01*
X39787Y7108D01*
X39747Y7214D01*
X39505Y7304D01*
X39247Y7294D01*
X39052Y7214D01*
X39012Y7108D01*
X38967Y7153D01*
X38950Y7135D01*
X38950Y10462D01*
X55833Y10462D01*
X56661Y10297D01*
X57335Y9848D01*
X57789Y9167D01*
X57953Y8347D01*
X57953Y-23103D01*
G54D10*
G36*
X18000Y-2343D02*
X17614Y-2343D01*
X17693Y-2265D01*
X17776Y-2065D01*
X17776Y-1848D01*
X17694Y-1649D01*
X17738Y-1605D01*
X17776Y-1514D01*
X17776Y-1414D01*
X17776Y-824D01*
X17738Y-732D01*
X17668Y-661D01*
X17576Y-623D01*
X17476Y-623D01*
X17050Y-623D01*
X17050Y-400D01*
X17012Y-308D01*
X16941Y-238D01*
X16849Y-200D01*
X16787Y-199D01*
X16787Y1691D01*
X16400Y2079D01*
X16329Y2008D01*
X16329Y2150D01*
X15941Y2537D01*
X15835Y2497D01*
X15745Y2255D01*
X15755Y1997D01*
X15835Y1802D01*
X15941Y1762D01*
X16329Y2150D01*
X16329Y2008D01*
X16012Y1691D01*
X16052Y1585D01*
X16294Y1495D01*
X16552Y1505D01*
X16747Y1585D01*
X16787Y1691D01*
X16787Y-199D01*
X16750Y-199D01*
X16065Y-199D01*
X15850Y15D01*
X15850Y1455D01*
X15874Y1515D01*
X15875Y1684D01*
X15810Y1840D01*
X15691Y1960D01*
X15534Y2024D01*
X15365Y2025D01*
X15209Y1960D01*
X15089Y1841D01*
X15025Y1684D01*
X15024Y1515D01*
X15050Y1455D01*
X15050Y-150D01*
X15075Y-277D01*
X15080Y-303D01*
X15167Y-432D01*
X15749Y-1015D01*
X15749Y-1299D01*
X15787Y-1391D01*
X15858Y-1461D01*
X15865Y-1464D01*
X15849Y-1481D01*
X15750Y-1720D01*
X15749Y-1978D01*
X15848Y-2217D01*
X15980Y-2350D01*
X13858Y-2350D01*
X13858Y-2349D01*
X13943Y-2265D01*
X14026Y-2065D01*
X14026Y-1848D01*
X13944Y-1649D01*
X13988Y-1605D01*
X14026Y-1514D01*
X14026Y-1414D01*
X14026Y-824D01*
X13988Y-732D01*
X13918Y-661D01*
X13826Y-623D01*
X13726Y-623D01*
X13300Y-623D01*
X13300Y-400D01*
X13262Y-308D01*
X13191Y-238D01*
X13099Y-200D01*
X13037Y-199D01*
X13037Y1691D01*
X12650Y2079D01*
X12579Y2008D01*
X12579Y2150D01*
X12191Y2537D01*
X12085Y2497D01*
X11995Y2255D01*
X12005Y1997D01*
X12085Y1802D01*
X12191Y1762D01*
X12579Y2150D01*
X12579Y2008D01*
X12262Y1691D01*
X12302Y1585D01*
X12544Y1495D01*
X12802Y1505D01*
X12997Y1585D01*
X13037Y1691D01*
X13037Y-199D01*
X13000Y-199D01*
X12365Y-199D01*
X12000Y165D01*
X12000Y1555D01*
X12024Y1615D01*
X12025Y1784D01*
X11960Y1940D01*
X11841Y2060D01*
X11684Y2124D01*
X11515Y2125D01*
X11359Y2060D01*
X11239Y1941D01*
X11175Y1784D01*
X11174Y1615D01*
X11200Y1555D01*
X11200Y1168D01*
X11184Y1174D01*
X11170Y1174D01*
X10597Y1747D01*
X10483Y1823D01*
X10350Y1850D01*
X9481Y1850D01*
X9524Y1963D01*
X9650Y1918D01*
X9867Y1929D01*
X10016Y1991D01*
X10042Y2086D01*
X9731Y2398D01*
X9725Y2392D01*
X9654Y2463D01*
X9660Y2468D01*
X9654Y2474D01*
X9725Y2545D01*
X9731Y2539D01*
X9736Y2545D01*
X9807Y2474D01*
X9801Y2468D01*
X10113Y2157D01*
X10208Y2183D01*
X10281Y2388D01*
X10270Y2604D01*
X10251Y2650D01*
X12230Y2650D01*
X12265Y2615D01*
X12262Y2608D01*
X12650Y2220D01*
X12655Y2226D01*
X12726Y2155D01*
X12720Y2150D01*
X13108Y1762D01*
X13214Y1802D01*
X13274Y1963D01*
X13400Y1918D01*
X13617Y1929D01*
X13766Y1991D01*
X13792Y2086D01*
X13481Y2398D01*
X13475Y2392D01*
X13404Y2463D01*
X13410Y2468D01*
X13404Y2474D01*
X13475Y2545D01*
X13481Y2539D01*
X13486Y2545D01*
X13557Y2474D01*
X13551Y2468D01*
X13863Y2157D01*
X13958Y2183D01*
X14031Y2388D01*
X14020Y2604D01*
X14001Y2650D01*
X15980Y2650D01*
X16015Y2615D01*
X16012Y2608D01*
X16400Y2220D01*
X16405Y2226D01*
X16476Y2155D01*
X16470Y2150D01*
X16858Y1762D01*
X16964Y1802D01*
X17024Y1963D01*
X17150Y1918D01*
X17367Y1929D01*
X17516Y1991D01*
X17542Y2086D01*
X17231Y2398D01*
X17225Y2392D01*
X17154Y2463D01*
X17160Y2468D01*
X17154Y2474D01*
X17225Y2545D01*
X17231Y2539D01*
X17236Y2545D01*
X17307Y2474D01*
X17301Y2468D01*
X17613Y2157D01*
X17708Y2183D01*
X17781Y2388D01*
X17770Y2604D01*
X17751Y2650D01*
X17884Y2650D01*
X18000Y2534D01*
X18000Y-2039D01*
X17999Y-2039D01*
X18000Y-2039D01*
X18000Y-2343D01*
X18000Y-2343D01*
G37*
G54D35*
X18000Y-2343D02*
X17614Y-2343D01*
X17693Y-2265D01*
X17776Y-2065D01*
X17776Y-1848D01*
X17694Y-1649D01*
X17738Y-1605D01*
X17776Y-1514D01*
X17776Y-1414D01*
X17776Y-824D01*
X17738Y-732D01*
X17668Y-661D01*
X17576Y-623D01*
X17476Y-623D01*
X17050Y-623D01*
X17050Y-400D01*
X17012Y-308D01*
X16941Y-238D01*
X16849Y-200D01*
X16787Y-199D01*
X16787Y1691D01*
X16400Y2079D01*
X16329Y2008D01*
X16329Y2150D01*
X15941Y2537D01*
X15835Y2497D01*
X15745Y2255D01*
X15755Y1997D01*
X15835Y1802D01*
X15941Y1762D01*
X16329Y2150D01*
X16329Y2008D01*
X16012Y1691D01*
X16052Y1585D01*
X16294Y1495D01*
X16552Y1505D01*
X16747Y1585D01*
X16787Y1691D01*
X16787Y-199D01*
X16750Y-199D01*
X16065Y-199D01*
X15850Y15D01*
X15850Y1455D01*
X15874Y1515D01*
X15875Y1684D01*
X15810Y1840D01*
X15691Y1960D01*
X15534Y2024D01*
X15365Y2025D01*
X15209Y1960D01*
X15089Y1841D01*
X15025Y1684D01*
X15024Y1515D01*
X15050Y1455D01*
X15050Y-150D01*
X15075Y-277D01*
X15080Y-303D01*
X15167Y-432D01*
X15749Y-1015D01*
X15749Y-1299D01*
X15787Y-1391D01*
X15858Y-1461D01*
X15865Y-1464D01*
X15849Y-1481D01*
X15750Y-1720D01*
X15749Y-1978D01*
X15848Y-2217D01*
X15980Y-2350D01*
X13858Y-2350D01*
X13858Y-2349D01*
X13943Y-2265D01*
X14026Y-2065D01*
X14026Y-1848D01*
X13944Y-1649D01*
X13988Y-1605D01*
X14026Y-1514D01*
X14026Y-1414D01*
X14026Y-824D01*
X13988Y-732D01*
X13918Y-661D01*
X13826Y-623D01*
X13726Y-623D01*
X13300Y-623D01*
X13300Y-400D01*
X13262Y-308D01*
X13191Y-238D01*
X13099Y-200D01*
X13037Y-199D01*
X13037Y1691D01*
X12650Y2079D01*
X12579Y2008D01*
X12579Y2150D01*
X12191Y2537D01*
X12085Y2497D01*
X11995Y2255D01*
X12005Y1997D01*
X12085Y1802D01*
X12191Y1762D01*
X12579Y2150D01*
X12579Y2008D01*
X12262Y1691D01*
X12302Y1585D01*
X12544Y1495D01*
X12802Y1505D01*
X12997Y1585D01*
X13037Y1691D01*
X13037Y-199D01*
X13000Y-199D01*
X12365Y-199D01*
X12000Y165D01*
X12000Y1555D01*
X12024Y1615D01*
X12025Y1784D01*
X11960Y1940D01*
X11841Y2060D01*
X11684Y2124D01*
X11515Y2125D01*
X11359Y2060D01*
X11239Y1941D01*
X11175Y1784D01*
X11174Y1615D01*
X11200Y1555D01*
X11200Y1168D01*
X11184Y1174D01*
X11170Y1174D01*
X10597Y1747D01*
X10483Y1823D01*
X10350Y1850D01*
X9481Y1850D01*
X9524Y1963D01*
X9650Y1918D01*
X9867Y1929D01*
X10016Y1991D01*
X10042Y2086D01*
X9731Y2398D01*
X9725Y2392D01*
X9654Y2463D01*
X9660Y2468D01*
X9654Y2474D01*
X9725Y2545D01*
X9731Y2539D01*
X9736Y2545D01*
X9807Y2474D01*
X9801Y2468D01*
X10113Y2157D01*
X10208Y2183D01*
X10281Y2388D01*
X10270Y2604D01*
X10251Y2650D01*
X12230Y2650D01*
X12265Y2615D01*
X12262Y2608D01*
X12650Y2220D01*
X12655Y2226D01*
X12726Y2155D01*
X12720Y2150D01*
X13108Y1762D01*
X13214Y1802D01*
X13274Y1963D01*
X13400Y1918D01*
X13617Y1929D01*
X13766Y1991D01*
X13792Y2086D01*
X13481Y2398D01*
X13475Y2392D01*
X13404Y2463D01*
X13410Y2468D01*
X13404Y2474D01*
X13475Y2545D01*
X13481Y2539D01*
X13486Y2545D01*
X13557Y2474D01*
X13551Y2468D01*
X13863Y2157D01*
X13958Y2183D01*
X14031Y2388D01*
X14020Y2604D01*
X14001Y2650D01*
X15980Y2650D01*
X16015Y2615D01*
X16012Y2608D01*
X16400Y2220D01*
X16405Y2226D01*
X16476Y2155D01*
X16470Y2150D01*
X16858Y1762D01*
X16964Y1802D01*
X17024Y1963D01*
X17150Y1918D01*
X17367Y1929D01*
X17516Y1991D01*
X17542Y2086D01*
X17231Y2398D01*
X17225Y2392D01*
X17154Y2463D01*
X17160Y2468D01*
X17154Y2474D01*
X17225Y2545D01*
X17231Y2539D01*
X17236Y2545D01*
X17307Y2474D01*
X17301Y2468D01*
X17613Y2157D01*
X17708Y2183D01*
X17781Y2388D01*
X17770Y2604D01*
X17751Y2650D01*
X17884Y2650D01*
X18000Y2534D01*
X18000Y-2039D01*
X17999Y-2039D01*
X18000Y-2039D01*
X18000Y-2343D01*
G54D10*
G36*
X38350Y4744D02*
X37655Y4050D01*
X37294Y4050D01*
X36442Y4902D01*
X36442Y5282D01*
X36442Y6007D01*
X36451Y6007D01*
X36607Y6071D01*
X36727Y6191D01*
X36792Y6347D01*
X36792Y6516D01*
X36728Y6672D01*
X36608Y6792D01*
X36452Y6857D01*
X36283Y6857D01*
X36127Y6792D01*
X36116Y6782D01*
X29062Y6782D01*
X29002Y6807D01*
X28833Y6807D01*
X28677Y6742D01*
X28641Y6707D01*
X23393Y6707D01*
X23358Y6742D01*
X23202Y6807D01*
X23033Y6807D01*
X22877Y6742D01*
X22866Y6732D01*
X20632Y6732D01*
X20498Y6705D01*
X20384Y6629D01*
X20157Y6402D01*
X20261Y6558D01*
X20300Y6750D01*
X20261Y6941D01*
X20153Y7103D01*
X19991Y7211D01*
X19800Y7250D01*
X19608Y7211D01*
X19446Y7103D01*
X18146Y5803D01*
X18038Y5641D01*
X17999Y5450D01*
X18000Y5449D01*
X18000Y3650D01*
X17875Y3650D01*
X17843Y3656D01*
X17614Y3656D01*
X17693Y3734D01*
X17776Y3934D01*
X17776Y4151D01*
X17694Y4350D01*
X17738Y4394D01*
X17776Y4485D01*
X17776Y4585D01*
X17776Y5175D01*
X17738Y5267D01*
X17668Y5338D01*
X17576Y5376D01*
X17476Y5376D01*
X17050Y5376D01*
X17050Y5599D01*
X17012Y5691D01*
X16941Y5761D01*
X16849Y5799D01*
X16750Y5800D01*
X15950Y5800D01*
X15858Y5762D01*
X15788Y5691D01*
X15750Y5599D01*
X15749Y5500D01*
X15749Y4700D01*
X15787Y4608D01*
X15858Y4538D01*
X15865Y4535D01*
X15849Y4518D01*
X15750Y4279D01*
X15749Y4021D01*
X15848Y3782D01*
X15980Y3650D01*
X15550Y3650D01*
X15550Y6778D01*
X15451Y7017D01*
X15268Y7200D01*
X15029Y7299D01*
X14771Y7300D01*
X14532Y7201D01*
X14349Y7018D01*
X14250Y6779D01*
X14249Y6521D01*
X14348Y6282D01*
X14531Y6099D01*
X14770Y6000D01*
X15028Y5999D01*
X15267Y6098D01*
X15450Y6281D01*
X15549Y6520D01*
X15550Y6778D01*
X15550Y3650D01*
X13858Y3650D01*
X13858Y3650D01*
X13943Y3734D01*
X14026Y3934D01*
X14026Y4151D01*
X13944Y4350D01*
X13988Y4394D01*
X14026Y4485D01*
X14026Y4585D01*
X14026Y5175D01*
X13988Y5267D01*
X13918Y5338D01*
X13826Y5376D01*
X13726Y5376D01*
X13300Y5376D01*
X13300Y5599D01*
X13262Y5691D01*
X13191Y5761D01*
X13099Y5799D01*
X13000Y5800D01*
X12200Y5800D01*
X12108Y5762D01*
X12038Y5691D01*
X12000Y5599D01*
X11999Y5500D01*
X11999Y4700D01*
X12037Y4608D01*
X12108Y4538D01*
X12115Y4535D01*
X12099Y4518D01*
X12000Y4279D01*
X11999Y4021D01*
X12098Y3782D01*
X12230Y3650D01*
X11800Y3650D01*
X11800Y6778D01*
X11701Y7017D01*
X11518Y7200D01*
X11279Y7299D01*
X11021Y7300D01*
X10782Y7201D01*
X10599Y7018D01*
X10500Y6779D01*
X10499Y6521D01*
X10598Y6282D01*
X10781Y6099D01*
X11020Y6000D01*
X11278Y5999D01*
X11517Y6098D01*
X11700Y6281D01*
X11799Y6520D01*
X11800Y6778D01*
X11800Y3650D01*
X10108Y3650D01*
X10108Y3650D01*
X10193Y3734D01*
X10276Y3934D01*
X10276Y4151D01*
X10194Y4350D01*
X10238Y4394D01*
X10276Y4485D01*
X10276Y4585D01*
X10276Y5175D01*
X10238Y5267D01*
X10168Y5338D01*
X10076Y5376D01*
X9976Y5376D01*
X9550Y5376D01*
X9550Y5599D01*
X9512Y5691D01*
X9441Y5761D01*
X9349Y5799D01*
X9250Y5800D01*
X8450Y5800D01*
X8358Y5762D01*
X8288Y5691D01*
X8250Y5599D01*
X8249Y5500D01*
X8249Y4700D01*
X8287Y4608D01*
X8358Y4538D01*
X8365Y4535D01*
X8349Y4518D01*
X8250Y4279D01*
X8249Y4021D01*
X8348Y3782D01*
X8480Y3650D01*
X7800Y3650D01*
X7800Y6778D01*
X7701Y7017D01*
X7518Y7200D01*
X7279Y7299D01*
X7021Y7300D01*
X6782Y7201D01*
X6599Y7018D01*
X6500Y6779D01*
X6499Y6521D01*
X6598Y6282D01*
X6781Y6099D01*
X7020Y6000D01*
X7278Y5999D01*
X7517Y6098D01*
X7700Y6281D01*
X7799Y6520D01*
X7800Y6778D01*
X7800Y3650D01*
X6358Y3650D01*
X6358Y3650D01*
X6443Y3734D01*
X6526Y3934D01*
X6526Y4151D01*
X6444Y4350D01*
X6488Y4394D01*
X6526Y4485D01*
X6526Y4585D01*
X6526Y5175D01*
X6488Y5267D01*
X6418Y5338D01*
X6326Y5376D01*
X6245Y5376D01*
X6245Y8680D01*
X6007Y9256D01*
X5567Y9696D01*
X4992Y9935D01*
X4369Y9936D01*
X3793Y9698D01*
X3353Y9258D01*
X3114Y8683D01*
X3113Y8060D01*
X3351Y7484D01*
X3540Y7295D01*
X3529Y7299D01*
X3271Y7300D01*
X3032Y7201D01*
X2849Y7018D01*
X2750Y6779D01*
X2749Y6521D01*
X2848Y6282D01*
X3031Y6099D01*
X3270Y6000D01*
X3528Y5999D01*
X3767Y6098D01*
X3950Y6281D01*
X4049Y6520D01*
X4050Y6778D01*
X3971Y6969D01*
X4366Y6805D01*
X4989Y6804D01*
X5565Y7042D01*
X6005Y7482D01*
X6244Y8057D01*
X6245Y8680D01*
X6245Y5376D01*
X6226Y5376D01*
X5800Y5376D01*
X5800Y5599D01*
X5762Y5691D01*
X5691Y5761D01*
X5599Y5799D01*
X5500Y5800D01*
X4700Y5800D01*
X4608Y5762D01*
X4538Y5691D01*
X4500Y5599D01*
X4499Y5500D01*
X4499Y4700D01*
X4537Y4608D01*
X4608Y4538D01*
X4615Y4535D01*
X4599Y4518D01*
X4500Y4279D01*
X4499Y4021D01*
X4598Y3782D01*
X4730Y3649D01*
X4599Y3518D01*
X4500Y3279D01*
X4499Y3021D01*
X4598Y2782D01*
X4765Y2615D01*
X4762Y2608D01*
X5150Y2220D01*
X5155Y2226D01*
X5226Y2155D01*
X5220Y2150D01*
X5608Y1762D01*
X5714Y1802D01*
X5774Y1963D01*
X5900Y1918D01*
X6117Y1929D01*
X6266Y1991D01*
X6292Y2086D01*
X5981Y2398D01*
X5975Y2392D01*
X5904Y2463D01*
X5910Y2468D01*
X5904Y2474D01*
X5975Y2545D01*
X5981Y2539D01*
X5986Y2545D01*
X6057Y2474D01*
X6051Y2468D01*
X6363Y2157D01*
X6458Y2183D01*
X6531Y2388D01*
X6520Y2604D01*
X6501Y2650D01*
X8480Y2650D01*
X8515Y2615D01*
X8512Y2608D01*
X8900Y2220D01*
X8905Y2226D01*
X8976Y2155D01*
X8970Y2150D01*
X8976Y2144D01*
X8905Y2073D01*
X8900Y2079D01*
X8894Y2073D01*
X8823Y2144D01*
X8829Y2150D01*
X8441Y2537D01*
X8335Y2497D01*
X8245Y2255D01*
X8255Y1997D01*
X8316Y1850D01*
X6150Y1850D01*
X6016Y1823D01*
X5902Y1747D01*
X5537Y1382D01*
X5537Y1691D01*
X5150Y2079D01*
X5079Y2008D01*
X5079Y2150D01*
X4691Y2537D01*
X4585Y2497D01*
X4495Y2255D01*
X4505Y1997D01*
X4585Y1802D01*
X4691Y1762D01*
X5079Y2150D01*
X5079Y2008D01*
X4762Y1691D01*
X4802Y1585D01*
X5044Y1495D01*
X5302Y1505D01*
X5497Y1585D01*
X5537Y1691D01*
X5537Y1382D01*
X4902Y747D01*
X4826Y633D01*
X4800Y500D01*
X4800Y-199D01*
X4700Y-199D01*
X4608Y-237D01*
X4538Y-308D01*
X4500Y-400D01*
X4499Y-499D01*
X4499Y-1299D01*
X4537Y-1391D01*
X4608Y-1461D01*
X4615Y-1464D01*
X4599Y-1481D01*
X4500Y-1720D01*
X4499Y-1978D01*
X4598Y-2217D01*
X4730Y-2350D01*
X4599Y-2481D01*
X4500Y-2720D01*
X4499Y-2978D01*
X4598Y-3217D01*
X4765Y-3384D01*
X4762Y-3391D01*
X5150Y-3779D01*
X5155Y-3773D01*
X5226Y-3844D01*
X5220Y-3850D01*
X5608Y-4237D01*
X5714Y-4197D01*
X5774Y-4036D01*
X5900Y-4081D01*
X6117Y-4070D01*
X6266Y-4008D01*
X6292Y-3913D01*
X5981Y-3601D01*
X5975Y-3607D01*
X5904Y-3536D01*
X5910Y-3531D01*
X5904Y-3525D01*
X5975Y-3454D01*
X5981Y-3460D01*
X5986Y-3454D01*
X6057Y-3525D01*
X6051Y-3531D01*
X6363Y-3842D01*
X6458Y-3816D01*
X6531Y-3611D01*
X6520Y-3395D01*
X6501Y-3350D01*
X8480Y-3350D01*
X8515Y-3384D01*
X8512Y-3391D01*
X8900Y-3779D01*
X8905Y-3773D01*
X8976Y-3844D01*
X8970Y-3850D01*
X9358Y-4237D01*
X9464Y-4197D01*
X9524Y-4036D01*
X9650Y-4081D01*
X9867Y-4070D01*
X10016Y-4008D01*
X10042Y-3913D01*
X9731Y-3601D01*
X9725Y-3607D01*
X9654Y-3536D01*
X9660Y-3531D01*
X9654Y-3525D01*
X9725Y-3454D01*
X9731Y-3460D01*
X9736Y-3454D01*
X9807Y-3525D01*
X9801Y-3531D01*
X10113Y-3842D01*
X10208Y-3816D01*
X10281Y-3611D01*
X10270Y-3395D01*
X10251Y-3350D01*
X12230Y-3350D01*
X12265Y-3384D01*
X12262Y-3391D01*
X12650Y-3779D01*
X12655Y-3773D01*
X12726Y-3844D01*
X12720Y-3850D01*
X13108Y-4237D01*
X13214Y-4197D01*
X13274Y-4036D01*
X13400Y-4081D01*
X13617Y-4070D01*
X13766Y-4008D01*
X13792Y-3913D01*
X13481Y-3601D01*
X13475Y-3607D01*
X13404Y-3536D01*
X13410Y-3531D01*
X13404Y-3525D01*
X13475Y-3454D01*
X13481Y-3460D01*
X13486Y-3454D01*
X13557Y-3525D01*
X13551Y-3531D01*
X13863Y-3842D01*
X13958Y-3816D01*
X14031Y-3611D01*
X14020Y-3395D01*
X14001Y-3350D01*
X15980Y-3350D01*
X16015Y-3384D01*
X16012Y-3391D01*
X16400Y-3779D01*
X16405Y-3773D01*
X16476Y-3844D01*
X16470Y-3850D01*
X16858Y-4237D01*
X16964Y-4197D01*
X17024Y-4036D01*
X17150Y-4081D01*
X17367Y-4070D01*
X17516Y-4008D01*
X17542Y-3913D01*
X17231Y-3601D01*
X17225Y-3607D01*
X17154Y-3536D01*
X17160Y-3531D01*
X17154Y-3525D01*
X17225Y-3454D01*
X17231Y-3460D01*
X17236Y-3454D01*
X17307Y-3525D01*
X17301Y-3531D01*
X17613Y-3842D01*
X17708Y-3816D01*
X17781Y-3611D01*
X17770Y-3395D01*
X17751Y-3350D01*
X18000Y-3350D01*
X18000Y-4649D01*
X17999Y-4650D01*
X18000Y-4650D01*
X18000Y-5400D01*
X17808Y-5438D01*
X17646Y-5546D01*
X17538Y-5708D01*
X17500Y-5900D01*
X17538Y-6091D01*
X17646Y-6253D01*
X17808Y-6361D01*
X18000Y-6400D01*
X18000Y-8042D01*
X17692Y-8350D01*
X17650Y-8350D01*
X17608Y-8350D01*
X17608Y-8349D01*
X17693Y-8265D01*
X17776Y-8065D01*
X17776Y-7848D01*
X17694Y-7649D01*
X17738Y-7605D01*
X17776Y-7514D01*
X17776Y-7414D01*
X17776Y-6824D01*
X17738Y-6732D01*
X17668Y-6661D01*
X17576Y-6623D01*
X17476Y-6623D01*
X17050Y-6623D01*
X17050Y-6400D01*
X17012Y-6308D01*
X16941Y-6238D01*
X16849Y-6200D01*
X16787Y-6199D01*
X16787Y-4308D01*
X16400Y-3920D01*
X16329Y-3991D01*
X16329Y-3850D01*
X15941Y-3462D01*
X15835Y-3502D01*
X15745Y-3744D01*
X15755Y-4002D01*
X15835Y-4197D01*
X15941Y-4237D01*
X16329Y-3850D01*
X16329Y-3991D01*
X16012Y-4308D01*
X16052Y-4414D01*
X16294Y-4504D01*
X16552Y-4494D01*
X16747Y-4414D01*
X16787Y-4308D01*
X16787Y-6199D01*
X16750Y-6199D01*
X15950Y-6199D01*
X15858Y-6237D01*
X15788Y-6308D01*
X15750Y-6400D01*
X15749Y-6499D01*
X15749Y-7299D01*
X15787Y-7391D01*
X15858Y-7461D01*
X15865Y-7464D01*
X15849Y-7481D01*
X15750Y-7720D01*
X15749Y-7978D01*
X15848Y-8217D01*
X15980Y-8350D01*
X13858Y-8350D01*
X13858Y-8349D01*
X13943Y-8265D01*
X14026Y-8065D01*
X14026Y-7848D01*
X13944Y-7649D01*
X13988Y-7605D01*
X14026Y-7514D01*
X14026Y-7414D01*
X14026Y-6824D01*
X13988Y-6732D01*
X13918Y-6661D01*
X13826Y-6623D01*
X13726Y-6623D01*
X13300Y-6623D01*
X13300Y-6600D01*
X14825Y-6600D01*
X14958Y-6573D01*
X14958Y-6573D01*
X15072Y-6497D01*
X15519Y-6050D01*
X15534Y-6050D01*
X15690Y-5985D01*
X15810Y-5866D01*
X15874Y-5709D01*
X15874Y-5658D01*
X15990Y-5610D01*
X16110Y-5491D01*
X16174Y-5334D01*
X16175Y-5165D01*
X16110Y-5009D01*
X15991Y-4889D01*
X15834Y-4825D01*
X15665Y-4824D01*
X15509Y-4889D01*
X15499Y-4900D01*
X15250Y-4900D01*
X15249Y-4900D01*
X15116Y-4926D01*
X15002Y-5002D01*
X15002Y-5002D01*
X14405Y-5600D01*
X14250Y-5600D01*
X14299Y-5479D01*
X14300Y-5221D01*
X14201Y-4982D01*
X14018Y-4799D01*
X13779Y-4700D01*
X13521Y-4699D01*
X13282Y-4798D01*
X13099Y-4981D01*
X13037Y-5129D01*
X13037Y-4308D01*
X12650Y-3920D01*
X12579Y-3991D01*
X12579Y-3850D01*
X12191Y-3462D01*
X12085Y-3502D01*
X11995Y-3744D01*
X12005Y-4002D01*
X12085Y-4197D01*
X12191Y-4237D01*
X12579Y-3850D01*
X12579Y-3991D01*
X12262Y-4308D01*
X12302Y-4414D01*
X12544Y-4504D01*
X12802Y-4494D01*
X12997Y-4414D01*
X13037Y-4308D01*
X13037Y-5129D01*
X13000Y-5220D01*
X12999Y-5478D01*
X13049Y-5600D01*
X11750Y-5600D01*
X11799Y-5479D01*
X11800Y-5221D01*
X11701Y-4982D01*
X11518Y-4799D01*
X11279Y-4700D01*
X11021Y-4699D01*
X10782Y-4798D01*
X10599Y-4981D01*
X10500Y-5220D01*
X10499Y-5478D01*
X10598Y-5717D01*
X10630Y-5750D01*
X9287Y-5750D01*
X9287Y-4308D01*
X8900Y-3920D01*
X8829Y-3991D01*
X8829Y-3850D01*
X8441Y-3462D01*
X8335Y-3502D01*
X8245Y-3744D01*
X8255Y-4002D01*
X8335Y-4197D01*
X8441Y-4237D01*
X8829Y-3850D01*
X8829Y-3991D01*
X8512Y-4308D01*
X8552Y-4414D01*
X8794Y-4504D01*
X9052Y-4494D01*
X9247Y-4414D01*
X9287Y-4308D01*
X9287Y-5750D01*
X7919Y-5750D01*
X7950Y-5718D01*
X8049Y-5479D01*
X8050Y-5221D01*
X7951Y-4982D01*
X7768Y-4799D01*
X7529Y-4700D01*
X7271Y-4699D01*
X7032Y-4798D01*
X6849Y-4981D01*
X6750Y-5220D01*
X6749Y-5478D01*
X6848Y-5717D01*
X7031Y-5900D01*
X7270Y-5999D01*
X7504Y-6000D01*
X7077Y-6427D01*
X6526Y-6978D01*
X6526Y-6824D01*
X6488Y-6732D01*
X6418Y-6661D01*
X6326Y-6623D01*
X6226Y-6623D01*
X5800Y-6623D01*
X5800Y-6400D01*
X5762Y-6308D01*
X5691Y-6238D01*
X5599Y-6200D01*
X5537Y-6199D01*
X5537Y-4308D01*
X5150Y-3920D01*
X5079Y-3991D01*
X5079Y-3850D01*
X4691Y-3462D01*
X4585Y-3502D01*
X4495Y-3744D01*
X4505Y-4002D01*
X4585Y-4197D01*
X4691Y-4237D01*
X5079Y-3850D01*
X5079Y-3991D01*
X4762Y-4308D01*
X4802Y-4414D01*
X5044Y-4504D01*
X5302Y-4494D01*
X5497Y-4414D01*
X5537Y-4308D01*
X5537Y-6199D01*
X5500Y-6199D01*
X4700Y-6199D01*
X4608Y-6237D01*
X4538Y-6308D01*
X4500Y-6400D01*
X4499Y-6499D01*
X4499Y-7299D01*
X4537Y-7391D01*
X4608Y-7461D01*
X4615Y-7464D01*
X4599Y-7481D01*
X4500Y-7720D01*
X4499Y-7978D01*
X4598Y-8217D01*
X4730Y-8350D01*
X4599Y-8481D01*
X4500Y-8720D01*
X4499Y-8978D01*
X4598Y-9217D01*
X4765Y-9384D01*
X4762Y-9391D01*
X5150Y-9779D01*
X5155Y-9773D01*
X5226Y-9844D01*
X5220Y-9850D01*
X5608Y-10237D01*
X5714Y-10197D01*
X5774Y-10036D01*
X5900Y-10081D01*
X6117Y-10070D01*
X6266Y-10008D01*
X6292Y-9913D01*
X5981Y-9601D01*
X5975Y-9607D01*
X5904Y-9536D01*
X5910Y-9531D01*
X5904Y-9525D01*
X5975Y-9454D01*
X5981Y-9460D01*
X5986Y-9454D01*
X6057Y-9525D01*
X6051Y-9531D01*
X6363Y-9842D01*
X6458Y-9816D01*
X6531Y-9611D01*
X6520Y-9395D01*
X6501Y-9350D01*
X8480Y-9350D01*
X8515Y-9384D01*
X8512Y-9391D01*
X8900Y-9779D01*
X8905Y-9773D01*
X8976Y-9844D01*
X8970Y-9850D01*
X9358Y-10237D01*
X9464Y-10197D01*
X9524Y-10036D01*
X9650Y-10081D01*
X9867Y-10070D01*
X10016Y-10008D01*
X10042Y-9913D01*
X9731Y-9601D01*
X9725Y-9607D01*
X9654Y-9536D01*
X9660Y-9531D01*
X9654Y-9525D01*
X9725Y-9454D01*
X9731Y-9460D01*
X9736Y-9454D01*
X9807Y-9525D01*
X9801Y-9531D01*
X10113Y-9842D01*
X10208Y-9816D01*
X10281Y-9611D01*
X10270Y-9395D01*
X10251Y-9350D01*
X12230Y-9350D01*
X12265Y-9384D01*
X12262Y-9391D01*
X12650Y-9779D01*
X12655Y-9773D01*
X12726Y-9844D01*
X12720Y-9850D01*
X13108Y-10237D01*
X13214Y-10197D01*
X13274Y-10036D01*
X13400Y-10081D01*
X13617Y-10070D01*
X13766Y-10008D01*
X13792Y-9913D01*
X13481Y-9601D01*
X13475Y-9607D01*
X13404Y-9536D01*
X13410Y-9531D01*
X13404Y-9525D01*
X13475Y-9454D01*
X13481Y-9460D01*
X13486Y-9454D01*
X13557Y-9525D01*
X13551Y-9531D01*
X13863Y-9842D01*
X13958Y-9816D01*
X14031Y-9611D01*
X14020Y-9395D01*
X14001Y-9350D01*
X15980Y-9350D01*
X16015Y-9384D01*
X16012Y-9391D01*
X16400Y-9779D01*
X16405Y-9773D01*
X16476Y-9844D01*
X16470Y-9850D01*
X16858Y-10237D01*
X16964Y-10197D01*
X17024Y-10036D01*
X17150Y-10081D01*
X17367Y-10070D01*
X17516Y-10008D01*
X17542Y-9913D01*
X17231Y-9601D01*
X17225Y-9607D01*
X17154Y-9536D01*
X17160Y-9531D01*
X17154Y-9525D01*
X17225Y-9454D01*
X17231Y-9460D01*
X17236Y-9454D01*
X17307Y-9525D01*
X17301Y-9531D01*
X17613Y-9842D01*
X17708Y-9816D01*
X17781Y-9611D01*
X17771Y-9428D01*
X18050Y-9707D01*
X18050Y-11800D01*
X16787Y-11800D01*
X16787Y-10308D01*
X16400Y-9920D01*
X16329Y-9991D01*
X16329Y-9850D01*
X15941Y-9462D01*
X15835Y-9502D01*
X15745Y-9744D01*
X15755Y-10002D01*
X15835Y-10197D01*
X15941Y-10237D01*
X16329Y-9850D01*
X16329Y-9991D01*
X16012Y-10308D01*
X16052Y-10414D01*
X16294Y-10504D01*
X16552Y-10494D01*
X16747Y-10414D01*
X16787Y-10308D01*
X16787Y-11800D01*
X15619Y-11800D01*
X15700Y-11718D01*
X15799Y-11479D01*
X15800Y-11221D01*
X15701Y-10982D01*
X15518Y-10799D01*
X15279Y-10700D01*
X15021Y-10699D01*
X14782Y-10798D01*
X14599Y-10981D01*
X14500Y-11220D01*
X14499Y-11478D01*
X14598Y-11717D01*
X14680Y-11800D01*
X13037Y-11800D01*
X13037Y-10308D01*
X12650Y-9920D01*
X12579Y-9991D01*
X12579Y-9850D01*
X12191Y-9462D01*
X12085Y-9502D01*
X11995Y-9744D01*
X12005Y-10002D01*
X12085Y-10197D01*
X12191Y-10237D01*
X12579Y-9850D01*
X12579Y-9991D01*
X12262Y-10308D01*
X12302Y-10414D01*
X12544Y-10504D01*
X12802Y-10494D01*
X12997Y-10414D01*
X13037Y-10308D01*
X13037Y-11800D01*
X11869Y-11800D01*
X11950Y-11718D01*
X12049Y-11479D01*
X12050Y-11221D01*
X11951Y-10982D01*
X11768Y-10799D01*
X11529Y-10700D01*
X11271Y-10699D01*
X11032Y-10798D01*
X10849Y-10981D01*
X10750Y-11220D01*
X10749Y-11478D01*
X10848Y-11717D01*
X10930Y-11800D01*
X9287Y-11800D01*
X9287Y-10308D01*
X8900Y-9920D01*
X8829Y-9991D01*
X8829Y-9850D01*
X8441Y-9462D01*
X8335Y-9502D01*
X8245Y-9744D01*
X8255Y-10002D01*
X8335Y-10197D01*
X8441Y-10237D01*
X8829Y-9850D01*
X8829Y-9991D01*
X8512Y-10308D01*
X8552Y-10414D01*
X8794Y-10504D01*
X9052Y-10494D01*
X9247Y-10414D01*
X9287Y-10308D01*
X9287Y-11800D01*
X8119Y-11800D01*
X8200Y-11718D01*
X8299Y-11479D01*
X8300Y-11221D01*
X8201Y-10982D01*
X8018Y-10799D01*
X7779Y-10700D01*
X7521Y-10699D01*
X7282Y-10798D01*
X7099Y-10981D01*
X7000Y-11220D01*
X6999Y-11478D01*
X7098Y-11717D01*
X7180Y-11800D01*
X5537Y-11800D01*
X5537Y-10308D01*
X5150Y-9920D01*
X5079Y-9991D01*
X5079Y-9850D01*
X4691Y-9462D01*
X4585Y-9502D01*
X4495Y-9744D01*
X4505Y-10002D01*
X4585Y-10197D01*
X4691Y-10237D01*
X5079Y-9850D01*
X5079Y-9991D01*
X4762Y-10308D01*
X4802Y-10414D01*
X5044Y-10504D01*
X5302Y-10494D01*
X5497Y-10414D01*
X5537Y-10308D01*
X5537Y-11800D01*
X4369Y-11800D01*
X4450Y-11718D01*
X4549Y-11479D01*
X4550Y-11221D01*
X4451Y-10982D01*
X4300Y-10830D01*
X4300Y-5221D01*
X4201Y-4982D01*
X4018Y-4799D01*
X3779Y-4700D01*
X3521Y-4699D01*
X3282Y-4798D01*
X3099Y-4981D01*
X3000Y-5220D01*
X2999Y-5478D01*
X3098Y-5717D01*
X3281Y-5900D01*
X3520Y-5999D01*
X3778Y-6000D01*
X4017Y-5901D01*
X4200Y-5718D01*
X4299Y-5479D01*
X4300Y-5221D01*
X4300Y-10830D01*
X4268Y-10799D01*
X4029Y-10700D01*
X3771Y-10699D01*
X3532Y-10798D01*
X3349Y-10981D01*
X3250Y-11220D01*
X3249Y-11478D01*
X3348Y-11717D01*
X3430Y-11800D01*
X2587Y-11800D01*
X2587Y8343D01*
X2752Y9170D01*
X3201Y9845D01*
X3882Y10299D01*
X4702Y10462D01*
X38350Y10462D01*
X38350Y4744D01*
X38350Y4744D01*
G37*
G54D35*
X38350Y4744D02*
X37655Y4050D01*
X37294Y4050D01*
X36442Y4902D01*
X36442Y5282D01*
X36442Y6007D01*
X36451Y6007D01*
X36607Y6071D01*
X36727Y6191D01*
X36792Y6347D01*
X36792Y6516D01*
X36728Y6672D01*
X36608Y6792D01*
X36452Y6857D01*
X36283Y6857D01*
X36127Y6792D01*
X36116Y6782D01*
X29062Y6782D01*
X29002Y6807D01*
X28833Y6807D01*
X28677Y6742D01*
X28641Y6707D01*
X23393Y6707D01*
X23358Y6742D01*
X23202Y6807D01*
X23033Y6807D01*
X22877Y6742D01*
X22866Y6732D01*
X20632Y6732D01*
X20498Y6705D01*
X20384Y6629D01*
X20157Y6402D01*
X20261Y6558D01*
X20300Y6750D01*
X20261Y6941D01*
X20153Y7103D01*
X19991Y7211D01*
X19800Y7250D01*
X19608Y7211D01*
X19446Y7103D01*
X18146Y5803D01*
X18038Y5641D01*
X17999Y5450D01*
X18000Y5449D01*
X18000Y3650D01*
X17875Y3650D01*
X17843Y3656D01*
X17614Y3656D01*
X17693Y3734D01*
X17776Y3934D01*
X17776Y4151D01*
X17694Y4350D01*
X17738Y4394D01*
X17776Y4485D01*
X17776Y4585D01*
X17776Y5175D01*
X17738Y5267D01*
X17668Y5338D01*
X17576Y5376D01*
X17476Y5376D01*
X17050Y5376D01*
X17050Y5599D01*
X17012Y5691D01*
X16941Y5761D01*
X16849Y5799D01*
X16750Y5800D01*
X15950Y5800D01*
X15858Y5762D01*
X15788Y5691D01*
X15750Y5599D01*
X15749Y5500D01*
X15749Y4700D01*
X15787Y4608D01*
X15858Y4538D01*
X15865Y4535D01*
X15849Y4518D01*
X15750Y4279D01*
X15749Y4021D01*
X15848Y3782D01*
X15980Y3650D01*
X15550Y3650D01*
X15550Y6778D01*
X15451Y7017D01*
X15268Y7200D01*
X15029Y7299D01*
X14771Y7300D01*
X14532Y7201D01*
X14349Y7018D01*
X14250Y6779D01*
X14249Y6521D01*
X14348Y6282D01*
X14531Y6099D01*
X14770Y6000D01*
X15028Y5999D01*
X15267Y6098D01*
X15450Y6281D01*
X15549Y6520D01*
X15550Y6778D01*
X15550Y3650D01*
X13858Y3650D01*
X13858Y3650D01*
X13943Y3734D01*
X14026Y3934D01*
X14026Y4151D01*
X13944Y4350D01*
X13988Y4394D01*
X14026Y4485D01*
X14026Y4585D01*
X14026Y5175D01*
X13988Y5267D01*
X13918Y5338D01*
X13826Y5376D01*
X13726Y5376D01*
X13300Y5376D01*
X13300Y5599D01*
X13262Y5691D01*
X13191Y5761D01*
X13099Y5799D01*
X13000Y5800D01*
X12200Y5800D01*
X12108Y5762D01*
X12038Y5691D01*
X12000Y5599D01*
X11999Y5500D01*
X11999Y4700D01*
X12037Y4608D01*
X12108Y4538D01*
X12115Y4535D01*
X12099Y4518D01*
X12000Y4279D01*
X11999Y4021D01*
X12098Y3782D01*
X12230Y3650D01*
X11800Y3650D01*
X11800Y6778D01*
X11701Y7017D01*
X11518Y7200D01*
X11279Y7299D01*
X11021Y7300D01*
X10782Y7201D01*
X10599Y7018D01*
X10500Y6779D01*
X10499Y6521D01*
X10598Y6282D01*
X10781Y6099D01*
X11020Y6000D01*
X11278Y5999D01*
X11517Y6098D01*
X11700Y6281D01*
X11799Y6520D01*
X11800Y6778D01*
X11800Y3650D01*
X10108Y3650D01*
X10108Y3650D01*
X10193Y3734D01*
X10276Y3934D01*
X10276Y4151D01*
X10194Y4350D01*
X10238Y4394D01*
X10276Y4485D01*
X10276Y4585D01*
X10276Y5175D01*
X10238Y5267D01*
X10168Y5338D01*
X10076Y5376D01*
X9976Y5376D01*
X9550Y5376D01*
X9550Y5599D01*
X9512Y5691D01*
X9441Y5761D01*
X9349Y5799D01*
X9250Y5800D01*
X8450Y5800D01*
X8358Y5762D01*
X8288Y5691D01*
X8250Y5599D01*
X8249Y5500D01*
X8249Y4700D01*
X8287Y4608D01*
X8358Y4538D01*
X8365Y4535D01*
X8349Y4518D01*
X8250Y4279D01*
X8249Y4021D01*
X8348Y3782D01*
X8480Y3650D01*
X7800Y3650D01*
X7800Y6778D01*
X7701Y7017D01*
X7518Y7200D01*
X7279Y7299D01*
X7021Y7300D01*
X6782Y7201D01*
X6599Y7018D01*
X6500Y6779D01*
X6499Y6521D01*
X6598Y6282D01*
X6781Y6099D01*
X7020Y6000D01*
X7278Y5999D01*
X7517Y6098D01*
X7700Y6281D01*
X7799Y6520D01*
X7800Y6778D01*
X7800Y3650D01*
X6358Y3650D01*
X6358Y3650D01*
X6443Y3734D01*
X6526Y3934D01*
X6526Y4151D01*
X6444Y4350D01*
X6488Y4394D01*
X6526Y4485D01*
X6526Y4585D01*
X6526Y5175D01*
X6488Y5267D01*
X6418Y5338D01*
X6326Y5376D01*
X6245Y5376D01*
X6245Y8680D01*
X6007Y9256D01*
X5567Y9696D01*
X4992Y9935D01*
X4369Y9936D01*
X3793Y9698D01*
X3353Y9258D01*
X3114Y8683D01*
X3113Y8060D01*
X3351Y7484D01*
X3540Y7295D01*
X3529Y7299D01*
X3271Y7300D01*
X3032Y7201D01*
X2849Y7018D01*
X2750Y6779D01*
X2749Y6521D01*
X2848Y6282D01*
X3031Y6099D01*
X3270Y6000D01*
X3528Y5999D01*
X3767Y6098D01*
X3950Y6281D01*
X4049Y6520D01*
X4050Y6778D01*
X3971Y6969D01*
X4366Y6805D01*
X4989Y6804D01*
X5565Y7042D01*
X6005Y7482D01*
X6244Y8057D01*
X6245Y8680D01*
X6245Y5376D01*
X6226Y5376D01*
X5800Y5376D01*
X5800Y5599D01*
X5762Y5691D01*
X5691Y5761D01*
X5599Y5799D01*
X5500Y5800D01*
X4700Y5800D01*
X4608Y5762D01*
X4538Y5691D01*
X4500Y5599D01*
X4499Y5500D01*
X4499Y4700D01*
X4537Y4608D01*
X4608Y4538D01*
X4615Y4535D01*
X4599Y4518D01*
X4500Y4279D01*
X4499Y4021D01*
X4598Y3782D01*
X4730Y3649D01*
X4599Y3518D01*
X4500Y3279D01*
X4499Y3021D01*
X4598Y2782D01*
X4765Y2615D01*
X4762Y2608D01*
X5150Y2220D01*
X5155Y2226D01*
X5226Y2155D01*
X5220Y2150D01*
X5608Y1762D01*
X5714Y1802D01*
X5774Y1963D01*
X5900Y1918D01*
X6117Y1929D01*
X6266Y1991D01*
X6292Y2086D01*
X5981Y2398D01*
X5975Y2392D01*
X5904Y2463D01*
X5910Y2468D01*
X5904Y2474D01*
X5975Y2545D01*
X5981Y2539D01*
X5986Y2545D01*
X6057Y2474D01*
X6051Y2468D01*
X6363Y2157D01*
X6458Y2183D01*
X6531Y2388D01*
X6520Y2604D01*
X6501Y2650D01*
X8480Y2650D01*
X8515Y2615D01*
X8512Y2608D01*
X8900Y2220D01*
X8905Y2226D01*
X8976Y2155D01*
X8970Y2150D01*
X8976Y2144D01*
X8905Y2073D01*
X8900Y2079D01*
X8894Y2073D01*
X8823Y2144D01*
X8829Y2150D01*
X8441Y2537D01*
X8335Y2497D01*
X8245Y2255D01*
X8255Y1997D01*
X8316Y1850D01*
X6150Y1850D01*
X6016Y1823D01*
X5902Y1747D01*
X5537Y1382D01*
X5537Y1691D01*
X5150Y2079D01*
X5079Y2008D01*
X5079Y2150D01*
X4691Y2537D01*
X4585Y2497D01*
X4495Y2255D01*
X4505Y1997D01*
X4585Y1802D01*
X4691Y1762D01*
X5079Y2150D01*
X5079Y2008D01*
X4762Y1691D01*
X4802Y1585D01*
X5044Y1495D01*
X5302Y1505D01*
X5497Y1585D01*
X5537Y1691D01*
X5537Y1382D01*
X4902Y747D01*
X4826Y633D01*
X4800Y500D01*
X4800Y-199D01*
X4700Y-199D01*
X4608Y-237D01*
X4538Y-308D01*
X4500Y-400D01*
X4499Y-499D01*
X4499Y-1299D01*
X4537Y-1391D01*
X4608Y-1461D01*
X4615Y-1464D01*
X4599Y-1481D01*
X4500Y-1720D01*
X4499Y-1978D01*
X4598Y-2217D01*
X4730Y-2350D01*
X4599Y-2481D01*
X4500Y-2720D01*
X4499Y-2978D01*
X4598Y-3217D01*
X4765Y-3384D01*
X4762Y-3391D01*
X5150Y-3779D01*
X5155Y-3773D01*
X5226Y-3844D01*
X5220Y-3850D01*
X5608Y-4237D01*
X5714Y-4197D01*
X5774Y-4036D01*
X5900Y-4081D01*
X6117Y-4070D01*
X6266Y-4008D01*
X6292Y-3913D01*
X5981Y-3601D01*
X5975Y-3607D01*
X5904Y-3536D01*
X5910Y-3531D01*
X5904Y-3525D01*
X5975Y-3454D01*
X5981Y-3460D01*
X5986Y-3454D01*
X6057Y-3525D01*
X6051Y-3531D01*
X6363Y-3842D01*
X6458Y-3816D01*
X6531Y-3611D01*
X6520Y-3395D01*
X6501Y-3350D01*
X8480Y-3350D01*
X8515Y-3384D01*
X8512Y-3391D01*
X8900Y-3779D01*
X8905Y-3773D01*
X8976Y-3844D01*
X8970Y-3850D01*
X9358Y-4237D01*
X9464Y-4197D01*
X9524Y-4036D01*
X9650Y-4081D01*
X9867Y-4070D01*
X10016Y-4008D01*
X10042Y-3913D01*
X9731Y-3601D01*
X9725Y-3607D01*
X9654Y-3536D01*
X9660Y-3531D01*
X9654Y-3525D01*
X9725Y-3454D01*
X9731Y-3460D01*
X9736Y-3454D01*
X9807Y-3525D01*
X9801Y-3531D01*
X10113Y-3842D01*
X10208Y-3816D01*
X10281Y-3611D01*
X10270Y-3395D01*
X10251Y-3350D01*
X12230Y-3350D01*
X12265Y-3384D01*
X12262Y-3391D01*
X12650Y-3779D01*
X12655Y-3773D01*
X12726Y-3844D01*
X12720Y-3850D01*
X13108Y-4237D01*
X13214Y-4197D01*
X13274Y-4036D01*
X13400Y-4081D01*
X13617Y-4070D01*
X13766Y-4008D01*
X13792Y-3913D01*
X13481Y-3601D01*
X13475Y-3607D01*
X13404Y-3536D01*
X13410Y-3531D01*
X13404Y-3525D01*
X13475Y-3454D01*
X13481Y-3460D01*
X13486Y-3454D01*
X13557Y-3525D01*
X13551Y-3531D01*
X13863Y-3842D01*
X13958Y-3816D01*
X14031Y-3611D01*
X14020Y-3395D01*
X14001Y-3350D01*
X15980Y-3350D01*
X16015Y-3384D01*
X16012Y-3391D01*
X16400Y-3779D01*
X16405Y-3773D01*
X16476Y-3844D01*
X16470Y-3850D01*
X16858Y-4237D01*
X16964Y-4197D01*
X17024Y-4036D01*
X17150Y-4081D01*
X17367Y-4070D01*
X17516Y-4008D01*
X17542Y-3913D01*
X17231Y-3601D01*
X17225Y-3607D01*
X17154Y-3536D01*
X17160Y-3531D01*
X17154Y-3525D01*
X17225Y-3454D01*
X17231Y-3460D01*
X17236Y-3454D01*
X17307Y-3525D01*
X17301Y-3531D01*
X17613Y-3842D01*
X17708Y-3816D01*
X17781Y-3611D01*
X17770Y-3395D01*
X17751Y-3350D01*
X18000Y-3350D01*
X18000Y-4649D01*
X17999Y-4650D01*
X18000Y-4650D01*
X18000Y-5400D01*
X17808Y-5438D01*
X17646Y-5546D01*
X17538Y-5708D01*
X17500Y-5900D01*
X17538Y-6091D01*
X17646Y-6253D01*
X17808Y-6361D01*
X18000Y-6400D01*
X18000Y-8042D01*
X17692Y-8350D01*
X17650Y-8350D01*
X17608Y-8350D01*
X17608Y-8349D01*
X17693Y-8265D01*
X17776Y-8065D01*
X17776Y-7848D01*
X17694Y-7649D01*
X17738Y-7605D01*
X17776Y-7514D01*
X17776Y-7414D01*
X17776Y-6824D01*
X17738Y-6732D01*
X17668Y-6661D01*
X17576Y-6623D01*
X17476Y-6623D01*
X17050Y-6623D01*
X17050Y-6400D01*
X17012Y-6308D01*
X16941Y-6238D01*
X16849Y-6200D01*
X16787Y-6199D01*
X16787Y-4308D01*
X16400Y-3920D01*
X16329Y-3991D01*
X16329Y-3850D01*
X15941Y-3462D01*
X15835Y-3502D01*
X15745Y-3744D01*
X15755Y-4002D01*
X15835Y-4197D01*
X15941Y-4237D01*
X16329Y-3850D01*
X16329Y-3991D01*
X16012Y-4308D01*
X16052Y-4414D01*
X16294Y-4504D01*
X16552Y-4494D01*
X16747Y-4414D01*
X16787Y-4308D01*
X16787Y-6199D01*
X16750Y-6199D01*
X15950Y-6199D01*
X15858Y-6237D01*
X15788Y-6308D01*
X15750Y-6400D01*
X15749Y-6499D01*
X15749Y-7299D01*
X15787Y-7391D01*
X15858Y-7461D01*
X15865Y-7464D01*
X15849Y-7481D01*
X15750Y-7720D01*
X15749Y-7978D01*
X15848Y-8217D01*
X15980Y-8350D01*
X13858Y-8350D01*
X13858Y-8349D01*
X13943Y-8265D01*
X14026Y-8065D01*
X14026Y-7848D01*
X13944Y-7649D01*
X13988Y-7605D01*
X14026Y-7514D01*
X14026Y-7414D01*
X14026Y-6824D01*
X13988Y-6732D01*
X13918Y-6661D01*
X13826Y-6623D01*
X13726Y-6623D01*
X13300Y-6623D01*
X13300Y-6600D01*
X14825Y-6600D01*
X14958Y-6573D01*
X14958Y-6573D01*
X15072Y-6497D01*
X15519Y-6050D01*
X15534Y-6050D01*
X15690Y-5985D01*
X15810Y-5866D01*
X15874Y-5709D01*
X15874Y-5658D01*
X15990Y-5610D01*
X16110Y-5491D01*
X16174Y-5334D01*
X16175Y-5165D01*
X16110Y-5009D01*
X15991Y-4889D01*
X15834Y-4825D01*
X15665Y-4824D01*
X15509Y-4889D01*
X15499Y-4900D01*
X15250Y-4900D01*
X15249Y-4900D01*
X15116Y-4926D01*
X15002Y-5002D01*
X15002Y-5002D01*
X14405Y-5600D01*
X14250Y-5600D01*
X14299Y-5479D01*
X14300Y-5221D01*
X14201Y-4982D01*
X14018Y-4799D01*
X13779Y-4700D01*
X13521Y-4699D01*
X13282Y-4798D01*
X13099Y-4981D01*
X13037Y-5129D01*
X13037Y-4308D01*
X12650Y-3920D01*
X12579Y-3991D01*
X12579Y-3850D01*
X12191Y-3462D01*
X12085Y-3502D01*
X11995Y-3744D01*
X12005Y-4002D01*
X12085Y-4197D01*
X12191Y-4237D01*
X12579Y-3850D01*
X12579Y-3991D01*
X12262Y-4308D01*
X12302Y-4414D01*
X12544Y-4504D01*
X12802Y-4494D01*
X12997Y-4414D01*
X13037Y-4308D01*
X13037Y-5129D01*
X13000Y-5220D01*
X12999Y-5478D01*
X13049Y-5600D01*
X11750Y-5600D01*
X11799Y-5479D01*
X11800Y-5221D01*
X11701Y-4982D01*
X11518Y-4799D01*
X11279Y-4700D01*
X11021Y-4699D01*
X10782Y-4798D01*
X10599Y-4981D01*
X10500Y-5220D01*
X10499Y-5478D01*
X10598Y-5717D01*
X10630Y-5750D01*
X9287Y-5750D01*
X9287Y-4308D01*
X8900Y-3920D01*
X8829Y-3991D01*
X8829Y-3850D01*
X8441Y-3462D01*
X8335Y-3502D01*
X8245Y-3744D01*
X8255Y-4002D01*
X8335Y-4197D01*
X8441Y-4237D01*
X8829Y-3850D01*
X8829Y-3991D01*
X8512Y-4308D01*
X8552Y-4414D01*
X8794Y-4504D01*
X9052Y-4494D01*
X9247Y-4414D01*
X9287Y-4308D01*
X9287Y-5750D01*
X7919Y-5750D01*
X7950Y-5718D01*
X8049Y-5479D01*
X8050Y-5221D01*
X7951Y-4982D01*
X7768Y-4799D01*
X7529Y-4700D01*
X7271Y-4699D01*
X7032Y-4798D01*
X6849Y-4981D01*
X6750Y-5220D01*
X6749Y-5478D01*
X6848Y-5717D01*
X7031Y-5900D01*
X7270Y-5999D01*
X7504Y-6000D01*
X7077Y-6427D01*
X6526Y-6978D01*
X6526Y-6824D01*
X6488Y-6732D01*
X6418Y-6661D01*
X6326Y-6623D01*
X6226Y-6623D01*
X5800Y-6623D01*
X5800Y-6400D01*
X5762Y-6308D01*
X5691Y-6238D01*
X5599Y-6200D01*
X5537Y-6199D01*
X5537Y-4308D01*
X5150Y-3920D01*
X5079Y-3991D01*
X5079Y-3850D01*
X4691Y-3462D01*
X4585Y-3502D01*
X4495Y-3744D01*
X4505Y-4002D01*
X4585Y-4197D01*
X4691Y-4237D01*
X5079Y-3850D01*
X5079Y-3991D01*
X4762Y-4308D01*
X4802Y-4414D01*
X5044Y-4504D01*
X5302Y-4494D01*
X5497Y-4414D01*
X5537Y-4308D01*
X5537Y-6199D01*
X5500Y-6199D01*
X4700Y-6199D01*
X4608Y-6237D01*
X4538Y-6308D01*
X4500Y-6400D01*
X4499Y-6499D01*
X4499Y-7299D01*
X4537Y-7391D01*
X4608Y-7461D01*
X4615Y-7464D01*
X4599Y-7481D01*
X4500Y-7720D01*
X4499Y-7978D01*
X4598Y-8217D01*
X4730Y-8350D01*
X4599Y-8481D01*
X4500Y-8720D01*
X4499Y-8978D01*
X4598Y-9217D01*
X4765Y-9384D01*
X4762Y-9391D01*
X5150Y-9779D01*
X5155Y-9773D01*
X5226Y-9844D01*
X5220Y-9850D01*
X5608Y-10237D01*
X5714Y-10197D01*
X5774Y-10036D01*
X5900Y-10081D01*
X6117Y-10070D01*
X6266Y-10008D01*
X6292Y-9913D01*
X5981Y-9601D01*
X5975Y-9607D01*
X5904Y-9536D01*
X5910Y-9531D01*
X5904Y-9525D01*
X5975Y-9454D01*
X5981Y-9460D01*
X5986Y-9454D01*
X6057Y-9525D01*
X6051Y-9531D01*
X6363Y-9842D01*
X6458Y-9816D01*
X6531Y-9611D01*
X6520Y-9395D01*
X6501Y-9350D01*
X8480Y-9350D01*
X8515Y-9384D01*
X8512Y-9391D01*
X8900Y-9779D01*
X8905Y-9773D01*
X8976Y-9844D01*
X8970Y-9850D01*
X9358Y-10237D01*
X9464Y-10197D01*
X9524Y-10036D01*
X9650Y-10081D01*
X9867Y-10070D01*
X10016Y-10008D01*
X10042Y-9913D01*
X9731Y-9601D01*
X9725Y-9607D01*
X9654Y-9536D01*
X9660Y-9531D01*
X9654Y-9525D01*
X9725Y-9454D01*
X9731Y-9460D01*
X9736Y-9454D01*
X9807Y-9525D01*
X9801Y-9531D01*
X10113Y-9842D01*
X10208Y-9816D01*
X10281Y-9611D01*
X10270Y-9395D01*
X10251Y-9350D01*
X12230Y-9350D01*
X12265Y-9384D01*
X12262Y-9391D01*
X12650Y-9779D01*
X12655Y-9773D01*
X12726Y-9844D01*
X12720Y-9850D01*
X13108Y-10237D01*
X13214Y-10197D01*
X13274Y-10036D01*
X13400Y-10081D01*
X13617Y-10070D01*
X13766Y-10008D01*
X13792Y-9913D01*
X13481Y-9601D01*
X13475Y-9607D01*
X13404Y-9536D01*
X13410Y-9531D01*
X13404Y-9525D01*
X13475Y-9454D01*
X13481Y-9460D01*
X13486Y-9454D01*
X13557Y-9525D01*
X13551Y-9531D01*
X13863Y-9842D01*
X13958Y-9816D01*
X14031Y-9611D01*
X14020Y-9395D01*
X14001Y-9350D01*
X15980Y-9350D01*
X16015Y-9384D01*
X16012Y-9391D01*
X16400Y-9779D01*
X16405Y-9773D01*
X16476Y-9844D01*
X16470Y-9850D01*
X16858Y-10237D01*
X16964Y-10197D01*
X17024Y-10036D01*
X17150Y-10081D01*
X17367Y-10070D01*
X17516Y-10008D01*
X17542Y-9913D01*
X17231Y-9601D01*
X17225Y-9607D01*
X17154Y-9536D01*
X17160Y-9531D01*
X17154Y-9525D01*
X17225Y-9454D01*
X17231Y-9460D01*
X17236Y-9454D01*
X17307Y-9525D01*
X17301Y-9531D01*
X17613Y-9842D01*
X17708Y-9816D01*
X17781Y-9611D01*
X17771Y-9428D01*
X18050Y-9707D01*
X18050Y-11800D01*
X16787Y-11800D01*
X16787Y-10308D01*
X16400Y-9920D01*
X16329Y-9991D01*
X16329Y-9850D01*
X15941Y-9462D01*
X15835Y-9502D01*
X15745Y-9744D01*
X15755Y-10002D01*
X15835Y-10197D01*
X15941Y-10237D01*
X16329Y-9850D01*
X16329Y-9991D01*
X16012Y-10308D01*
X16052Y-10414D01*
X16294Y-10504D01*
X16552Y-10494D01*
X16747Y-10414D01*
X16787Y-10308D01*
X16787Y-11800D01*
X15619Y-11800D01*
X15700Y-11718D01*
X15799Y-11479D01*
X15800Y-11221D01*
X15701Y-10982D01*
X15518Y-10799D01*
X15279Y-10700D01*
X15021Y-10699D01*
X14782Y-10798D01*
X14599Y-10981D01*
X14500Y-11220D01*
X14499Y-11478D01*
X14598Y-11717D01*
X14680Y-11800D01*
X13037Y-11800D01*
X13037Y-10308D01*
X12650Y-9920D01*
X12579Y-9991D01*
X12579Y-9850D01*
X12191Y-9462D01*
X12085Y-9502D01*
X11995Y-9744D01*
X12005Y-10002D01*
X12085Y-10197D01*
X12191Y-10237D01*
X12579Y-9850D01*
X12579Y-9991D01*
X12262Y-10308D01*
X12302Y-10414D01*
X12544Y-10504D01*
X12802Y-10494D01*
X12997Y-10414D01*
X13037Y-10308D01*
X13037Y-11800D01*
X11869Y-11800D01*
X11950Y-11718D01*
X12049Y-11479D01*
X12050Y-11221D01*
X11951Y-10982D01*
X11768Y-10799D01*
X11529Y-10700D01*
X11271Y-10699D01*
X11032Y-10798D01*
X10849Y-10981D01*
X10750Y-11220D01*
X10749Y-11478D01*
X10848Y-11717D01*
X10930Y-11800D01*
X9287Y-11800D01*
X9287Y-10308D01*
X8900Y-9920D01*
X8829Y-9991D01*
X8829Y-9850D01*
X8441Y-9462D01*
X8335Y-9502D01*
X8245Y-9744D01*
X8255Y-10002D01*
X8335Y-10197D01*
X8441Y-10237D01*
X8829Y-9850D01*
X8829Y-9991D01*
X8512Y-10308D01*
X8552Y-10414D01*
X8794Y-10504D01*
X9052Y-10494D01*
X9247Y-10414D01*
X9287Y-10308D01*
X9287Y-11800D01*
X8119Y-11800D01*
X8200Y-11718D01*
X8299Y-11479D01*
X8300Y-11221D01*
X8201Y-10982D01*
X8018Y-10799D01*
X7779Y-10700D01*
X7521Y-10699D01*
X7282Y-10798D01*
X7099Y-10981D01*
X7000Y-11220D01*
X6999Y-11478D01*
X7098Y-11717D01*
X7180Y-11800D01*
X5537Y-11800D01*
X5537Y-10308D01*
X5150Y-9920D01*
X5079Y-9991D01*
X5079Y-9850D01*
X4691Y-9462D01*
X4585Y-9502D01*
X4495Y-9744D01*
X4505Y-10002D01*
X4585Y-10197D01*
X4691Y-10237D01*
X5079Y-9850D01*
X5079Y-9991D01*
X4762Y-10308D01*
X4802Y-10414D01*
X5044Y-10504D01*
X5302Y-10494D01*
X5497Y-10414D01*
X5537Y-10308D01*
X5537Y-11800D01*
X4369Y-11800D01*
X4450Y-11718D01*
X4549Y-11479D01*
X4550Y-11221D01*
X4451Y-10982D01*
X4300Y-10830D01*
X4300Y-5221D01*
X4201Y-4982D01*
X4018Y-4799D01*
X3779Y-4700D01*
X3521Y-4699D01*
X3282Y-4798D01*
X3099Y-4981D01*
X3000Y-5220D01*
X2999Y-5478D01*
X3098Y-5717D01*
X3281Y-5900D01*
X3520Y-5999D01*
X3778Y-6000D01*
X4017Y-5901D01*
X4200Y-5718D01*
X4299Y-5479D01*
X4300Y-5221D01*
X4300Y-10830D01*
X4268Y-10799D01*
X4029Y-10700D01*
X3771Y-10699D01*
X3532Y-10798D01*
X3349Y-10981D01*
X3250Y-11220D01*
X3249Y-11478D01*
X3348Y-11717D01*
X3430Y-11800D01*
X2587Y-11800D01*
X2587Y8343D01*
X2752Y9170D01*
X3201Y9845D01*
X3882Y10299D01*
X4702Y10462D01*
X38350Y10462D01*
X38350Y4744D01*
G54D10*
G36*
X38350Y-800D02*
X38054Y-800D01*
X38054Y1544D01*
X38044Y1802D01*
X37964Y1997D01*
X37858Y2037D01*
X37787Y1966D01*
X37787Y2108D01*
X37747Y2214D01*
X37505Y2304D01*
X37247Y2294D01*
X37052Y2214D01*
X37012Y2108D01*
X37400Y1720D01*
X37787Y2108D01*
X37787Y1966D01*
X37470Y1650D01*
X37858Y1262D01*
X37964Y1302D01*
X38054Y1544D01*
X38054Y-800D01*
X37787Y-800D01*
X37787Y1191D01*
X37400Y1579D01*
X37329Y1508D01*
X37329Y1650D01*
X36941Y2037D01*
X36835Y1997D01*
X36745Y1755D01*
X36755Y1497D01*
X36835Y1302D01*
X36941Y1262D01*
X37329Y1650D01*
X37329Y1508D01*
X37012Y1191D01*
X37052Y1085D01*
X37294Y995D01*
X37552Y1005D01*
X37747Y1085D01*
X37787Y1191D01*
X37787Y-800D01*
X33092Y-800D01*
X33092Y4666D01*
X33028Y4822D01*
X32908Y4942D01*
X32752Y5007D01*
X32583Y5007D01*
X32427Y4942D01*
X32416Y4932D01*
X31775Y4932D01*
X31225Y4932D01*
X30562Y4932D01*
X30502Y4957D01*
X30333Y4957D01*
X30177Y4892D01*
X30057Y4773D01*
X29992Y4617D01*
X29992Y4448D01*
X30057Y4292D01*
X30176Y4172D01*
X30332Y4107D01*
X30501Y4107D01*
X30657Y4171D01*
X30718Y4232D01*
X31225Y4232D01*
X31775Y4232D01*
X32416Y4232D01*
X32426Y4222D01*
X32582Y4157D01*
X32751Y4157D01*
X32907Y4221D01*
X33027Y4341D01*
X33092Y4497D01*
X33092Y4666D01*
X33092Y-800D01*
X19750Y-800D01*
X19750Y4555D01*
X20727Y5532D01*
X22016Y5532D01*
X22026Y5522D01*
X22182Y5457D01*
X22351Y5457D01*
X22507Y5521D01*
X22543Y5557D01*
X25162Y5557D01*
X25127Y5542D01*
X25091Y5507D01*
X24417Y5507D01*
X24293Y5482D01*
X24254Y5456D01*
X24252Y5457D01*
X24083Y5457D01*
X23927Y5392D01*
X23807Y5273D01*
X23742Y5117D01*
X23742Y4948D01*
X23807Y4792D01*
X23926Y4672D01*
X24082Y4607D01*
X24251Y4607D01*
X24407Y4671D01*
X24527Y4791D01*
X24555Y4857D01*
X25091Y4857D01*
X25126Y4822D01*
X25282Y4757D01*
X25451Y4757D01*
X25607Y4821D01*
X25727Y4941D01*
X25792Y5097D01*
X25792Y5266D01*
X25728Y5422D01*
X25608Y5542D01*
X25572Y5557D01*
X26609Y5557D01*
X26592Y5517D01*
X26592Y5348D01*
X26657Y5192D01*
X26698Y5150D01*
X26717Y5058D01*
X26787Y4952D01*
X28142Y3597D01*
X28142Y3548D01*
X28207Y3392D01*
X28326Y3272D01*
X28482Y3207D01*
X28651Y3207D01*
X28807Y3271D01*
X28927Y3391D01*
X28992Y3547D01*
X28992Y3716D01*
X28928Y3872D01*
X28808Y3992D01*
X28652Y4057D01*
X28602Y4057D01*
X27404Y5255D01*
X27442Y5347D01*
X27442Y5516D01*
X27425Y5557D01*
X27867Y5557D01*
X27891Y5557D01*
X27926Y5522D01*
X28082Y5457D01*
X28251Y5457D01*
X28407Y5521D01*
X28418Y5532D01*
X34142Y5532D01*
X34142Y5448D01*
X34207Y5292D01*
X34242Y5256D01*
X34242Y4032D01*
X34244Y4022D01*
X34242Y4017D01*
X34242Y3848D01*
X34307Y3692D01*
X34426Y3572D01*
X34582Y3507D01*
X34751Y3507D01*
X34907Y3571D01*
X34970Y3634D01*
X35502Y3102D01*
X35616Y3026D01*
X35750Y3000D01*
X35950Y3000D01*
X37900Y3000D01*
X38033Y3026D01*
X38033Y3026D01*
X38147Y3102D01*
X38350Y3305D01*
X38350Y-800D01*
X38350Y-800D01*
G37*
G54D35*
X38350Y-800D02*
X38054Y-800D01*
X38054Y1544D01*
X38044Y1802D01*
X37964Y1997D01*
X37858Y2037D01*
X37787Y1966D01*
X37787Y2108D01*
X37747Y2214D01*
X37505Y2304D01*
X37247Y2294D01*
X37052Y2214D01*
X37012Y2108D01*
X37400Y1720D01*
X37787Y2108D01*
X37787Y1966D01*
X37470Y1650D01*
X37858Y1262D01*
X37964Y1302D01*
X38054Y1544D01*
X38054Y-800D01*
X37787Y-800D01*
X37787Y1191D01*
X37400Y1579D01*
X37329Y1508D01*
X37329Y1650D01*
X36941Y2037D01*
X36835Y1997D01*
X36745Y1755D01*
X36755Y1497D01*
X36835Y1302D01*
X36941Y1262D01*
X37329Y1650D01*
X37329Y1508D01*
X37012Y1191D01*
X37052Y1085D01*
X37294Y995D01*
X37552Y1005D01*
X37747Y1085D01*
X37787Y1191D01*
X37787Y-800D01*
X33092Y-800D01*
X33092Y4666D01*
X33028Y4822D01*
X32908Y4942D01*
X32752Y5007D01*
X32583Y5007D01*
X32427Y4942D01*
X32416Y4932D01*
X31775Y4932D01*
X31225Y4932D01*
X30562Y4932D01*
X30502Y4957D01*
X30333Y4957D01*
X30177Y4892D01*
X30057Y4773D01*
X29992Y4617D01*
X29992Y4448D01*
X30057Y4292D01*
X30176Y4172D01*
X30332Y4107D01*
X30501Y4107D01*
X30657Y4171D01*
X30718Y4232D01*
X31225Y4232D01*
X31775Y4232D01*
X32416Y4232D01*
X32426Y4222D01*
X32582Y4157D01*
X32751Y4157D01*
X32907Y4221D01*
X33027Y4341D01*
X33092Y4497D01*
X33092Y4666D01*
X33092Y-800D01*
X19750Y-800D01*
X19750Y4555D01*
X20727Y5532D01*
X22016Y5532D01*
X22026Y5522D01*
X22182Y5457D01*
X22351Y5457D01*
X22507Y5521D01*
X22543Y5557D01*
X25162Y5557D01*
X25127Y5542D01*
X25091Y5507D01*
X24417Y5507D01*
X24293Y5482D01*
X24254Y5456D01*
X24252Y5457D01*
X24083Y5457D01*
X23927Y5392D01*
X23807Y5273D01*
X23742Y5117D01*
X23742Y4948D01*
X23807Y4792D01*
X23926Y4672D01*
X24082Y4607D01*
X24251Y4607D01*
X24407Y4671D01*
X24527Y4791D01*
X24555Y4857D01*
X25091Y4857D01*
X25126Y4822D01*
X25282Y4757D01*
X25451Y4757D01*
X25607Y4821D01*
X25727Y4941D01*
X25792Y5097D01*
X25792Y5266D01*
X25728Y5422D01*
X25608Y5542D01*
X25572Y5557D01*
X26609Y5557D01*
X26592Y5517D01*
X26592Y5348D01*
X26657Y5192D01*
X26698Y5150D01*
X26717Y5058D01*
X26787Y4952D01*
X28142Y3597D01*
X28142Y3548D01*
X28207Y3392D01*
X28326Y3272D01*
X28482Y3207D01*
X28651Y3207D01*
X28807Y3271D01*
X28927Y3391D01*
X28992Y3547D01*
X28992Y3716D01*
X28928Y3872D01*
X28808Y3992D01*
X28652Y4057D01*
X28602Y4057D01*
X27404Y5255D01*
X27442Y5347D01*
X27442Y5516D01*
X27425Y5557D01*
X27867Y5557D01*
X27891Y5557D01*
X27926Y5522D01*
X28082Y5457D01*
X28251Y5457D01*
X28407Y5521D01*
X28418Y5532D01*
X34142Y5532D01*
X34142Y5448D01*
X34207Y5292D01*
X34242Y5256D01*
X34242Y4032D01*
X34244Y4022D01*
X34242Y4017D01*
X34242Y3848D01*
X34307Y3692D01*
X34426Y3572D01*
X34582Y3507D01*
X34751Y3507D01*
X34907Y3571D01*
X34970Y3634D01*
X35502Y3102D01*
X35616Y3026D01*
X35750Y3000D01*
X35950Y3000D01*
X37900Y3000D01*
X38033Y3026D01*
X38033Y3026D01*
X38147Y3102D01*
X38350Y3305D01*
X38350Y-800D01*
M02*
