G04 (created by PCBNEW (2013-07-07 BZR 4022)-stable) date 07/05/2015 17:00:17*
%MOIN*%
G04 Gerber Fmt 3.4, Leading zero omitted, Abs format*
%FSLAX34Y34*%
G01*
G70*
G90*
G04 APERTURE LIST*
%ADD10C,0.00590551*%
%ADD11C,0.0945*%
%ADD12R,0.0984X0.0984*%
%ADD13C,0.0984*%
%ADD14C,0.08*%
%ADD15C,0.0787402*%
%ADD16R,0.075X0.075*%
%ADD17C,0.075*%
%ADD18C,0.2559*%
%ADD19R,0.09X0.062*%
%ADD20O,0.09X0.062*%
%ADD21R,0.08X0.08*%
%ADD22C,0.0629921*%
%ADD23R,0.0590551X0.0590551*%
%ADD24C,0.0590551*%
%ADD25O,0.1X0.0709*%
%ADD26C,0.125984*%
%ADD27C,0.0039*%
%ADD28C,0.0394*%
G04 APERTURE END LIST*
G54D10*
G54D11*
X36100Y-11250D03*
X36100Y-8750D03*
X30600Y-8750D03*
X30600Y-11250D03*
G54D12*
X46900Y-22100D03*
G54D13*
X48900Y-22100D03*
G54D12*
X7900Y-22100D03*
G54D13*
X9900Y-22100D03*
G54D12*
X11900Y-22100D03*
G54D13*
X13900Y-22100D03*
G54D12*
X15900Y-22100D03*
G54D13*
X17900Y-22100D03*
G54D12*
X27700Y-22100D03*
G54D13*
X29700Y-22100D03*
G54D14*
X30550Y-3600D03*
X30550Y-4600D03*
X36050Y-3600D03*
X36050Y-4600D03*
G54D15*
X34200Y-21850D03*
X35200Y-21850D03*
X33200Y-21850D03*
G54D12*
X50900Y-22100D03*
G54D13*
X52900Y-22100D03*
G54D16*
X55400Y-8100D03*
G54D17*
X53400Y-8100D03*
G54D18*
X4679Y-23125D03*
X55860Y8370D03*
X55860Y-23125D03*
G54D19*
X52900Y-10600D03*
G54D20*
X52900Y-11600D03*
X52900Y-12600D03*
X52900Y-13600D03*
X55900Y-13600D03*
X55900Y-12600D03*
X55900Y-11600D03*
X55900Y-10600D03*
G54D19*
X45650Y-10600D03*
G54D20*
X45650Y-11600D03*
X45650Y-12600D03*
X45650Y-13600D03*
X48650Y-13600D03*
X48650Y-12600D03*
X48650Y-11600D03*
X48650Y-10600D03*
G54D16*
X48150Y-8100D03*
G54D17*
X46150Y-8100D03*
G54D18*
X4679Y8370D03*
G54D21*
X28850Y-10750D03*
G54D14*
X28850Y-9750D03*
G54D21*
X34350Y-10750D03*
G54D14*
X34350Y-9750D03*
G54D12*
X43700Y-22100D03*
G54D13*
X41700Y-22100D03*
G54D22*
X43050Y-21200D03*
X42250Y-21200D03*
G54D12*
X39700Y-22100D03*
G54D13*
X37700Y-22100D03*
G54D22*
X39050Y-21200D03*
X38250Y-21200D03*
G54D14*
X39400Y6650D03*
X13650Y-5350D03*
X11150Y-5350D03*
X7400Y-5350D03*
X3650Y-5350D03*
X15150Y-11350D03*
X11400Y-11350D03*
X7650Y-11350D03*
X3900Y-11350D03*
X37400Y1650D03*
X21900Y-3850D03*
X42900Y-19850D03*
X42900Y-6600D03*
X52900Y-6600D03*
X45650Y-6350D03*
X14900Y6650D03*
X11150Y6650D03*
X7150Y6650D03*
X3400Y6650D03*
X21900Y-5100D03*
G54D21*
X8900Y-6850D03*
G54D14*
X8900Y-7850D03*
X8900Y-8850D03*
X8900Y-9850D03*
G54D23*
X9731Y-7168D03*
G54D24*
X9731Y-7956D03*
X9731Y-8743D03*
X9731Y-9531D03*
G54D21*
X5150Y-6850D03*
G54D14*
X5150Y-7850D03*
X5150Y-8850D03*
X5150Y-9850D03*
G54D23*
X5981Y-7168D03*
G54D24*
X5981Y-7956D03*
X5981Y-8743D03*
X5981Y-9531D03*
G54D21*
X12650Y-6850D03*
G54D14*
X12650Y-7850D03*
X12650Y-8850D03*
X12650Y-9850D03*
G54D23*
X13481Y-7168D03*
G54D24*
X13481Y-7956D03*
X13481Y-8743D03*
X13481Y-9531D03*
G54D21*
X16400Y-6850D03*
G54D14*
X16400Y-7850D03*
X16400Y-8850D03*
X16400Y-9850D03*
G54D23*
X17231Y-7168D03*
G54D24*
X17231Y-7956D03*
X17231Y-8743D03*
X17231Y-9531D03*
G54D21*
X8900Y-850D03*
G54D14*
X8900Y-1850D03*
X8900Y-2850D03*
X8900Y-3850D03*
G54D23*
X9731Y-1168D03*
G54D24*
X9731Y-1956D03*
X9731Y-2743D03*
X9731Y-3531D03*
G54D21*
X5150Y-850D03*
G54D14*
X5150Y-1850D03*
X5150Y-2850D03*
X5150Y-3850D03*
G54D23*
X5981Y-1168D03*
G54D24*
X5981Y-1956D03*
X5981Y-2743D03*
X5981Y-3531D03*
G54D21*
X12650Y-850D03*
G54D14*
X12650Y-1850D03*
X12650Y-2850D03*
X12650Y-3850D03*
G54D23*
X13481Y-1168D03*
G54D24*
X13481Y-1956D03*
X13481Y-2743D03*
X13481Y-3531D03*
G54D21*
X16400Y-850D03*
G54D14*
X16400Y-1850D03*
X16400Y-2850D03*
X16400Y-3850D03*
G54D23*
X17231Y-1168D03*
G54D24*
X17231Y-1956D03*
X17231Y-2743D03*
X17231Y-3531D03*
G54D21*
X16400Y5150D03*
G54D14*
X16400Y4150D03*
X16400Y3150D03*
X16400Y2150D03*
G54D23*
X17231Y4831D03*
G54D24*
X17231Y4043D03*
X17231Y3256D03*
X17231Y2468D03*
G54D21*
X12650Y5150D03*
G54D14*
X12650Y4150D03*
X12650Y3150D03*
X12650Y2150D03*
G54D23*
X13481Y4831D03*
G54D24*
X13481Y4043D03*
X13481Y3256D03*
X13481Y2468D03*
G54D21*
X8900Y5150D03*
G54D14*
X8900Y4150D03*
X8900Y3150D03*
X8900Y2150D03*
G54D23*
X9731Y4831D03*
G54D24*
X9731Y4043D03*
X9731Y3256D03*
X9731Y2468D03*
G54D21*
X5150Y5150D03*
G54D14*
X5150Y4150D03*
X5150Y3150D03*
X5150Y2150D03*
G54D23*
X5981Y4831D03*
G54D24*
X5981Y4043D03*
X5981Y3256D03*
X5981Y2468D03*
G54D21*
X8900Y-15350D03*
G54D14*
X8900Y-16350D03*
X8900Y-17350D03*
X8900Y-18350D03*
G54D23*
X9731Y-15668D03*
G54D24*
X9731Y-16456D03*
X9731Y-17243D03*
X9731Y-18031D03*
G54D21*
X12650Y-15350D03*
G54D14*
X12650Y-16350D03*
X12650Y-17350D03*
X12650Y-18350D03*
G54D23*
X13481Y-15668D03*
G54D24*
X13481Y-16456D03*
X13481Y-17243D03*
X13481Y-18031D03*
G54D21*
X44400Y-850D03*
G54D14*
X44400Y-1850D03*
X44400Y-2850D03*
X44400Y-3850D03*
G54D23*
X45231Y-1168D03*
G54D24*
X45231Y-1956D03*
X45231Y-2743D03*
X45231Y-3531D03*
G54D21*
X48150Y-850D03*
G54D14*
X48150Y-1850D03*
X48150Y-2850D03*
X48150Y-3850D03*
G54D23*
X48981Y-1168D03*
G54D24*
X48981Y-1956D03*
X48981Y-2743D03*
X48981Y-3531D03*
G54D21*
X5150Y-15350D03*
G54D14*
X5150Y-16350D03*
X5150Y-17350D03*
X5150Y-18350D03*
G54D23*
X5981Y-15668D03*
G54D24*
X5981Y-16456D03*
X5981Y-17243D03*
X5981Y-18031D03*
G54D21*
X48150Y5150D03*
G54D14*
X48150Y4150D03*
X48150Y3150D03*
X48150Y2150D03*
G54D23*
X48981Y4831D03*
G54D24*
X48981Y4043D03*
X48981Y3256D03*
X48981Y2468D03*
G54D21*
X55650Y5150D03*
G54D14*
X55650Y4150D03*
X55650Y3150D03*
X55650Y2150D03*
G54D23*
X56481Y4831D03*
G54D24*
X56481Y4043D03*
X56481Y3256D03*
X56481Y2468D03*
G54D21*
X55650Y-850D03*
G54D14*
X55650Y-1850D03*
X55650Y-2850D03*
X55650Y-3850D03*
G54D23*
X56481Y-1168D03*
G54D24*
X56481Y-1956D03*
X56481Y-2743D03*
X56481Y-3531D03*
G54D21*
X51900Y-850D03*
G54D14*
X51900Y-1850D03*
X51900Y-2850D03*
X51900Y-3850D03*
G54D23*
X52731Y-1168D03*
G54D24*
X52731Y-1956D03*
X52731Y-2743D03*
X52731Y-3531D03*
G54D21*
X51900Y5150D03*
G54D14*
X51900Y4150D03*
X51900Y3150D03*
X51900Y2150D03*
G54D23*
X52731Y4831D03*
G54D24*
X52731Y4043D03*
X52731Y3256D03*
X52731Y2468D03*
G54D25*
X20400Y-15850D03*
X20400Y-14850D03*
X20400Y-13850D03*
X20400Y-10850D03*
X20400Y-11850D03*
X20400Y-12850D03*
X20400Y-8850D03*
X20400Y-7850D03*
X20400Y-6850D03*
X20400Y-4850D03*
X20400Y-3850D03*
X39400Y-15850D03*
X39400Y-14850D03*
X39400Y-13850D03*
X39400Y-12850D03*
X39400Y-11850D03*
X39400Y-10850D03*
X39400Y-9850D03*
X39400Y-8850D03*
X39400Y-7250D03*
X39400Y-6250D03*
X39400Y-5250D03*
X39400Y-4250D03*
X39400Y-3250D03*
X39400Y-2250D03*
X39400Y-1250D03*
X39400Y-250D03*
X20400Y-5850D03*
X20400Y-2850D03*
X20400Y-1850D03*
X39400Y750D03*
X39350Y1750D03*
G54D26*
X39281Y3047D03*
X22155Y-17031D03*
X33376Y-17227D03*
G54D27*
X43850Y5750D03*
G54D28*
X43800Y5750D03*
M02*
