G04 (created by PCBNEW (2013-07-07 BZR 4022)-stable) date 07/05/2015 17:00:17*
%MOIN*%
G04 Gerber Fmt 3.4, Leading zero omitted, Abs format*
%FSLAX34Y34*%
G01*
G70*
G90*
G04 APERTURE LIST*
%ADD10C,0.00590551*%
%ADD11C,0.0246063*%
%ADD12C,0.0275591*%
%ADD13C,0.015*%
%ADD14C,0.0031*%
%ADD15C,0.0039*%
%ADD16C,0.011811*%
%ADD17C,0.008*%
%ADD18C,0.01*%
%ADD19C,0.005*%
%ADD20C,0.0026*%
%ADD21C,0.002*%
%ADD22C,0.004*%
%ADD23C,0.012*%
%ADD24C,0.006*%
%ADD25C,0.0001*%
%ADD26C,0.019685*%
%ADD27C,0.0047*%
%ADD28C,0.0043*%
%ADD29C,0.0107*%
%ADD30C,0.0147638*%
%ADD31C,0.01125*%
%ADD32C,0.00787402*%
G04 APERTURE END LIST*
G54D10*
G54D11*
X6597Y9659D02*
X6785Y8871D01*
X6972Y9434D01*
X7160Y8871D01*
X7347Y9659D01*
X7629Y9659D02*
X7816Y8871D01*
X8004Y9434D01*
X8191Y8871D01*
X8379Y9659D01*
X8660Y9659D02*
X8847Y8871D01*
X9035Y9434D01*
X9222Y8871D01*
X9410Y9659D01*
X9785Y8984D02*
X9831Y8928D01*
X9785Y8871D01*
X9738Y8928D01*
X9785Y8984D01*
X9785Y8871D01*
X10253Y8871D02*
X10253Y9659D01*
X10253Y9434D02*
X10300Y9546D01*
X10347Y9603D01*
X10441Y9659D01*
X10535Y9659D01*
X11238Y8928D02*
X11144Y8871D01*
X10956Y8871D01*
X10863Y8928D01*
X10816Y9040D01*
X10816Y9490D01*
X10863Y9603D01*
X10956Y9659D01*
X11144Y9659D01*
X11238Y9603D01*
X11284Y9490D01*
X11284Y9378D01*
X10816Y9265D01*
X11706Y9321D02*
X12456Y9321D01*
X12925Y8871D02*
X12925Y9659D01*
X12925Y10053D02*
X12878Y9996D01*
X12925Y9940D01*
X12972Y9996D01*
X12925Y10053D01*
X12925Y9940D01*
X13394Y9659D02*
X13394Y8871D01*
X13394Y9546D02*
X13440Y9603D01*
X13534Y9659D01*
X13675Y9659D01*
X13768Y9603D01*
X13815Y9490D01*
X13815Y8871D01*
X14284Y9659D02*
X14284Y8871D01*
X14284Y9546D02*
X14331Y9603D01*
X14425Y9659D01*
X14565Y9659D01*
X14659Y9603D01*
X14706Y9490D01*
X14706Y8871D01*
X15315Y8871D02*
X15221Y8928D01*
X15175Y8984D01*
X15128Y9096D01*
X15128Y9434D01*
X15175Y9546D01*
X15221Y9603D01*
X15315Y9659D01*
X15456Y9659D01*
X15550Y9603D01*
X15596Y9546D01*
X15643Y9434D01*
X15643Y9096D01*
X15596Y8984D01*
X15550Y8928D01*
X15456Y8871D01*
X15315Y8871D01*
X15971Y9659D02*
X16206Y8871D01*
X16440Y9659D01*
X17237Y8871D02*
X17237Y9490D01*
X17190Y9603D01*
X17096Y9659D01*
X16909Y9659D01*
X16815Y9603D01*
X17237Y8928D02*
X17143Y8871D01*
X16909Y8871D01*
X16815Y8928D01*
X16768Y9040D01*
X16768Y9153D01*
X16815Y9265D01*
X16909Y9321D01*
X17143Y9321D01*
X17237Y9378D01*
X17565Y9659D02*
X17940Y9659D01*
X17705Y10053D02*
X17705Y9040D01*
X17752Y8928D01*
X17846Y8871D01*
X17940Y8871D01*
X18268Y8871D02*
X18268Y9659D01*
X18268Y10053D02*
X18221Y9996D01*
X18268Y9940D01*
X18315Y9996D01*
X18268Y10053D01*
X18268Y9940D01*
X18877Y8871D02*
X18783Y8928D01*
X18737Y8984D01*
X18690Y9096D01*
X18690Y9434D01*
X18737Y9546D01*
X18783Y9603D01*
X18877Y9659D01*
X19018Y9659D01*
X19112Y9603D01*
X19158Y9546D01*
X19205Y9434D01*
X19205Y9096D01*
X19158Y8984D01*
X19112Y8928D01*
X19018Y8871D01*
X18877Y8871D01*
X19627Y9659D02*
X19627Y8871D01*
X19627Y9546D02*
X19674Y9603D01*
X19768Y9659D01*
X19908Y9659D01*
X20002Y9603D01*
X20049Y9490D01*
X20049Y8871D01*
X20518Y8984D02*
X20564Y8928D01*
X20518Y8871D01*
X20471Y8928D01*
X20518Y8984D01*
X20518Y8871D01*
X21408Y8928D02*
X21314Y8871D01*
X21127Y8871D01*
X21033Y8928D01*
X20986Y8984D01*
X20939Y9096D01*
X20939Y9434D01*
X20986Y9546D01*
X21033Y9603D01*
X21127Y9659D01*
X21314Y9659D01*
X21408Y9603D01*
X21971Y8871D02*
X21877Y8928D01*
X21830Y8984D01*
X21783Y9096D01*
X21783Y9434D01*
X21830Y9546D01*
X21877Y9603D01*
X21971Y9659D01*
X22111Y9659D01*
X22205Y9603D01*
X22252Y9546D01*
X22299Y9434D01*
X22299Y9096D01*
X22252Y8984D01*
X22205Y8928D01*
X22111Y8871D01*
X21971Y8871D01*
X22720Y8984D02*
X22767Y8928D01*
X22720Y8871D01*
X22674Y8928D01*
X22720Y8984D01*
X22720Y8871D01*
X23611Y9659D02*
X23611Y8871D01*
X23189Y9659D02*
X23189Y9040D01*
X23236Y8928D01*
X23330Y8871D01*
X23470Y8871D01*
X23564Y8928D01*
X23611Y8984D01*
X24080Y8871D02*
X24080Y10053D01*
X24173Y9321D02*
X24455Y8871D01*
X24455Y9659D02*
X24080Y9209D01*
X21118Y-20140D02*
X21353Y-20928D01*
X21587Y-20140D01*
X21915Y-19859D02*
X21962Y-19803D01*
X22056Y-19746D01*
X22290Y-19746D01*
X22384Y-19803D01*
X22431Y-19859D01*
X22478Y-19971D01*
X22478Y-20084D01*
X22431Y-20253D01*
X21868Y-20928D01*
X22478Y-20928D01*
X22900Y-20815D02*
X22946Y-20871D01*
X22900Y-20928D01*
X22853Y-20871D01*
X22900Y-20815D01*
X22900Y-20928D01*
X23556Y-19746D02*
X23649Y-19746D01*
X23743Y-19803D01*
X23790Y-19859D01*
X23837Y-19971D01*
X23884Y-20196D01*
X23884Y-20478D01*
X23837Y-20703D01*
X23790Y-20815D01*
X23743Y-20871D01*
X23649Y-20928D01*
X23556Y-20928D01*
X23462Y-20871D01*
X23415Y-20815D01*
X23368Y-20703D01*
X23321Y-20478D01*
X23321Y-20196D01*
X23368Y-19971D01*
X23415Y-19859D01*
X23462Y-19803D01*
X23556Y-19746D01*
X20134Y-21646D02*
X20790Y-21646D01*
X20369Y-22827D01*
X21868Y-21590D02*
X21025Y-23108D01*
X22665Y-21646D02*
X22196Y-21646D01*
X22150Y-22208D01*
X22196Y-22152D01*
X22290Y-22096D01*
X22525Y-22096D01*
X22618Y-22152D01*
X22665Y-22208D01*
X22712Y-22321D01*
X22712Y-22602D01*
X22665Y-22715D01*
X22618Y-22771D01*
X22525Y-22827D01*
X22290Y-22827D01*
X22196Y-22771D01*
X22150Y-22715D01*
X23837Y-21590D02*
X22993Y-23108D01*
X24681Y-22827D02*
X24118Y-22827D01*
X24399Y-22827D02*
X24399Y-21646D01*
X24306Y-21815D01*
X24212Y-21927D01*
X24118Y-21984D01*
X25571Y-21646D02*
X25102Y-21646D01*
X25055Y-22208D01*
X25102Y-22152D01*
X25196Y-22096D01*
X25430Y-22096D01*
X25524Y-22152D01*
X25571Y-22208D01*
X25618Y-22321D01*
X25618Y-22602D01*
X25571Y-22715D01*
X25524Y-22771D01*
X25430Y-22827D01*
X25196Y-22827D01*
X25102Y-22771D01*
X25055Y-22715D01*
G54D12*
X24775Y-15287D02*
X24250Y-14537D01*
X23875Y-15287D02*
X23875Y-13712D01*
X24475Y-13712D01*
X24625Y-13787D01*
X24700Y-13862D01*
X24775Y-14012D01*
X24775Y-14237D01*
X24700Y-14387D01*
X24625Y-14462D01*
X24475Y-14537D01*
X23875Y-14537D01*
X26050Y-15212D02*
X25900Y-15287D01*
X25600Y-15287D01*
X25450Y-15212D01*
X25375Y-15062D01*
X25375Y-14462D01*
X25450Y-14312D01*
X25600Y-14237D01*
X25900Y-14237D01*
X26050Y-14312D01*
X26125Y-14462D01*
X26125Y-14612D01*
X25375Y-14762D01*
X26800Y-15287D02*
X26800Y-14237D01*
X26800Y-14387D02*
X26875Y-14312D01*
X27025Y-14237D01*
X27250Y-14237D01*
X27400Y-14312D01*
X27475Y-14462D01*
X27475Y-15287D01*
X27475Y-14462D02*
X27550Y-14312D01*
X27700Y-14237D01*
X27924Y-14237D01*
X28074Y-14312D01*
X28149Y-14462D01*
X28149Y-15287D01*
X29124Y-15287D02*
X28974Y-15212D01*
X28899Y-15137D01*
X28824Y-14987D01*
X28824Y-14537D01*
X28899Y-14387D01*
X28974Y-14312D01*
X29124Y-14237D01*
X29349Y-14237D01*
X29499Y-14312D01*
X29574Y-14387D01*
X29649Y-14537D01*
X29649Y-14987D01*
X29574Y-15137D01*
X29499Y-15212D01*
X29349Y-15287D01*
X29124Y-15287D01*
X30099Y-14237D02*
X30699Y-14237D01*
X30324Y-13712D02*
X30324Y-15062D01*
X30399Y-15212D01*
X30549Y-15287D01*
X30699Y-15287D01*
X31824Y-15212D02*
X31674Y-15287D01*
X31374Y-15287D01*
X31224Y-15212D01*
X31149Y-15062D01*
X31149Y-14462D01*
X31224Y-14312D01*
X31374Y-14237D01*
X31674Y-14237D01*
X31824Y-14312D01*
X31899Y-14462D01*
X31899Y-14612D01*
X31149Y-14762D01*
X25037Y-17767D02*
X24287Y-17767D01*
X24287Y-16192D01*
X25787Y-17767D02*
X25637Y-17692D01*
X25562Y-17617D01*
X25487Y-17467D01*
X25487Y-17017D01*
X25562Y-16867D01*
X25637Y-16792D01*
X25787Y-16717D01*
X26012Y-16717D01*
X26162Y-16792D01*
X26237Y-16867D01*
X26312Y-17017D01*
X26312Y-17467D01*
X26237Y-17617D01*
X26162Y-17692D01*
X26012Y-17767D01*
X25787Y-17767D01*
X27662Y-16717D02*
X27662Y-17992D01*
X27587Y-18142D01*
X27512Y-18217D01*
X27362Y-18292D01*
X27137Y-18292D01*
X26987Y-18217D01*
X27662Y-17692D02*
X27512Y-17767D01*
X27212Y-17767D01*
X27062Y-17692D01*
X26987Y-17617D01*
X26912Y-17467D01*
X26912Y-17017D01*
X26987Y-16867D01*
X27062Y-16792D01*
X27212Y-16717D01*
X27512Y-16717D01*
X27662Y-16792D01*
X29087Y-16717D02*
X29087Y-17992D01*
X29012Y-18142D01*
X28937Y-18217D01*
X28787Y-18292D01*
X28562Y-18292D01*
X28412Y-18217D01*
X29087Y-17692D02*
X28937Y-17767D01*
X28637Y-17767D01*
X28487Y-17692D01*
X28412Y-17617D01*
X28337Y-17467D01*
X28337Y-17017D01*
X28412Y-16867D01*
X28487Y-16792D01*
X28637Y-16717D01*
X28937Y-16717D01*
X29087Y-16792D01*
X30437Y-17692D02*
X30287Y-17767D01*
X29987Y-17767D01*
X29837Y-17692D01*
X29762Y-17542D01*
X29762Y-16942D01*
X29837Y-16792D01*
X29987Y-16717D01*
X30287Y-16717D01*
X30437Y-16792D01*
X30512Y-16942D01*
X30512Y-17092D01*
X29762Y-17242D01*
X31187Y-17767D02*
X31187Y-16717D01*
X31187Y-17017D02*
X31262Y-16867D01*
X31337Y-16792D01*
X31487Y-16717D01*
X31637Y-16717D01*
G54D11*
X29701Y8771D02*
X29373Y9334D01*
X29138Y8771D02*
X29138Y9953D01*
X29513Y9953D01*
X29607Y9896D01*
X29654Y9840D01*
X29701Y9728D01*
X29701Y9559D01*
X29654Y9446D01*
X29607Y9390D01*
X29513Y9334D01*
X29138Y9334D01*
X30123Y9390D02*
X30451Y9390D01*
X30591Y8771D02*
X30123Y8771D01*
X30123Y9953D01*
X30591Y9953D01*
X31013Y8771D02*
X31013Y9953D01*
X31576Y8771D01*
X31576Y9953D01*
X32044Y9390D02*
X32372Y9390D01*
X32513Y8771D02*
X32044Y8771D01*
X32044Y9953D01*
X32513Y9953D01*
X32841Y9953D02*
X33075Y8771D01*
X33263Y9615D01*
X33450Y8771D01*
X33685Y9953D01*
X34013Y9109D02*
X34482Y9109D01*
X33919Y8771D02*
X34247Y9953D01*
X34575Y8771D01*
X35231Y9390D02*
X35372Y9334D01*
X35419Y9278D01*
X35466Y9165D01*
X35466Y8996D01*
X35419Y8884D01*
X35372Y8828D01*
X35278Y8771D01*
X34903Y8771D01*
X34903Y9953D01*
X35231Y9953D01*
X35325Y9896D01*
X35372Y9840D01*
X35419Y9728D01*
X35419Y9615D01*
X35372Y9503D01*
X35325Y9446D01*
X35231Y9390D01*
X34903Y9390D01*
X36356Y8771D02*
X35888Y8771D01*
X35888Y9953D01*
X36684Y9390D02*
X37012Y9390D01*
X37153Y8771D02*
X36684Y8771D01*
X36684Y9953D01*
X37153Y9953D01*
X38325Y9390D02*
X38653Y9390D01*
X38794Y8771D02*
X38325Y8771D01*
X38325Y9953D01*
X38794Y9953D01*
X39215Y8771D02*
X39215Y9953D01*
X39778Y8771D01*
X39778Y9953D01*
X40246Y9390D02*
X40575Y9390D01*
X40715Y8771D02*
X40246Y8771D01*
X40246Y9953D01*
X40715Y9953D01*
X41699Y8771D02*
X41371Y9334D01*
X41137Y8771D02*
X41137Y9953D01*
X41512Y9953D01*
X41606Y9896D01*
X41653Y9840D01*
X41699Y9728D01*
X41699Y9559D01*
X41653Y9446D01*
X41606Y9390D01*
X41512Y9334D01*
X41137Y9334D01*
X42637Y9896D02*
X42543Y9953D01*
X42402Y9953D01*
X42262Y9896D01*
X42168Y9784D01*
X42121Y9671D01*
X42074Y9446D01*
X42074Y9278D01*
X42121Y9053D01*
X42168Y8940D01*
X42262Y8828D01*
X42402Y8771D01*
X42496Y8771D01*
X42637Y8828D01*
X42684Y8884D01*
X42684Y9278D01*
X42496Y9278D01*
X43293Y9334D02*
X43293Y8771D01*
X42965Y9953D02*
X43293Y9334D01*
X43621Y9953D01*
X44699Y8771D02*
X44699Y9953D01*
X45168Y8771D02*
X45168Y9953D01*
X45730Y8771D01*
X45730Y9953D01*
X46199Y8771D02*
X46199Y9953D01*
X46761Y8771D01*
X46761Y9953D01*
X47417Y9953D02*
X47605Y9953D01*
X47699Y9896D01*
X47792Y9784D01*
X47839Y9559D01*
X47839Y9165D01*
X47792Y8940D01*
X47699Y8828D01*
X47605Y8771D01*
X47417Y8771D01*
X47324Y8828D01*
X47230Y8940D01*
X47183Y9165D01*
X47183Y9559D01*
X47230Y9784D01*
X47324Y9896D01*
X47417Y9953D01*
X48120Y9953D02*
X48449Y8771D01*
X48777Y9953D01*
X49058Y9109D02*
X49527Y9109D01*
X48964Y8771D02*
X49292Y9953D01*
X49620Y8771D01*
X49808Y9953D02*
X50370Y9953D01*
X50089Y8771D02*
X50089Y9953D01*
X50698Y8771D02*
X50698Y9953D01*
X51354Y9953D02*
X51542Y9953D01*
X51636Y9896D01*
X51729Y9784D01*
X51776Y9559D01*
X51776Y9165D01*
X51729Y8940D01*
X51636Y8828D01*
X51542Y8771D01*
X51354Y8771D01*
X51261Y8828D01*
X51167Y8940D01*
X51120Y9165D01*
X51120Y9559D01*
X51167Y9784D01*
X51261Y9896D01*
X51354Y9953D01*
X52198Y8771D02*
X52198Y9953D01*
X52761Y8771D01*
X52761Y9953D01*
G54D13*
X36600Y-9250D02*
X35600Y-9250D01*
X35600Y-9250D02*
X35600Y-10500D01*
X35600Y-10500D02*
X35600Y-10750D01*
X35600Y-10750D02*
X36600Y-10750D01*
X36600Y-10750D02*
X36600Y-9250D01*
X36850Y-8750D02*
X35350Y-8750D01*
X35350Y-8750D02*
X35350Y-11250D01*
X35350Y-11250D02*
X36850Y-11250D01*
X36850Y-11250D02*
X36850Y-8750D01*
X30100Y-10750D02*
X31100Y-10750D01*
X31100Y-10750D02*
X31100Y-9500D01*
X31100Y-9500D02*
X31100Y-9250D01*
X31100Y-9250D02*
X30100Y-9250D01*
X30100Y-9250D02*
X30100Y-10750D01*
X29850Y-11250D02*
X31350Y-11250D01*
X31350Y-11250D02*
X31350Y-8750D01*
X31350Y-8750D02*
X29850Y-8750D01*
X29850Y-8750D02*
X29850Y-11250D01*
G54D14*
X28392Y7245D02*
G75*
G03X28392Y7245I-62J0D01*
G74*
G01*
X28667Y6282D02*
X28267Y6282D01*
X28667Y7307D02*
X28267Y7307D01*
X28267Y6282D02*
X28267Y7307D01*
X28667Y7307D02*
X28667Y6282D01*
X30168Y6319D02*
G75*
G03X30168Y6319I-62J0D01*
G74*
G01*
X29767Y7282D02*
X30167Y7282D01*
X29767Y6257D02*
X30167Y6257D01*
X30167Y7282D02*
X30167Y6257D01*
X29767Y6257D02*
X29767Y7282D01*
X22642Y3495D02*
G75*
G03X22642Y3495I-62J0D01*
G74*
G01*
X22917Y2532D02*
X22517Y2532D01*
X22917Y3557D02*
X22517Y3557D01*
X22517Y2532D02*
X22517Y3557D01*
X22917Y3557D02*
X22917Y2532D01*
X24418Y2569D02*
G75*
G03X24418Y2569I-62J0D01*
G74*
G01*
X24017Y3532D02*
X24417Y3532D01*
X24017Y2507D02*
X24417Y2507D01*
X24417Y3532D02*
X24417Y2507D01*
X24017Y2507D02*
X24017Y3532D01*
X24418Y6319D02*
G75*
G03X24418Y6319I-62J0D01*
G74*
G01*
X24017Y7282D02*
X24417Y7282D01*
X24017Y6257D02*
X24417Y6257D01*
X24417Y7282D02*
X24417Y6257D01*
X24017Y6257D02*
X24017Y7282D01*
X22642Y7245D02*
G75*
G03X22642Y7245I-62J0D01*
G74*
G01*
X22917Y6282D02*
X22517Y6282D01*
X22917Y7307D02*
X22517Y7307D01*
X22517Y6282D02*
X22517Y7307D01*
X22917Y7307D02*
X22917Y6282D01*
X35842Y3545D02*
G75*
G03X35842Y3545I-62J0D01*
G74*
G01*
X36117Y2582D02*
X35717Y2582D01*
X36117Y3607D02*
X35717Y3607D01*
X35717Y2582D02*
X35717Y3607D01*
X36117Y3607D02*
X36117Y2582D01*
X37618Y2619D02*
G75*
G03X37618Y2619I-62J0D01*
G74*
G01*
X37217Y3582D02*
X37617Y3582D01*
X37217Y2557D02*
X37617Y2557D01*
X37617Y3582D02*
X37617Y2557D01*
X37217Y2557D02*
X37217Y3582D01*
X37618Y6369D02*
G75*
G03X37618Y6369I-62J0D01*
G74*
G01*
X37217Y7332D02*
X37617Y7332D01*
X37217Y6307D02*
X37617Y6307D01*
X37617Y7332D02*
X37617Y6307D01*
X37217Y6307D02*
X37217Y7332D01*
X35842Y7295D02*
G75*
G03X35842Y7295I-62J0D01*
G74*
G01*
X36117Y6332D02*
X35717Y6332D01*
X36117Y7357D02*
X35717Y7357D01*
X35717Y6332D02*
X35717Y7357D01*
X36117Y7357D02*
X36117Y6332D01*
X30168Y2569D02*
G75*
G03X30168Y2569I-62J0D01*
G74*
G01*
X29767Y3532D02*
X30167Y3532D01*
X29767Y2507D02*
X30167Y2507D01*
X30167Y3532D02*
X30167Y2507D01*
X29767Y2507D02*
X29767Y3532D01*
X28392Y3495D02*
G75*
G03X28392Y3495I-62J0D01*
G74*
G01*
X28667Y2532D02*
X28267Y2532D01*
X28667Y3557D02*
X28267Y3557D01*
X28267Y2532D02*
X28267Y3557D01*
X28667Y3557D02*
X28667Y2532D01*
G54D15*
X35800Y-5700D02*
G75*
G03X35800Y-5700I-50J0D01*
G74*
G01*
X35750Y-6150D02*
X35750Y-5750D01*
X35750Y-5750D02*
X36350Y-5750D01*
X36350Y-5750D02*
X36350Y-6150D01*
X36350Y-6550D02*
X36350Y-6950D01*
X36350Y-6950D02*
X35750Y-6950D01*
X35750Y-6950D02*
X35750Y-6550D01*
X26117Y6482D02*
G75*
G03X26117Y6482I-50J0D01*
G74*
G01*
X26517Y6482D02*
X26117Y6482D01*
X26117Y6482D02*
X26117Y7082D01*
X26117Y7082D02*
X26517Y7082D01*
X26917Y7082D02*
X27317Y7082D01*
X27317Y7082D02*
X27317Y6482D01*
X27317Y6482D02*
X26917Y6482D01*
X27467Y5682D02*
G75*
G03X27467Y5682I-50J0D01*
G74*
G01*
X27417Y5232D02*
X27417Y5632D01*
X27417Y5632D02*
X28017Y5632D01*
X28017Y5632D02*
X28017Y5232D01*
X28017Y4832D02*
X28017Y4432D01*
X28017Y4432D02*
X27417Y4432D01*
X27417Y4432D02*
X27417Y4832D01*
X36450Y-13150D02*
G75*
G03X36450Y-13150I-50J0D01*
G74*
G01*
X36400Y-12700D02*
X36400Y-13100D01*
X36400Y-13100D02*
X35800Y-13100D01*
X35800Y-13100D02*
X35800Y-12700D01*
X35800Y-12300D02*
X35800Y-11900D01*
X35800Y-11900D02*
X36400Y-11900D01*
X36400Y-11900D02*
X36400Y-12300D01*
X30950Y-13150D02*
G75*
G03X30950Y-13150I-50J0D01*
G74*
G01*
X30900Y-12700D02*
X30900Y-13100D01*
X30900Y-13100D02*
X30300Y-13100D01*
X30300Y-13100D02*
X30300Y-12700D01*
X30300Y-12300D02*
X30300Y-11900D01*
X30300Y-11900D02*
X30900Y-11900D01*
X30900Y-11900D02*
X30900Y-12300D01*
X18900Y-14950D02*
G75*
G03X18900Y-14950I-50J0D01*
G74*
G01*
X18850Y-15400D02*
X18850Y-15000D01*
X18850Y-15000D02*
X19450Y-15000D01*
X19450Y-15000D02*
X19450Y-15400D01*
X19450Y-15800D02*
X19450Y-16200D01*
X19450Y-16200D02*
X18850Y-16200D01*
X18850Y-16200D02*
X18850Y-15800D01*
X19500Y-14750D02*
G75*
G03X19500Y-14750I-50J0D01*
G74*
G01*
X19450Y-14300D02*
X19450Y-14700D01*
X19450Y-14700D02*
X18850Y-14700D01*
X18850Y-14700D02*
X18850Y-14300D01*
X18850Y-13900D02*
X18850Y-13500D01*
X18850Y-13500D02*
X19450Y-13500D01*
X19450Y-13500D02*
X19450Y-13900D01*
X30300Y-5700D02*
G75*
G03X30300Y-5700I-50J0D01*
G74*
G01*
X30250Y-6150D02*
X30250Y-5750D01*
X30250Y-5750D02*
X30850Y-5750D01*
X30850Y-5750D02*
X30850Y-6150D01*
X30850Y-6550D02*
X30850Y-6950D01*
X30850Y-6950D02*
X30250Y-6950D01*
X30250Y-6950D02*
X30250Y-6550D01*
X20117Y6482D02*
G75*
G03X20117Y6482I-50J0D01*
G74*
G01*
X20517Y6482D02*
X20117Y6482D01*
X20117Y6482D02*
X20117Y7082D01*
X20117Y7082D02*
X20517Y7082D01*
X20917Y7082D02*
X21317Y7082D01*
X21317Y7082D02*
X21317Y6482D01*
X21317Y6482D02*
X20917Y6482D01*
X21650Y-6450D02*
G75*
G03X21650Y-6450I-50J0D01*
G74*
G01*
X21600Y-6900D02*
X21600Y-6500D01*
X21600Y-6500D02*
X22200Y-6500D01*
X22200Y-6500D02*
X22200Y-6900D01*
X22200Y-7300D02*
X22200Y-7700D01*
X22200Y-7700D02*
X21600Y-7700D01*
X21600Y-7700D02*
X21600Y-7300D01*
X38067Y4782D02*
G75*
G03X38067Y4782I-50J0D01*
G74*
G01*
X38467Y4782D02*
X38067Y4782D01*
X38067Y4782D02*
X38067Y5382D01*
X38067Y5382D02*
X38467Y5382D01*
X38867Y5382D02*
X39267Y5382D01*
X39267Y5382D02*
X39267Y4782D01*
X39267Y4782D02*
X38867Y4782D01*
X21717Y5682D02*
G75*
G03X21717Y5682I-50J0D01*
G74*
G01*
X21667Y5232D02*
X21667Y5632D01*
X21667Y5632D02*
X22267Y5632D01*
X22267Y5632D02*
X22267Y5232D01*
X22267Y4832D02*
X22267Y4432D01*
X22267Y4432D02*
X21667Y4432D01*
X21667Y4432D02*
X21667Y4832D01*
X16850Y-19800D02*
G75*
G03X16850Y-19800I-50J0D01*
G74*
G01*
X16350Y-19800D02*
X16750Y-19800D01*
X16750Y-19800D02*
X16750Y-20400D01*
X16750Y-20400D02*
X16350Y-20400D01*
X15950Y-20400D02*
X15550Y-20400D01*
X15550Y-20400D02*
X15550Y-19800D01*
X15550Y-19800D02*
X15950Y-19800D01*
X34917Y5732D02*
G75*
G03X34917Y5732I-50J0D01*
G74*
G01*
X34867Y5282D02*
X34867Y5682D01*
X34867Y5682D02*
X35467Y5682D01*
X35467Y5682D02*
X35467Y5282D01*
X35467Y4882D02*
X35467Y4482D01*
X35467Y4482D02*
X34867Y4482D01*
X34867Y4482D02*
X34867Y4882D01*
X33567Y6532D02*
G75*
G03X33567Y6532I-50J0D01*
G74*
G01*
X33967Y6532D02*
X33567Y6532D01*
X33567Y6532D02*
X33567Y7132D01*
X33567Y7132D02*
X33967Y7132D01*
X34367Y7132D02*
X34767Y7132D01*
X34767Y7132D02*
X34767Y6532D01*
X34767Y6532D02*
X34367Y6532D01*
X18350Y-19800D02*
G75*
G03X18350Y-19800I-50J0D01*
G74*
G01*
X17850Y-19800D02*
X18250Y-19800D01*
X18250Y-19800D02*
X18250Y-20400D01*
X18250Y-20400D02*
X17850Y-20400D01*
X17450Y-20400D02*
X17050Y-20400D01*
X17050Y-20400D02*
X17050Y-19800D01*
X17050Y-19800D02*
X17450Y-19800D01*
X14850Y-19800D02*
G75*
G03X14850Y-19800I-50J0D01*
G74*
G01*
X14350Y-19800D02*
X14750Y-19800D01*
X14750Y-19800D02*
X14750Y-20400D01*
X14750Y-20400D02*
X14350Y-20400D01*
X13950Y-20400D02*
X13550Y-20400D01*
X13550Y-20400D02*
X13550Y-19800D01*
X13550Y-19800D02*
X13950Y-19800D01*
X10600Y-19800D02*
G75*
G03X10600Y-19800I-50J0D01*
G74*
G01*
X10100Y-19800D02*
X10500Y-19800D01*
X10500Y-19800D02*
X10500Y-20400D01*
X10500Y-20400D02*
X10100Y-20400D01*
X9700Y-20400D02*
X9300Y-20400D01*
X9300Y-20400D02*
X9300Y-19800D01*
X9300Y-19800D02*
X9700Y-19800D01*
G54D16*
X45900Y-23600D02*
X49900Y-23600D01*
X45900Y-20600D02*
X49900Y-20600D01*
X49900Y-23600D02*
X49900Y-20600D01*
X47900Y-20600D02*
X47900Y-23600D01*
X45900Y-23600D02*
X45900Y-20600D01*
X6900Y-23600D02*
X10900Y-23600D01*
X6900Y-20600D02*
X10900Y-20600D01*
X10900Y-23600D02*
X10900Y-20600D01*
X8900Y-20600D02*
X8900Y-23600D01*
X6900Y-23600D02*
X6900Y-20600D01*
X10900Y-23600D02*
X14900Y-23600D01*
X10900Y-20600D02*
X14900Y-20600D01*
X14900Y-23600D02*
X14900Y-20600D01*
X12900Y-20600D02*
X12900Y-23600D01*
X10900Y-23600D02*
X10900Y-20600D01*
X14900Y-23600D02*
X18900Y-23600D01*
X14900Y-20600D02*
X18900Y-20600D01*
X18900Y-23600D02*
X18900Y-20600D01*
X16900Y-20600D02*
X16900Y-23600D01*
X14900Y-23600D02*
X14900Y-20600D01*
X26700Y-23600D02*
X30700Y-23600D01*
X26700Y-20600D02*
X30700Y-20600D01*
X30700Y-23600D02*
X30700Y-20600D01*
X28700Y-20600D02*
X28700Y-23600D01*
X26700Y-23600D02*
X26700Y-20600D01*
G54D17*
X36117Y4682D02*
G75*
G03X36117Y4682I-100J0D01*
G74*
G01*
X37017Y4482D02*
X35817Y4482D01*
X35817Y4482D02*
X35817Y5682D01*
X35817Y5682D02*
X37017Y5682D01*
X37017Y5682D02*
X37017Y4482D01*
X28667Y4632D02*
G75*
G03X28667Y4632I-100J0D01*
G74*
G01*
X29567Y4432D02*
X28367Y4432D01*
X28367Y4432D02*
X28367Y5632D01*
X28367Y5632D02*
X29567Y5632D01*
X29567Y5632D02*
X29567Y4432D01*
X22917Y4632D02*
G75*
G03X22917Y4632I-100J0D01*
G74*
G01*
X23817Y4432D02*
X22617Y4432D01*
X22617Y4432D02*
X22617Y5632D01*
X22617Y5632D02*
X23817Y5632D01*
X23817Y5632D02*
X23817Y4432D01*
X29800Y-5220D02*
X31300Y-5220D01*
G54D18*
X31300Y-5199D02*
G75*
G03X29799Y-5199I-750J999D01*
G74*
G01*
G54D17*
X35300Y-5220D02*
X36800Y-5220D01*
G54D18*
X36800Y-5199D02*
G75*
G03X35299Y-5199I-750J999D01*
G74*
G01*
G54D19*
X26217Y5682D02*
X26217Y5382D01*
X26067Y5532D02*
X26367Y5532D01*
X27117Y5632D02*
X27117Y4132D01*
X25617Y5932D02*
X26817Y5932D01*
X27117Y5632D02*
X26817Y5932D01*
X25317Y5632D02*
X25317Y4132D01*
X25317Y5632D02*
X25617Y5932D01*
X26267Y4232D02*
X26167Y4232D01*
X25967Y4282D02*
X26467Y4282D01*
X26567Y4332D02*
X25867Y4332D01*
X26667Y4382D02*
X25767Y4382D01*
X25717Y4432D02*
X26717Y4432D01*
X26767Y4482D02*
X25667Y4482D01*
X25617Y4532D02*
X26817Y4532D01*
X25567Y4582D02*
X26867Y4582D01*
X27017Y5032D02*
G75*
G03X27017Y5032I-800J0D01*
G74*
G01*
X25317Y4132D02*
X27117Y4132D01*
X20467Y5682D02*
X20467Y5382D01*
X20317Y5532D02*
X20617Y5532D01*
X21367Y5632D02*
X21367Y4132D01*
X19867Y5932D02*
X21067Y5932D01*
X21367Y5632D02*
X21067Y5932D01*
X19567Y5632D02*
X19567Y4132D01*
X19567Y5632D02*
X19867Y5932D01*
X20517Y4232D02*
X20417Y4232D01*
X20217Y4282D02*
X20717Y4282D01*
X20817Y4332D02*
X20117Y4332D01*
X20917Y4382D02*
X20017Y4382D01*
X19967Y4432D02*
X20967Y4432D01*
X21017Y4482D02*
X19917Y4482D01*
X19867Y4532D02*
X21067Y4532D01*
X19817Y4582D02*
X21117Y4582D01*
X21267Y5032D02*
G75*
G03X21267Y5032I-800J0D01*
G74*
G01*
X19567Y4132D02*
X21367Y4132D01*
X23400Y-6450D02*
X23400Y-6750D01*
X23250Y-6600D02*
X23550Y-6600D01*
X24300Y-6500D02*
X24300Y-8000D01*
X22800Y-6200D02*
X24000Y-6200D01*
X24300Y-6500D02*
X24000Y-6200D01*
X22500Y-6500D02*
X22500Y-8000D01*
X22500Y-6500D02*
X22800Y-6200D01*
X23450Y-7900D02*
X23350Y-7900D01*
X23150Y-7850D02*
X23650Y-7850D01*
X23750Y-7800D02*
X23050Y-7800D01*
X23850Y-7750D02*
X22950Y-7750D01*
X22900Y-7700D02*
X23900Y-7700D01*
X23950Y-7650D02*
X22850Y-7650D01*
X22800Y-7600D02*
X24000Y-7600D01*
X22750Y-7550D02*
X24050Y-7550D01*
X24200Y-7100D02*
G75*
G03X24200Y-7100I-800J0D01*
G74*
G01*
X22500Y-8000D02*
X24300Y-8000D01*
X33667Y5732D02*
X33667Y5432D01*
X33517Y5582D02*
X33817Y5582D01*
X34567Y5682D02*
X34567Y4182D01*
X33067Y5982D02*
X34267Y5982D01*
X34567Y5682D02*
X34267Y5982D01*
X32767Y5682D02*
X32767Y4182D01*
X32767Y5682D02*
X33067Y5982D01*
X33717Y4282D02*
X33617Y4282D01*
X33417Y4332D02*
X33917Y4332D01*
X34017Y4382D02*
X33317Y4382D01*
X34117Y4432D02*
X33217Y4432D01*
X33167Y4482D02*
X34167Y4482D01*
X34217Y4532D02*
X33117Y4532D01*
X33067Y4582D02*
X34267Y4582D01*
X33017Y4632D02*
X34317Y4632D01*
X34467Y5082D02*
G75*
G03X34467Y5082I-800J0D01*
G74*
G01*
X32767Y4182D02*
X34567Y4182D01*
G54D10*
X31800Y-22650D02*
X31800Y-20750D01*
X31800Y-20750D02*
X36400Y-20750D01*
X36400Y-20750D02*
X36400Y-22750D01*
X36400Y-22750D02*
X31800Y-22750D01*
X31800Y-22750D02*
X31800Y-22550D01*
G54D13*
X32267Y-22733D02*
X32267Y-23733D01*
X32267Y-23733D02*
X33967Y-23733D01*
X33967Y-23733D02*
X33967Y-22733D01*
G54D19*
X43750Y-15250D02*
X43750Y-15950D01*
X43750Y-15950D02*
X42550Y-15950D01*
X42550Y-15950D02*
X42550Y-15250D01*
X42550Y-15250D02*
X43750Y-15250D01*
G54D20*
X56780Y-12080D02*
X56780Y-12310D01*
X56780Y-12310D02*
X57020Y-12310D01*
X57020Y-12080D02*
X57020Y-12310D01*
X56780Y-12080D02*
X57020Y-12080D01*
X56780Y-13390D02*
X56780Y-13620D01*
X56780Y-13620D02*
X57020Y-13620D01*
X57020Y-13390D02*
X57020Y-13620D01*
X56780Y-13390D02*
X57020Y-13390D01*
X56625Y-12693D02*
X56625Y-13007D01*
X56625Y-13007D02*
X57175Y-13007D01*
X57175Y-12693D02*
X57175Y-13007D01*
X56625Y-12693D02*
X57175Y-12693D01*
G54D21*
X57287Y-11680D02*
X57287Y-14020D01*
X56513Y-14020D02*
X56513Y-11680D01*
X56513Y-11680D02*
X57287Y-11680D01*
X57287Y-14020D02*
X56513Y-14020D01*
G54D22*
X57209Y-12330D02*
X57209Y-13370D01*
X56591Y-12330D02*
X56591Y-13370D01*
X56591Y-12330D02*
X57209Y-12330D01*
X56591Y-13370D02*
X57209Y-13370D01*
G54D17*
X56900Y-12457D02*
X57096Y-12850D01*
X57096Y-12850D02*
X56704Y-12850D01*
X56704Y-12850D02*
X56900Y-12457D01*
X57096Y-12457D02*
X56900Y-12457D01*
X56900Y-12457D02*
X56704Y-12457D01*
G54D15*
X44400Y-14700D02*
G75*
G03X44400Y-14700I-50J0D01*
G74*
G01*
X44350Y-15150D02*
X44350Y-14750D01*
X44350Y-14750D02*
X44950Y-14750D01*
X44950Y-14750D02*
X44950Y-15150D01*
X44950Y-15550D02*
X44950Y-15950D01*
X44950Y-15950D02*
X44350Y-15950D01*
X44350Y-15950D02*
X44350Y-15550D01*
G54D16*
X49900Y-23600D02*
X53900Y-23600D01*
X49900Y-20600D02*
X53900Y-20600D01*
X53900Y-23600D02*
X53900Y-20600D01*
X51900Y-20600D02*
X51900Y-23600D01*
X49900Y-23600D02*
X49900Y-20600D01*
G54D13*
X55900Y-8100D02*
G75*
G03X55900Y-8100I-1500J0D01*
G74*
G01*
G54D19*
X51150Y-10450D02*
X51150Y-10750D01*
X51000Y-10600D02*
X51300Y-10600D01*
X52050Y-10500D02*
X52050Y-12000D01*
X50550Y-10200D02*
X51750Y-10200D01*
X52050Y-10500D02*
X51750Y-10200D01*
X50250Y-10500D02*
X50250Y-12000D01*
X50250Y-10500D02*
X50550Y-10200D01*
X51200Y-11900D02*
X51100Y-11900D01*
X50900Y-11850D02*
X51400Y-11850D01*
X51500Y-11800D02*
X50800Y-11800D01*
X51600Y-11750D02*
X50700Y-11750D01*
X50650Y-11700D02*
X51650Y-11700D01*
X51700Y-11650D02*
X50600Y-11650D01*
X50550Y-11600D02*
X51750Y-11600D01*
X50500Y-11550D02*
X51800Y-11550D01*
X51950Y-11100D02*
G75*
G03X51950Y-11100I-800J0D01*
G74*
G01*
X50250Y-12000D02*
X52050Y-12000D01*
X43800Y-17350D02*
X43500Y-17350D01*
X43650Y-17200D02*
X43650Y-17500D01*
X43750Y-18250D02*
X42250Y-18250D01*
X44050Y-16750D02*
X44050Y-17950D01*
X43750Y-18250D02*
X44050Y-17950D01*
X43750Y-16450D02*
X42250Y-16450D01*
X43750Y-16450D02*
X44050Y-16750D01*
X42350Y-17400D02*
X42350Y-17300D01*
X42400Y-17100D02*
X42400Y-17600D01*
X42450Y-17700D02*
X42450Y-17000D01*
X42500Y-17800D02*
X42500Y-16900D01*
X42550Y-16850D02*
X42550Y-17850D01*
X42600Y-17900D02*
X42600Y-16800D01*
X42650Y-16750D02*
X42650Y-17950D01*
X42700Y-16700D02*
X42700Y-18000D01*
X43950Y-17350D02*
G75*
G03X43950Y-17350I-800J0D01*
G74*
G01*
X42250Y-16450D02*
X42250Y-18250D01*
G54D20*
X42800Y-8529D02*
X43010Y-8529D01*
X43010Y-8529D02*
X43010Y-7671D01*
X42800Y-7671D02*
X43010Y-7671D01*
X42800Y-8529D02*
X42800Y-7671D01*
X44790Y-8529D02*
X45000Y-8529D01*
X45000Y-8529D02*
X45000Y-7671D01*
X44790Y-7671D02*
X45000Y-7671D01*
X44790Y-8529D02*
X44790Y-7671D01*
G54D21*
X42336Y-7320D02*
X45464Y-7320D01*
X45464Y-8880D02*
X42336Y-8880D01*
X42336Y-8880D02*
X42336Y-7320D01*
X45464Y-7320D02*
X45464Y-8880D01*
G54D22*
X43010Y-7350D02*
X44790Y-7350D01*
X43010Y-8850D02*
X44790Y-8850D01*
X43010Y-8850D02*
X43010Y-7350D01*
X44790Y-8850D02*
X44790Y-7350D01*
G54D17*
X44153Y-7707D02*
X43613Y-8100D01*
X43613Y-8100D02*
X44153Y-8493D01*
X44153Y-8493D02*
X44153Y-7707D01*
X43613Y-7707D02*
X43613Y-8493D01*
G54D20*
X50050Y-8529D02*
X50260Y-8529D01*
X50260Y-8529D02*
X50260Y-7671D01*
X50050Y-7671D02*
X50260Y-7671D01*
X50050Y-8529D02*
X50050Y-7671D01*
X52040Y-8529D02*
X52250Y-8529D01*
X52250Y-8529D02*
X52250Y-7671D01*
X52040Y-7671D02*
X52250Y-7671D01*
X52040Y-8529D02*
X52040Y-7671D01*
G54D21*
X49586Y-7320D02*
X52714Y-7320D01*
X52714Y-8880D02*
X49586Y-8880D01*
X49586Y-8880D02*
X49586Y-7320D01*
X52714Y-7320D02*
X52714Y-8880D01*
G54D22*
X50260Y-7350D02*
X52040Y-7350D01*
X50260Y-8850D02*
X52040Y-8850D01*
X50260Y-8850D02*
X50260Y-7350D01*
X52040Y-8850D02*
X52040Y-7350D01*
G54D17*
X51403Y-7707D02*
X50863Y-8100D01*
X50863Y-8100D02*
X51403Y-8493D01*
X51403Y-8493D02*
X51403Y-7707D01*
X50863Y-7707D02*
X50863Y-8493D01*
G54D13*
X54900Y-10100D02*
X54900Y-10600D01*
X54900Y-10600D02*
X53900Y-10600D01*
X53900Y-10600D02*
X53900Y-10100D01*
X55400Y-10100D02*
X55400Y-14100D01*
X55400Y-14100D02*
X53400Y-14100D01*
X53400Y-14100D02*
X53400Y-10100D01*
X53400Y-10100D02*
X55400Y-10100D01*
X47650Y-10100D02*
X47650Y-10600D01*
X47650Y-10600D02*
X46650Y-10600D01*
X46650Y-10600D02*
X46650Y-10100D01*
X48150Y-10100D02*
X48150Y-14100D01*
X48150Y-14100D02*
X46150Y-14100D01*
X46150Y-14100D02*
X46150Y-10100D01*
X46150Y-10100D02*
X48150Y-10100D01*
X48650Y-8100D02*
G75*
G03X48650Y-8100I-1500J0D01*
G74*
G01*
G54D19*
X43800Y-13600D02*
X43500Y-13600D01*
X43650Y-13450D02*
X43650Y-13750D01*
X43750Y-14500D02*
X42250Y-14500D01*
X44050Y-13000D02*
X44050Y-14200D01*
X43750Y-14500D02*
X44050Y-14200D01*
X43750Y-12700D02*
X42250Y-12700D01*
X43750Y-12700D02*
X44050Y-13000D01*
X42350Y-13650D02*
X42350Y-13550D01*
X42400Y-13350D02*
X42400Y-13850D01*
X42450Y-13950D02*
X42450Y-13250D01*
X42500Y-14050D02*
X42500Y-13150D01*
X42550Y-13100D02*
X42550Y-14100D01*
X42600Y-14150D02*
X42600Y-13050D01*
X42650Y-13000D02*
X42650Y-14200D01*
X42700Y-12950D02*
X42700Y-14250D01*
X43950Y-13600D02*
G75*
G03X43950Y-13600I-800J0D01*
G74*
G01*
X42250Y-12700D02*
X42250Y-14500D01*
G54D15*
X45150Y-14700D02*
G75*
G03X45150Y-14700I-50J0D01*
G74*
G01*
X45100Y-15150D02*
X45100Y-14750D01*
X45100Y-14750D02*
X45700Y-14750D01*
X45700Y-14750D02*
X45700Y-15150D01*
X45700Y-15550D02*
X45700Y-15950D01*
X45700Y-15950D02*
X45100Y-15950D01*
X45100Y-15950D02*
X45100Y-15550D01*
X41650Y-14700D02*
G75*
G03X41650Y-14700I-50J0D01*
G74*
G01*
X41600Y-15150D02*
X41600Y-14750D01*
X41600Y-14750D02*
X42200Y-14750D01*
X42200Y-14750D02*
X42200Y-15150D01*
X42200Y-15550D02*
X42200Y-15950D01*
X42200Y-15950D02*
X41600Y-15950D01*
X41600Y-15950D02*
X41600Y-15550D01*
G54D19*
X47800Y-15350D02*
X47500Y-15350D01*
X47650Y-15200D02*
X47650Y-15500D01*
X47750Y-16250D02*
X46250Y-16250D01*
X48050Y-14750D02*
X48050Y-15950D01*
X47750Y-16250D02*
X48050Y-15950D01*
X47750Y-14450D02*
X46250Y-14450D01*
X47750Y-14450D02*
X48050Y-14750D01*
X46350Y-15400D02*
X46350Y-15300D01*
X46400Y-15100D02*
X46400Y-15600D01*
X46450Y-15700D02*
X46450Y-15000D01*
X46500Y-15800D02*
X46500Y-14900D01*
X46550Y-14850D02*
X46550Y-15850D01*
X46600Y-15900D02*
X46600Y-14800D01*
X46650Y-14750D02*
X46650Y-15950D01*
X46700Y-14700D02*
X46700Y-16000D01*
X47950Y-15350D02*
G75*
G03X47950Y-15350I-800J0D01*
G74*
G01*
X46250Y-14450D02*
X46250Y-16250D01*
X43900Y-10450D02*
X43900Y-10750D01*
X43750Y-10600D02*
X44050Y-10600D01*
X44800Y-10500D02*
X44800Y-12000D01*
X43300Y-10200D02*
X44500Y-10200D01*
X44800Y-10500D02*
X44500Y-10200D01*
X43000Y-10500D02*
X43000Y-12000D01*
X43000Y-10500D02*
X43300Y-10200D01*
X43950Y-11900D02*
X43850Y-11900D01*
X43650Y-11850D02*
X44150Y-11850D01*
X44250Y-11800D02*
X43550Y-11800D01*
X44350Y-11750D02*
X43450Y-11750D01*
X43400Y-11700D02*
X44400Y-11700D01*
X44450Y-11650D02*
X43350Y-11650D01*
X43300Y-11600D02*
X44500Y-11600D01*
X43250Y-11550D02*
X44550Y-11550D01*
X44700Y-11100D02*
G75*
G03X44700Y-11100I-800J0D01*
G74*
G01*
X43000Y-12000D02*
X44800Y-12000D01*
X55050Y-15350D02*
X54750Y-15350D01*
X54900Y-15200D02*
X54900Y-15500D01*
X55000Y-16250D02*
X53500Y-16250D01*
X55300Y-14750D02*
X55300Y-15950D01*
X55000Y-16250D02*
X55300Y-15950D01*
X55000Y-14450D02*
X53500Y-14450D01*
X55000Y-14450D02*
X55300Y-14750D01*
X53600Y-15400D02*
X53600Y-15300D01*
X53650Y-15100D02*
X53650Y-15600D01*
X53700Y-15700D02*
X53700Y-15000D01*
X53750Y-15800D02*
X53750Y-14900D01*
X53800Y-14850D02*
X53800Y-15850D01*
X53850Y-15900D02*
X53850Y-14800D01*
X53900Y-14750D02*
X53900Y-15950D01*
X53950Y-14700D02*
X53950Y-16000D01*
X55200Y-15350D02*
G75*
G03X55200Y-15350I-800J0D01*
G74*
G01*
X53500Y-14450D02*
X53500Y-16250D01*
G54D20*
X49530Y-12080D02*
X49530Y-12310D01*
X49530Y-12310D02*
X49770Y-12310D01*
X49770Y-12080D02*
X49770Y-12310D01*
X49530Y-12080D02*
X49770Y-12080D01*
X49530Y-13390D02*
X49530Y-13620D01*
X49530Y-13620D02*
X49770Y-13620D01*
X49770Y-13390D02*
X49770Y-13620D01*
X49530Y-13390D02*
X49770Y-13390D01*
X49375Y-12693D02*
X49375Y-13007D01*
X49375Y-13007D02*
X49925Y-13007D01*
X49925Y-12693D02*
X49925Y-13007D01*
X49375Y-12693D02*
X49925Y-12693D01*
G54D21*
X50037Y-11680D02*
X50037Y-14020D01*
X49263Y-14020D02*
X49263Y-11680D01*
X49263Y-11680D02*
X50037Y-11680D01*
X50037Y-14020D02*
X49263Y-14020D01*
G54D22*
X49959Y-12330D02*
X49959Y-13370D01*
X49341Y-12330D02*
X49341Y-13370D01*
X49341Y-12330D02*
X49959Y-12330D01*
X49341Y-13370D02*
X49959Y-13370D01*
G54D17*
X49650Y-12457D02*
X49846Y-12850D01*
X49846Y-12850D02*
X49454Y-12850D01*
X49454Y-12850D02*
X49650Y-12457D01*
X49846Y-12457D02*
X49650Y-12457D01*
X49650Y-12457D02*
X49454Y-12457D01*
G54D23*
X29350Y-11250D02*
X28350Y-11250D01*
X28350Y-11250D02*
X28350Y-9250D01*
X28350Y-9250D02*
X29350Y-9250D01*
X29350Y-9250D02*
X29350Y-11250D01*
X34850Y-11250D02*
X33850Y-11250D01*
X33850Y-11250D02*
X33850Y-9250D01*
X33850Y-9250D02*
X34850Y-9250D01*
X34850Y-9250D02*
X34850Y-11250D01*
G54D16*
X44700Y-20600D02*
X40700Y-20600D01*
X44700Y-23600D02*
X40700Y-23600D01*
X40700Y-20600D02*
X40700Y-23600D01*
X42650Y-23600D02*
X42650Y-20600D01*
X44700Y-20600D02*
X44700Y-23600D01*
X40700Y-20600D02*
X36700Y-20600D01*
X40700Y-23600D02*
X36700Y-23600D01*
X36700Y-20600D02*
X36700Y-23600D01*
X38650Y-23600D02*
X38650Y-20600D01*
X40700Y-20600D02*
X40700Y-23600D01*
G54D20*
X45850Y-17950D02*
X45620Y-17950D01*
X45620Y-17950D02*
X45620Y-19150D01*
X45850Y-19150D02*
X45620Y-19150D01*
X45850Y-17950D02*
X45850Y-19150D01*
X48780Y-17950D02*
X48550Y-17950D01*
X48550Y-17950D02*
X48550Y-19150D01*
X48780Y-19150D02*
X48550Y-19150D01*
X48780Y-17950D02*
X48780Y-19150D01*
G54D24*
X48530Y-19680D02*
X45870Y-19680D01*
X45870Y-17420D02*
X48530Y-17420D01*
X48530Y-19680D02*
X48530Y-19320D01*
X48530Y-19320D02*
X48530Y-18890D01*
X48530Y-17420D02*
X48530Y-17780D01*
X48530Y-17780D02*
X48530Y-18210D01*
X45870Y-17420D02*
X45870Y-17780D01*
X45870Y-19680D02*
X45870Y-19320D01*
X45870Y-19320D02*
X45870Y-17780D01*
G54D21*
X48440Y-19590D02*
X45960Y-19590D01*
X45960Y-19309D02*
X45960Y-19590D01*
X45960Y-19309D02*
X45960Y-17790D01*
X45960Y-17790D02*
X45960Y-17490D01*
X48440Y-17490D02*
X45960Y-17490D01*
X48440Y-17490D02*
X48440Y-17790D01*
X48440Y-17790D02*
X48440Y-18180D01*
X48440Y-18910D02*
X48440Y-19309D01*
X48440Y-19309D02*
X48440Y-19590D01*
G54D24*
X48543Y-18213D02*
G75*
G03X48539Y-18890I-143J-337D01*
G74*
G01*
G54D20*
X50850Y-17950D02*
X50620Y-17950D01*
X50620Y-17950D02*
X50620Y-19150D01*
X50850Y-19150D02*
X50620Y-19150D01*
X50850Y-17950D02*
X50850Y-19150D01*
X53780Y-17950D02*
X53550Y-17950D01*
X53550Y-17950D02*
X53550Y-19150D01*
X53780Y-19150D02*
X53550Y-19150D01*
X53780Y-17950D02*
X53780Y-19150D01*
G54D24*
X53530Y-19680D02*
X50870Y-19680D01*
X50870Y-17420D02*
X53530Y-17420D01*
X53530Y-19680D02*
X53530Y-19320D01*
X53530Y-19320D02*
X53530Y-18890D01*
X53530Y-17420D02*
X53530Y-17780D01*
X53530Y-17780D02*
X53530Y-18210D01*
X50870Y-17420D02*
X50870Y-17780D01*
X50870Y-19680D02*
X50870Y-19320D01*
X50870Y-19320D02*
X50870Y-17780D01*
G54D21*
X53440Y-19590D02*
X50960Y-19590D01*
X50960Y-19309D02*
X50960Y-19590D01*
X50960Y-19309D02*
X50960Y-17790D01*
X50960Y-17790D02*
X50960Y-17490D01*
X53440Y-17490D02*
X50960Y-17490D01*
X53440Y-17490D02*
X53440Y-17790D01*
X53440Y-17790D02*
X53440Y-18180D01*
X53440Y-18910D02*
X53440Y-19309D01*
X53440Y-19309D02*
X53440Y-19590D01*
G54D24*
X53543Y-18213D02*
G75*
G03X53539Y-18890I-143J-337D01*
G74*
G01*
G54D13*
X7325Y-6775D02*
X7718Y-6775D01*
X7718Y-6775D02*
X7718Y-9924D01*
X7718Y-9924D02*
X7325Y-9924D01*
X7325Y-5987D02*
X7325Y-10712D01*
X7325Y-10712D02*
X10474Y-10712D01*
X10474Y-5987D02*
X10474Y-10712D01*
X10474Y-5987D02*
X7325Y-5987D01*
X3575Y-6775D02*
X3968Y-6775D01*
X3968Y-6775D02*
X3968Y-9924D01*
X3968Y-9924D02*
X3575Y-9924D01*
X3575Y-5987D02*
X3575Y-10712D01*
X3575Y-10712D02*
X6724Y-10712D01*
X6724Y-5987D02*
X6724Y-10712D01*
X6724Y-5987D02*
X3575Y-5987D01*
X11075Y-6775D02*
X11468Y-6775D01*
X11468Y-6775D02*
X11468Y-9924D01*
X11468Y-9924D02*
X11075Y-9924D01*
X11075Y-5987D02*
X11075Y-10712D01*
X11075Y-10712D02*
X14224Y-10712D01*
X14224Y-5987D02*
X14224Y-10712D01*
X14224Y-5987D02*
X11075Y-5987D01*
X14825Y-6775D02*
X15218Y-6775D01*
X15218Y-6775D02*
X15218Y-9924D01*
X15218Y-9924D02*
X14825Y-9924D01*
X14825Y-5987D02*
X14825Y-10712D01*
X14825Y-10712D02*
X17974Y-10712D01*
X17974Y-5987D02*
X17974Y-10712D01*
X17974Y-5987D02*
X14825Y-5987D01*
X7325Y-775D02*
X7718Y-775D01*
X7718Y-775D02*
X7718Y-3924D01*
X7718Y-3924D02*
X7325Y-3924D01*
X7325Y12D02*
X7325Y-4712D01*
X7325Y-4712D02*
X10474Y-4712D01*
X10474Y12D02*
X10474Y-4712D01*
X10474Y12D02*
X7325Y12D01*
X3575Y-775D02*
X3968Y-775D01*
X3968Y-775D02*
X3968Y-3924D01*
X3968Y-3924D02*
X3575Y-3924D01*
X3575Y12D02*
X3575Y-4712D01*
X3575Y-4712D02*
X6724Y-4712D01*
X6724Y12D02*
X6724Y-4712D01*
X6724Y12D02*
X3575Y12D01*
X11075Y-775D02*
X11468Y-775D01*
X11468Y-775D02*
X11468Y-3924D01*
X11468Y-3924D02*
X11075Y-3924D01*
X11075Y12D02*
X11075Y-4712D01*
X11075Y-4712D02*
X14224Y-4712D01*
X14224Y12D02*
X14224Y-4712D01*
X14224Y12D02*
X11075Y12D01*
X14825Y-775D02*
X15218Y-775D01*
X15218Y-775D02*
X15218Y-3924D01*
X15218Y-3924D02*
X14825Y-3924D01*
X14825Y12D02*
X14825Y-4712D01*
X14825Y-4712D02*
X17974Y-4712D01*
X17974Y12D02*
X17974Y-4712D01*
X17974Y12D02*
X14825Y12D01*
X14825Y5224D02*
X15218Y5224D01*
X15218Y5224D02*
X15218Y2075D01*
X15218Y2075D02*
X14825Y2075D01*
X14825Y6012D02*
X14825Y1287D01*
X14825Y1287D02*
X17974Y1287D01*
X17974Y6012D02*
X17974Y1287D01*
X17974Y6012D02*
X14825Y6012D01*
X11075Y5224D02*
X11468Y5224D01*
X11468Y5224D02*
X11468Y2075D01*
X11468Y2075D02*
X11075Y2075D01*
X11075Y6012D02*
X11075Y1287D01*
X11075Y1287D02*
X14224Y1287D01*
X14224Y6012D02*
X14224Y1287D01*
X14224Y6012D02*
X11075Y6012D01*
X7325Y5224D02*
X7718Y5224D01*
X7718Y5224D02*
X7718Y2075D01*
X7718Y2075D02*
X7325Y2075D01*
X7325Y6012D02*
X7325Y1287D01*
X7325Y1287D02*
X10474Y1287D01*
X10474Y6012D02*
X10474Y1287D01*
X10474Y6012D02*
X7325Y6012D01*
X3575Y5224D02*
X3968Y5224D01*
X3968Y5224D02*
X3968Y2075D01*
X3968Y2075D02*
X3575Y2075D01*
X3575Y6012D02*
X3575Y1287D01*
X3575Y1287D02*
X6724Y1287D01*
X6724Y6012D02*
X6724Y1287D01*
X6724Y6012D02*
X3575Y6012D01*
X7325Y-15275D02*
X7718Y-15275D01*
X7718Y-15275D02*
X7718Y-18424D01*
X7718Y-18424D02*
X7325Y-18424D01*
X7325Y-14487D02*
X7325Y-19212D01*
X7325Y-19212D02*
X10474Y-19212D01*
X10474Y-14487D02*
X10474Y-19212D01*
X10474Y-14487D02*
X7325Y-14487D01*
X11075Y-15275D02*
X11468Y-15275D01*
X11468Y-15275D02*
X11468Y-18424D01*
X11468Y-18424D02*
X11075Y-18424D01*
X11075Y-14487D02*
X11075Y-19212D01*
X11075Y-19212D02*
X14224Y-19212D01*
X14224Y-14487D02*
X14224Y-19212D01*
X14224Y-14487D02*
X11075Y-14487D01*
X42825Y-775D02*
X43218Y-775D01*
X43218Y-775D02*
X43218Y-3924D01*
X43218Y-3924D02*
X42825Y-3924D01*
X42825Y12D02*
X42825Y-4712D01*
X42825Y-4712D02*
X45974Y-4712D01*
X45974Y12D02*
X45974Y-4712D01*
X45974Y12D02*
X42825Y12D01*
X46575Y-775D02*
X46968Y-775D01*
X46968Y-775D02*
X46968Y-3924D01*
X46968Y-3924D02*
X46575Y-3924D01*
X46575Y12D02*
X46575Y-4712D01*
X46575Y-4712D02*
X49724Y-4712D01*
X49724Y12D02*
X49724Y-4712D01*
X49724Y12D02*
X46575Y12D01*
X3575Y-15275D02*
X3968Y-15275D01*
X3968Y-15275D02*
X3968Y-18424D01*
X3968Y-18424D02*
X3575Y-18424D01*
X3575Y-14487D02*
X3575Y-19212D01*
X3575Y-19212D02*
X6724Y-19212D01*
X6724Y-14487D02*
X6724Y-19212D01*
X6724Y-14487D02*
X3575Y-14487D01*
X46575Y5224D02*
X46968Y5224D01*
X46968Y5224D02*
X46968Y2075D01*
X46968Y2075D02*
X46575Y2075D01*
X46575Y6012D02*
X46575Y1287D01*
X46575Y1287D02*
X49724Y1287D01*
X49724Y6012D02*
X49724Y1287D01*
X49724Y6012D02*
X46575Y6012D01*
X54075Y5224D02*
X54468Y5224D01*
X54468Y5224D02*
X54468Y2075D01*
X54468Y2075D02*
X54075Y2075D01*
X54075Y6012D02*
X54075Y1287D01*
X54075Y1287D02*
X57224Y1287D01*
X57224Y6012D02*
X57224Y1287D01*
X57224Y6012D02*
X54075Y6012D01*
X54075Y-775D02*
X54468Y-775D01*
X54468Y-775D02*
X54468Y-3924D01*
X54468Y-3924D02*
X54075Y-3924D01*
X54075Y12D02*
X54075Y-4712D01*
X54075Y-4712D02*
X57224Y-4712D01*
X57224Y12D02*
X57224Y-4712D01*
X57224Y12D02*
X54075Y12D01*
X50325Y-775D02*
X50718Y-775D01*
X50718Y-775D02*
X50718Y-3924D01*
X50718Y-3924D02*
X50325Y-3924D01*
X50325Y12D02*
X50325Y-4712D01*
X50325Y-4712D02*
X53474Y-4712D01*
X53474Y12D02*
X53474Y-4712D01*
X53474Y12D02*
X50325Y12D01*
X50325Y5224D02*
X50718Y5224D01*
X50718Y5224D02*
X50718Y2075D01*
X50718Y2075D02*
X50325Y2075D01*
X50325Y6012D02*
X50325Y1287D01*
X50325Y1287D02*
X53474Y1287D01*
X53474Y6012D02*
X53474Y1287D01*
X53474Y6012D02*
X50325Y6012D01*
G54D25*
G36*
X25132Y-12298D02*
X25106Y-12323D01*
X25034Y-12386D01*
X24956Y-12448D01*
X24873Y-12507D01*
X24786Y-12563D01*
X24698Y-12615D01*
X24609Y-12661D01*
X24520Y-12701D01*
X24502Y-12709D01*
X24484Y-12716D01*
X24464Y-12724D01*
X24442Y-12732D01*
X24420Y-12740D01*
X24400Y-12748D01*
X24382Y-12754D01*
X24369Y-12758D01*
X24361Y-12760D01*
X24360Y-12760D01*
X24358Y-12757D01*
X24353Y-12746D01*
X24344Y-12730D01*
X24333Y-12707D01*
X24318Y-12678D01*
X24300Y-12643D01*
X24280Y-12603D01*
X24257Y-12558D01*
X24232Y-12509D01*
X24205Y-12454D01*
X24175Y-12396D01*
X24144Y-12333D01*
X24110Y-12267D01*
X24076Y-12197D01*
X24039Y-12124D01*
X24001Y-12048D01*
X23962Y-11970D01*
X23921Y-11889D01*
X23880Y-11807D01*
X23850Y-11748D01*
X23808Y-11664D01*
X23767Y-11581D01*
X23727Y-11501D01*
X23689Y-11424D01*
X23651Y-11349D01*
X23615Y-11277D01*
X23581Y-11208D01*
X23549Y-11143D01*
X23518Y-11081D01*
X23490Y-11024D01*
X23463Y-10971D01*
X23439Y-10922D01*
X23418Y-10879D01*
X23399Y-10840D01*
X23383Y-10807D01*
X23369Y-10780D01*
X23359Y-10759D01*
X23352Y-10744D01*
X23348Y-10736D01*
X23347Y-10734D01*
X23355Y-10730D01*
X23367Y-10723D01*
X23381Y-10713D01*
X23396Y-10702D01*
X23409Y-10691D01*
X23419Y-10683D01*
X23439Y-10665D01*
X23496Y-10719D01*
X23504Y-10727D01*
X23517Y-10739D01*
X23535Y-10757D01*
X23558Y-10779D01*
X23586Y-10806D01*
X23619Y-10837D01*
X23655Y-10872D01*
X23695Y-10911D01*
X23739Y-10954D01*
X23787Y-11000D01*
X23837Y-11048D01*
X23891Y-11100D01*
X23947Y-11154D01*
X24006Y-11211D01*
X24067Y-11269D01*
X24129Y-11330D01*
X24194Y-11392D01*
X24260Y-11455D01*
X24326Y-11520D01*
X24343Y-11536D01*
X25132Y-12298D01*
X25132Y-12298D01*
X25132Y-12298D01*
G37*
G36*
X23136Y-10770D02*
X23134Y-10784D01*
X23133Y-10789D01*
X23132Y-10801D01*
X23130Y-10821D01*
X23127Y-10848D01*
X23124Y-10881D01*
X23120Y-10920D01*
X23115Y-10965D01*
X23109Y-11015D01*
X23104Y-11070D01*
X23097Y-11130D01*
X23091Y-11194D01*
X23083Y-11263D01*
X23076Y-11334D01*
X23068Y-11410D01*
X23060Y-11488D01*
X23051Y-11568D01*
X23043Y-11651D01*
X23036Y-11717D01*
X23025Y-11819D01*
X23015Y-11913D01*
X23006Y-12001D01*
X22998Y-12081D01*
X22990Y-12154D01*
X22983Y-12221D01*
X22976Y-12282D01*
X22970Y-12338D01*
X22965Y-12387D01*
X22961Y-12432D01*
X22956Y-12472D01*
X22953Y-12506D01*
X22949Y-12537D01*
X22946Y-12564D01*
X22944Y-12586D01*
X22942Y-12605D01*
X22940Y-12622D01*
X22938Y-12635D01*
X22937Y-12645D01*
X22936Y-12653D01*
X22935Y-12659D01*
X22935Y-12664D01*
X22934Y-12667D01*
X22934Y-12669D01*
X22933Y-12669D01*
X22933Y-12670D01*
X22932Y-12670D01*
X22932Y-12670D01*
X22928Y-12668D01*
X22918Y-12663D01*
X22904Y-12656D01*
X22886Y-12647D01*
X22874Y-12641D01*
X22765Y-12579D01*
X22661Y-12512D01*
X22563Y-12440D01*
X22470Y-12363D01*
X22384Y-12281D01*
X22373Y-12271D01*
X22357Y-12254D01*
X22343Y-12239D01*
X22332Y-12226D01*
X22324Y-12218D01*
X22321Y-12214D01*
X22321Y-12213D01*
X22323Y-12210D01*
X22328Y-12199D01*
X22336Y-12182D01*
X22347Y-12159D01*
X22360Y-12130D01*
X22376Y-12096D01*
X22395Y-12056D01*
X22416Y-12012D01*
X22439Y-11963D01*
X22464Y-11910D01*
X22491Y-11854D01*
X22519Y-11794D01*
X22549Y-11730D01*
X22580Y-11664D01*
X22613Y-11596D01*
X22646Y-11526D01*
X22670Y-11476D01*
X22704Y-11405D01*
X22737Y-11335D01*
X22769Y-11267D01*
X22800Y-11202D01*
X22829Y-11140D01*
X22857Y-11081D01*
X22884Y-11025D01*
X22908Y-10974D01*
X22931Y-10927D01*
X22951Y-10884D01*
X22969Y-10846D01*
X22984Y-10813D01*
X22997Y-10786D01*
X23007Y-10765D01*
X23014Y-10750D01*
X23018Y-10741D01*
X23019Y-10739D01*
X23023Y-10739D01*
X23032Y-10742D01*
X23044Y-10746D01*
X23060Y-10752D01*
X23079Y-10757D01*
X23099Y-10762D01*
X23102Y-10763D01*
X23136Y-10770D01*
X23136Y-10770D01*
X23136Y-10770D01*
G37*
G36*
X22862Y-10593D02*
X22862Y-10595D01*
X22858Y-10597D01*
X22849Y-10604D01*
X22833Y-10613D01*
X22812Y-10626D01*
X22786Y-10642D01*
X22756Y-10661D01*
X22721Y-10682D01*
X22684Y-10706D01*
X22642Y-10731D01*
X22599Y-10758D01*
X22553Y-10786D01*
X22505Y-10816D01*
X22456Y-10846D01*
X22406Y-10877D01*
X22355Y-10909D01*
X22304Y-10940D01*
X22254Y-10971D01*
X22205Y-11001D01*
X22157Y-11031D01*
X22111Y-11059D01*
X22067Y-11086D01*
X22026Y-11112D01*
X21987Y-11135D01*
X21953Y-11157D01*
X21922Y-11176D01*
X21896Y-11192D01*
X21874Y-11205D01*
X21858Y-11215D01*
X21848Y-11221D01*
X21844Y-11223D01*
X21842Y-11221D01*
X21840Y-11212D01*
X21838Y-11199D01*
X21837Y-11198D01*
X21828Y-11125D01*
X21821Y-11049D01*
X21818Y-10968D01*
X21817Y-10920D01*
X21818Y-10894D01*
X21818Y-10866D01*
X21819Y-10837D01*
X21820Y-10808D01*
X21821Y-10782D01*
X21822Y-10757D01*
X21824Y-10737D01*
X21825Y-10721D01*
X21826Y-10712D01*
X21827Y-10710D01*
X21831Y-10709D01*
X21842Y-10706D01*
X21860Y-10702D01*
X21884Y-10696D01*
X21913Y-10690D01*
X21947Y-10682D01*
X21985Y-10673D01*
X22027Y-10663D01*
X22072Y-10653D01*
X22120Y-10642D01*
X22171Y-10630D01*
X22222Y-10619D01*
X22275Y-10607D01*
X22328Y-10595D01*
X22381Y-10582D01*
X22434Y-10571D01*
X22485Y-10559D01*
X22534Y-10548D01*
X22581Y-10537D01*
X22626Y-10527D01*
X22666Y-10518D01*
X22703Y-10510D01*
X22735Y-10502D01*
X22762Y-10496D01*
X22784Y-10492D01*
X22799Y-10488D01*
X22808Y-10486D01*
X22808Y-10486D01*
X22815Y-10485D01*
X22820Y-10487D01*
X22823Y-10493D01*
X22827Y-10505D01*
X22831Y-10518D01*
X22838Y-10536D01*
X22846Y-10554D01*
X22849Y-10559D01*
X22856Y-10574D01*
X22860Y-10586D01*
X22862Y-10593D01*
X22862Y-10593D01*
X22862Y-10593D01*
G37*
G36*
X25719Y-10871D02*
X25719Y-10891D01*
X25718Y-10904D01*
X25717Y-10912D01*
X25716Y-10916D01*
X25713Y-10917D01*
X25712Y-10917D01*
X25708Y-10916D01*
X25696Y-10914D01*
X25677Y-10910D01*
X25651Y-10905D01*
X25619Y-10899D01*
X25581Y-10891D01*
X25537Y-10882D01*
X25487Y-10872D01*
X25432Y-10861D01*
X25372Y-10849D01*
X25308Y-10836D01*
X25239Y-10823D01*
X25167Y-10808D01*
X25091Y-10793D01*
X25011Y-10777D01*
X24929Y-10760D01*
X24843Y-10743D01*
X24755Y-10725D01*
X24666Y-10707D01*
X24636Y-10701D01*
X24546Y-10683D01*
X24457Y-10665D01*
X24371Y-10647D01*
X24287Y-10631D01*
X24206Y-10614D01*
X24129Y-10599D01*
X24055Y-10584D01*
X23985Y-10569D01*
X23918Y-10556D01*
X23857Y-10544D01*
X23800Y-10532D01*
X23748Y-10522D01*
X23702Y-10512D01*
X23661Y-10504D01*
X23627Y-10497D01*
X23598Y-10492D01*
X23577Y-10487D01*
X23562Y-10484D01*
X23555Y-10483D01*
X23554Y-10483D01*
X23546Y-10481D01*
X23543Y-10477D01*
X23543Y-10470D01*
X23544Y-10464D01*
X23545Y-10453D01*
X23546Y-10437D01*
X23546Y-10417D01*
X23546Y-10404D01*
X23546Y-10360D01*
X24533Y-10221D01*
X24620Y-10209D01*
X24706Y-10197D01*
X24789Y-10185D01*
X24869Y-10174D01*
X24946Y-10163D01*
X25020Y-10153D01*
X25091Y-10143D01*
X25157Y-10133D01*
X25219Y-10125D01*
X25277Y-10116D01*
X25329Y-10109D01*
X25376Y-10102D01*
X25418Y-10096D01*
X25453Y-10091D01*
X25482Y-10087D01*
X25505Y-10084D01*
X25520Y-10082D01*
X25529Y-10081D01*
X25530Y-10080D01*
X25535Y-10080D01*
X25538Y-10082D01*
X25542Y-10087D01*
X25547Y-10096D01*
X25554Y-10111D01*
X25557Y-10119D01*
X25595Y-10218D01*
X25629Y-10322D01*
X25659Y-10429D01*
X25682Y-10538D01*
X25699Y-10637D01*
X25704Y-10677D01*
X25709Y-10719D01*
X25713Y-10761D01*
X25716Y-10802D01*
X25718Y-10839D01*
X25719Y-10870D01*
X25719Y-10871D01*
X25719Y-10871D01*
X25719Y-10871D01*
G37*
G36*
X23387Y-10403D02*
X23383Y-10440D01*
X23373Y-10476D01*
X23357Y-10510D01*
X23335Y-10541D01*
X23308Y-10567D01*
X23277Y-10589D01*
X23242Y-10605D01*
X23231Y-10608D01*
X23207Y-10613D01*
X23182Y-10616D01*
X23161Y-10616D01*
X23158Y-10616D01*
X23116Y-10608D01*
X23078Y-10593D01*
X23044Y-10572D01*
X23015Y-10546D01*
X22991Y-10514D01*
X22973Y-10477D01*
X22970Y-10470D01*
X22966Y-10455D01*
X22963Y-10441D01*
X22962Y-10425D01*
X22961Y-10404D01*
X22961Y-10400D01*
X22962Y-10379D01*
X22963Y-10363D01*
X22965Y-10351D01*
X22969Y-10338D01*
X22972Y-10330D01*
X22991Y-10292D01*
X23015Y-10259D01*
X23044Y-10233D01*
X23077Y-10212D01*
X23114Y-10198D01*
X23153Y-10191D01*
X23189Y-10190D01*
X23228Y-10197D01*
X23265Y-10210D01*
X23298Y-10230D01*
X23327Y-10255D01*
X23351Y-10286D01*
X23370Y-10321D01*
X23382Y-10361D01*
X23383Y-10365D01*
X23387Y-10403D01*
X23387Y-10403D01*
X23387Y-10403D01*
G37*
G36*
X22895Y-10168D02*
X22894Y-10171D01*
X22889Y-10180D01*
X22881Y-10192D01*
X22877Y-10199D01*
X22867Y-10215D01*
X22857Y-10233D01*
X22850Y-10247D01*
X22849Y-10250D01*
X22843Y-10262D01*
X22838Y-10269D01*
X22835Y-10272D01*
X22831Y-10270D01*
X22820Y-10266D01*
X22803Y-10260D01*
X22779Y-10252D01*
X22750Y-10241D01*
X22716Y-10229D01*
X22678Y-10215D01*
X22636Y-10200D01*
X22590Y-10183D01*
X22541Y-10165D01*
X22490Y-10146D01*
X22439Y-10128D01*
X22386Y-10109D01*
X22335Y-10090D01*
X22287Y-10072D01*
X22241Y-10056D01*
X22199Y-10040D01*
X22162Y-10027D01*
X22128Y-10014D01*
X22100Y-10004D01*
X22077Y-9996D01*
X22060Y-9990D01*
X22050Y-9986D01*
X22047Y-9985D01*
X22047Y-9981D01*
X22051Y-9973D01*
X22058Y-9960D01*
X22067Y-9944D01*
X22076Y-9926D01*
X22086Y-9908D01*
X22096Y-9891D01*
X22104Y-9879D01*
X22116Y-9860D01*
X22130Y-9838D01*
X22146Y-9814D01*
X22163Y-9789D01*
X22181Y-9764D01*
X22198Y-9740D01*
X22215Y-9717D01*
X22230Y-9696D01*
X22244Y-9679D01*
X22254Y-9665D01*
X22262Y-9657D01*
X22265Y-9654D01*
X22269Y-9656D01*
X22278Y-9663D01*
X22291Y-9675D01*
X22310Y-9690D01*
X22333Y-9708D01*
X22359Y-9729D01*
X22389Y-9753D01*
X22421Y-9779D01*
X22455Y-9807D01*
X22491Y-9836D01*
X22528Y-9867D01*
X22566Y-9897D01*
X22604Y-9929D01*
X22641Y-9959D01*
X22678Y-9989D01*
X22714Y-10019D01*
X22748Y-10046D01*
X22779Y-10072D01*
X22808Y-10096D01*
X22834Y-10117D01*
X22855Y-10134D01*
X22873Y-10149D01*
X22886Y-10160D01*
X22893Y-10166D01*
X22895Y-10168D01*
X22895Y-10168D01*
X22895Y-10168D01*
G37*
G36*
X24774Y-9223D02*
X24128Y-9703D01*
X24065Y-9750D01*
X24003Y-9796D01*
X23943Y-9841D01*
X23886Y-9883D01*
X23831Y-9924D01*
X23779Y-9963D01*
X23730Y-9999D01*
X23684Y-10033D01*
X23643Y-10064D01*
X23605Y-10092D01*
X23572Y-10116D01*
X23543Y-10138D01*
X23520Y-10155D01*
X23501Y-10169D01*
X23488Y-10178D01*
X23481Y-10183D01*
X23480Y-10184D01*
X23476Y-10182D01*
X23468Y-10175D01*
X23457Y-10164D01*
X23447Y-10154D01*
X23434Y-10141D01*
X23420Y-10128D01*
X23410Y-10118D01*
X23405Y-10114D01*
X23392Y-10105D01*
X23764Y-9552D01*
X23804Y-9492D01*
X23843Y-9434D01*
X23881Y-9378D01*
X23917Y-9325D01*
X23951Y-9274D01*
X23983Y-9226D01*
X24013Y-9182D01*
X24040Y-9142D01*
X24065Y-9105D01*
X24086Y-9073D01*
X24104Y-9046D01*
X24119Y-9024D01*
X24130Y-9008D01*
X24137Y-8997D01*
X24140Y-8993D01*
X24140Y-8992D01*
X24142Y-8990D01*
X24147Y-8989D01*
X24155Y-8990D01*
X24167Y-8992D01*
X24186Y-8995D01*
X24190Y-8996D01*
X24245Y-9008D01*
X24304Y-9024D01*
X24367Y-9044D01*
X24431Y-9065D01*
X24496Y-9090D01*
X24540Y-9107D01*
X24558Y-9115D01*
X24581Y-9125D01*
X24607Y-9137D01*
X24634Y-9150D01*
X24662Y-9164D01*
X24689Y-9177D01*
X24714Y-9189D01*
X24735Y-9200D01*
X24751Y-9209D01*
X24759Y-9214D01*
X24774Y-9223D01*
X24774Y-9223D01*
X24774Y-9223D01*
G37*
G36*
X23215Y-9059D02*
X23215Y-9069D01*
X23215Y-9086D01*
X23214Y-9110D01*
X23214Y-9140D01*
X23213Y-9175D01*
X23212Y-9215D01*
X23211Y-9259D01*
X23210Y-9306D01*
X23209Y-9356D01*
X23208Y-9407D01*
X23206Y-9460D01*
X23205Y-9514D01*
X23204Y-9568D01*
X23203Y-9622D01*
X23201Y-9674D01*
X23200Y-9724D01*
X23199Y-9772D01*
X23198Y-9817D01*
X23197Y-9858D01*
X23196Y-9894D01*
X23195Y-9925D01*
X23194Y-9951D01*
X23193Y-9970D01*
X23193Y-9982D01*
X23193Y-9983D01*
X23191Y-10035D01*
X23161Y-10038D01*
X23141Y-10040D01*
X23119Y-10044D01*
X23103Y-10047D01*
X23089Y-10051D01*
X23078Y-10053D01*
X23073Y-10053D01*
X23073Y-10053D01*
X23072Y-10049D01*
X23069Y-10038D01*
X23063Y-10021D01*
X23056Y-9997D01*
X23046Y-9968D01*
X23035Y-9934D01*
X23023Y-9896D01*
X23009Y-9853D01*
X22994Y-9806D01*
X22978Y-9756D01*
X22961Y-9704D01*
X22943Y-9649D01*
X22937Y-9632D01*
X22919Y-9577D01*
X22902Y-9523D01*
X22886Y-9472D01*
X22870Y-9425D01*
X22856Y-9380D01*
X22843Y-9340D01*
X22832Y-9304D01*
X22822Y-9274D01*
X22814Y-9248D01*
X22808Y-9229D01*
X22804Y-9216D01*
X22802Y-9209D01*
X22802Y-9209D01*
X22805Y-9206D01*
X22815Y-9201D01*
X22830Y-9193D01*
X22849Y-9183D01*
X22872Y-9170D01*
X22899Y-9157D01*
X22915Y-9149D01*
X22979Y-9118D01*
X23038Y-9091D01*
X23092Y-9068D01*
X23140Y-9049D01*
X23182Y-9035D01*
X23182Y-9035D01*
X23215Y-9025D01*
X23215Y-9059D01*
X23215Y-9059D01*
X23215Y-9059D01*
G37*
G54D26*
X38371Y-11524D02*
X38428Y-11356D01*
X38428Y-11074D01*
X38371Y-10962D01*
X38315Y-10906D01*
X38203Y-10849D01*
X38090Y-10849D01*
X37978Y-10906D01*
X37921Y-10962D01*
X37865Y-11074D01*
X37809Y-11299D01*
X37753Y-11412D01*
X37696Y-11468D01*
X37584Y-11524D01*
X37471Y-11524D01*
X37359Y-11468D01*
X37303Y-11412D01*
X37246Y-11299D01*
X37246Y-11018D01*
X37303Y-10849D01*
X37246Y-10456D02*
X38428Y-10174D01*
X37584Y-9949D01*
X38428Y-9725D01*
X37246Y-9443D01*
X37359Y-9050D02*
X37303Y-8993D01*
X37246Y-8881D01*
X37246Y-8600D01*
X37303Y-8487D01*
X37359Y-8431D01*
X37471Y-8375D01*
X37584Y-8375D01*
X37753Y-8431D01*
X38428Y-9106D01*
X38428Y-8375D01*
G54D17*
X36292Y-10583D02*
X36311Y-10526D01*
X36311Y-10430D01*
X36292Y-10392D01*
X36273Y-10373D01*
X36235Y-10354D01*
X36197Y-10354D01*
X36159Y-10373D01*
X36140Y-10392D01*
X36121Y-10430D01*
X36102Y-10507D01*
X36083Y-10545D01*
X36064Y-10564D01*
X36026Y-10583D01*
X35988Y-10583D01*
X35950Y-10564D01*
X35930Y-10545D01*
X35911Y-10507D01*
X35911Y-10411D01*
X35930Y-10354D01*
X35911Y-10221D02*
X36311Y-10126D01*
X36026Y-10050D01*
X36311Y-9973D01*
X35911Y-9878D01*
X35950Y-9745D02*
X35930Y-9726D01*
X35911Y-9688D01*
X35911Y-9592D01*
X35930Y-9554D01*
X35950Y-9535D01*
X35988Y-9516D01*
X36026Y-9516D01*
X36083Y-9535D01*
X36311Y-9764D01*
X36311Y-9516D01*
X30692Y-10533D02*
X30711Y-10476D01*
X30711Y-10380D01*
X30692Y-10342D01*
X30673Y-10323D01*
X30635Y-10304D01*
X30597Y-10304D01*
X30559Y-10323D01*
X30540Y-10342D01*
X30521Y-10380D01*
X30502Y-10457D01*
X30483Y-10495D01*
X30464Y-10514D01*
X30426Y-10533D01*
X30388Y-10533D01*
X30350Y-10514D01*
X30330Y-10495D01*
X30311Y-10457D01*
X30311Y-10361D01*
X30330Y-10304D01*
X30311Y-10171D02*
X30711Y-10076D01*
X30426Y-10000D01*
X30711Y-9923D01*
X30311Y-9828D01*
X30711Y-9466D02*
X30711Y-9695D01*
X30711Y-9580D02*
X30311Y-9580D01*
X30369Y-9619D01*
X30407Y-9657D01*
X30426Y-9695D01*
G54D26*
X32821Y-11374D02*
X32878Y-11206D01*
X32878Y-10924D01*
X32821Y-10812D01*
X32765Y-10756D01*
X32653Y-10699D01*
X32540Y-10699D01*
X32428Y-10756D01*
X32371Y-10812D01*
X32315Y-10924D01*
X32259Y-11149D01*
X32203Y-11262D01*
X32146Y-11318D01*
X32034Y-11374D01*
X31921Y-11374D01*
X31809Y-11318D01*
X31753Y-11262D01*
X31696Y-11149D01*
X31696Y-10868D01*
X31753Y-10699D01*
X31696Y-10306D02*
X32878Y-10024D01*
X32034Y-9799D01*
X32878Y-9575D01*
X31696Y-9293D01*
X32878Y-8225D02*
X32878Y-8900D01*
X32878Y-8562D02*
X31696Y-8562D01*
X31865Y-8675D01*
X31978Y-8787D01*
X32034Y-8900D01*
G54D27*
X27953Y7461D02*
X27953Y7761D01*
X28024Y7761D01*
X28067Y7746D01*
X28096Y7718D01*
X28110Y7689D01*
X28124Y7632D01*
X28124Y7589D01*
X28110Y7532D01*
X28096Y7503D01*
X28067Y7475D01*
X28024Y7461D01*
X27953Y7461D01*
X28410Y7461D02*
X28238Y7461D01*
X28324Y7461D02*
X28324Y7761D01*
X28296Y7718D01*
X28267Y7689D01*
X28238Y7675D01*
X28696Y7461D02*
X28524Y7461D01*
X28610Y7461D02*
X28610Y7761D01*
X28581Y7718D01*
X28553Y7689D01*
X28524Y7675D01*
X29707Y7448D02*
X29707Y7748D01*
X29778Y7748D01*
X29821Y7733D01*
X29849Y7705D01*
X29864Y7676D01*
X29878Y7619D01*
X29878Y7576D01*
X29864Y7519D01*
X29849Y7490D01*
X29821Y7462D01*
X29778Y7448D01*
X29707Y7448D01*
X30021Y7448D02*
X30078Y7448D01*
X30107Y7462D01*
X30121Y7476D01*
X30149Y7519D01*
X30164Y7576D01*
X30164Y7690D01*
X30149Y7719D01*
X30135Y7733D01*
X30107Y7748D01*
X30049Y7748D01*
X30021Y7733D01*
X30007Y7719D01*
X29992Y7690D01*
X29992Y7619D01*
X30007Y7590D01*
X30021Y7576D01*
X30049Y7562D01*
X30107Y7562D01*
X30135Y7576D01*
X30149Y7590D01*
X30164Y7619D01*
X21528Y3328D02*
X21528Y3628D01*
X21600Y3628D01*
X21642Y3614D01*
X21671Y3585D01*
X21685Y3557D01*
X21700Y3500D01*
X21700Y3457D01*
X21685Y3400D01*
X21671Y3371D01*
X21642Y3342D01*
X21600Y3328D01*
X21528Y3328D01*
X21985Y3328D02*
X21814Y3328D01*
X21900Y3328D02*
X21900Y3628D01*
X21871Y3585D01*
X21842Y3557D01*
X21814Y3542D01*
X23957Y3698D02*
X23957Y3998D01*
X24028Y3998D01*
X24071Y3983D01*
X24099Y3955D01*
X24114Y3926D01*
X24128Y3869D01*
X24128Y3826D01*
X24114Y3769D01*
X24099Y3740D01*
X24071Y3712D01*
X24028Y3698D01*
X23957Y3698D01*
X24228Y3998D02*
X24414Y3998D01*
X24314Y3883D01*
X24357Y3883D01*
X24385Y3869D01*
X24399Y3855D01*
X24414Y3826D01*
X24414Y3755D01*
X24399Y3726D01*
X24385Y3712D01*
X24357Y3698D01*
X24271Y3698D01*
X24242Y3712D01*
X24228Y3726D01*
X23978Y7478D02*
X23978Y7778D01*
X24050Y7778D01*
X24092Y7764D01*
X24121Y7735D01*
X24135Y7707D01*
X24150Y7650D01*
X24150Y7607D01*
X24135Y7550D01*
X24121Y7521D01*
X24092Y7492D01*
X24050Y7478D01*
X23978Y7478D01*
X24264Y7750D02*
X24278Y7764D01*
X24307Y7778D01*
X24378Y7778D01*
X24407Y7764D01*
X24421Y7750D01*
X24435Y7721D01*
X24435Y7692D01*
X24421Y7650D01*
X24250Y7478D01*
X24435Y7478D01*
X22428Y7478D02*
X22428Y7778D01*
X22500Y7778D01*
X22542Y7764D01*
X22571Y7735D01*
X22585Y7707D01*
X22600Y7650D01*
X22600Y7607D01*
X22585Y7550D01*
X22571Y7521D01*
X22542Y7492D01*
X22500Y7478D01*
X22428Y7478D01*
X22857Y7678D02*
X22857Y7478D01*
X22785Y7792D02*
X22714Y7578D01*
X22900Y7578D01*
X35503Y2111D02*
X35503Y2411D01*
X35574Y2411D01*
X35617Y2396D01*
X35646Y2368D01*
X35660Y2339D01*
X35674Y2282D01*
X35674Y2239D01*
X35660Y2182D01*
X35646Y2153D01*
X35617Y2125D01*
X35574Y2111D01*
X35503Y2111D01*
X35960Y2111D02*
X35788Y2111D01*
X35874Y2111D02*
X35874Y2411D01*
X35846Y2368D01*
X35817Y2339D01*
X35788Y2325D01*
X36074Y2382D02*
X36088Y2396D01*
X36117Y2411D01*
X36188Y2411D01*
X36217Y2396D01*
X36231Y2382D01*
X36246Y2353D01*
X36246Y2325D01*
X36231Y2282D01*
X36060Y2111D01*
X36246Y2111D01*
X37203Y3761D02*
X37203Y4061D01*
X37274Y4061D01*
X37317Y4046D01*
X37346Y4018D01*
X37360Y3989D01*
X37374Y3932D01*
X37374Y3889D01*
X37360Y3832D01*
X37346Y3803D01*
X37317Y3775D01*
X37274Y3761D01*
X37203Y3761D01*
X37660Y3761D02*
X37488Y3761D01*
X37574Y3761D02*
X37574Y4061D01*
X37546Y4018D01*
X37517Y3989D01*
X37488Y3975D01*
X37917Y3961D02*
X37917Y3761D01*
X37846Y4075D02*
X37774Y3861D01*
X37960Y3861D01*
X37235Y7528D02*
X37235Y7828D01*
X37307Y7828D01*
X37350Y7814D01*
X37378Y7785D01*
X37392Y7757D01*
X37407Y7700D01*
X37407Y7657D01*
X37392Y7600D01*
X37378Y7571D01*
X37350Y7542D01*
X37307Y7528D01*
X37235Y7528D01*
X37692Y7528D02*
X37521Y7528D01*
X37607Y7528D02*
X37607Y7828D01*
X37578Y7785D01*
X37550Y7757D01*
X37521Y7742D01*
X37792Y7828D02*
X37978Y7828D01*
X37878Y7714D01*
X37921Y7714D01*
X37950Y7700D01*
X37964Y7685D01*
X37978Y7657D01*
X37978Y7585D01*
X37964Y7557D01*
X37950Y7542D01*
X37921Y7528D01*
X37835Y7528D01*
X37807Y7542D01*
X37792Y7557D01*
X36085Y7528D02*
X36085Y7828D01*
X36157Y7828D01*
X36200Y7814D01*
X36228Y7785D01*
X36242Y7757D01*
X36257Y7700D01*
X36257Y7657D01*
X36242Y7600D01*
X36228Y7571D01*
X36200Y7542D01*
X36157Y7528D01*
X36085Y7528D01*
X36542Y7528D02*
X36371Y7528D01*
X36457Y7528D02*
X36457Y7828D01*
X36428Y7785D01*
X36400Y7757D01*
X36371Y7742D01*
X36814Y7828D02*
X36671Y7828D01*
X36657Y7685D01*
X36671Y7700D01*
X36700Y7714D01*
X36771Y7714D01*
X36800Y7700D01*
X36814Y7685D01*
X36828Y7657D01*
X36828Y7585D01*
X36814Y7557D01*
X36800Y7542D01*
X36771Y7528D01*
X36700Y7528D01*
X36671Y7542D01*
X36657Y7557D01*
X29564Y3698D02*
X29564Y3998D01*
X29635Y3998D01*
X29678Y3983D01*
X29707Y3955D01*
X29721Y3926D01*
X29735Y3869D01*
X29735Y3826D01*
X29721Y3769D01*
X29707Y3740D01*
X29678Y3712D01*
X29635Y3698D01*
X29564Y3698D01*
X30021Y3698D02*
X29849Y3698D01*
X29935Y3698D02*
X29935Y3998D01*
X29907Y3955D01*
X29878Y3926D01*
X29849Y3912D01*
X30207Y3998D02*
X30235Y3998D01*
X30264Y3983D01*
X30278Y3969D01*
X30292Y3940D01*
X30307Y3883D01*
X30307Y3812D01*
X30292Y3755D01*
X30278Y3726D01*
X30264Y3712D01*
X30235Y3698D01*
X30207Y3698D01*
X30178Y3712D01*
X30164Y3726D01*
X30149Y3755D01*
X30135Y3812D01*
X30135Y3883D01*
X30149Y3940D01*
X30164Y3969D01*
X30178Y3983D01*
X30207Y3998D01*
X27346Y2911D02*
X27346Y3211D01*
X27417Y3211D01*
X27460Y3196D01*
X27488Y3168D01*
X27503Y3139D01*
X27517Y3082D01*
X27517Y3039D01*
X27503Y2982D01*
X27488Y2953D01*
X27460Y2925D01*
X27417Y2911D01*
X27346Y2911D01*
X27688Y3082D02*
X27660Y3096D01*
X27646Y3111D01*
X27631Y3139D01*
X27631Y3153D01*
X27646Y3182D01*
X27660Y3196D01*
X27688Y3211D01*
X27746Y3211D01*
X27774Y3196D01*
X27788Y3182D01*
X27803Y3153D01*
X27803Y3139D01*
X27788Y3111D01*
X27774Y3096D01*
X27746Y3082D01*
X27688Y3082D01*
X27660Y3068D01*
X27646Y3053D01*
X27631Y3025D01*
X27631Y2968D01*
X27646Y2939D01*
X27660Y2925D01*
X27688Y2911D01*
X27746Y2911D01*
X27774Y2925D01*
X27788Y2939D01*
X27803Y2968D01*
X27803Y3025D01*
X27788Y3053D01*
X27774Y3068D01*
X27746Y3082D01*
G54D28*
X35579Y-6526D02*
X35485Y-6592D01*
X35579Y-6639D02*
X35382Y-6639D01*
X35382Y-6564D01*
X35392Y-6545D01*
X35401Y-6536D01*
X35420Y-6526D01*
X35448Y-6526D01*
X35467Y-6536D01*
X35476Y-6545D01*
X35485Y-6564D01*
X35485Y-6639D01*
X35579Y-6339D02*
X35579Y-6451D01*
X35579Y-6395D02*
X35382Y-6395D01*
X35410Y-6414D01*
X35429Y-6432D01*
X35439Y-6451D01*
X35467Y-6226D02*
X35457Y-6245D01*
X35448Y-6254D01*
X35429Y-6263D01*
X35420Y-6263D01*
X35401Y-6254D01*
X35392Y-6245D01*
X35382Y-6226D01*
X35382Y-6188D01*
X35392Y-6170D01*
X35401Y-6160D01*
X35420Y-6151D01*
X35429Y-6151D01*
X35448Y-6160D01*
X35457Y-6170D01*
X35467Y-6188D01*
X35467Y-6226D01*
X35476Y-6245D01*
X35485Y-6254D01*
X35504Y-6263D01*
X35542Y-6263D01*
X35560Y-6254D01*
X35570Y-6245D01*
X35579Y-6226D01*
X35579Y-6188D01*
X35570Y-6170D01*
X35560Y-6160D01*
X35542Y-6151D01*
X35504Y-6151D01*
X35485Y-6160D01*
X35476Y-6170D01*
X35467Y-6188D01*
X36026Y-6429D02*
X35913Y-6429D01*
X35970Y-6429D02*
X35970Y-6232D01*
X35951Y-6260D01*
X35932Y-6279D01*
X35913Y-6289D01*
X36110Y-6429D02*
X36110Y-6232D01*
X36129Y-6354D02*
X36186Y-6429D01*
X36186Y-6298D02*
X36110Y-6373D01*
X26590Y7202D02*
X26525Y7296D01*
X26478Y7202D02*
X26478Y7399D01*
X26553Y7399D01*
X26572Y7390D01*
X26581Y7380D01*
X26590Y7362D01*
X26590Y7334D01*
X26581Y7315D01*
X26572Y7305D01*
X26553Y7296D01*
X26478Y7296D01*
X26665Y7380D02*
X26675Y7390D01*
X26694Y7399D01*
X26740Y7399D01*
X26759Y7390D01*
X26769Y7380D01*
X26778Y7362D01*
X26778Y7343D01*
X26769Y7315D01*
X26656Y7202D01*
X26778Y7202D01*
X26853Y7380D02*
X26862Y7390D01*
X26881Y7399D01*
X26928Y7399D01*
X26947Y7390D01*
X26956Y7380D01*
X26966Y7362D01*
X26966Y7343D01*
X26956Y7315D01*
X26844Y7202D01*
X26966Y7202D01*
X26797Y6665D02*
X26797Y6552D01*
X26797Y6608D02*
X26600Y6608D01*
X26628Y6590D01*
X26647Y6571D01*
X26656Y6552D01*
X26600Y6787D02*
X26600Y6805D01*
X26609Y6824D01*
X26619Y6834D01*
X26637Y6843D01*
X26675Y6852D01*
X26722Y6852D01*
X26759Y6843D01*
X26778Y6834D01*
X26787Y6824D01*
X26797Y6805D01*
X26797Y6787D01*
X26787Y6768D01*
X26778Y6759D01*
X26759Y6749D01*
X26722Y6740D01*
X26675Y6740D01*
X26637Y6749D01*
X26619Y6759D01*
X26609Y6768D01*
X26600Y6787D01*
X26797Y6937D02*
X26600Y6937D01*
X26722Y6956D02*
X26797Y7012D01*
X26665Y7012D02*
X26740Y6937D01*
X27590Y4171D02*
X27581Y4162D01*
X27553Y4152D01*
X27534Y4152D01*
X27506Y4162D01*
X27487Y4180D01*
X27478Y4199D01*
X27468Y4237D01*
X27468Y4265D01*
X27478Y4302D01*
X27487Y4321D01*
X27506Y4340D01*
X27534Y4349D01*
X27553Y4349D01*
X27581Y4340D01*
X27590Y4330D01*
X27778Y4152D02*
X27665Y4152D01*
X27722Y4152D02*
X27722Y4349D01*
X27703Y4321D01*
X27684Y4302D01*
X27665Y4293D01*
X27900Y4349D02*
X27919Y4349D01*
X27937Y4340D01*
X27947Y4330D01*
X27956Y4312D01*
X27966Y4274D01*
X27966Y4227D01*
X27956Y4190D01*
X27947Y4171D01*
X27937Y4162D01*
X27919Y4152D01*
X27900Y4152D01*
X27881Y4162D01*
X27872Y4171D01*
X27862Y4190D01*
X27853Y4227D01*
X27853Y4274D01*
X27862Y4312D01*
X27872Y4330D01*
X27881Y4340D01*
X27900Y4349D01*
X27440Y4952D02*
X27328Y4952D01*
X27384Y4952D02*
X27384Y5149D01*
X27365Y5121D01*
X27346Y5102D01*
X27328Y5093D01*
X27562Y5149D02*
X27581Y5149D01*
X27600Y5140D01*
X27609Y5130D01*
X27619Y5112D01*
X27628Y5074D01*
X27628Y5027D01*
X27619Y4990D01*
X27609Y4971D01*
X27600Y4962D01*
X27581Y4952D01*
X27562Y4952D01*
X27543Y4962D01*
X27534Y4971D01*
X27525Y4990D01*
X27515Y5027D01*
X27515Y5074D01*
X27525Y5112D01*
X27534Y5130D01*
X27543Y5140D01*
X27562Y5149D01*
X27750Y5149D02*
X27769Y5149D01*
X27787Y5140D01*
X27797Y5130D01*
X27806Y5112D01*
X27816Y5074D01*
X27816Y5027D01*
X27806Y4990D01*
X27797Y4971D01*
X27787Y4962D01*
X27769Y4952D01*
X27750Y4952D01*
X27731Y4962D01*
X27722Y4971D01*
X27712Y4990D01*
X27703Y5027D01*
X27703Y5074D01*
X27712Y5112D01*
X27722Y5130D01*
X27731Y5140D01*
X27750Y5149D01*
X27900Y5084D02*
X27900Y4952D01*
X27900Y5065D02*
X27909Y5074D01*
X27928Y5084D01*
X27956Y5084D01*
X27975Y5074D01*
X27984Y5055D01*
X27984Y4952D01*
X28050Y5084D02*
X28125Y5084D01*
X28078Y4952D02*
X28078Y5121D01*
X28088Y5140D01*
X28106Y5149D01*
X28125Y5149D01*
X35679Y-12626D02*
X35585Y-12692D01*
X35679Y-12739D02*
X35482Y-12739D01*
X35482Y-12664D01*
X35492Y-12645D01*
X35501Y-12636D01*
X35520Y-12626D01*
X35548Y-12626D01*
X35567Y-12636D01*
X35576Y-12645D01*
X35585Y-12664D01*
X35585Y-12739D01*
X35501Y-12551D02*
X35492Y-12542D01*
X35482Y-12523D01*
X35482Y-12476D01*
X35492Y-12457D01*
X35501Y-12448D01*
X35520Y-12439D01*
X35539Y-12439D01*
X35567Y-12448D01*
X35679Y-12560D01*
X35679Y-12439D01*
X35679Y-12251D02*
X35679Y-12363D01*
X35679Y-12307D02*
X35482Y-12307D01*
X35510Y-12326D01*
X35529Y-12345D01*
X35539Y-12363D01*
X35932Y-12579D02*
X35820Y-12579D01*
X35876Y-12579D02*
X35876Y-12382D01*
X35857Y-12410D01*
X35838Y-12429D01*
X35820Y-12439D01*
X36054Y-12382D02*
X36073Y-12382D01*
X36092Y-12392D01*
X36101Y-12401D01*
X36110Y-12420D01*
X36120Y-12457D01*
X36120Y-12504D01*
X36110Y-12542D01*
X36101Y-12560D01*
X36092Y-12570D01*
X36073Y-12579D01*
X36054Y-12579D01*
X36035Y-12570D01*
X36026Y-12560D01*
X36017Y-12542D01*
X36007Y-12504D01*
X36007Y-12457D01*
X36017Y-12420D01*
X36026Y-12401D01*
X36035Y-12392D01*
X36054Y-12382D01*
X36204Y-12579D02*
X36204Y-12382D01*
X36223Y-12504D02*
X36279Y-12579D01*
X36279Y-12448D02*
X36204Y-12523D01*
X31179Y-12726D02*
X31085Y-12792D01*
X31179Y-12839D02*
X30982Y-12839D01*
X30982Y-12764D01*
X30992Y-12745D01*
X31001Y-12736D01*
X31020Y-12726D01*
X31048Y-12726D01*
X31067Y-12736D01*
X31076Y-12745D01*
X31085Y-12764D01*
X31085Y-12839D01*
X31001Y-12651D02*
X30992Y-12642D01*
X30982Y-12623D01*
X30982Y-12576D01*
X30992Y-12557D01*
X31001Y-12548D01*
X31020Y-12539D01*
X31039Y-12539D01*
X31067Y-12548D01*
X31179Y-12660D01*
X31179Y-12539D01*
X30982Y-12417D02*
X30982Y-12398D01*
X30992Y-12379D01*
X31001Y-12370D01*
X31020Y-12360D01*
X31057Y-12351D01*
X31104Y-12351D01*
X31142Y-12360D01*
X31160Y-12370D01*
X31170Y-12379D01*
X31179Y-12398D01*
X31179Y-12417D01*
X31170Y-12435D01*
X31160Y-12445D01*
X31142Y-12454D01*
X31104Y-12463D01*
X31057Y-12463D01*
X31020Y-12454D01*
X31001Y-12445D01*
X30992Y-12435D01*
X30982Y-12417D01*
X30482Y-12579D02*
X30370Y-12579D01*
X30426Y-12579D02*
X30426Y-12382D01*
X30407Y-12410D01*
X30388Y-12429D01*
X30370Y-12439D01*
X30604Y-12382D02*
X30623Y-12382D01*
X30642Y-12392D01*
X30651Y-12401D01*
X30660Y-12420D01*
X30670Y-12457D01*
X30670Y-12504D01*
X30660Y-12542D01*
X30651Y-12560D01*
X30642Y-12570D01*
X30623Y-12579D01*
X30604Y-12579D01*
X30585Y-12570D01*
X30576Y-12560D01*
X30567Y-12542D01*
X30557Y-12504D01*
X30557Y-12457D01*
X30567Y-12420D01*
X30576Y-12401D01*
X30585Y-12392D01*
X30604Y-12382D01*
X30754Y-12579D02*
X30754Y-12382D01*
X30773Y-12504D02*
X30829Y-12579D01*
X30829Y-12448D02*
X30754Y-12523D01*
X19729Y-15726D02*
X19635Y-15792D01*
X19729Y-15839D02*
X19532Y-15839D01*
X19532Y-15764D01*
X19542Y-15745D01*
X19551Y-15736D01*
X19570Y-15726D01*
X19598Y-15726D01*
X19617Y-15736D01*
X19626Y-15745D01*
X19635Y-15764D01*
X19635Y-15839D01*
X19729Y-15539D02*
X19729Y-15651D01*
X19729Y-15595D02*
X19532Y-15595D01*
X19560Y-15614D01*
X19579Y-15632D01*
X19589Y-15651D01*
X19532Y-15473D02*
X19532Y-15342D01*
X19729Y-15426D01*
X19032Y-15729D02*
X18920Y-15729D01*
X18976Y-15729D02*
X18976Y-15532D01*
X18957Y-15560D01*
X18938Y-15579D01*
X18920Y-15589D01*
X19154Y-15532D02*
X19173Y-15532D01*
X19192Y-15542D01*
X19201Y-15551D01*
X19210Y-15570D01*
X19220Y-15607D01*
X19220Y-15654D01*
X19210Y-15692D01*
X19201Y-15710D01*
X19192Y-15720D01*
X19173Y-15729D01*
X19154Y-15729D01*
X19135Y-15720D01*
X19126Y-15710D01*
X19117Y-15692D01*
X19107Y-15654D01*
X19107Y-15607D01*
X19117Y-15570D01*
X19126Y-15551D01*
X19135Y-15542D01*
X19154Y-15532D01*
X19304Y-15729D02*
X19304Y-15532D01*
X19323Y-15654D02*
X19379Y-15729D01*
X19379Y-15598D02*
X19304Y-15673D01*
X18729Y-14226D02*
X18635Y-14292D01*
X18729Y-14339D02*
X18532Y-14339D01*
X18532Y-14264D01*
X18542Y-14245D01*
X18551Y-14236D01*
X18570Y-14226D01*
X18598Y-14226D01*
X18617Y-14236D01*
X18626Y-14245D01*
X18635Y-14264D01*
X18635Y-14339D01*
X18729Y-14039D02*
X18729Y-14151D01*
X18729Y-14095D02*
X18532Y-14095D01*
X18560Y-14114D01*
X18579Y-14132D01*
X18589Y-14151D01*
X18532Y-13870D02*
X18532Y-13907D01*
X18542Y-13926D01*
X18551Y-13935D01*
X18579Y-13954D01*
X18617Y-13963D01*
X18692Y-13963D01*
X18710Y-13954D01*
X18720Y-13945D01*
X18729Y-13926D01*
X18729Y-13888D01*
X18720Y-13870D01*
X18710Y-13860D01*
X18692Y-13851D01*
X18645Y-13851D01*
X18626Y-13860D01*
X18617Y-13870D01*
X18607Y-13888D01*
X18607Y-13926D01*
X18617Y-13945D01*
X18626Y-13954D01*
X18645Y-13963D01*
X19082Y-14179D02*
X18970Y-14179D01*
X19026Y-14179D02*
X19026Y-13982D01*
X19007Y-14010D01*
X18988Y-14029D01*
X18970Y-14039D01*
X19204Y-13982D02*
X19223Y-13982D01*
X19242Y-13992D01*
X19251Y-14001D01*
X19260Y-14020D01*
X19270Y-14057D01*
X19270Y-14104D01*
X19260Y-14142D01*
X19251Y-14160D01*
X19242Y-14170D01*
X19223Y-14179D01*
X19204Y-14179D01*
X19185Y-14170D01*
X19176Y-14160D01*
X19167Y-14142D01*
X19157Y-14104D01*
X19157Y-14057D01*
X19167Y-14020D01*
X19176Y-14001D01*
X19185Y-13992D01*
X19204Y-13982D01*
X19354Y-14179D02*
X19354Y-13982D01*
X19373Y-14104D02*
X19429Y-14179D01*
X19429Y-14048D02*
X19354Y-14123D01*
X31179Y-6426D02*
X31085Y-6492D01*
X31179Y-6539D02*
X30982Y-6539D01*
X30982Y-6464D01*
X30992Y-6445D01*
X31001Y-6436D01*
X31020Y-6426D01*
X31048Y-6426D01*
X31067Y-6436D01*
X31076Y-6445D01*
X31085Y-6464D01*
X31085Y-6539D01*
X31179Y-6239D02*
X31179Y-6351D01*
X31179Y-6295D02*
X30982Y-6295D01*
X31010Y-6314D01*
X31029Y-6332D01*
X31039Y-6351D01*
X31179Y-6145D02*
X31179Y-6107D01*
X31170Y-6088D01*
X31160Y-6079D01*
X31132Y-6060D01*
X31095Y-6051D01*
X31020Y-6051D01*
X31001Y-6060D01*
X30992Y-6070D01*
X30982Y-6088D01*
X30982Y-6126D01*
X30992Y-6145D01*
X31001Y-6154D01*
X31020Y-6163D01*
X31067Y-6163D01*
X31085Y-6154D01*
X31095Y-6145D01*
X31104Y-6126D01*
X31104Y-6088D01*
X31095Y-6070D01*
X31085Y-6060D01*
X31067Y-6051D01*
X30526Y-6429D02*
X30413Y-6429D01*
X30470Y-6429D02*
X30470Y-6232D01*
X30451Y-6260D01*
X30432Y-6279D01*
X30413Y-6289D01*
X30610Y-6429D02*
X30610Y-6232D01*
X30629Y-6354D02*
X30686Y-6429D01*
X30686Y-6298D02*
X30610Y-6373D01*
X20590Y7152D02*
X20525Y7246D01*
X20478Y7152D02*
X20478Y7349D01*
X20553Y7349D01*
X20572Y7340D01*
X20581Y7330D01*
X20590Y7312D01*
X20590Y7284D01*
X20581Y7265D01*
X20572Y7255D01*
X20553Y7246D01*
X20478Y7246D01*
X20778Y7152D02*
X20665Y7152D01*
X20722Y7152D02*
X20722Y7349D01*
X20703Y7321D01*
X20684Y7302D01*
X20665Y7293D01*
X20844Y7349D02*
X20966Y7349D01*
X20900Y7274D01*
X20928Y7274D01*
X20947Y7265D01*
X20956Y7255D01*
X20966Y7237D01*
X20966Y7190D01*
X20956Y7171D01*
X20947Y7162D01*
X20928Y7152D01*
X20872Y7152D01*
X20853Y7162D01*
X20844Y7171D01*
X20797Y6715D02*
X20797Y6602D01*
X20797Y6658D02*
X20600Y6658D01*
X20628Y6640D01*
X20647Y6621D01*
X20656Y6602D01*
X20600Y6837D02*
X20600Y6855D01*
X20609Y6874D01*
X20619Y6884D01*
X20637Y6893D01*
X20675Y6902D01*
X20722Y6902D01*
X20759Y6893D01*
X20778Y6884D01*
X20787Y6874D01*
X20797Y6855D01*
X20797Y6837D01*
X20787Y6818D01*
X20778Y6809D01*
X20759Y6799D01*
X20722Y6790D01*
X20675Y6790D01*
X20637Y6799D01*
X20619Y6809D01*
X20609Y6818D01*
X20600Y6837D01*
X20797Y6987D02*
X20600Y6987D01*
X20722Y7006D02*
X20797Y7062D01*
X20665Y7062D02*
X20740Y6987D01*
X21460Y-6732D02*
X21470Y-6742D01*
X21479Y-6770D01*
X21479Y-6789D01*
X21470Y-6817D01*
X21451Y-6836D01*
X21432Y-6845D01*
X21395Y-6854D01*
X21367Y-6854D01*
X21329Y-6845D01*
X21310Y-6836D01*
X21292Y-6817D01*
X21282Y-6789D01*
X21282Y-6770D01*
X21292Y-6742D01*
X21301Y-6732D01*
X21479Y-6639D02*
X21479Y-6601D01*
X21470Y-6582D01*
X21460Y-6573D01*
X21432Y-6554D01*
X21395Y-6545D01*
X21320Y-6545D01*
X21301Y-6554D01*
X21292Y-6563D01*
X21282Y-6582D01*
X21282Y-6620D01*
X21292Y-6639D01*
X21301Y-6648D01*
X21320Y-6657D01*
X21367Y-6657D01*
X21385Y-6648D01*
X21395Y-6639D01*
X21404Y-6620D01*
X21404Y-6582D01*
X21395Y-6563D01*
X21385Y-6554D01*
X21367Y-6545D01*
X21523Y-7179D02*
X21410Y-7179D01*
X21466Y-7179D02*
X21466Y-6982D01*
X21448Y-7010D01*
X21429Y-7029D01*
X21410Y-7039D01*
X21645Y-6982D02*
X21663Y-6982D01*
X21682Y-6992D01*
X21692Y-7001D01*
X21701Y-7020D01*
X21710Y-7057D01*
X21710Y-7104D01*
X21701Y-7142D01*
X21692Y-7160D01*
X21682Y-7170D01*
X21663Y-7179D01*
X21645Y-7179D01*
X21626Y-7170D01*
X21617Y-7160D01*
X21607Y-7142D01*
X21598Y-7104D01*
X21598Y-7057D01*
X21607Y-7020D01*
X21617Y-7001D01*
X21626Y-6992D01*
X21645Y-6982D01*
X21832Y-6982D02*
X21851Y-6982D01*
X21870Y-6992D01*
X21879Y-7001D01*
X21889Y-7020D01*
X21898Y-7057D01*
X21898Y-7104D01*
X21889Y-7142D01*
X21879Y-7160D01*
X21870Y-7170D01*
X21851Y-7179D01*
X21832Y-7179D01*
X21814Y-7170D01*
X21804Y-7160D01*
X21795Y-7142D01*
X21785Y-7104D01*
X21785Y-7057D01*
X21795Y-7020D01*
X21804Y-7001D01*
X21814Y-6992D01*
X21832Y-6982D01*
X21982Y-7048D02*
X21982Y-7179D01*
X21982Y-7067D02*
X21992Y-7057D01*
X22011Y-7048D01*
X22039Y-7048D01*
X22057Y-7057D01*
X22067Y-7076D01*
X22067Y-7179D01*
X22133Y-7048D02*
X22208Y-7048D01*
X22161Y-7179D02*
X22161Y-7010D01*
X22170Y-6992D01*
X22189Y-6982D01*
X22208Y-6982D01*
X38634Y5452D02*
X38540Y5452D01*
X38540Y5649D01*
X38803Y5452D02*
X38690Y5452D01*
X38747Y5452D02*
X38747Y5649D01*
X38728Y5621D01*
X38709Y5602D01*
X38690Y5593D01*
X38069Y4470D02*
X38069Y4667D01*
X38163Y4470D02*
X38163Y4667D01*
X38276Y4470D01*
X38276Y4667D01*
X38370Y4470D02*
X38370Y4667D01*
X38416Y4667D01*
X38445Y4657D01*
X38463Y4639D01*
X38473Y4620D01*
X38482Y4582D01*
X38482Y4554D01*
X38473Y4517D01*
X38463Y4498D01*
X38445Y4479D01*
X38416Y4470D01*
X38370Y4470D01*
X38567Y4667D02*
X38567Y4507D01*
X38576Y4489D01*
X38585Y4479D01*
X38604Y4470D01*
X38642Y4470D01*
X38660Y4479D01*
X38670Y4489D01*
X38679Y4507D01*
X38679Y4667D01*
X38886Y4489D02*
X38876Y4479D01*
X38848Y4470D01*
X38829Y4470D01*
X38801Y4479D01*
X38782Y4498D01*
X38773Y4517D01*
X38764Y4554D01*
X38764Y4582D01*
X38773Y4620D01*
X38782Y4639D01*
X38801Y4657D01*
X38829Y4667D01*
X38848Y4667D01*
X38876Y4657D01*
X38886Y4648D01*
X38942Y4667D02*
X39054Y4667D01*
X38998Y4470D02*
X38998Y4667D01*
X39158Y4667D02*
X39195Y4667D01*
X39214Y4657D01*
X39233Y4639D01*
X39242Y4601D01*
X39242Y4535D01*
X39233Y4498D01*
X39214Y4479D01*
X39195Y4470D01*
X39158Y4470D01*
X39139Y4479D01*
X39120Y4498D01*
X39111Y4535D01*
X39111Y4601D01*
X39120Y4639D01*
X39139Y4657D01*
X39158Y4667D01*
X39439Y4470D02*
X39373Y4564D01*
X39326Y4470D02*
X39326Y4667D01*
X39401Y4667D01*
X39420Y4657D01*
X39430Y4648D01*
X39439Y4629D01*
X39439Y4601D01*
X39430Y4582D01*
X39420Y4573D01*
X39401Y4564D01*
X39326Y4564D01*
X21984Y4171D02*
X21975Y4162D01*
X21947Y4152D01*
X21928Y4152D01*
X21900Y4162D01*
X21881Y4180D01*
X21872Y4199D01*
X21862Y4237D01*
X21862Y4265D01*
X21872Y4302D01*
X21881Y4321D01*
X21900Y4340D01*
X21928Y4349D01*
X21947Y4349D01*
X21975Y4340D01*
X21984Y4330D01*
X22172Y4152D02*
X22059Y4152D01*
X22116Y4152D02*
X22116Y4349D01*
X22097Y4321D01*
X22078Y4302D01*
X22059Y4293D01*
X21740Y4902D02*
X21628Y4902D01*
X21684Y4902D02*
X21684Y5099D01*
X21665Y5071D01*
X21646Y5052D01*
X21628Y5043D01*
X21862Y5099D02*
X21881Y5099D01*
X21900Y5090D01*
X21909Y5080D01*
X21919Y5062D01*
X21928Y5024D01*
X21928Y4977D01*
X21919Y4940D01*
X21909Y4921D01*
X21900Y4912D01*
X21881Y4902D01*
X21862Y4902D01*
X21843Y4912D01*
X21834Y4921D01*
X21825Y4940D01*
X21815Y4977D01*
X21815Y5024D01*
X21825Y5062D01*
X21834Y5080D01*
X21843Y5090D01*
X21862Y5099D01*
X22050Y5099D02*
X22069Y5099D01*
X22087Y5090D01*
X22097Y5080D01*
X22106Y5062D01*
X22116Y5024D01*
X22116Y4977D01*
X22106Y4940D01*
X22097Y4921D01*
X22087Y4912D01*
X22069Y4902D01*
X22050Y4902D01*
X22031Y4912D01*
X22022Y4921D01*
X22012Y4940D01*
X22003Y4977D01*
X22003Y5024D01*
X22012Y5062D01*
X22022Y5080D01*
X22031Y5090D01*
X22050Y5099D01*
X22200Y5034D02*
X22200Y4902D01*
X22200Y5015D02*
X22209Y5024D01*
X22228Y5034D01*
X22256Y5034D01*
X22275Y5024D01*
X22284Y5005D01*
X22284Y4902D01*
X22350Y5034D02*
X22425Y5034D01*
X22378Y4902D02*
X22378Y5071D01*
X22388Y5090D01*
X22406Y5099D01*
X22425Y5099D01*
X16517Y-19679D02*
X16451Y-19585D01*
X16404Y-19679D02*
X16404Y-19482D01*
X16479Y-19482D01*
X16498Y-19492D01*
X16507Y-19501D01*
X16517Y-19520D01*
X16517Y-19548D01*
X16507Y-19567D01*
X16498Y-19576D01*
X16479Y-19585D01*
X16404Y-19585D01*
X16704Y-19679D02*
X16592Y-19679D01*
X16648Y-19679D02*
X16648Y-19482D01*
X16629Y-19510D01*
X16610Y-19529D01*
X16592Y-19539D01*
X15290Y-19482D02*
X15402Y-19482D01*
X15346Y-19679D02*
X15346Y-19482D01*
X15468Y-19679D02*
X15468Y-19482D01*
X15468Y-19576D02*
X15581Y-19576D01*
X15581Y-19679D02*
X15581Y-19482D01*
X15674Y-19576D02*
X15740Y-19576D01*
X15768Y-19679D02*
X15674Y-19679D01*
X15674Y-19482D01*
X15768Y-19482D01*
X15965Y-19679D02*
X15900Y-19585D01*
X15853Y-19679D02*
X15853Y-19482D01*
X15928Y-19482D01*
X15947Y-19492D01*
X15956Y-19501D01*
X15965Y-19520D01*
X15965Y-19548D01*
X15956Y-19567D01*
X15947Y-19576D01*
X15928Y-19585D01*
X15853Y-19585D01*
X16050Y-19679D02*
X16050Y-19482D01*
X16115Y-19623D01*
X16181Y-19482D01*
X16181Y-19679D01*
X34890Y4221D02*
X34881Y4212D01*
X34853Y4202D01*
X34834Y4202D01*
X34806Y4212D01*
X34787Y4230D01*
X34778Y4249D01*
X34768Y4287D01*
X34768Y4315D01*
X34778Y4352D01*
X34787Y4371D01*
X34806Y4390D01*
X34834Y4399D01*
X34853Y4399D01*
X34881Y4390D01*
X34890Y4380D01*
X35078Y4202D02*
X34965Y4202D01*
X35022Y4202D02*
X35022Y4399D01*
X35003Y4371D01*
X34984Y4352D01*
X34965Y4343D01*
X35153Y4380D02*
X35162Y4390D01*
X35181Y4399D01*
X35228Y4399D01*
X35247Y4390D01*
X35256Y4380D01*
X35266Y4362D01*
X35266Y4343D01*
X35256Y4315D01*
X35144Y4202D01*
X35266Y4202D01*
X34940Y5002D02*
X34828Y5002D01*
X34884Y5002D02*
X34884Y5199D01*
X34865Y5171D01*
X34846Y5152D01*
X34828Y5143D01*
X35062Y5199D02*
X35081Y5199D01*
X35100Y5190D01*
X35109Y5180D01*
X35119Y5162D01*
X35128Y5124D01*
X35128Y5077D01*
X35119Y5040D01*
X35109Y5021D01*
X35100Y5012D01*
X35081Y5002D01*
X35062Y5002D01*
X35043Y5012D01*
X35034Y5021D01*
X35025Y5040D01*
X35015Y5077D01*
X35015Y5124D01*
X35025Y5162D01*
X35034Y5180D01*
X35043Y5190D01*
X35062Y5199D01*
X35250Y5199D02*
X35269Y5199D01*
X35287Y5190D01*
X35297Y5180D01*
X35306Y5162D01*
X35316Y5124D01*
X35316Y5077D01*
X35306Y5040D01*
X35297Y5021D01*
X35287Y5012D01*
X35269Y5002D01*
X35250Y5002D01*
X35231Y5012D01*
X35222Y5021D01*
X35212Y5040D01*
X35203Y5077D01*
X35203Y5124D01*
X35212Y5162D01*
X35222Y5180D01*
X35231Y5190D01*
X35250Y5199D01*
X35400Y5134D02*
X35400Y5002D01*
X35400Y5115D02*
X35409Y5124D01*
X35428Y5134D01*
X35456Y5134D01*
X35475Y5124D01*
X35484Y5105D01*
X35484Y5002D01*
X35550Y5134D02*
X35625Y5134D01*
X35578Y5002D02*
X35578Y5171D01*
X35588Y5190D01*
X35606Y5199D01*
X35625Y5199D01*
X34040Y7252D02*
X33975Y7346D01*
X33928Y7252D02*
X33928Y7449D01*
X34003Y7449D01*
X34022Y7440D01*
X34031Y7430D01*
X34040Y7412D01*
X34040Y7384D01*
X34031Y7365D01*
X34022Y7355D01*
X34003Y7346D01*
X33928Y7346D01*
X34115Y7430D02*
X34125Y7440D01*
X34144Y7449D01*
X34190Y7449D01*
X34209Y7440D01*
X34219Y7430D01*
X34228Y7412D01*
X34228Y7393D01*
X34219Y7365D01*
X34106Y7252D01*
X34228Y7252D01*
X34294Y7449D02*
X34416Y7449D01*
X34350Y7374D01*
X34378Y7374D01*
X34397Y7365D01*
X34406Y7355D01*
X34416Y7337D01*
X34416Y7290D01*
X34406Y7271D01*
X34397Y7262D01*
X34378Y7252D01*
X34322Y7252D01*
X34303Y7262D01*
X34294Y7271D01*
X34247Y6665D02*
X34247Y6552D01*
X34247Y6608D02*
X34050Y6608D01*
X34078Y6590D01*
X34097Y6571D01*
X34106Y6552D01*
X34050Y6787D02*
X34050Y6805D01*
X34059Y6824D01*
X34069Y6834D01*
X34087Y6843D01*
X34125Y6852D01*
X34172Y6852D01*
X34209Y6843D01*
X34228Y6834D01*
X34237Y6824D01*
X34247Y6805D01*
X34247Y6787D01*
X34237Y6768D01*
X34228Y6759D01*
X34209Y6749D01*
X34172Y6740D01*
X34125Y6740D01*
X34087Y6749D01*
X34069Y6759D01*
X34059Y6768D01*
X34050Y6787D01*
X34247Y6937D02*
X34050Y6937D01*
X34172Y6956D02*
X34247Y7012D01*
X34115Y7012D02*
X34190Y6937D01*
X17617Y-19679D02*
X17551Y-19585D01*
X17504Y-19679D02*
X17504Y-19482D01*
X17579Y-19482D01*
X17598Y-19492D01*
X17607Y-19501D01*
X17617Y-19520D01*
X17617Y-19548D01*
X17607Y-19567D01*
X17598Y-19576D01*
X17579Y-19585D01*
X17504Y-19585D01*
X17786Y-19548D02*
X17786Y-19679D01*
X17739Y-19473D02*
X17692Y-19614D01*
X17814Y-19614D01*
X17729Y-20217D02*
X17729Y-20329D01*
X17729Y-20273D02*
X17532Y-20273D01*
X17560Y-20292D01*
X17579Y-20311D01*
X17589Y-20329D01*
X17532Y-20095D02*
X17532Y-20076D01*
X17542Y-20057D01*
X17551Y-20048D01*
X17570Y-20039D01*
X17607Y-20029D01*
X17654Y-20029D01*
X17692Y-20039D01*
X17710Y-20048D01*
X17720Y-20057D01*
X17729Y-20076D01*
X17729Y-20095D01*
X17720Y-20114D01*
X17710Y-20123D01*
X17692Y-20132D01*
X17654Y-20142D01*
X17607Y-20142D01*
X17570Y-20132D01*
X17551Y-20123D01*
X17542Y-20114D01*
X17532Y-20095D01*
X17729Y-19945D02*
X17532Y-19945D01*
X17654Y-19926D02*
X17729Y-19870D01*
X17598Y-19870D02*
X17673Y-19945D01*
X14117Y-19679D02*
X14051Y-19585D01*
X14004Y-19679D02*
X14004Y-19482D01*
X14079Y-19482D01*
X14098Y-19492D01*
X14107Y-19501D01*
X14117Y-19520D01*
X14117Y-19548D01*
X14107Y-19567D01*
X14098Y-19576D01*
X14079Y-19585D01*
X14004Y-19585D01*
X14182Y-19482D02*
X14304Y-19482D01*
X14239Y-19557D01*
X14267Y-19557D01*
X14286Y-19567D01*
X14295Y-19576D01*
X14304Y-19595D01*
X14304Y-19642D01*
X14295Y-19660D01*
X14286Y-19670D01*
X14267Y-19679D01*
X14210Y-19679D01*
X14192Y-19670D01*
X14182Y-19660D01*
X14229Y-20217D02*
X14229Y-20329D01*
X14229Y-20273D02*
X14032Y-20273D01*
X14060Y-20292D01*
X14079Y-20311D01*
X14089Y-20329D01*
X14032Y-20095D02*
X14032Y-20076D01*
X14042Y-20057D01*
X14051Y-20048D01*
X14070Y-20039D01*
X14107Y-20029D01*
X14154Y-20029D01*
X14192Y-20039D01*
X14210Y-20048D01*
X14220Y-20057D01*
X14229Y-20076D01*
X14229Y-20095D01*
X14220Y-20114D01*
X14210Y-20123D01*
X14192Y-20132D01*
X14154Y-20142D01*
X14107Y-20142D01*
X14070Y-20132D01*
X14051Y-20123D01*
X14042Y-20114D01*
X14032Y-20095D01*
X14229Y-19945D02*
X14032Y-19945D01*
X14154Y-19926D02*
X14229Y-19870D01*
X14098Y-19870D02*
X14173Y-19945D01*
X9917Y-19729D02*
X9851Y-19635D01*
X9804Y-19729D02*
X9804Y-19532D01*
X9879Y-19532D01*
X9898Y-19542D01*
X9907Y-19551D01*
X9917Y-19570D01*
X9917Y-19598D01*
X9907Y-19617D01*
X9898Y-19626D01*
X9879Y-19635D01*
X9804Y-19635D01*
X9992Y-19551D02*
X10001Y-19542D01*
X10020Y-19532D01*
X10067Y-19532D01*
X10086Y-19542D01*
X10095Y-19551D01*
X10104Y-19570D01*
X10104Y-19589D01*
X10095Y-19617D01*
X9982Y-19729D01*
X10104Y-19729D01*
X9979Y-20217D02*
X9979Y-20329D01*
X9979Y-20273D02*
X9782Y-20273D01*
X9810Y-20292D01*
X9829Y-20311D01*
X9839Y-20329D01*
X9782Y-20095D02*
X9782Y-20076D01*
X9792Y-20057D01*
X9801Y-20048D01*
X9820Y-20039D01*
X9857Y-20029D01*
X9904Y-20029D01*
X9942Y-20039D01*
X9960Y-20048D01*
X9970Y-20057D01*
X9979Y-20076D01*
X9979Y-20095D01*
X9970Y-20114D01*
X9960Y-20123D01*
X9942Y-20132D01*
X9904Y-20142D01*
X9857Y-20142D01*
X9820Y-20132D01*
X9801Y-20123D01*
X9792Y-20114D01*
X9782Y-20095D01*
X9979Y-19945D02*
X9782Y-19945D01*
X9904Y-19926D02*
X9979Y-19870D01*
X9848Y-19870D02*
X9923Y-19945D01*
G54D29*
X48330Y-23425D02*
X48330Y-22744D01*
X48493Y-22744D01*
X48534Y-22777D01*
X48554Y-22809D01*
X48574Y-22874D01*
X48574Y-22971D01*
X48554Y-23036D01*
X48534Y-23068D01*
X48493Y-23101D01*
X48330Y-23101D01*
X48982Y-23425D02*
X48737Y-23425D01*
X48860Y-23425D02*
X48860Y-22744D01*
X48819Y-22841D01*
X48778Y-22906D01*
X48737Y-22939D01*
X49125Y-22744D02*
X49410Y-22744D01*
X49227Y-23425D01*
G54D18*
X47219Y-20392D02*
X47219Y-19792D01*
X47371Y-19792D01*
X47409Y-19821D01*
X47428Y-19850D01*
X47447Y-19907D01*
X47447Y-19992D01*
X47428Y-20050D01*
X47409Y-20078D01*
X47371Y-20107D01*
X47219Y-20107D01*
X47523Y-20450D02*
X47828Y-20450D01*
X47923Y-20078D02*
X48057Y-20078D01*
X48114Y-20392D02*
X47923Y-20392D01*
X47923Y-19792D01*
X48114Y-19792D01*
X48247Y-19792D02*
X48514Y-20392D01*
X48514Y-19792D02*
X48247Y-20392D01*
X48609Y-19792D02*
X48838Y-19792D01*
X48723Y-20392D02*
X48723Y-19792D01*
G54D23*
X48442Y-23921D02*
X48385Y-23892D01*
X48300Y-23892D01*
X48214Y-23921D01*
X48157Y-23978D01*
X48128Y-24035D01*
X48100Y-24150D01*
X48100Y-24235D01*
X48128Y-24350D01*
X48157Y-24407D01*
X48214Y-24464D01*
X48300Y-24492D01*
X48357Y-24492D01*
X48442Y-24464D01*
X48471Y-24435D01*
X48471Y-24235D01*
X48357Y-24235D01*
X48728Y-24492D02*
X48728Y-23892D01*
X49071Y-24492D01*
X49071Y-23892D01*
X49357Y-24492D02*
X49357Y-23892D01*
X49500Y-23892D01*
X49585Y-23921D01*
X49642Y-23978D01*
X49671Y-24035D01*
X49700Y-24150D01*
X49700Y-24235D01*
X49671Y-24350D01*
X49642Y-24407D01*
X49585Y-24464D01*
X49500Y-24492D01*
X49357Y-24492D01*
X46621Y-24214D02*
X47078Y-24214D01*
X46850Y-24442D02*
X46850Y-23985D01*
G54D29*
X7380Y-21425D02*
X7380Y-20744D01*
X7543Y-20744D01*
X7584Y-20777D01*
X7604Y-20809D01*
X7624Y-20874D01*
X7624Y-20971D01*
X7604Y-21036D01*
X7584Y-21068D01*
X7543Y-21101D01*
X7380Y-21101D01*
X8032Y-21425D02*
X7787Y-21425D01*
X7910Y-21425D02*
X7910Y-20744D01*
X7869Y-20841D01*
X7828Y-20906D01*
X7787Y-20939D01*
X8175Y-20744D02*
X8440Y-20744D01*
X8297Y-21004D01*
X8358Y-21004D01*
X8399Y-21036D01*
X8419Y-21068D01*
X8440Y-21133D01*
X8440Y-21295D01*
X8419Y-21360D01*
X8399Y-21393D01*
X8358Y-21425D01*
X8236Y-21425D01*
X8195Y-21393D01*
X8175Y-21360D01*
G54D18*
X6845Y-19742D02*
X7073Y-19742D01*
X6959Y-20342D02*
X6959Y-19742D01*
X7416Y-20342D02*
X7188Y-20342D01*
X7302Y-20342D02*
X7302Y-19742D01*
X7264Y-19828D01*
X7226Y-19885D01*
X7188Y-19914D01*
G54D23*
X7442Y-23971D02*
X7385Y-23942D01*
X7300Y-23942D01*
X7214Y-23971D01*
X7157Y-24028D01*
X7128Y-24085D01*
X7100Y-24200D01*
X7100Y-24285D01*
X7128Y-24400D01*
X7157Y-24457D01*
X7214Y-24514D01*
X7300Y-24542D01*
X7357Y-24542D01*
X7442Y-24514D01*
X7471Y-24485D01*
X7471Y-24285D01*
X7357Y-24285D01*
X7728Y-24542D02*
X7728Y-23942D01*
X8071Y-24542D01*
X8071Y-23942D01*
X8357Y-24542D02*
X8357Y-23942D01*
X8500Y-23942D01*
X8585Y-23971D01*
X8642Y-24028D01*
X8671Y-24085D01*
X8700Y-24200D01*
X8700Y-24285D01*
X8671Y-24400D01*
X8642Y-24457D01*
X8585Y-24514D01*
X8500Y-24542D01*
X8357Y-24542D01*
X9721Y-24264D02*
X10178Y-24264D01*
X9950Y-24492D02*
X9950Y-24035D01*
G54D29*
X11480Y-21425D02*
X11480Y-20744D01*
X11643Y-20744D01*
X11684Y-20777D01*
X11704Y-20809D01*
X11724Y-20874D01*
X11724Y-20971D01*
X11704Y-21036D01*
X11684Y-21068D01*
X11643Y-21101D01*
X11480Y-21101D01*
X12132Y-21425D02*
X11887Y-21425D01*
X12010Y-21425D02*
X12010Y-20744D01*
X11969Y-20841D01*
X11928Y-20906D01*
X11887Y-20939D01*
X12499Y-20971D02*
X12499Y-21425D01*
X12397Y-20712D02*
X12295Y-21198D01*
X12560Y-21198D01*
G54D18*
X11095Y-19742D02*
X11323Y-19742D01*
X11209Y-20342D02*
X11209Y-19742D01*
X11438Y-19800D02*
X11457Y-19771D01*
X11495Y-19742D01*
X11590Y-19742D01*
X11628Y-19771D01*
X11647Y-19800D01*
X11666Y-19857D01*
X11666Y-19914D01*
X11647Y-20000D01*
X11419Y-20342D01*
X11666Y-20342D01*
G54D23*
X11442Y-24021D02*
X11385Y-23992D01*
X11300Y-23992D01*
X11214Y-24021D01*
X11157Y-24078D01*
X11128Y-24135D01*
X11100Y-24250D01*
X11100Y-24335D01*
X11128Y-24450D01*
X11157Y-24507D01*
X11214Y-24564D01*
X11300Y-24592D01*
X11357Y-24592D01*
X11442Y-24564D01*
X11471Y-24535D01*
X11471Y-24335D01*
X11357Y-24335D01*
X11728Y-24592D02*
X11728Y-23992D01*
X12071Y-24592D01*
X12071Y-23992D01*
X12357Y-24592D02*
X12357Y-23992D01*
X12500Y-23992D01*
X12585Y-24021D01*
X12642Y-24078D01*
X12671Y-24135D01*
X12700Y-24250D01*
X12700Y-24335D01*
X12671Y-24450D01*
X12642Y-24507D01*
X12585Y-24564D01*
X12500Y-24592D01*
X12357Y-24592D01*
X13671Y-24264D02*
X14128Y-24264D01*
X13900Y-24492D02*
X13900Y-24035D01*
G54D29*
X15430Y-21475D02*
X15430Y-20794D01*
X15593Y-20794D01*
X15634Y-20827D01*
X15654Y-20859D01*
X15674Y-20924D01*
X15674Y-21021D01*
X15654Y-21086D01*
X15634Y-21118D01*
X15593Y-21151D01*
X15430Y-21151D01*
X16082Y-21475D02*
X15837Y-21475D01*
X15960Y-21475D02*
X15960Y-20794D01*
X15919Y-20891D01*
X15878Y-20956D01*
X15837Y-20989D01*
X16469Y-20794D02*
X16265Y-20794D01*
X16245Y-21118D01*
X16265Y-21086D01*
X16306Y-21054D01*
X16408Y-21054D01*
X16449Y-21086D01*
X16469Y-21118D01*
X16490Y-21183D01*
X16490Y-21345D01*
X16469Y-21410D01*
X16449Y-21443D01*
X16408Y-21475D01*
X16306Y-21475D01*
X16265Y-21443D01*
X16245Y-21410D01*
G54D18*
X18595Y-19742D02*
X18823Y-19742D01*
X18709Y-20342D02*
X18709Y-19742D01*
X18919Y-19742D02*
X19166Y-19742D01*
X19033Y-19971D01*
X19090Y-19971D01*
X19128Y-20000D01*
X19147Y-20028D01*
X19166Y-20085D01*
X19166Y-20228D01*
X19147Y-20285D01*
X19128Y-20314D01*
X19090Y-20342D01*
X18976Y-20342D01*
X18938Y-20314D01*
X18919Y-20285D01*
G54D23*
X15442Y-23971D02*
X15385Y-23942D01*
X15300Y-23942D01*
X15214Y-23971D01*
X15157Y-24028D01*
X15128Y-24085D01*
X15100Y-24200D01*
X15100Y-24285D01*
X15128Y-24400D01*
X15157Y-24457D01*
X15214Y-24514D01*
X15300Y-24542D01*
X15357Y-24542D01*
X15442Y-24514D01*
X15471Y-24485D01*
X15471Y-24285D01*
X15357Y-24285D01*
X15728Y-24542D02*
X15728Y-23942D01*
X16071Y-24542D01*
X16071Y-23942D01*
X16357Y-24542D02*
X16357Y-23942D01*
X16500Y-23942D01*
X16585Y-23971D01*
X16642Y-24028D01*
X16671Y-24085D01*
X16700Y-24200D01*
X16700Y-24285D01*
X16671Y-24400D01*
X16642Y-24457D01*
X16585Y-24514D01*
X16500Y-24542D01*
X16357Y-24542D01*
X17721Y-24264D02*
X18178Y-24264D01*
X17950Y-24492D02*
X17950Y-24035D01*
G54D29*
X27130Y-23425D02*
X27130Y-22744D01*
X27293Y-22744D01*
X27334Y-22777D01*
X27354Y-22809D01*
X27374Y-22874D01*
X27374Y-22971D01*
X27354Y-23036D01*
X27334Y-23068D01*
X27293Y-23101D01*
X27130Y-23101D01*
X27782Y-23425D02*
X27537Y-23425D01*
X27660Y-23425D02*
X27660Y-22744D01*
X27619Y-22841D01*
X27578Y-22906D01*
X27537Y-22939D01*
X28149Y-22744D02*
X28067Y-22744D01*
X28027Y-22777D01*
X28006Y-22809D01*
X27965Y-22906D01*
X27945Y-23036D01*
X27945Y-23295D01*
X27965Y-23360D01*
X27986Y-23393D01*
X28027Y-23425D01*
X28108Y-23425D01*
X28149Y-23393D01*
X28169Y-23360D01*
X28190Y-23295D01*
X28190Y-23133D01*
X28169Y-23068D01*
X28149Y-23036D01*
X28108Y-23004D01*
X28027Y-23004D01*
X27986Y-23036D01*
X27965Y-23068D01*
X27945Y-23133D01*
G54D18*
X28573Y-19692D02*
X28383Y-19692D01*
X28364Y-19978D01*
X28383Y-19950D01*
X28421Y-19921D01*
X28516Y-19921D01*
X28554Y-19950D01*
X28573Y-19978D01*
X28592Y-20035D01*
X28592Y-20178D01*
X28573Y-20235D01*
X28554Y-20264D01*
X28516Y-20292D01*
X28421Y-20292D01*
X28383Y-20264D01*
X28364Y-20235D01*
X28707Y-19692D02*
X28840Y-20292D01*
X28973Y-19692D01*
G54D23*
X29192Y-23971D02*
X29135Y-23942D01*
X29050Y-23942D01*
X28964Y-23971D01*
X28907Y-24028D01*
X28878Y-24085D01*
X28850Y-24200D01*
X28850Y-24285D01*
X28878Y-24400D01*
X28907Y-24457D01*
X28964Y-24514D01*
X29050Y-24542D01*
X29107Y-24542D01*
X29192Y-24514D01*
X29221Y-24485D01*
X29221Y-24285D01*
X29107Y-24285D01*
X29478Y-24542D02*
X29478Y-23942D01*
X29821Y-24542D01*
X29821Y-23942D01*
X30107Y-24542D02*
X30107Y-23942D01*
X30250Y-23942D01*
X30335Y-23971D01*
X30392Y-24028D01*
X30421Y-24085D01*
X30450Y-24200D01*
X30450Y-24285D01*
X30421Y-24400D01*
X30392Y-24457D01*
X30335Y-24514D01*
X30250Y-24542D01*
X30107Y-24542D01*
X27421Y-24264D02*
X27878Y-24264D01*
X27650Y-24492D02*
X27650Y-24035D01*
G54D24*
X37188Y5711D02*
X37188Y5468D01*
X37203Y5439D01*
X37217Y5425D01*
X37246Y5411D01*
X37303Y5411D01*
X37331Y5425D01*
X37346Y5439D01*
X37360Y5468D01*
X37360Y5711D01*
X37646Y5711D02*
X37503Y5711D01*
X37488Y5568D01*
X37503Y5582D01*
X37531Y5596D01*
X37603Y5596D01*
X37631Y5582D01*
X37646Y5568D01*
X37660Y5539D01*
X37660Y5468D01*
X37646Y5439D01*
X37631Y5425D01*
X37603Y5411D01*
X37531Y5411D01*
X37503Y5425D01*
X37488Y5439D01*
X29738Y5711D02*
X29738Y5468D01*
X29753Y5439D01*
X29767Y5425D01*
X29796Y5411D01*
X29853Y5411D01*
X29881Y5425D01*
X29896Y5439D01*
X29910Y5468D01*
X29910Y5711D01*
X30181Y5611D02*
X30181Y5411D01*
X30110Y5725D02*
X30038Y5511D01*
X30224Y5511D01*
X23988Y5711D02*
X23988Y5468D01*
X24003Y5439D01*
X24017Y5425D01*
X24046Y5411D01*
X24103Y5411D01*
X24131Y5425D01*
X24146Y5439D01*
X24160Y5468D01*
X24160Y5711D01*
X24460Y5411D02*
X24288Y5411D01*
X24374Y5411D02*
X24374Y5711D01*
X24346Y5668D01*
X24317Y5639D01*
X24288Y5625D01*
G54D10*
X31459Y-4490D02*
X31065Y-4490D01*
X31065Y-4396D01*
X31084Y-4340D01*
X31121Y-4303D01*
X31159Y-4284D01*
X31234Y-4265D01*
X31290Y-4265D01*
X31365Y-4284D01*
X31403Y-4303D01*
X31440Y-4340D01*
X31459Y-4396D01*
X31459Y-4490D01*
X31065Y-4134D02*
X31065Y-3871D01*
X31459Y-4040D01*
G54D26*
X28678Y-2378D02*
X28678Y-1196D01*
X28959Y-1196D01*
X29128Y-1253D01*
X29240Y-1365D01*
X29297Y-1478D01*
X29353Y-1703D01*
X29353Y-1871D01*
X29297Y-2096D01*
X29240Y-2209D01*
X29128Y-2321D01*
X28959Y-2378D01*
X28678Y-2378D01*
X29803Y-2040D02*
X30365Y-2040D01*
X29690Y-2378D02*
X30084Y-1196D01*
X30478Y-2378D01*
X30703Y-1196D02*
X31378Y-1196D01*
X31040Y-2378D02*
X31040Y-1196D01*
X31715Y-2040D02*
X32277Y-2040D01*
X31602Y-2378D02*
X31996Y-1196D01*
X32390Y-2378D01*
G54D10*
X36959Y-4490D02*
X36565Y-4490D01*
X36565Y-4396D01*
X36584Y-4340D01*
X36621Y-4303D01*
X36659Y-4284D01*
X36734Y-4265D01*
X36790Y-4265D01*
X36865Y-4284D01*
X36903Y-4303D01*
X36940Y-4340D01*
X36959Y-4396D01*
X36959Y-4490D01*
X36565Y-3928D02*
X36565Y-4003D01*
X36584Y-4040D01*
X36603Y-4059D01*
X36659Y-4096D01*
X36734Y-4115D01*
X36884Y-4115D01*
X36921Y-4096D01*
X36940Y-4078D01*
X36959Y-4040D01*
X36959Y-3965D01*
X36940Y-3928D01*
X36921Y-3909D01*
X36884Y-3890D01*
X36790Y-3890D01*
X36753Y-3909D01*
X36734Y-3928D01*
X36715Y-3965D01*
X36715Y-4040D01*
X36734Y-4078D01*
X36753Y-4096D01*
X36790Y-4115D01*
G54D26*
X35390Y-2378D02*
X34828Y-2378D01*
X34828Y-1196D01*
X35784Y-1759D02*
X36178Y-1759D01*
X36346Y-2378D02*
X35784Y-2378D01*
X35784Y-1196D01*
X36346Y-1196D01*
X36853Y-2378D02*
X36853Y-1196D01*
X37134Y-1196D01*
X37302Y-1253D01*
X37415Y-1365D01*
X37471Y-1478D01*
X37527Y-1703D01*
X37527Y-1871D01*
X37471Y-2096D01*
X37415Y-2209D01*
X37302Y-2321D01*
X37134Y-2378D01*
X36853Y-2378D01*
G54D27*
X25178Y4905D02*
X25187Y4896D01*
X25197Y4868D01*
X25197Y4849D01*
X25187Y4821D01*
X25169Y4802D01*
X25150Y4793D01*
X25112Y4783D01*
X25084Y4783D01*
X25047Y4793D01*
X25028Y4802D01*
X25009Y4821D01*
X25000Y4849D01*
X25000Y4868D01*
X25009Y4896D01*
X25019Y4905D01*
X25197Y5093D02*
X25197Y4980D01*
X25197Y5037D02*
X25000Y5037D01*
X25028Y5018D01*
X25047Y4999D01*
X25056Y4980D01*
X25197Y5281D02*
X25197Y5168D01*
X25197Y5224D02*
X25000Y5224D01*
X25028Y5206D01*
X25047Y5187D01*
X25056Y5168D01*
X19828Y6149D02*
X19837Y6140D01*
X19847Y6112D01*
X19847Y6093D01*
X19837Y6065D01*
X19819Y6046D01*
X19800Y6037D01*
X19762Y6027D01*
X19734Y6027D01*
X19697Y6037D01*
X19678Y6046D01*
X19659Y6065D01*
X19650Y6093D01*
X19650Y6112D01*
X19659Y6140D01*
X19669Y6149D01*
X19669Y6224D02*
X19659Y6234D01*
X19650Y6252D01*
X19650Y6299D01*
X19659Y6318D01*
X19669Y6327D01*
X19687Y6337D01*
X19706Y6337D01*
X19734Y6327D01*
X19847Y6215D01*
X19847Y6337D01*
X22810Y-5882D02*
X22820Y-5892D01*
X22829Y-5920D01*
X22829Y-5939D01*
X22820Y-5967D01*
X22801Y-5986D01*
X22782Y-5995D01*
X22745Y-6004D01*
X22717Y-6004D01*
X22679Y-5995D01*
X22660Y-5986D01*
X22642Y-5967D01*
X22632Y-5939D01*
X22632Y-5920D01*
X22642Y-5892D01*
X22651Y-5882D01*
X22717Y-5770D02*
X22707Y-5789D01*
X22698Y-5798D01*
X22679Y-5807D01*
X22670Y-5807D01*
X22651Y-5798D01*
X22642Y-5789D01*
X22632Y-5770D01*
X22632Y-5732D01*
X22642Y-5713D01*
X22651Y-5704D01*
X22670Y-5695D01*
X22679Y-5695D01*
X22698Y-5704D01*
X22707Y-5713D01*
X22717Y-5732D01*
X22717Y-5770D01*
X22726Y-5789D01*
X22735Y-5798D01*
X22754Y-5807D01*
X22792Y-5807D01*
X22810Y-5798D01*
X22820Y-5789D01*
X22829Y-5770D01*
X22829Y-5732D01*
X22820Y-5713D01*
X22810Y-5704D01*
X22792Y-5695D01*
X22754Y-5695D01*
X22735Y-5704D01*
X22726Y-5713D01*
X22717Y-5732D01*
X32628Y4955D02*
X32637Y4946D01*
X32647Y4918D01*
X32647Y4899D01*
X32637Y4871D01*
X32619Y4852D01*
X32600Y4843D01*
X32562Y4833D01*
X32534Y4833D01*
X32497Y4843D01*
X32478Y4852D01*
X32459Y4871D01*
X32450Y4899D01*
X32450Y4918D01*
X32459Y4946D01*
X32469Y4955D01*
X32647Y5143D02*
X32647Y5030D01*
X32647Y5087D02*
X32450Y5087D01*
X32478Y5068D01*
X32497Y5049D01*
X32506Y5030D01*
X32450Y5209D02*
X32450Y5331D01*
X32525Y5265D01*
X32525Y5293D01*
X32534Y5312D01*
X32544Y5321D01*
X32562Y5331D01*
X32609Y5331D01*
X32628Y5321D01*
X32637Y5312D01*
X32647Y5293D01*
X32647Y5237D01*
X32637Y5218D01*
X32628Y5209D01*
G54D17*
X34316Y-23292D02*
X34373Y-23311D01*
X34469Y-23311D01*
X34507Y-23292D01*
X34526Y-23273D01*
X34545Y-23235D01*
X34545Y-23197D01*
X34526Y-23159D01*
X34507Y-23140D01*
X34469Y-23121D01*
X34392Y-23102D01*
X34354Y-23083D01*
X34335Y-23064D01*
X34316Y-23026D01*
X34316Y-22988D01*
X34335Y-22950D01*
X34354Y-22930D01*
X34392Y-22911D01*
X34488Y-22911D01*
X34545Y-22930D01*
X34678Y-22911D02*
X34773Y-23311D01*
X34850Y-23026D01*
X34926Y-23311D01*
X35021Y-22911D01*
X35135Y-22911D02*
X35383Y-22911D01*
X35250Y-23064D01*
X35307Y-23064D01*
X35345Y-23083D01*
X35364Y-23102D01*
X35383Y-23140D01*
X35383Y-23235D01*
X35364Y-23273D01*
X35345Y-23292D01*
X35307Y-23311D01*
X35192Y-23311D01*
X35154Y-23292D01*
X35135Y-23273D01*
G54D30*
X32736Y-20389D02*
X32736Y-19798D01*
X32961Y-19798D01*
X33017Y-19826D01*
X33045Y-19854D01*
X33073Y-19910D01*
X33073Y-19995D01*
X33045Y-20051D01*
X33017Y-20079D01*
X32961Y-20107D01*
X32736Y-20107D01*
X33439Y-19798D02*
X33551Y-19798D01*
X33607Y-19826D01*
X33664Y-19882D01*
X33692Y-19995D01*
X33692Y-20192D01*
X33664Y-20304D01*
X33607Y-20360D01*
X33551Y-20389D01*
X33439Y-20389D01*
X33382Y-20360D01*
X33326Y-20304D01*
X33298Y-20192D01*
X33298Y-19995D01*
X33326Y-19882D01*
X33382Y-19826D01*
X33439Y-19798D01*
X33889Y-19798D02*
X34029Y-20389D01*
X34142Y-19967D01*
X34254Y-20389D01*
X34395Y-19798D01*
X34620Y-20079D02*
X34817Y-20079D01*
X34901Y-20389D02*
X34620Y-20389D01*
X34620Y-19798D01*
X34901Y-19798D01*
X35492Y-20389D02*
X35295Y-20107D01*
X35154Y-20389D02*
X35154Y-19798D01*
X35379Y-19798D01*
X35435Y-19826D01*
X35463Y-19854D01*
X35492Y-19910D01*
X35492Y-19995D01*
X35463Y-20051D01*
X35435Y-20079D01*
X35379Y-20107D01*
X35154Y-20107D01*
G54D19*
X43859Y-15501D02*
X43859Y-15703D01*
X43871Y-15727D01*
X43883Y-15739D01*
X43907Y-15751D01*
X43954Y-15751D01*
X43978Y-15739D01*
X43990Y-15727D01*
X44002Y-15703D01*
X44002Y-15501D01*
X44228Y-15501D02*
X44180Y-15501D01*
X44157Y-15513D01*
X44145Y-15525D01*
X44121Y-15560D01*
X44109Y-15608D01*
X44109Y-15703D01*
X44121Y-15727D01*
X44133Y-15739D01*
X44157Y-15751D01*
X44204Y-15751D01*
X44228Y-15739D01*
X44240Y-15727D01*
X44252Y-15703D01*
X44252Y-15644D01*
X44240Y-15620D01*
X44228Y-15608D01*
X44204Y-15596D01*
X44157Y-15596D01*
X44133Y-15608D01*
X44121Y-15620D01*
X44109Y-15644D01*
G54D28*
X44460Y-16229D02*
X44460Y-16032D01*
X44507Y-16032D01*
X44535Y-16042D01*
X44554Y-16060D01*
X44563Y-16079D01*
X44573Y-16117D01*
X44573Y-16145D01*
X44563Y-16182D01*
X44554Y-16201D01*
X44535Y-16220D01*
X44507Y-16229D01*
X44460Y-16229D01*
X44760Y-16229D02*
X44648Y-16229D01*
X44704Y-16229D02*
X44704Y-16032D01*
X44685Y-16060D01*
X44667Y-16079D01*
X44648Y-16089D01*
X44854Y-16229D02*
X44892Y-16229D01*
X44911Y-16220D01*
X44920Y-16210D01*
X44939Y-16182D01*
X44948Y-16145D01*
X44948Y-16070D01*
X44939Y-16051D01*
X44929Y-16042D01*
X44911Y-16032D01*
X44873Y-16032D01*
X44854Y-16042D01*
X44845Y-16051D01*
X44836Y-16070D01*
X44836Y-16117D01*
X44845Y-16135D01*
X44854Y-16145D01*
X44873Y-16154D01*
X44911Y-16154D01*
X44929Y-16145D01*
X44939Y-16135D01*
X44948Y-16117D01*
X44176Y-14510D02*
X44166Y-14520D01*
X44138Y-14529D01*
X44120Y-14529D01*
X44091Y-14520D01*
X44073Y-14501D01*
X44063Y-14482D01*
X44054Y-14445D01*
X44054Y-14417D01*
X44063Y-14379D01*
X44073Y-14360D01*
X44091Y-14342D01*
X44120Y-14332D01*
X44138Y-14332D01*
X44166Y-14342D01*
X44176Y-14351D01*
X44260Y-14529D02*
X44260Y-14332D01*
X44260Y-14426D02*
X44373Y-14426D01*
X44373Y-14529D02*
X44373Y-14332D01*
X44579Y-14529D02*
X44514Y-14435D01*
X44467Y-14529D02*
X44467Y-14332D01*
X44542Y-14332D01*
X44560Y-14342D01*
X44570Y-14351D01*
X44579Y-14370D01*
X44579Y-14398D01*
X44570Y-14417D01*
X44560Y-14426D01*
X44542Y-14435D01*
X44467Y-14435D01*
X44767Y-14342D02*
X44748Y-14332D01*
X44720Y-14332D01*
X44692Y-14342D01*
X44673Y-14360D01*
X44664Y-14379D01*
X44654Y-14417D01*
X44654Y-14445D01*
X44664Y-14482D01*
X44673Y-14501D01*
X44692Y-14520D01*
X44720Y-14529D01*
X44739Y-14529D01*
X44767Y-14520D01*
X44776Y-14510D01*
X44776Y-14445D01*
X44739Y-14445D01*
X44889Y-14510D02*
X44898Y-14520D01*
X44889Y-14529D01*
X44879Y-14520D01*
X44889Y-14510D01*
X44889Y-14529D01*
X44851Y-14342D02*
X44870Y-14332D01*
X44917Y-14332D01*
X44936Y-14342D01*
X44945Y-14360D01*
X44945Y-14379D01*
X44936Y-14398D01*
X44926Y-14407D01*
X44908Y-14417D01*
X44898Y-14426D01*
X44889Y-14445D01*
X44889Y-14454D01*
G54D29*
X52380Y-23425D02*
X52380Y-22744D01*
X52543Y-22744D01*
X52584Y-22777D01*
X52604Y-22809D01*
X52624Y-22874D01*
X52624Y-22971D01*
X52604Y-23036D01*
X52584Y-23068D01*
X52543Y-23101D01*
X52380Y-23101D01*
X52767Y-22744D02*
X53032Y-22744D01*
X52889Y-23004D01*
X52950Y-23004D01*
X52991Y-23036D01*
X53012Y-23068D01*
X53032Y-23133D01*
X53032Y-23295D01*
X53012Y-23360D01*
X52991Y-23393D01*
X52950Y-23425D01*
X52828Y-23425D01*
X52787Y-23393D01*
X52767Y-23360D01*
X53195Y-22809D02*
X53215Y-22777D01*
X53256Y-22744D01*
X53358Y-22744D01*
X53399Y-22777D01*
X53419Y-22809D01*
X53440Y-22874D01*
X53440Y-22939D01*
X53419Y-23036D01*
X53175Y-23425D01*
X53440Y-23425D01*
G54D18*
X50635Y-20364D02*
X50692Y-20392D01*
X50788Y-20392D01*
X50826Y-20364D01*
X50845Y-20335D01*
X50864Y-20278D01*
X50864Y-20221D01*
X50845Y-20164D01*
X50826Y-20135D01*
X50788Y-20107D01*
X50711Y-20078D01*
X50673Y-20050D01*
X50654Y-20021D01*
X50635Y-19964D01*
X50635Y-19907D01*
X50654Y-19850D01*
X50673Y-19821D01*
X50711Y-19792D01*
X50807Y-19792D01*
X50864Y-19821D01*
X51111Y-19792D02*
X51188Y-19792D01*
X51226Y-19821D01*
X51264Y-19878D01*
X51283Y-19992D01*
X51283Y-20192D01*
X51264Y-20307D01*
X51226Y-20364D01*
X51188Y-20392D01*
X51111Y-20392D01*
X51073Y-20364D01*
X51035Y-20307D01*
X51016Y-20192D01*
X51016Y-19992D01*
X51035Y-19878D01*
X51073Y-19821D01*
X51111Y-19792D01*
X51645Y-20392D02*
X51454Y-20392D01*
X51454Y-19792D01*
X51759Y-20221D02*
X51950Y-20221D01*
X51721Y-20392D02*
X51854Y-19792D01*
X51988Y-20392D01*
X52350Y-20392D02*
X52216Y-20107D01*
X52121Y-20392D02*
X52121Y-19792D01*
X52273Y-19792D01*
X52311Y-19821D01*
X52330Y-19850D01*
X52350Y-19907D01*
X52350Y-19992D01*
X52330Y-20050D01*
X52311Y-20078D01*
X52273Y-20107D01*
X52121Y-20107D01*
X52426Y-20450D02*
X52730Y-20450D01*
X52826Y-20392D02*
X52826Y-19792D01*
X53016Y-20392D02*
X53016Y-19792D01*
X53245Y-20392D01*
X53245Y-19792D01*
G54D23*
X52492Y-23971D02*
X52435Y-23942D01*
X52350Y-23942D01*
X52264Y-23971D01*
X52207Y-24028D01*
X52178Y-24085D01*
X52150Y-24200D01*
X52150Y-24285D01*
X52178Y-24400D01*
X52207Y-24457D01*
X52264Y-24514D01*
X52350Y-24542D01*
X52407Y-24542D01*
X52492Y-24514D01*
X52521Y-24485D01*
X52521Y-24285D01*
X52407Y-24285D01*
X52778Y-24542D02*
X52778Y-23942D01*
X53121Y-24542D01*
X53121Y-23942D01*
X53407Y-24542D02*
X53407Y-23942D01*
X53550Y-23942D01*
X53635Y-23971D01*
X53692Y-24028D01*
X53721Y-24085D01*
X53750Y-24200D01*
X53750Y-24285D01*
X53721Y-24400D01*
X53692Y-24457D01*
X53635Y-24514D01*
X53550Y-24542D01*
X53407Y-24542D01*
X50621Y-24214D02*
X51078Y-24214D01*
X50850Y-24442D02*
X50850Y-23985D01*
G54D17*
X55200Y-6492D02*
X54914Y-6492D01*
X54914Y-5892D01*
X55342Y-5892D02*
X55714Y-5892D01*
X55514Y-6121D01*
X55600Y-6121D01*
X55657Y-6150D01*
X55685Y-6178D01*
X55714Y-6235D01*
X55714Y-6378D01*
X55685Y-6435D01*
X55657Y-6464D01*
X55600Y-6492D01*
X55428Y-6492D01*
X55371Y-6464D01*
X55342Y-6435D01*
X53319Y-7052D02*
X53628Y-7052D01*
X53461Y-7242D01*
X53533Y-7242D01*
X53580Y-7266D01*
X53604Y-7290D01*
X53628Y-7338D01*
X53628Y-7457D01*
X53604Y-7504D01*
X53580Y-7528D01*
X53533Y-7552D01*
X53390Y-7552D01*
X53342Y-7528D01*
X53319Y-7504D01*
X53795Y-7052D02*
X54104Y-7052D01*
X53938Y-7242D01*
X54009Y-7242D01*
X54057Y-7266D01*
X54080Y-7290D01*
X54104Y-7338D01*
X54104Y-7457D01*
X54080Y-7504D01*
X54057Y-7528D01*
X54009Y-7552D01*
X53866Y-7552D01*
X53819Y-7528D01*
X53795Y-7504D01*
X54414Y-7052D02*
X54461Y-7052D01*
X54509Y-7076D01*
X54533Y-7100D01*
X54557Y-7147D01*
X54580Y-7242D01*
X54580Y-7361D01*
X54557Y-7457D01*
X54533Y-7504D01*
X54509Y-7528D01*
X54461Y-7552D01*
X54414Y-7552D01*
X54366Y-7528D01*
X54342Y-7504D01*
X54319Y-7457D01*
X54295Y-7361D01*
X54295Y-7242D01*
X54319Y-7147D01*
X54342Y-7100D01*
X54366Y-7076D01*
X54414Y-7052D01*
X55009Y-7219D02*
X55009Y-7552D01*
X54795Y-7219D02*
X54795Y-7480D01*
X54819Y-7528D01*
X54866Y-7552D01*
X54938Y-7552D01*
X54985Y-7528D01*
X55009Y-7504D01*
X55247Y-7552D02*
X55247Y-7052D01*
X55247Y-7290D02*
X55533Y-7290D01*
X55533Y-7552D02*
X55533Y-7052D01*
G54D27*
X50110Y-11132D02*
X50120Y-11142D01*
X50129Y-11170D01*
X50129Y-11189D01*
X50120Y-11217D01*
X50101Y-11236D01*
X50082Y-11245D01*
X50045Y-11254D01*
X50017Y-11254D01*
X49979Y-11245D01*
X49960Y-11236D01*
X49942Y-11217D01*
X49932Y-11189D01*
X49932Y-11170D01*
X49942Y-11142D01*
X49951Y-11132D01*
X49932Y-10954D02*
X49932Y-11048D01*
X50026Y-11057D01*
X50017Y-11048D01*
X50007Y-11029D01*
X50007Y-10982D01*
X50017Y-10963D01*
X50026Y-10954D01*
X50045Y-10945D01*
X50092Y-10945D01*
X50110Y-10954D01*
X50120Y-10963D01*
X50129Y-10982D01*
X50129Y-11029D01*
X50120Y-11048D01*
X50110Y-11057D01*
X41773Y-18160D02*
X41763Y-18170D01*
X41735Y-18179D01*
X41717Y-18179D01*
X41688Y-18170D01*
X41670Y-18151D01*
X41660Y-18132D01*
X41651Y-18095D01*
X41651Y-18067D01*
X41660Y-18029D01*
X41670Y-18010D01*
X41688Y-17992D01*
X41717Y-17982D01*
X41735Y-17982D01*
X41763Y-17992D01*
X41773Y-18001D01*
X41960Y-18179D02*
X41848Y-18179D01*
X41904Y-18179D02*
X41904Y-17982D01*
X41885Y-18010D01*
X41867Y-18029D01*
X41848Y-18039D01*
X42129Y-18048D02*
X42129Y-18179D01*
X42082Y-17973D02*
X42036Y-18114D01*
X42157Y-18114D01*
G54D31*
X55707Y-9183D02*
X55707Y-9750D01*
X55728Y-9816D01*
X55750Y-9850D01*
X55792Y-9883D01*
X55878Y-9883D01*
X55921Y-9850D01*
X55942Y-9816D01*
X55964Y-9750D01*
X55964Y-9183D01*
X56135Y-9183D02*
X56414Y-9183D01*
X56264Y-9450D01*
X56328Y-9450D01*
X56371Y-9483D01*
X56392Y-9516D01*
X56414Y-9583D01*
X56414Y-9750D01*
X56392Y-9816D01*
X56371Y-9850D01*
X56328Y-9883D01*
X56200Y-9883D01*
X56157Y-9850D01*
X56135Y-9816D01*
G54D23*
G54D18*
X54683Y-12966D02*
X54683Y-13157D01*
X53983Y-13157D01*
X54683Y-12833D02*
X53983Y-12833D01*
X54483Y-12700D01*
X53983Y-12566D01*
X54683Y-12566D01*
X54050Y-12395D02*
X54016Y-12376D01*
X53983Y-12338D01*
X53983Y-12242D01*
X54016Y-12204D01*
X54050Y-12185D01*
X54116Y-12166D01*
X54183Y-12166D01*
X54283Y-12185D01*
X54683Y-12414D01*
X54683Y-12166D01*
X53983Y-11804D02*
X53983Y-11995D01*
X54316Y-12014D01*
X54283Y-11995D01*
X54250Y-11957D01*
X54250Y-11861D01*
X54283Y-11823D01*
X54316Y-11804D01*
X54383Y-11785D01*
X54550Y-11785D01*
X54616Y-11804D01*
X54650Y-11823D01*
X54683Y-11861D01*
X54683Y-11957D01*
X54650Y-11995D01*
X54616Y-12014D01*
X53983Y-11652D02*
X53983Y-11385D01*
X54683Y-11557D01*
X54216Y-11061D02*
X54683Y-11061D01*
X53950Y-11157D02*
X54450Y-11252D01*
X54450Y-11004D01*
G54D23*
G54D31*
X48507Y-9183D02*
X48507Y-9750D01*
X48528Y-9816D01*
X48550Y-9850D01*
X48592Y-9883D01*
X48678Y-9883D01*
X48721Y-9850D01*
X48742Y-9816D01*
X48764Y-9750D01*
X48764Y-9183D01*
X48957Y-9250D02*
X48978Y-9216D01*
X49021Y-9183D01*
X49128Y-9183D01*
X49171Y-9216D01*
X49192Y-9250D01*
X49214Y-9316D01*
X49214Y-9383D01*
X49192Y-9483D01*
X48935Y-9883D01*
X49214Y-9883D01*
G54D23*
G54D18*
X47433Y-12966D02*
X47433Y-13157D01*
X46733Y-13157D01*
X47433Y-12833D02*
X46733Y-12833D01*
X47233Y-12700D01*
X46733Y-12566D01*
X47433Y-12566D01*
X46800Y-12395D02*
X46766Y-12376D01*
X46733Y-12338D01*
X46733Y-12242D01*
X46766Y-12204D01*
X46800Y-12185D01*
X46866Y-12166D01*
X46933Y-12166D01*
X47033Y-12185D01*
X47433Y-12414D01*
X47433Y-12166D01*
X46733Y-11804D02*
X46733Y-11995D01*
X47066Y-12014D01*
X47033Y-11995D01*
X47000Y-11957D01*
X47000Y-11861D01*
X47033Y-11823D01*
X47066Y-11804D01*
X47133Y-11785D01*
X47300Y-11785D01*
X47366Y-11804D01*
X47400Y-11823D01*
X47433Y-11861D01*
X47433Y-11957D01*
X47400Y-11995D01*
X47366Y-12014D01*
X46733Y-11652D02*
X46733Y-11385D01*
X47433Y-11557D01*
X46966Y-11061D02*
X47433Y-11061D01*
X46700Y-11157D02*
X47200Y-11252D01*
X47200Y-11004D01*
G54D23*
G54D17*
X48450Y-6692D02*
X48164Y-6692D01*
X48164Y-6092D01*
X48621Y-6150D02*
X48650Y-6121D01*
X48707Y-6092D01*
X48850Y-6092D01*
X48907Y-6121D01*
X48935Y-6150D01*
X48964Y-6207D01*
X48964Y-6264D01*
X48935Y-6350D01*
X48592Y-6692D01*
X48964Y-6692D01*
X46069Y-7052D02*
X46378Y-7052D01*
X46211Y-7242D01*
X46283Y-7242D01*
X46330Y-7266D01*
X46354Y-7290D01*
X46378Y-7338D01*
X46378Y-7457D01*
X46354Y-7504D01*
X46330Y-7528D01*
X46283Y-7552D01*
X46140Y-7552D01*
X46092Y-7528D01*
X46069Y-7504D01*
X46545Y-7052D02*
X46854Y-7052D01*
X46688Y-7242D01*
X46759Y-7242D01*
X46807Y-7266D01*
X46830Y-7290D01*
X46854Y-7338D01*
X46854Y-7457D01*
X46830Y-7504D01*
X46807Y-7528D01*
X46759Y-7552D01*
X46616Y-7552D01*
X46569Y-7528D01*
X46545Y-7504D01*
X47164Y-7052D02*
X47211Y-7052D01*
X47259Y-7076D01*
X47283Y-7100D01*
X47307Y-7147D01*
X47330Y-7242D01*
X47330Y-7361D01*
X47307Y-7457D01*
X47283Y-7504D01*
X47259Y-7528D01*
X47211Y-7552D01*
X47164Y-7552D01*
X47116Y-7528D01*
X47092Y-7504D01*
X47069Y-7457D01*
X47045Y-7361D01*
X47045Y-7242D01*
X47069Y-7147D01*
X47092Y-7100D01*
X47116Y-7076D01*
X47164Y-7052D01*
X47759Y-7219D02*
X47759Y-7552D01*
X47545Y-7219D02*
X47545Y-7480D01*
X47569Y-7528D01*
X47616Y-7552D01*
X47688Y-7552D01*
X47735Y-7528D01*
X47759Y-7504D01*
X47997Y-7552D02*
X47997Y-7052D01*
X47997Y-7290D02*
X48283Y-7290D01*
X48283Y-7552D02*
X48283Y-7052D01*
G54D27*
X43117Y-12560D02*
X43107Y-12570D01*
X43079Y-12579D01*
X43060Y-12579D01*
X43032Y-12570D01*
X43013Y-12551D01*
X43004Y-12532D01*
X42995Y-12495D01*
X42995Y-12467D01*
X43004Y-12429D01*
X43013Y-12410D01*
X43032Y-12392D01*
X43060Y-12382D01*
X43079Y-12382D01*
X43107Y-12392D01*
X43117Y-12401D01*
X43286Y-12382D02*
X43248Y-12382D01*
X43229Y-12392D01*
X43220Y-12401D01*
X43201Y-12429D01*
X43192Y-12467D01*
X43192Y-12542D01*
X43201Y-12560D01*
X43210Y-12570D01*
X43229Y-12579D01*
X43267Y-12579D01*
X43286Y-12570D01*
X43295Y-12560D01*
X43304Y-12542D01*
X43304Y-12495D01*
X43295Y-12476D01*
X43286Y-12467D01*
X43267Y-12457D01*
X43229Y-12457D01*
X43210Y-12467D01*
X43201Y-12476D01*
X43192Y-12495D01*
G54D28*
X45367Y-16229D02*
X45301Y-16135D01*
X45254Y-16229D02*
X45254Y-16032D01*
X45329Y-16032D01*
X45348Y-16042D01*
X45357Y-16051D01*
X45367Y-16070D01*
X45367Y-16098D01*
X45357Y-16117D01*
X45348Y-16126D01*
X45329Y-16135D01*
X45254Y-16135D01*
X45545Y-16032D02*
X45451Y-16032D01*
X45442Y-16126D01*
X45451Y-16117D01*
X45470Y-16107D01*
X45517Y-16107D01*
X45536Y-16117D01*
X45545Y-16126D01*
X45554Y-16145D01*
X45554Y-16192D01*
X45545Y-16210D01*
X45536Y-16220D01*
X45517Y-16229D01*
X45470Y-16229D01*
X45451Y-16220D01*
X45442Y-16210D01*
X45249Y-15348D02*
X45249Y-15479D01*
X45203Y-15273D02*
X45156Y-15414D01*
X45278Y-15414D01*
X45334Y-15282D02*
X45465Y-15282D01*
X45381Y-15479D01*
X45578Y-15282D02*
X45597Y-15282D01*
X45615Y-15292D01*
X45625Y-15301D01*
X45634Y-15320D01*
X45643Y-15357D01*
X45643Y-15404D01*
X45634Y-15442D01*
X45625Y-15460D01*
X45615Y-15470D01*
X45597Y-15479D01*
X45578Y-15479D01*
X45559Y-15470D01*
X45550Y-15460D01*
X45540Y-15442D01*
X45531Y-15404D01*
X45531Y-15357D01*
X45540Y-15320D01*
X45550Y-15301D01*
X45559Y-15292D01*
X45578Y-15282D01*
X41479Y-15382D02*
X41385Y-15448D01*
X41479Y-15495D02*
X41282Y-15495D01*
X41282Y-15420D01*
X41292Y-15401D01*
X41301Y-15392D01*
X41320Y-15382D01*
X41348Y-15382D01*
X41367Y-15392D01*
X41376Y-15401D01*
X41385Y-15420D01*
X41385Y-15495D01*
X41282Y-15213D02*
X41282Y-15251D01*
X41292Y-15270D01*
X41301Y-15279D01*
X41329Y-15298D01*
X41367Y-15307D01*
X41442Y-15307D01*
X41460Y-15298D01*
X41470Y-15289D01*
X41479Y-15270D01*
X41479Y-15232D01*
X41470Y-15213D01*
X41460Y-15204D01*
X41442Y-15195D01*
X41395Y-15195D01*
X41376Y-15204D01*
X41367Y-15213D01*
X41357Y-15232D01*
X41357Y-15270D01*
X41367Y-15289D01*
X41376Y-15298D01*
X41395Y-15307D01*
X41713Y-15251D02*
X41723Y-15242D01*
X41742Y-15232D01*
X41789Y-15232D01*
X41807Y-15242D01*
X41817Y-15251D01*
X41826Y-15270D01*
X41826Y-15289D01*
X41817Y-15317D01*
X41704Y-15429D01*
X41826Y-15429D01*
X41910Y-15429D02*
X41910Y-15232D01*
X41929Y-15354D02*
X41986Y-15429D01*
X41986Y-15298D02*
X41910Y-15373D01*
G54D27*
X46317Y-16610D02*
X46307Y-16620D01*
X46279Y-16629D01*
X46260Y-16629D01*
X46232Y-16620D01*
X46213Y-16601D01*
X46204Y-16582D01*
X46195Y-16545D01*
X46195Y-16517D01*
X46204Y-16479D01*
X46213Y-16460D01*
X46232Y-16442D01*
X46260Y-16432D01*
X46279Y-16432D01*
X46307Y-16442D01*
X46317Y-16451D01*
X46382Y-16432D02*
X46504Y-16432D01*
X46439Y-16507D01*
X46467Y-16507D01*
X46486Y-16517D01*
X46495Y-16526D01*
X46504Y-16545D01*
X46504Y-16592D01*
X46495Y-16610D01*
X46486Y-16620D01*
X46467Y-16629D01*
X46410Y-16629D01*
X46392Y-16620D01*
X46382Y-16610D01*
X42860Y-11132D02*
X42870Y-11142D01*
X42879Y-11170D01*
X42879Y-11189D01*
X42870Y-11217D01*
X42851Y-11236D01*
X42832Y-11245D01*
X42795Y-11254D01*
X42767Y-11254D01*
X42729Y-11245D01*
X42710Y-11236D01*
X42692Y-11217D01*
X42682Y-11189D01*
X42682Y-11170D01*
X42692Y-11142D01*
X42701Y-11132D01*
X42682Y-11067D02*
X42682Y-10935D01*
X42879Y-11020D01*
X54367Y-14310D02*
X54357Y-14320D01*
X54329Y-14329D01*
X54310Y-14329D01*
X54282Y-14320D01*
X54263Y-14301D01*
X54254Y-14282D01*
X54245Y-14245D01*
X54245Y-14217D01*
X54254Y-14179D01*
X54263Y-14160D01*
X54282Y-14142D01*
X54310Y-14132D01*
X54329Y-14132D01*
X54357Y-14142D01*
X54367Y-14151D01*
X54536Y-14198D02*
X54536Y-14329D01*
X54489Y-14123D02*
X54442Y-14264D01*
X54564Y-14264D01*
G54D29*
X29364Y-9078D02*
X28683Y-9078D01*
X28683Y-8915D01*
X28716Y-8874D01*
X28748Y-8854D01*
X28813Y-8833D01*
X28910Y-8833D01*
X28975Y-8854D01*
X29007Y-8874D01*
X29040Y-8915D01*
X29040Y-9078D01*
X28683Y-8691D02*
X28683Y-8426D01*
X28943Y-8568D01*
X28943Y-8507D01*
X28975Y-8466D01*
X29007Y-8446D01*
X29072Y-8426D01*
X29234Y-8426D01*
X29299Y-8446D01*
X29332Y-8466D01*
X29364Y-8507D01*
X29364Y-8629D01*
X29332Y-8670D01*
X29299Y-8691D01*
X28683Y-8059D02*
X28683Y-8140D01*
X28716Y-8181D01*
X28748Y-8201D01*
X28845Y-8242D01*
X28975Y-8263D01*
X29234Y-8263D01*
X29299Y-8242D01*
X29332Y-8222D01*
X29364Y-8181D01*
X29364Y-8100D01*
X29332Y-8059D01*
X29299Y-8038D01*
X29234Y-8018D01*
X29072Y-8018D01*
X29007Y-8038D01*
X28975Y-8059D01*
X28943Y-8100D01*
X28943Y-8181D01*
X28975Y-8222D01*
X29007Y-8242D01*
X29072Y-8263D01*
X34876Y-9078D02*
X34195Y-9078D01*
X34195Y-8915D01*
X34227Y-8874D01*
X34260Y-8854D01*
X34325Y-8833D01*
X34422Y-8833D01*
X34487Y-8854D01*
X34519Y-8874D01*
X34552Y-8915D01*
X34552Y-9078D01*
X34195Y-8691D02*
X34195Y-8426D01*
X34454Y-8568D01*
X34454Y-8507D01*
X34487Y-8466D01*
X34519Y-8446D01*
X34584Y-8426D01*
X34746Y-8426D01*
X34811Y-8446D01*
X34844Y-8466D01*
X34876Y-8507D01*
X34876Y-8629D01*
X34844Y-8670D01*
X34811Y-8691D01*
X34195Y-8038D02*
X34195Y-8242D01*
X34519Y-8263D01*
X34487Y-8242D01*
X34454Y-8201D01*
X34454Y-8100D01*
X34487Y-8059D01*
X34519Y-8038D01*
X34584Y-8018D01*
X34746Y-8018D01*
X34811Y-8038D01*
X34844Y-8059D01*
X34876Y-8100D01*
X34876Y-8201D01*
X34844Y-8242D01*
X34811Y-8263D01*
X41030Y-23425D02*
X41030Y-22744D01*
X41193Y-22744D01*
X41234Y-22777D01*
X41254Y-22809D01*
X41274Y-22874D01*
X41274Y-22971D01*
X41254Y-23036D01*
X41234Y-23068D01*
X41193Y-23101D01*
X41030Y-23101D01*
X41417Y-22744D02*
X41682Y-22744D01*
X41539Y-23004D01*
X41600Y-23004D01*
X41641Y-23036D01*
X41662Y-23068D01*
X41682Y-23133D01*
X41682Y-23295D01*
X41662Y-23360D01*
X41641Y-23393D01*
X41600Y-23425D01*
X41478Y-23425D01*
X41437Y-23393D01*
X41417Y-23360D01*
X41825Y-22744D02*
X42090Y-22744D01*
X41947Y-23004D01*
X42008Y-23004D01*
X42049Y-23036D01*
X42069Y-23068D01*
X42090Y-23133D01*
X42090Y-23295D01*
X42069Y-23360D01*
X42049Y-23393D01*
X42008Y-23425D01*
X41886Y-23425D01*
X41845Y-23393D01*
X41825Y-23360D01*
G54D18*
X41202Y-19978D02*
X41259Y-20007D01*
X41278Y-20035D01*
X41297Y-20092D01*
X41297Y-20178D01*
X41278Y-20235D01*
X41259Y-20264D01*
X41221Y-20292D01*
X41069Y-20292D01*
X41069Y-19692D01*
X41202Y-19692D01*
X41240Y-19721D01*
X41259Y-19750D01*
X41278Y-19807D01*
X41278Y-19864D01*
X41259Y-19921D01*
X41240Y-19950D01*
X41202Y-19978D01*
X41069Y-19978D01*
X41450Y-20121D02*
X41640Y-20121D01*
X41411Y-20292D02*
X41545Y-19692D01*
X41678Y-20292D01*
X41754Y-19692D02*
X41983Y-19692D01*
X41869Y-20292D02*
X41869Y-19692D01*
X42059Y-19692D02*
X42288Y-19692D01*
X42173Y-20292D02*
X42173Y-19692D01*
G54D23*
X41342Y-23921D02*
X41285Y-23892D01*
X41200Y-23892D01*
X41114Y-23921D01*
X41057Y-23978D01*
X41028Y-24035D01*
X41000Y-24150D01*
X41000Y-24235D01*
X41028Y-24350D01*
X41057Y-24407D01*
X41114Y-24464D01*
X41200Y-24492D01*
X41257Y-24492D01*
X41342Y-24464D01*
X41371Y-24435D01*
X41371Y-24235D01*
X41257Y-24235D01*
X41628Y-24492D02*
X41628Y-23892D01*
X41971Y-24492D01*
X41971Y-23892D01*
X42257Y-24492D02*
X42257Y-23892D01*
X42400Y-23892D01*
X42485Y-23921D01*
X42542Y-23978D01*
X42571Y-24035D01*
X42600Y-24150D01*
X42600Y-24235D01*
X42571Y-24350D01*
X42542Y-24407D01*
X42485Y-24464D01*
X42400Y-24492D01*
X42257Y-24492D01*
X43471Y-24264D02*
X43928Y-24264D01*
X43700Y-24492D02*
X43700Y-24035D01*
G54D29*
X37230Y-23425D02*
X37230Y-22744D01*
X37393Y-22744D01*
X37434Y-22777D01*
X37454Y-22809D01*
X37474Y-22874D01*
X37474Y-22971D01*
X37454Y-23036D01*
X37434Y-23068D01*
X37393Y-23101D01*
X37230Y-23101D01*
X37617Y-22744D02*
X37882Y-22744D01*
X37739Y-23004D01*
X37800Y-23004D01*
X37841Y-23036D01*
X37862Y-23068D01*
X37882Y-23133D01*
X37882Y-23295D01*
X37862Y-23360D01*
X37841Y-23393D01*
X37800Y-23425D01*
X37678Y-23425D01*
X37637Y-23393D01*
X37617Y-23360D01*
X38249Y-22971D02*
X38249Y-23425D01*
X38147Y-22712D02*
X38045Y-23198D01*
X38310Y-23198D01*
G54D18*
X38221Y-20342D02*
X38030Y-20342D01*
X38030Y-19742D01*
X38354Y-20342D02*
X38354Y-19742D01*
X38545Y-20342D02*
X38545Y-19742D01*
X38773Y-20342D01*
X38773Y-19742D01*
X38964Y-20342D02*
X38964Y-19742D01*
X39192Y-20342D02*
X39021Y-20000D01*
X39192Y-19742D02*
X38964Y-20085D01*
X39364Y-20342D02*
X39364Y-19742D01*
X39497Y-19742D02*
X39726Y-19742D01*
X39611Y-20342D02*
X39611Y-19742D01*
G54D23*
X37192Y-23971D02*
X37135Y-23942D01*
X37050Y-23942D01*
X36964Y-23971D01*
X36907Y-24028D01*
X36878Y-24085D01*
X36850Y-24200D01*
X36850Y-24285D01*
X36878Y-24400D01*
X36907Y-24457D01*
X36964Y-24514D01*
X37050Y-24542D01*
X37107Y-24542D01*
X37192Y-24514D01*
X37221Y-24485D01*
X37221Y-24285D01*
X37107Y-24285D01*
X37478Y-24542D02*
X37478Y-23942D01*
X37821Y-24542D01*
X37821Y-23942D01*
X38107Y-24542D02*
X38107Y-23942D01*
X38250Y-23942D01*
X38335Y-23971D01*
X38392Y-24028D01*
X38421Y-24085D01*
X38450Y-24200D01*
X38450Y-24285D01*
X38421Y-24400D01*
X38392Y-24457D01*
X38335Y-24514D01*
X38250Y-24542D01*
X38107Y-24542D01*
X39471Y-24264D02*
X39928Y-24264D01*
X39700Y-24492D02*
X39700Y-24035D01*
G54D16*
X40256Y6978D02*
X40526Y6978D01*
X40391Y6426D02*
X40391Y6978D01*
X40683Y6426D02*
X40683Y6978D01*
X40863Y6978D01*
X40908Y6951D01*
X40931Y6925D01*
X40953Y6873D01*
X40953Y6794D01*
X40931Y6741D01*
X40908Y6715D01*
X40863Y6689D01*
X40683Y6689D01*
X41156Y6426D02*
X41156Y6978D01*
X41268Y6978D01*
X41336Y6951D01*
X41381Y6899D01*
X41403Y6846D01*
X41426Y6741D01*
X41426Y6663D01*
X41403Y6558D01*
X41381Y6505D01*
X41336Y6453D01*
X41268Y6426D01*
X41156Y6426D01*
X41876Y6951D02*
X41831Y6978D01*
X41763Y6978D01*
X41696Y6951D01*
X41651Y6899D01*
X41628Y6846D01*
X41606Y6741D01*
X41606Y6663D01*
X41628Y6558D01*
X41651Y6505D01*
X41696Y6453D01*
X41763Y6426D01*
X41808Y6426D01*
X41876Y6453D01*
X41898Y6479D01*
X41898Y6663D01*
X41808Y6663D01*
X11691Y-5021D02*
X11961Y-5021D01*
X11826Y-5573D02*
X11826Y-5021D01*
X12118Y-5573D02*
X12118Y-5021D01*
X12298Y-5021D01*
X12343Y-5048D01*
X12366Y-5074D01*
X12388Y-5126D01*
X12388Y-5205D01*
X12366Y-5258D01*
X12343Y-5284D01*
X12298Y-5310D01*
X12118Y-5310D01*
X12591Y-5573D02*
X12591Y-5021D01*
X13018Y-5205D02*
X13018Y-5573D01*
X12906Y-4995D02*
X12793Y-5389D01*
X13086Y-5389D01*
X9241Y-5021D02*
X9511Y-5021D01*
X9376Y-5573D02*
X9376Y-5021D01*
X9668Y-5573D02*
X9668Y-5021D01*
X9848Y-5021D01*
X9893Y-5048D01*
X9916Y-5074D01*
X9938Y-5126D01*
X9938Y-5205D01*
X9916Y-5258D01*
X9893Y-5284D01*
X9848Y-5310D01*
X9668Y-5310D01*
X10141Y-5573D02*
X10141Y-5021D01*
X10321Y-5021D02*
X10613Y-5021D01*
X10456Y-5231D01*
X10523Y-5231D01*
X10568Y-5258D01*
X10591Y-5284D01*
X10613Y-5336D01*
X10613Y-5468D01*
X10591Y-5520D01*
X10568Y-5546D01*
X10523Y-5573D01*
X10388Y-5573D01*
X10343Y-5546D01*
X10321Y-5520D01*
X5541Y-5071D02*
X5811Y-5071D01*
X5676Y-5623D02*
X5676Y-5071D01*
X5968Y-5623D02*
X5968Y-5071D01*
X6148Y-5071D01*
X6193Y-5098D01*
X6216Y-5124D01*
X6238Y-5176D01*
X6238Y-5255D01*
X6216Y-5308D01*
X6193Y-5334D01*
X6148Y-5360D01*
X5968Y-5360D01*
X6441Y-5623D02*
X6441Y-5071D01*
X6643Y-5124D02*
X6666Y-5098D01*
X6711Y-5071D01*
X6823Y-5071D01*
X6868Y-5098D01*
X6891Y-5124D01*
X6913Y-5176D01*
X6913Y-5229D01*
X6891Y-5308D01*
X6621Y-5623D01*
X6913Y-5623D01*
X2471Y-6108D02*
X2471Y-5838D01*
X3023Y-5973D02*
X2471Y-5973D01*
X3023Y-5681D02*
X2471Y-5681D01*
X2471Y-5501D01*
X2498Y-5456D01*
X2524Y-5433D01*
X2576Y-5411D01*
X2655Y-5411D01*
X2708Y-5433D01*
X2734Y-5456D01*
X2760Y-5501D01*
X2760Y-5681D01*
X3023Y-5208D02*
X2471Y-5208D01*
X3023Y-4736D02*
X3023Y-5006D01*
X3023Y-4871D02*
X2471Y-4871D01*
X2550Y-4916D01*
X2603Y-4961D01*
X2629Y-5006D01*
X15641Y-11071D02*
X15911Y-11071D01*
X15776Y-11623D02*
X15776Y-11071D01*
X16068Y-11623D02*
X16068Y-11071D01*
X16248Y-11071D01*
X16293Y-11098D01*
X16316Y-11124D01*
X16338Y-11176D01*
X16338Y-11255D01*
X16316Y-11308D01*
X16293Y-11334D01*
X16248Y-11360D01*
X16068Y-11360D01*
X16541Y-11623D02*
X16541Y-11071D01*
X16833Y-11308D02*
X16788Y-11281D01*
X16766Y-11255D01*
X16743Y-11203D01*
X16743Y-11176D01*
X16766Y-11124D01*
X16788Y-11098D01*
X16833Y-11071D01*
X16923Y-11071D01*
X16968Y-11098D01*
X16991Y-11124D01*
X17013Y-11176D01*
X17013Y-11203D01*
X16991Y-11255D01*
X16968Y-11281D01*
X16923Y-11308D01*
X16833Y-11308D01*
X16788Y-11334D01*
X16766Y-11360D01*
X16743Y-11413D01*
X16743Y-11518D01*
X16766Y-11570D01*
X16788Y-11596D01*
X16833Y-11623D01*
X16923Y-11623D01*
X16968Y-11596D01*
X16991Y-11570D01*
X17013Y-11518D01*
X17013Y-11413D01*
X16991Y-11360D01*
X16968Y-11334D01*
X16923Y-11308D01*
X11891Y-11071D02*
X12161Y-11071D01*
X12026Y-11623D02*
X12026Y-11071D01*
X12318Y-11623D02*
X12318Y-11071D01*
X12498Y-11071D01*
X12543Y-11098D01*
X12566Y-11124D01*
X12588Y-11176D01*
X12588Y-11255D01*
X12566Y-11308D01*
X12543Y-11334D01*
X12498Y-11360D01*
X12318Y-11360D01*
X12791Y-11623D02*
X12791Y-11071D01*
X12971Y-11071D02*
X13286Y-11071D01*
X13083Y-11623D01*
X8191Y-11071D02*
X8461Y-11071D01*
X8326Y-11623D02*
X8326Y-11071D01*
X8618Y-11623D02*
X8618Y-11071D01*
X8798Y-11071D01*
X8843Y-11098D01*
X8866Y-11124D01*
X8888Y-11176D01*
X8888Y-11255D01*
X8866Y-11308D01*
X8843Y-11334D01*
X8798Y-11360D01*
X8618Y-11360D01*
X9091Y-11623D02*
X9091Y-11071D01*
X9518Y-11071D02*
X9428Y-11071D01*
X9383Y-11098D01*
X9361Y-11124D01*
X9316Y-11203D01*
X9293Y-11308D01*
X9293Y-11518D01*
X9316Y-11570D01*
X9338Y-11596D01*
X9383Y-11623D01*
X9473Y-11623D01*
X9518Y-11596D01*
X9541Y-11570D01*
X9563Y-11518D01*
X9563Y-11386D01*
X9541Y-11334D01*
X9518Y-11308D01*
X9473Y-11281D01*
X9383Y-11281D01*
X9338Y-11308D01*
X9316Y-11334D01*
X9293Y-11386D01*
X4441Y-11071D02*
X4711Y-11071D01*
X4576Y-11623D02*
X4576Y-11071D01*
X4868Y-11623D02*
X4868Y-11071D01*
X5048Y-11071D01*
X5093Y-11098D01*
X5116Y-11124D01*
X5138Y-11176D01*
X5138Y-11255D01*
X5116Y-11308D01*
X5093Y-11334D01*
X5048Y-11360D01*
X4868Y-11360D01*
X5341Y-11623D02*
X5341Y-11071D01*
X5791Y-11071D02*
X5566Y-11071D01*
X5543Y-11334D01*
X5566Y-11308D01*
X5611Y-11281D01*
X5723Y-11281D01*
X5768Y-11308D01*
X5791Y-11334D01*
X5813Y-11386D01*
X5813Y-11518D01*
X5791Y-11570D01*
X5768Y-11596D01*
X5723Y-11623D01*
X5611Y-11623D01*
X5566Y-11596D01*
X5543Y-11570D01*
X35140Y1678D02*
X35410Y1678D01*
X35275Y1126D02*
X35275Y1678D01*
X35567Y1126D02*
X35567Y1678D01*
X35747Y1678D01*
X35792Y1651D01*
X35815Y1625D01*
X35837Y1573D01*
X35837Y1494D01*
X35815Y1441D01*
X35792Y1415D01*
X35747Y1389D01*
X35567Y1389D01*
X36017Y1284D02*
X36242Y1284D01*
X35972Y1126D02*
X36129Y1678D01*
X36287Y1126D01*
X36692Y1651D02*
X36647Y1678D01*
X36579Y1678D01*
X36512Y1651D01*
X36467Y1599D01*
X36444Y1546D01*
X36422Y1441D01*
X36422Y1363D01*
X36444Y1258D01*
X36467Y1205D01*
X36512Y1153D01*
X36579Y1126D01*
X36624Y1126D01*
X36692Y1153D01*
X36714Y1179D01*
X36714Y1363D01*
X36624Y1363D01*
X22576Y-3521D02*
X22846Y-3521D01*
X22711Y-4073D02*
X22711Y-3521D01*
X23003Y-4073D02*
X23003Y-3521D01*
X23183Y-3521D01*
X23228Y-3548D01*
X23251Y-3574D01*
X23273Y-3626D01*
X23273Y-3705D01*
X23251Y-3758D01*
X23228Y-3784D01*
X23183Y-3810D01*
X23003Y-3810D01*
X23431Y-3521D02*
X23723Y-3521D01*
X23566Y-3731D01*
X23633Y-3731D01*
X23678Y-3758D01*
X23701Y-3784D01*
X23723Y-3836D01*
X23723Y-3968D01*
X23701Y-4020D01*
X23678Y-4046D01*
X23633Y-4073D01*
X23498Y-4073D01*
X23453Y-4046D01*
X23431Y-4020D01*
X23881Y-3521D02*
X24173Y-3521D01*
X24016Y-3731D01*
X24083Y-3731D01*
X24128Y-3758D01*
X24151Y-3784D01*
X24173Y-3836D01*
X24173Y-3968D01*
X24151Y-4020D01*
X24128Y-4046D01*
X24083Y-4073D01*
X23948Y-4073D01*
X23903Y-4046D01*
X23881Y-4020D01*
X24308Y-3521D02*
X24466Y-4073D01*
X24623Y-3521D01*
X41980Y-18571D02*
X42250Y-18571D01*
X42115Y-19123D02*
X42115Y-18571D01*
X42407Y-19123D02*
X42407Y-18571D01*
X42587Y-18571D01*
X42632Y-18598D01*
X42655Y-18624D01*
X42677Y-18676D01*
X42677Y-18755D01*
X42655Y-18808D01*
X42632Y-18834D01*
X42587Y-18860D01*
X42407Y-18860D01*
X43037Y-18834D02*
X43105Y-18860D01*
X43127Y-18886D01*
X43150Y-18939D01*
X43150Y-19018D01*
X43127Y-19070D01*
X43105Y-19096D01*
X43060Y-19123D01*
X42880Y-19123D01*
X42880Y-18571D01*
X43037Y-18571D01*
X43082Y-18598D01*
X43105Y-18624D01*
X43127Y-18676D01*
X43127Y-18729D01*
X43105Y-18781D01*
X43082Y-18808D01*
X43037Y-18834D01*
X42880Y-18834D01*
X43329Y-18965D02*
X43554Y-18965D01*
X43284Y-19123D02*
X43442Y-18571D01*
X43599Y-19123D01*
X43689Y-18571D02*
X43959Y-18571D01*
X43824Y-19123D02*
X43824Y-18571D01*
X44049Y-18571D02*
X44319Y-18571D01*
X44184Y-19123D02*
X44184Y-18571D01*
X40667Y-6321D02*
X40937Y-6321D01*
X40802Y-6873D02*
X40802Y-6321D01*
X41095Y-6873D02*
X41095Y-6321D01*
X41275Y-6321D01*
X41320Y-6348D01*
X41342Y-6374D01*
X41365Y-6426D01*
X41365Y-6505D01*
X41342Y-6558D01*
X41320Y-6584D01*
X41275Y-6610D01*
X41095Y-6610D01*
X41567Y-6873D02*
X41567Y-6321D01*
X41747Y-6321D01*
X41792Y-6348D01*
X41814Y-6374D01*
X41837Y-6426D01*
X41837Y-6505D01*
X41814Y-6558D01*
X41792Y-6584D01*
X41747Y-6610D01*
X41567Y-6610D01*
X41994Y-6321D02*
X42287Y-6321D01*
X42129Y-6531D01*
X42197Y-6531D01*
X42242Y-6558D01*
X42264Y-6584D01*
X42287Y-6636D01*
X42287Y-6768D01*
X42264Y-6820D01*
X42242Y-6846D01*
X42197Y-6873D01*
X42062Y-6873D01*
X42017Y-6846D01*
X41994Y-6820D01*
X50917Y-5471D02*
X51187Y-5471D01*
X51052Y-6023D02*
X51052Y-5471D01*
X51345Y-6023D02*
X51345Y-5471D01*
X51525Y-5471D01*
X51570Y-5498D01*
X51592Y-5524D01*
X51615Y-5576D01*
X51615Y-5655D01*
X51592Y-5708D01*
X51570Y-5734D01*
X51525Y-5760D01*
X51345Y-5760D01*
X51817Y-6023D02*
X51817Y-5471D01*
X51997Y-5471D01*
X52042Y-5498D01*
X52064Y-5524D01*
X52087Y-5576D01*
X52087Y-5655D01*
X52064Y-5708D01*
X52042Y-5734D01*
X51997Y-5760D01*
X51817Y-5760D01*
X52267Y-5524D02*
X52289Y-5498D01*
X52334Y-5471D01*
X52447Y-5471D01*
X52492Y-5498D01*
X52514Y-5524D01*
X52537Y-5576D01*
X52537Y-5629D01*
X52514Y-5708D01*
X52244Y-6023D01*
X52537Y-6023D01*
X46117Y-5371D02*
X46387Y-5371D01*
X46252Y-5923D02*
X46252Y-5371D01*
X46545Y-5923D02*
X46545Y-5371D01*
X46725Y-5371D01*
X46770Y-5398D01*
X46792Y-5424D01*
X46815Y-5476D01*
X46815Y-5555D01*
X46792Y-5608D01*
X46770Y-5634D01*
X46725Y-5660D01*
X46545Y-5660D01*
X47017Y-5923D02*
X47017Y-5371D01*
X47197Y-5371D01*
X47242Y-5398D01*
X47264Y-5424D01*
X47287Y-5476D01*
X47287Y-5555D01*
X47264Y-5608D01*
X47242Y-5634D01*
X47197Y-5660D01*
X47017Y-5660D01*
X47737Y-5923D02*
X47467Y-5923D01*
X47602Y-5923D02*
X47602Y-5371D01*
X47557Y-5450D01*
X47512Y-5503D01*
X47467Y-5529D01*
X15451Y6978D02*
X15721Y6978D01*
X15586Y6426D02*
X15586Y6978D01*
X15878Y6426D02*
X15878Y6978D01*
X16058Y6978D01*
X16103Y6951D01*
X16126Y6925D01*
X16148Y6873D01*
X16148Y6794D01*
X16126Y6741D01*
X16103Y6715D01*
X16058Y6689D01*
X15878Y6689D01*
X16283Y6978D02*
X16441Y6426D01*
X16598Y6978D01*
X16958Y6794D02*
X16958Y6426D01*
X16846Y7004D02*
X16733Y6610D01*
X17026Y6610D01*
X11701Y6878D02*
X11971Y6878D01*
X11836Y6326D02*
X11836Y6878D01*
X12128Y6326D02*
X12128Y6878D01*
X12308Y6878D01*
X12353Y6851D01*
X12376Y6825D01*
X12398Y6773D01*
X12398Y6694D01*
X12376Y6641D01*
X12353Y6615D01*
X12308Y6589D01*
X12128Y6589D01*
X12533Y6878D02*
X12691Y6326D01*
X12848Y6878D01*
X12961Y6878D02*
X13253Y6878D01*
X13096Y6668D01*
X13163Y6668D01*
X13208Y6641D01*
X13231Y6615D01*
X13253Y6563D01*
X13253Y6431D01*
X13231Y6379D01*
X13208Y6353D01*
X13163Y6326D01*
X13028Y6326D01*
X12983Y6353D01*
X12961Y6379D01*
X7701Y6878D02*
X7971Y6878D01*
X7836Y6326D02*
X7836Y6878D01*
X8128Y6326D02*
X8128Y6878D01*
X8308Y6878D01*
X8353Y6851D01*
X8376Y6825D01*
X8398Y6773D01*
X8398Y6694D01*
X8376Y6641D01*
X8353Y6615D01*
X8308Y6589D01*
X8128Y6589D01*
X8533Y6878D02*
X8691Y6326D01*
X8848Y6878D01*
X8983Y6825D02*
X9006Y6851D01*
X9051Y6878D01*
X9163Y6878D01*
X9208Y6851D01*
X9231Y6825D01*
X9253Y6773D01*
X9253Y6720D01*
X9231Y6641D01*
X8961Y6326D01*
X9253Y6326D01*
X3951Y6828D02*
X4221Y6828D01*
X4086Y6276D02*
X4086Y6828D01*
X4378Y6276D02*
X4378Y6828D01*
X4558Y6828D01*
X4603Y6801D01*
X4626Y6775D01*
X4648Y6723D01*
X4648Y6644D01*
X4626Y6591D01*
X4603Y6565D01*
X4558Y6539D01*
X4378Y6539D01*
X4783Y6828D02*
X4941Y6276D01*
X5098Y6828D01*
X5503Y6276D02*
X5233Y6276D01*
X5368Y6276D02*
X5368Y6828D01*
X5323Y6749D01*
X5278Y6696D01*
X5233Y6670D01*
X22601Y-4771D02*
X22871Y-4771D01*
X22736Y-5323D02*
X22736Y-4771D01*
X23028Y-5323D02*
X23028Y-4771D01*
X23208Y-4771D01*
X23253Y-4798D01*
X23276Y-4824D01*
X23298Y-4876D01*
X23298Y-4955D01*
X23276Y-5008D01*
X23253Y-5034D01*
X23208Y-5060D01*
X23028Y-5060D01*
X23726Y-4771D02*
X23501Y-4771D01*
X23478Y-5034D01*
X23501Y-5008D01*
X23546Y-4981D01*
X23658Y-4981D01*
X23703Y-5008D01*
X23726Y-5034D01*
X23748Y-5086D01*
X23748Y-5218D01*
X23726Y-5270D01*
X23703Y-5296D01*
X23658Y-5323D01*
X23546Y-5323D01*
X23501Y-5296D01*
X23478Y-5270D01*
X23883Y-4771D02*
X24041Y-5323D01*
X24198Y-4771D01*
G54D32*
X9667Y-10491D02*
X9667Y-10018D01*
X9787Y-10018D01*
X9817Y-10041D01*
X9832Y-10063D01*
X9847Y-10108D01*
X9847Y-10176D01*
X9832Y-10221D01*
X9817Y-10243D01*
X9787Y-10266D01*
X9667Y-10266D01*
X10117Y-10018D02*
X10057Y-10018D01*
X10027Y-10041D01*
X10012Y-10063D01*
X9982Y-10131D01*
X9967Y-10221D01*
X9967Y-10401D01*
X9982Y-10446D01*
X9997Y-10468D01*
X10027Y-10491D01*
X10087Y-10491D01*
X10117Y-10468D01*
X10132Y-10446D01*
X10147Y-10401D01*
X10147Y-10288D01*
X10132Y-10243D01*
X10117Y-10221D01*
X10087Y-10198D01*
X10027Y-10198D01*
X9997Y-10221D01*
X9982Y-10243D01*
X9967Y-10288D01*
G54D18*
X10059Y-11542D02*
X10059Y-10942D01*
X10421Y-10942D02*
X10345Y-10942D01*
X10307Y-10971D01*
X10288Y-11000D01*
X10250Y-11085D01*
X10230Y-11200D01*
X10230Y-11428D01*
X10250Y-11485D01*
X10269Y-11514D01*
X10307Y-11542D01*
X10383Y-11542D01*
X10421Y-11514D01*
X10440Y-11485D01*
X10459Y-11428D01*
X10459Y-11285D01*
X10440Y-11228D01*
X10421Y-11200D01*
X10383Y-11171D01*
X10307Y-11171D01*
X10269Y-11200D01*
X10250Y-11228D01*
X10230Y-11285D01*
G54D32*
X5917Y-10491D02*
X5917Y-10018D01*
X6037Y-10018D01*
X6067Y-10041D01*
X6082Y-10063D01*
X6097Y-10108D01*
X6097Y-10176D01*
X6082Y-10221D01*
X6067Y-10243D01*
X6037Y-10266D01*
X5917Y-10266D01*
X6382Y-10018D02*
X6232Y-10018D01*
X6217Y-10243D01*
X6232Y-10221D01*
X6262Y-10198D01*
X6337Y-10198D01*
X6367Y-10221D01*
X6382Y-10243D01*
X6397Y-10288D01*
X6397Y-10401D01*
X6382Y-10446D01*
X6367Y-10468D01*
X6337Y-10491D01*
X6262Y-10491D01*
X6232Y-10468D01*
X6217Y-10446D01*
G54D18*
X6359Y-11542D02*
X6359Y-10942D01*
X6740Y-10942D02*
X6550Y-10942D01*
X6530Y-11228D01*
X6550Y-11200D01*
X6588Y-11171D01*
X6683Y-11171D01*
X6721Y-11200D01*
X6740Y-11228D01*
X6759Y-11285D01*
X6759Y-11428D01*
X6740Y-11485D01*
X6721Y-11514D01*
X6683Y-11542D01*
X6588Y-11542D01*
X6550Y-11514D01*
X6530Y-11485D01*
G54D32*
X13417Y-10491D02*
X13417Y-10018D01*
X13537Y-10018D01*
X13567Y-10041D01*
X13582Y-10063D01*
X13597Y-10108D01*
X13597Y-10176D01*
X13582Y-10221D01*
X13567Y-10243D01*
X13537Y-10266D01*
X13417Y-10266D01*
X13702Y-10018D02*
X13912Y-10018D01*
X13777Y-10491D01*
G54D18*
X13809Y-11542D02*
X13809Y-10942D01*
X13961Y-10942D02*
X14228Y-10942D01*
X14057Y-11542D01*
G54D32*
X17167Y-10491D02*
X17167Y-10018D01*
X17287Y-10018D01*
X17317Y-10041D01*
X17332Y-10063D01*
X17347Y-10108D01*
X17347Y-10176D01*
X17332Y-10221D01*
X17317Y-10243D01*
X17287Y-10266D01*
X17167Y-10266D01*
X17527Y-10221D02*
X17497Y-10198D01*
X17482Y-10176D01*
X17467Y-10131D01*
X17467Y-10108D01*
X17482Y-10063D01*
X17497Y-10041D01*
X17527Y-10018D01*
X17587Y-10018D01*
X17617Y-10041D01*
X17632Y-10063D01*
X17647Y-10108D01*
X17647Y-10131D01*
X17632Y-10176D01*
X17617Y-10198D01*
X17587Y-10221D01*
X17527Y-10221D01*
X17497Y-10243D01*
X17482Y-10266D01*
X17467Y-10311D01*
X17467Y-10401D01*
X17482Y-10446D01*
X17497Y-10468D01*
X17527Y-10491D01*
X17587Y-10491D01*
X17617Y-10468D01*
X17632Y-10446D01*
X17647Y-10401D01*
X17647Y-10311D01*
X17632Y-10266D01*
X17617Y-10243D01*
X17587Y-10221D01*
G54D18*
X17559Y-11542D02*
X17559Y-10942D01*
X17807Y-11200D02*
X17769Y-11171D01*
X17750Y-11142D01*
X17730Y-11085D01*
X17730Y-11057D01*
X17750Y-11000D01*
X17769Y-10971D01*
X17807Y-10942D01*
X17883Y-10942D01*
X17921Y-10971D01*
X17940Y-11000D01*
X17959Y-11057D01*
X17959Y-11085D01*
X17940Y-11142D01*
X17921Y-11171D01*
X17883Y-11200D01*
X17807Y-11200D01*
X17769Y-11228D01*
X17750Y-11257D01*
X17730Y-11314D01*
X17730Y-11428D01*
X17750Y-11485D01*
X17769Y-11514D01*
X17807Y-11542D01*
X17883Y-11542D01*
X17921Y-11514D01*
X17940Y-11485D01*
X17959Y-11428D01*
X17959Y-11314D01*
X17940Y-11257D01*
X17921Y-11228D01*
X17883Y-11200D01*
G54D32*
X9667Y-4491D02*
X9667Y-4018D01*
X9787Y-4018D01*
X9817Y-4041D01*
X9832Y-4063D01*
X9847Y-4108D01*
X9847Y-4176D01*
X9832Y-4221D01*
X9817Y-4243D01*
X9787Y-4266D01*
X9667Y-4266D01*
X9967Y-4063D02*
X9982Y-4041D01*
X10012Y-4018D01*
X10087Y-4018D01*
X10117Y-4041D01*
X10132Y-4063D01*
X10147Y-4108D01*
X10147Y-4153D01*
X10132Y-4221D01*
X9952Y-4491D01*
X10147Y-4491D01*
G54D18*
X9719Y359D02*
X9719Y959D01*
X9852Y959D02*
X9985Y359D01*
X10119Y959D01*
X10233Y902D02*
X10252Y931D01*
X10290Y959D01*
X10385Y959D01*
X10423Y931D01*
X10443Y902D01*
X10462Y845D01*
X10462Y788D01*
X10443Y702D01*
X10214Y359D01*
X10462Y359D01*
G54D32*
X5917Y-4491D02*
X5917Y-4018D01*
X6037Y-4018D01*
X6067Y-4041D01*
X6082Y-4063D01*
X6097Y-4108D01*
X6097Y-4176D01*
X6082Y-4221D01*
X6067Y-4243D01*
X6037Y-4266D01*
X5917Y-4266D01*
X6397Y-4491D02*
X6217Y-4491D01*
X6307Y-4491D02*
X6307Y-4018D01*
X6277Y-4086D01*
X6247Y-4131D01*
X6217Y-4153D01*
G54D18*
X5969Y359D02*
X5969Y959D01*
X6102Y959D02*
X6235Y359D01*
X6369Y959D01*
X6712Y359D02*
X6483Y359D01*
X6597Y359D02*
X6597Y959D01*
X6559Y874D01*
X6521Y817D01*
X6483Y788D01*
G54D32*
X13417Y-4491D02*
X13417Y-4018D01*
X13537Y-4018D01*
X13567Y-4041D01*
X13582Y-4063D01*
X13597Y-4108D01*
X13597Y-4176D01*
X13582Y-4221D01*
X13567Y-4243D01*
X13537Y-4266D01*
X13417Y-4266D01*
X13702Y-4018D02*
X13897Y-4018D01*
X13792Y-4198D01*
X13837Y-4198D01*
X13867Y-4221D01*
X13882Y-4243D01*
X13897Y-4288D01*
X13897Y-4401D01*
X13882Y-4446D01*
X13867Y-4468D01*
X13837Y-4491D01*
X13747Y-4491D01*
X13717Y-4468D01*
X13702Y-4446D01*
G54D18*
X13469Y359D02*
X13469Y959D01*
X13602Y959D02*
X13735Y359D01*
X13869Y959D01*
X13964Y959D02*
X14212Y959D01*
X14078Y731D01*
X14135Y731D01*
X14173Y702D01*
X14193Y674D01*
X14212Y617D01*
X14212Y474D01*
X14193Y417D01*
X14173Y388D01*
X14135Y359D01*
X14021Y359D01*
X13983Y388D01*
X13964Y417D01*
G54D32*
X17167Y-4491D02*
X17167Y-4018D01*
X17287Y-4018D01*
X17317Y-4041D01*
X17332Y-4063D01*
X17347Y-4108D01*
X17347Y-4176D01*
X17332Y-4221D01*
X17317Y-4243D01*
X17287Y-4266D01*
X17167Y-4266D01*
X17617Y-4176D02*
X17617Y-4491D01*
X17542Y-3996D02*
X17467Y-4333D01*
X17662Y-4333D01*
G54D18*
X17219Y359D02*
X17219Y959D01*
X17352Y959D02*
X17485Y359D01*
X17619Y959D01*
X17923Y759D02*
X17923Y359D01*
X17828Y988D02*
X17733Y559D01*
X17981Y559D01*
G54D32*
X17017Y1508D02*
X17017Y1981D01*
X17137Y1981D01*
X17167Y1958D01*
X17182Y1936D01*
X17197Y1891D01*
X17197Y1823D01*
X17182Y1778D01*
X17167Y1756D01*
X17137Y1733D01*
X17017Y1733D01*
X17497Y1508D02*
X17317Y1508D01*
X17407Y1508D02*
X17407Y1981D01*
X17377Y1913D01*
X17347Y1868D01*
X17317Y1846D01*
X17617Y1936D02*
X17632Y1958D01*
X17662Y1981D01*
X17737Y1981D01*
X17767Y1958D01*
X17782Y1936D01*
X17797Y1891D01*
X17797Y1846D01*
X17782Y1778D01*
X17602Y1508D01*
X17797Y1508D01*
G54D18*
X17257Y6959D02*
X17390Y6359D01*
X17523Y6959D01*
X17828Y6759D02*
X17828Y6359D01*
X17733Y6988D02*
X17638Y6559D01*
X17885Y6559D01*
G54D32*
X13267Y1508D02*
X13267Y1981D01*
X13387Y1981D01*
X13417Y1958D01*
X13432Y1936D01*
X13447Y1891D01*
X13447Y1823D01*
X13432Y1778D01*
X13417Y1756D01*
X13387Y1733D01*
X13267Y1733D01*
X13747Y1508D02*
X13567Y1508D01*
X13657Y1508D02*
X13657Y1981D01*
X13627Y1913D01*
X13597Y1868D01*
X13567Y1846D01*
X14047Y1508D02*
X13867Y1508D01*
X13957Y1508D02*
X13957Y1981D01*
X13927Y1913D01*
X13897Y1868D01*
X13867Y1846D01*
G54D18*
X13507Y6959D02*
X13640Y6359D01*
X13773Y6959D01*
X13869Y6959D02*
X14116Y6959D01*
X13983Y6731D01*
X14040Y6731D01*
X14078Y6702D01*
X14097Y6674D01*
X14116Y6617D01*
X14116Y6474D01*
X14097Y6417D01*
X14078Y6388D01*
X14040Y6359D01*
X13926Y6359D01*
X13888Y6388D01*
X13869Y6417D01*
G54D32*
X9517Y1508D02*
X9517Y1981D01*
X9637Y1981D01*
X9667Y1958D01*
X9682Y1936D01*
X9697Y1891D01*
X9697Y1823D01*
X9682Y1778D01*
X9667Y1756D01*
X9637Y1733D01*
X9517Y1733D01*
X9997Y1508D02*
X9817Y1508D01*
X9907Y1508D02*
X9907Y1981D01*
X9877Y1913D01*
X9847Y1868D01*
X9817Y1846D01*
X10192Y1981D02*
X10222Y1981D01*
X10252Y1958D01*
X10267Y1936D01*
X10282Y1891D01*
X10297Y1801D01*
X10297Y1688D01*
X10282Y1598D01*
X10267Y1553D01*
X10252Y1531D01*
X10222Y1508D01*
X10192Y1508D01*
X10162Y1531D01*
X10147Y1553D01*
X10132Y1598D01*
X10117Y1688D01*
X10117Y1801D01*
X10132Y1891D01*
X10147Y1936D01*
X10162Y1958D01*
X10192Y1981D01*
G54D18*
X9757Y6959D02*
X9890Y6359D01*
X10023Y6959D01*
X10138Y6902D02*
X10157Y6931D01*
X10195Y6959D01*
X10290Y6959D01*
X10328Y6931D01*
X10347Y6902D01*
X10366Y6845D01*
X10366Y6788D01*
X10347Y6702D01*
X10119Y6359D01*
X10366Y6359D01*
G54D32*
X5917Y1508D02*
X5917Y1981D01*
X6037Y1981D01*
X6067Y1958D01*
X6082Y1936D01*
X6097Y1891D01*
X6097Y1823D01*
X6082Y1778D01*
X6067Y1756D01*
X6037Y1733D01*
X5917Y1733D01*
X6247Y1508D02*
X6307Y1508D01*
X6337Y1531D01*
X6352Y1553D01*
X6382Y1621D01*
X6397Y1711D01*
X6397Y1891D01*
X6382Y1936D01*
X6367Y1958D01*
X6337Y1981D01*
X6277Y1981D01*
X6247Y1958D01*
X6232Y1936D01*
X6217Y1891D01*
X6217Y1778D01*
X6232Y1733D01*
X6247Y1711D01*
X6277Y1688D01*
X6337Y1688D01*
X6367Y1711D01*
X6382Y1733D01*
X6397Y1778D01*
G54D18*
X6007Y6959D02*
X6140Y6359D01*
X6273Y6959D01*
X6616Y6359D02*
X6388Y6359D01*
X6502Y6359D02*
X6502Y6959D01*
X6464Y6874D01*
X6426Y6817D01*
X6388Y6788D01*
G54D32*
X9517Y-18991D02*
X9517Y-18518D01*
X9637Y-18518D01*
X9667Y-18541D01*
X9682Y-18563D01*
X9697Y-18608D01*
X9697Y-18676D01*
X9682Y-18721D01*
X9667Y-18743D01*
X9637Y-18766D01*
X9517Y-18766D01*
X9817Y-18563D02*
X9832Y-18541D01*
X9862Y-18518D01*
X9937Y-18518D01*
X9967Y-18541D01*
X9982Y-18563D01*
X9997Y-18608D01*
X9997Y-18653D01*
X9982Y-18721D01*
X9802Y-18991D01*
X9997Y-18991D01*
X10192Y-18518D02*
X10222Y-18518D01*
X10252Y-18541D01*
X10267Y-18563D01*
X10282Y-18608D01*
X10297Y-18698D01*
X10297Y-18811D01*
X10282Y-18901D01*
X10267Y-18946D01*
X10252Y-18968D01*
X10222Y-18991D01*
X10192Y-18991D01*
X10162Y-18968D01*
X10147Y-18946D01*
X10132Y-18901D01*
X10117Y-18811D01*
X10117Y-18698D01*
X10132Y-18608D01*
X10147Y-18563D01*
X10162Y-18541D01*
X10192Y-18518D01*
G54D18*
X9643Y-13968D02*
X9833Y-13968D01*
X9604Y-14140D02*
X9738Y-13540D01*
X9871Y-14140D01*
X9909Y-14197D02*
X10214Y-14197D01*
X10519Y-14140D02*
X10290Y-14140D01*
X10404Y-14140D02*
X10404Y-13540D01*
X10366Y-13625D01*
X10328Y-13682D01*
X10290Y-13711D01*
G54D32*
X13267Y-18991D02*
X13267Y-18518D01*
X13387Y-18518D01*
X13417Y-18541D01*
X13432Y-18563D01*
X13447Y-18608D01*
X13447Y-18676D01*
X13432Y-18721D01*
X13417Y-18743D01*
X13387Y-18766D01*
X13267Y-18766D01*
X13567Y-18563D02*
X13582Y-18541D01*
X13612Y-18518D01*
X13687Y-18518D01*
X13717Y-18541D01*
X13732Y-18563D01*
X13747Y-18608D01*
X13747Y-18653D01*
X13732Y-18721D01*
X13552Y-18991D01*
X13747Y-18991D01*
X14047Y-18991D02*
X13867Y-18991D01*
X13957Y-18991D02*
X13957Y-18518D01*
X13927Y-18586D01*
X13897Y-18631D01*
X13867Y-18653D01*
G54D18*
X13393Y-13968D02*
X13583Y-13968D01*
X13354Y-14140D02*
X13488Y-13540D01*
X13621Y-14140D01*
X13659Y-14197D02*
X13964Y-14197D01*
X14040Y-13597D02*
X14059Y-13568D01*
X14097Y-13540D01*
X14193Y-13540D01*
X14231Y-13568D01*
X14250Y-13597D01*
X14269Y-13654D01*
X14269Y-13711D01*
X14250Y-13797D01*
X14021Y-14140D01*
X14269Y-14140D01*
G54D32*
X45017Y-4491D02*
X45017Y-4018D01*
X45137Y-4018D01*
X45167Y-4041D01*
X45182Y-4063D01*
X45197Y-4108D01*
X45197Y-4176D01*
X45182Y-4221D01*
X45167Y-4243D01*
X45137Y-4266D01*
X45017Y-4266D01*
X45317Y-4063D02*
X45332Y-4041D01*
X45362Y-4018D01*
X45437Y-4018D01*
X45467Y-4041D01*
X45482Y-4063D01*
X45497Y-4108D01*
X45497Y-4153D01*
X45482Y-4221D01*
X45302Y-4491D01*
X45497Y-4491D01*
X45617Y-4063D02*
X45632Y-4041D01*
X45662Y-4018D01*
X45737Y-4018D01*
X45767Y-4041D01*
X45782Y-4063D01*
X45797Y-4108D01*
X45797Y-4153D01*
X45782Y-4221D01*
X45602Y-4491D01*
X45797Y-4491D01*
G54D18*
X43571Y357D02*
X43571Y957D01*
X43742Y900D02*
X43761Y928D01*
X43800Y957D01*
X43895Y957D01*
X43933Y928D01*
X43952Y900D01*
X43971Y842D01*
X43971Y785D01*
X43952Y700D01*
X43723Y357D01*
X43971Y357D01*
X44371Y414D02*
X44352Y385D01*
X44295Y357D01*
X44257Y357D01*
X44200Y385D01*
X44161Y442D01*
X44142Y500D01*
X44123Y614D01*
X44123Y700D01*
X44142Y814D01*
X44161Y871D01*
X44200Y928D01*
X44257Y957D01*
X44295Y957D01*
X44352Y928D01*
X44371Y900D01*
X44542Y585D02*
X44847Y585D01*
X45114Y957D02*
X45152Y957D01*
X45190Y928D01*
X45209Y900D01*
X45228Y842D01*
X45247Y728D01*
X45247Y585D01*
X45228Y471D01*
X45209Y414D01*
X45190Y385D01*
X45152Y357D01*
X45114Y357D01*
X45076Y385D01*
X45057Y414D01*
X45038Y471D01*
X45019Y585D01*
X45019Y728D01*
X45038Y842D01*
X45057Y900D01*
X45076Y928D01*
X45114Y957D01*
G54D32*
X48767Y-4491D02*
X48767Y-4018D01*
X48887Y-4018D01*
X48917Y-4041D01*
X48932Y-4063D01*
X48947Y-4108D01*
X48947Y-4176D01*
X48932Y-4221D01*
X48917Y-4243D01*
X48887Y-4266D01*
X48767Y-4266D01*
X49067Y-4063D02*
X49082Y-4041D01*
X49112Y-4018D01*
X49187Y-4018D01*
X49217Y-4041D01*
X49232Y-4063D01*
X49247Y-4108D01*
X49247Y-4153D01*
X49232Y-4221D01*
X49052Y-4491D01*
X49247Y-4491D01*
X49352Y-4018D02*
X49547Y-4018D01*
X49442Y-4198D01*
X49487Y-4198D01*
X49517Y-4221D01*
X49532Y-4243D01*
X49547Y-4288D01*
X49547Y-4401D01*
X49532Y-4446D01*
X49517Y-4468D01*
X49487Y-4491D01*
X49397Y-4491D01*
X49367Y-4468D01*
X49352Y-4446D01*
G54D18*
X47521Y357D02*
X47521Y957D01*
X47692Y900D02*
X47711Y928D01*
X47750Y957D01*
X47845Y957D01*
X47883Y928D01*
X47902Y900D01*
X47921Y842D01*
X47921Y785D01*
X47902Y700D01*
X47673Y357D01*
X47921Y357D01*
X48321Y414D02*
X48302Y385D01*
X48245Y357D01*
X48207Y357D01*
X48150Y385D01*
X48111Y442D01*
X48092Y500D01*
X48073Y614D01*
X48073Y700D01*
X48092Y814D01*
X48111Y871D01*
X48150Y928D01*
X48207Y957D01*
X48245Y957D01*
X48302Y928D01*
X48321Y900D01*
X48492Y585D02*
X48797Y585D01*
X49197Y357D02*
X48969Y357D01*
X49083Y357D02*
X49083Y957D01*
X49045Y871D01*
X49007Y814D01*
X48969Y785D01*
G54D32*
X5767Y-18991D02*
X5767Y-18518D01*
X5887Y-18518D01*
X5917Y-18541D01*
X5932Y-18563D01*
X5947Y-18608D01*
X5947Y-18676D01*
X5932Y-18721D01*
X5917Y-18743D01*
X5887Y-18766D01*
X5767Y-18766D01*
X6247Y-18991D02*
X6067Y-18991D01*
X6157Y-18991D02*
X6157Y-18518D01*
X6127Y-18586D01*
X6097Y-18631D01*
X6067Y-18653D01*
X6397Y-18991D02*
X6457Y-18991D01*
X6487Y-18968D01*
X6502Y-18946D01*
X6532Y-18878D01*
X6547Y-18788D01*
X6547Y-18608D01*
X6532Y-18563D01*
X6517Y-18541D01*
X6487Y-18518D01*
X6427Y-18518D01*
X6397Y-18541D01*
X6382Y-18563D01*
X6367Y-18608D01*
X6367Y-18721D01*
X6382Y-18766D01*
X6397Y-18788D01*
X6427Y-18811D01*
X6487Y-18811D01*
X6517Y-18788D01*
X6532Y-18766D01*
X6547Y-18721D01*
G54D18*
X5893Y-13968D02*
X6083Y-13968D01*
X5854Y-14140D02*
X5988Y-13540D01*
X6121Y-14140D01*
X6159Y-14197D02*
X6464Y-14197D01*
X6635Y-13540D02*
X6673Y-13540D01*
X6712Y-13568D01*
X6731Y-13597D01*
X6750Y-13654D01*
X6769Y-13768D01*
X6769Y-13911D01*
X6750Y-14025D01*
X6731Y-14082D01*
X6712Y-14111D01*
X6673Y-14140D01*
X6635Y-14140D01*
X6597Y-14111D01*
X6578Y-14082D01*
X6559Y-14025D01*
X6540Y-13911D01*
X6540Y-13768D01*
X6559Y-13654D01*
X6578Y-13597D01*
X6597Y-13568D01*
X6635Y-13540D01*
G54D32*
X48767Y1508D02*
X48767Y1981D01*
X48887Y1981D01*
X48917Y1958D01*
X48932Y1936D01*
X48947Y1891D01*
X48947Y1823D01*
X48932Y1778D01*
X48917Y1756D01*
X48887Y1733D01*
X48767Y1733D01*
X49067Y1936D02*
X49082Y1958D01*
X49112Y1981D01*
X49187Y1981D01*
X49217Y1958D01*
X49232Y1936D01*
X49247Y1891D01*
X49247Y1846D01*
X49232Y1778D01*
X49052Y1508D01*
X49247Y1508D01*
X49427Y1778D02*
X49397Y1801D01*
X49382Y1823D01*
X49367Y1868D01*
X49367Y1891D01*
X49382Y1936D01*
X49397Y1958D01*
X49427Y1981D01*
X49487Y1981D01*
X49517Y1958D01*
X49532Y1936D01*
X49547Y1891D01*
X49547Y1868D01*
X49532Y1823D01*
X49517Y1801D01*
X49487Y1778D01*
X49427Y1778D01*
X49397Y1756D01*
X49382Y1733D01*
X49367Y1688D01*
X49367Y1598D01*
X49382Y1553D01*
X49397Y1531D01*
X49427Y1508D01*
X49487Y1508D01*
X49517Y1531D01*
X49532Y1553D01*
X49547Y1598D01*
X49547Y1688D01*
X49532Y1733D01*
X49517Y1756D01*
X49487Y1778D01*
G54D18*
X47352Y6257D02*
X47352Y6857D01*
X47447Y6857D01*
X47504Y6828D01*
X47542Y6771D01*
X47561Y6714D01*
X47580Y6600D01*
X47580Y6514D01*
X47561Y6400D01*
X47542Y6342D01*
X47504Y6285D01*
X47447Y6257D01*
X47352Y6257D01*
X47752Y6257D02*
X47752Y6857D01*
X48019Y6857D02*
X48095Y6857D01*
X48133Y6828D01*
X48171Y6771D01*
X48190Y6657D01*
X48190Y6457D01*
X48171Y6342D01*
X48133Y6285D01*
X48095Y6257D01*
X48019Y6257D01*
X47980Y6285D01*
X47942Y6342D01*
X47923Y6457D01*
X47923Y6657D01*
X47942Y6771D01*
X47980Y6828D01*
X48019Y6857D01*
X48361Y6485D02*
X48666Y6485D01*
X48838Y6800D02*
X48857Y6828D01*
X48895Y6857D01*
X48990Y6857D01*
X49028Y6828D01*
X49047Y6800D01*
X49066Y6742D01*
X49066Y6685D01*
X49047Y6600D01*
X48819Y6257D01*
X49066Y6257D01*
G54D32*
X56267Y1508D02*
X56267Y1981D01*
X56387Y1981D01*
X56417Y1958D01*
X56432Y1936D01*
X56447Y1891D01*
X56447Y1823D01*
X56432Y1778D01*
X56417Y1756D01*
X56387Y1733D01*
X56267Y1733D01*
X56552Y1981D02*
X56747Y1981D01*
X56642Y1801D01*
X56687Y1801D01*
X56717Y1778D01*
X56732Y1756D01*
X56747Y1711D01*
X56747Y1598D01*
X56732Y1553D01*
X56717Y1531D01*
X56687Y1508D01*
X56597Y1508D01*
X56567Y1531D01*
X56552Y1553D01*
X56942Y1981D02*
X56972Y1981D01*
X57002Y1958D01*
X57017Y1936D01*
X57032Y1891D01*
X57047Y1801D01*
X57047Y1688D01*
X57032Y1598D01*
X57017Y1553D01*
X57002Y1531D01*
X56972Y1508D01*
X56942Y1508D01*
X56912Y1531D01*
X56897Y1553D01*
X56882Y1598D01*
X56867Y1688D01*
X56867Y1801D01*
X56882Y1891D01*
X56897Y1936D01*
X56912Y1958D01*
X56942Y1981D01*
G54D18*
X55052Y6257D02*
X55052Y6857D01*
X55147Y6857D01*
X55204Y6828D01*
X55242Y6771D01*
X55261Y6714D01*
X55280Y6600D01*
X55280Y6514D01*
X55261Y6400D01*
X55242Y6342D01*
X55204Y6285D01*
X55147Y6257D01*
X55052Y6257D01*
X55452Y6257D02*
X55452Y6857D01*
X55719Y6857D02*
X55795Y6857D01*
X55833Y6828D01*
X55871Y6771D01*
X55890Y6657D01*
X55890Y6457D01*
X55871Y6342D01*
X55833Y6285D01*
X55795Y6257D01*
X55719Y6257D01*
X55680Y6285D01*
X55642Y6342D01*
X55623Y6457D01*
X55623Y6657D01*
X55642Y6771D01*
X55680Y6828D01*
X55719Y6857D01*
X56061Y6485D02*
X56366Y6485D01*
X56633Y6857D02*
X56671Y6857D01*
X56709Y6828D01*
X56728Y6800D01*
X56747Y6742D01*
X56766Y6628D01*
X56766Y6485D01*
X56747Y6371D01*
X56728Y6314D01*
X56709Y6285D01*
X56671Y6257D01*
X56633Y6257D01*
X56595Y6285D01*
X56576Y6314D01*
X56557Y6371D01*
X56538Y6485D01*
X56538Y6628D01*
X56557Y6742D01*
X56576Y6800D01*
X56595Y6828D01*
X56633Y6857D01*
G54D32*
X56267Y-4491D02*
X56267Y-4018D01*
X56387Y-4018D01*
X56417Y-4041D01*
X56432Y-4063D01*
X56447Y-4108D01*
X56447Y-4176D01*
X56432Y-4221D01*
X56417Y-4243D01*
X56387Y-4266D01*
X56267Y-4266D01*
X56567Y-4063D02*
X56582Y-4041D01*
X56612Y-4018D01*
X56687Y-4018D01*
X56717Y-4041D01*
X56732Y-4063D01*
X56747Y-4108D01*
X56747Y-4153D01*
X56732Y-4221D01*
X56552Y-4491D01*
X56747Y-4491D01*
X56852Y-4018D02*
X57062Y-4018D01*
X56927Y-4491D01*
G54D18*
X54238Y335D02*
X54295Y307D01*
X54390Y307D01*
X54428Y335D01*
X54447Y364D01*
X54466Y421D01*
X54466Y478D01*
X54447Y535D01*
X54428Y564D01*
X54390Y592D01*
X54314Y621D01*
X54276Y650D01*
X54257Y678D01*
X54238Y735D01*
X54238Y792D01*
X54257Y850D01*
X54276Y878D01*
X54314Y907D01*
X54409Y907D01*
X54466Y878D01*
X54638Y621D02*
X54771Y621D01*
X54828Y307D02*
X54638Y307D01*
X54638Y907D01*
X54828Y907D01*
X55228Y307D02*
X55095Y592D01*
X55000Y307D02*
X55000Y907D01*
X55152Y907D01*
X55190Y878D01*
X55209Y850D01*
X55228Y792D01*
X55228Y707D01*
X55209Y650D01*
X55190Y621D01*
X55152Y592D01*
X55000Y592D01*
X55400Y307D02*
X55400Y907D01*
X55571Y478D02*
X55761Y478D01*
X55533Y307D02*
X55666Y907D01*
X55800Y307D01*
X56123Y307D02*
X55933Y307D01*
X55933Y907D01*
X56257Y535D02*
X56561Y535D01*
X56828Y907D02*
X56866Y907D01*
X56904Y878D01*
X56923Y850D01*
X56942Y792D01*
X56961Y678D01*
X56961Y535D01*
X56942Y421D01*
X56923Y364D01*
X56904Y335D01*
X56866Y307D01*
X56828Y307D01*
X56790Y335D01*
X56771Y364D01*
X56752Y421D01*
X56733Y535D01*
X56733Y678D01*
X56752Y792D01*
X56771Y850D01*
X56790Y878D01*
X56828Y907D01*
G54D32*
X52517Y-4491D02*
X52517Y-4018D01*
X52637Y-4018D01*
X52667Y-4041D01*
X52682Y-4063D01*
X52697Y-4108D01*
X52697Y-4176D01*
X52682Y-4221D01*
X52667Y-4243D01*
X52637Y-4266D01*
X52517Y-4266D01*
X52802Y-4018D02*
X52997Y-4018D01*
X52892Y-4198D01*
X52937Y-4198D01*
X52967Y-4221D01*
X52982Y-4243D01*
X52997Y-4288D01*
X52997Y-4401D01*
X52982Y-4446D01*
X52967Y-4468D01*
X52937Y-4491D01*
X52847Y-4491D01*
X52817Y-4468D01*
X52802Y-4446D01*
X53297Y-4491D02*
X53117Y-4491D01*
X53207Y-4491D02*
X53207Y-4018D01*
X53177Y-4086D01*
X53147Y-4131D01*
X53117Y-4153D01*
G54D18*
X50688Y385D02*
X50745Y357D01*
X50840Y357D01*
X50878Y385D01*
X50897Y414D01*
X50916Y471D01*
X50916Y528D01*
X50897Y585D01*
X50878Y614D01*
X50840Y642D01*
X50764Y671D01*
X50726Y700D01*
X50707Y728D01*
X50688Y785D01*
X50688Y842D01*
X50707Y900D01*
X50726Y928D01*
X50764Y957D01*
X50859Y957D01*
X50916Y928D01*
X51088Y671D02*
X51221Y671D01*
X51278Y357D02*
X51088Y357D01*
X51088Y957D01*
X51278Y957D01*
X51678Y357D02*
X51545Y642D01*
X51450Y357D02*
X51450Y957D01*
X51602Y957D01*
X51640Y928D01*
X51659Y900D01*
X51678Y842D01*
X51678Y757D01*
X51659Y700D01*
X51640Y671D01*
X51602Y642D01*
X51450Y642D01*
X51850Y357D02*
X51850Y957D01*
X52021Y528D02*
X52211Y528D01*
X51983Y357D02*
X52116Y957D01*
X52250Y357D01*
X52573Y357D02*
X52383Y357D01*
X52383Y957D01*
X52707Y585D02*
X53011Y585D01*
X53411Y357D02*
X53183Y357D01*
X53297Y357D02*
X53297Y957D01*
X53259Y871D01*
X53221Y814D01*
X53183Y785D01*
G54D32*
X52517Y1508D02*
X52517Y1981D01*
X52637Y1981D01*
X52667Y1958D01*
X52682Y1936D01*
X52697Y1891D01*
X52697Y1823D01*
X52682Y1778D01*
X52667Y1756D01*
X52637Y1733D01*
X52517Y1733D01*
X52817Y1936D02*
X52832Y1958D01*
X52862Y1981D01*
X52937Y1981D01*
X52967Y1958D01*
X52982Y1936D01*
X52997Y1891D01*
X52997Y1846D01*
X52982Y1778D01*
X52802Y1508D01*
X52997Y1508D01*
X53147Y1508D02*
X53207Y1508D01*
X53237Y1531D01*
X53252Y1553D01*
X53282Y1621D01*
X53297Y1711D01*
X53297Y1891D01*
X53282Y1936D01*
X53267Y1958D01*
X53237Y1981D01*
X53177Y1981D01*
X53147Y1958D01*
X53132Y1936D01*
X53117Y1891D01*
X53117Y1778D01*
X53132Y1733D01*
X53147Y1711D01*
X53177Y1688D01*
X53237Y1688D01*
X53267Y1711D01*
X53282Y1733D01*
X53297Y1778D01*
G54D18*
X51302Y6257D02*
X51302Y6857D01*
X51397Y6857D01*
X51454Y6828D01*
X51492Y6771D01*
X51511Y6714D01*
X51530Y6600D01*
X51530Y6514D01*
X51511Y6400D01*
X51492Y6342D01*
X51454Y6285D01*
X51397Y6257D01*
X51302Y6257D01*
X51702Y6257D02*
X51702Y6857D01*
X51969Y6857D02*
X52045Y6857D01*
X52083Y6828D01*
X52121Y6771D01*
X52140Y6657D01*
X52140Y6457D01*
X52121Y6342D01*
X52083Y6285D01*
X52045Y6257D01*
X51969Y6257D01*
X51930Y6285D01*
X51892Y6342D01*
X51873Y6457D01*
X51873Y6657D01*
X51892Y6771D01*
X51930Y6828D01*
X51969Y6857D01*
X52311Y6485D02*
X52616Y6485D01*
X53016Y6257D02*
X52788Y6257D01*
X52902Y6257D02*
X52902Y6857D01*
X52864Y6771D01*
X52826Y6714D01*
X52788Y6685D01*
M02*
