M48
INCH,TZ
T1C0.025
T2C0.031
T3C0.032
T4C0.039
T5C0.039
T6C0.040
T7C0.047
T8C0.118
T9C0.118
%
G90
G05
T1
X010050Y001100
X011100Y000750
X011600Y001700
X014900Y-017350
X015450Y001600
X015450Y-005625
X015750Y-005250
X018000Y-005900
X018100Y-014900
X018400Y-013950
X019150Y-017350
X019800Y006750
X021500Y002900
X022268Y005882
X023118Y006382
X024168Y005032
X025368Y005182
X026250Y002900
X027018Y005432
X028168Y005882
X028568Y003632
X028918Y006382
X030418Y004532
X030418Y004082
X031750Y-011850
X032668Y004582
X032850Y-012300
X032918Y004132
X034568Y005532
X034668Y003932
X035618Y005932
X035618Y004182
X035668Y007632
X036368Y006432
X037818Y005882
X037818Y004332
X037950Y-005550
X039400Y-014850
X040500Y005300
X041750Y-016600
X042200Y-014500
X042200Y-016600
X042350Y-016150
X042600Y-014700
X042700Y-014250
X042750Y-000850
X043100Y-014250
X043100Y-014700
X043550Y-016600
X043900Y-016450
X043950Y-016900
X044250Y-016600
X052650Y-004950
X053150Y-005150
T2
X005981Y004831
X005981Y004044
X005981Y003256
X005981Y002469
X005981Y-001169
X005981Y-001956
X005981Y-002744
X005981Y-003531
X005981Y-007169
X005981Y-007956
X005981Y-008744
X005981Y-009531
X005981Y-015669
X005981Y-016456
X005981Y-017244
X005981Y-018031
X009731Y004831
X009731Y004044
X009731Y003256
X009731Y002469
X009731Y-001169
X009731Y-001956
X009731Y-002744
X009731Y-003531
X009731Y-007169
X009731Y-007956
X009731Y-008744
X009731Y-009531
X009731Y-015669
X009731Y-016456
X009731Y-017244
X009731Y-018031
X013481Y004831
X013481Y004044
X013481Y003256
X013481Y002469
X013481Y-001169
X013481Y-001956
X013481Y-002744
X013481Y-003531
X013481Y-007169
X013481Y-007956
X013481Y-008744
X013481Y-009531
X013481Y-015669
X013481Y-016456
X013481Y-017244
X013481Y-018031
X017231Y004831
X017231Y004044
X017231Y003256
X017231Y002469
X017231Y-001169
X017231Y-001956
X017231Y-002744
X017231Y-003531
X017231Y-007169
X017231Y-007956
X017231Y-008744
X017231Y-009531
X038250Y-021200
X039050Y-021200
X042250Y-021200
X043050Y-021200
X045231Y-001169
X045231Y-001956
X045231Y-002744
X045231Y-003531
X048981Y004831
X048981Y004044
X048981Y003256
X048981Y002469
X048981Y-001169
X048981Y-001956
X048981Y-002744
X048981Y-003531
X052731Y004831
X052731Y004044
X052731Y003256
X052731Y002469
X052731Y-001169
X052731Y-001956
X052731Y-002744
X052731Y-003531
X056481Y004831
X056481Y004044
X056481Y003256
X056481Y002469
X056481Y-001169
X056481Y-001956
X056481Y-002744
X056481Y-003531
T3
X030550Y-003600
X030550Y-004600
X036050Y-003600
X036050Y-004600
X045650Y-010600
X045650Y-011600
X045650Y-012600
X045650Y-013600
X046150Y-008100
X048150Y-008100
X048650Y-010600
X048650Y-011600
X048650Y-012600
X048650Y-013600
X052900Y-010600
X052900Y-011600
X052900Y-012600
X052900Y-013600
X053400Y-008100
X055400Y-008100
X055900Y-010600
X055900Y-011600
X055900Y-012600
X055900Y-013600
T4
X033200Y-021850
X034200Y-021850
X035200Y-021850
T5
X003400Y006650
X003650Y-005350
X003900Y-011350
X005150Y005150
X005150Y004150
X005150Y003150
X005150Y002150
X005150Y-000850
X005150Y-001850
X005150Y-002850
X005150Y-003850
X005150Y-006850
X005150Y-007850
X005150Y-008850
X005150Y-009850
X005150Y-015350
X005150Y-016350
X005150Y-017350
X005150Y-018350
X007150Y006650
X007400Y-005350
X007650Y-011350
X007900Y-022100
X008900Y005150
X008900Y004150
X008900Y003150
X008900Y002150
X008900Y-000850
X008900Y-001850
X008900Y-002850
X008900Y-003850
X008900Y-006850
X008900Y-007850
X008900Y-008850
X008900Y-009850
X008900Y-015350
X008900Y-016350
X008900Y-017350
X008900Y-018350
X009900Y-022100
X011150Y006650
X011150Y-005350
X011400Y-011350
X011900Y-022100
X012650Y005150
X012650Y004150
X012650Y003150
X012650Y002150
X012650Y-000850
X012650Y-001850
X012650Y-002850
X012650Y-003850
X012650Y-006850
X012650Y-007850
X012650Y-008850
X012650Y-009850
X012650Y-015350
X012650Y-016350
X012650Y-017350
X012650Y-018350
X013650Y-005350
X013900Y-022100
X014900Y006650
X015150Y-011350
X015900Y-022100
X016400Y005150
X016400Y004150
X016400Y003150
X016400Y002150
X016400Y-000850
X016400Y-001850
X016400Y-002850
X016400Y-003850
X016400Y-006850
X016400Y-007850
X016400Y-008850
X016400Y-009850
X017900Y-022100
X021900Y-003850
X021900Y-005100
X027700Y-022100
X028850Y-009750
X028850Y-010750
X029700Y-022100
X034350Y-009750
X034350Y-010750
X037400Y001650
X037700Y-022100
X039400Y006650
X039700Y-022100
X041700Y-022100
X042900Y-006600
X042900Y-019850
X043700Y-022100
X044400Y-000850
X044400Y-001850
X044400Y-002850
X044400Y-003850
X045650Y-006350
X046900Y-022100
X048150Y005150
X048150Y004150
X048150Y003150
X048150Y002150
X048150Y-000850
X048150Y-001850
X048150Y-002850
X048150Y-003850
X048900Y-022100
X050900Y-022100
X051900Y005150
X051900Y004150
X051900Y003150
X051900Y002150
X051900Y-000850
X051900Y-001850
X051900Y-002850
X051900Y-003850
X052900Y-006600
X052900Y-022100
X055650Y005150
X055650Y004150
X055650Y003150
X055650Y002150
X055650Y-000850
X055650Y-001850
X055650Y-002850
X055650Y-003850
T6
X020400Y-001850
X020400Y-002850
X020400Y-003850
X020400Y-004850
X020400Y-005850
X020400Y-006850
X020400Y-007850
X020400Y-008850
X020400Y-010850
X020400Y-011850
X020400Y-012850
X020400Y-013850
X020400Y-014850
X020400Y-015850
X039350Y001750
X039400Y000750
X039400Y-000250
X039400Y-001250
X039400Y-002250
X039400Y-003250
X039400Y-004250
X039400Y-005250
X039400Y-006250
X039400Y-007250
X039400Y-008850
X039400Y-009850
X039400Y-010850
X039400Y-011850
X039400Y-012850
X039400Y-013850
X039400Y-014850
X039400Y-015850
T7
X030600Y-008750
X030600Y-011250
X036100Y-008750
X036100Y-011250
T8
X004680Y008370
X004680Y-023126
X055861Y008370
X055861Y-023126
T9
X022156Y-017031
X033376Y-017228
X039282Y003048
T0
M30
