G04 (created by PCBNEW (2013-07-07 BZR 4022)-stable) date 07/05/2015 17:00:17*
%MOIN*%
G04 Gerber Fmt 3.4, Leading zero omitted, Abs format*
%FSLAX34Y34*%
G01*
G70*
G90*
G04 APERTURE LIST*
%ADD10C,0.00590551*%
%ADD11R,0.0394X0.0315*%
%ADD12R,0.055X0.035*%
%ADD13R,0.035X0.055*%
%ADD14R,0.0106X0.0394*%
%ADD15C,0.08*%
%ADD16R,0.063X0.1024*%
%ADD17R,0.02X0.03*%
%ADD18R,0.0314X0.0629*%
%ADD19R,0.1024X0.063*%
%ADD20R,0.0944X0.0944*%
%ADD21R,0.11X0.15*%
G04 APERTURE END LIST*
G54D10*
G54D11*
X28900Y6782D03*
X28034Y6407D03*
X28034Y7157D03*
X29534Y6782D03*
X30400Y7157D03*
X30400Y6407D03*
X23150Y3032D03*
X22284Y2657D03*
X22284Y3407D03*
X23784Y3032D03*
X24650Y3407D03*
X24650Y2657D03*
X23784Y6782D03*
X24650Y7157D03*
X24650Y6407D03*
X23150Y6782D03*
X22284Y6407D03*
X22284Y7157D03*
X36350Y3082D03*
X35484Y2707D03*
X35484Y3457D03*
X36984Y3082D03*
X37850Y3457D03*
X37850Y2707D03*
X36984Y6832D03*
X37850Y7207D03*
X37850Y6457D03*
X36350Y6832D03*
X35484Y6457D03*
X35484Y7207D03*
X29534Y3032D03*
X30400Y3407D03*
X30400Y2657D03*
X28900Y3032D03*
X28034Y2657D03*
X28034Y3407D03*
G54D12*
X36050Y-5975D03*
X36050Y-6725D03*
G54D13*
X26342Y6782D03*
X27092Y6782D03*
G54D12*
X27717Y5407D03*
X27717Y4657D03*
X36100Y-12875D03*
X36100Y-12125D03*
X30600Y-12875D03*
X30600Y-12125D03*
X19150Y-15225D03*
X19150Y-15975D03*
X19150Y-14475D03*
X19150Y-13725D03*
X30550Y-5975D03*
X30550Y-6725D03*
G54D13*
X20342Y6782D03*
X21092Y6782D03*
G54D12*
X21900Y-6725D03*
X21900Y-7475D03*
G54D13*
X38292Y5082D03*
X39042Y5082D03*
G54D12*
X21967Y5407D03*
X21967Y4657D03*
G54D13*
X16525Y-20100D03*
X15775Y-20100D03*
G54D12*
X35167Y5457D03*
X35167Y4707D03*
G54D13*
X33792Y6832D03*
X34542Y6832D03*
X18025Y-20100D03*
X17275Y-20100D03*
X14525Y-20100D03*
X13775Y-20100D03*
X10275Y-20100D03*
X9525Y-20100D03*
G54D14*
X36017Y4207D03*
X36217Y4207D03*
X36417Y4207D03*
X36617Y4207D03*
X36817Y4207D03*
X36817Y5957D03*
X36617Y5957D03*
X36417Y5957D03*
X36217Y5957D03*
X36017Y5957D03*
X28567Y4157D03*
X28767Y4157D03*
X28967Y4157D03*
X29167Y4157D03*
X29367Y4157D03*
X29367Y5907D03*
X29167Y5907D03*
X28967Y5907D03*
X28767Y5907D03*
X28567Y5907D03*
X22817Y4157D03*
X23017Y4157D03*
X23217Y4157D03*
X23417Y4157D03*
X23617Y4157D03*
X23617Y5907D03*
X23417Y5907D03*
X23217Y5907D03*
X23017Y5907D03*
X22817Y5907D03*
G54D15*
X30550Y-3600D03*
X30550Y-4600D03*
X36050Y-3600D03*
X36050Y-4600D03*
G54D16*
X26217Y5741D03*
X26217Y4323D03*
X20467Y5741D03*
X20467Y4323D03*
X23400Y-6391D03*
X23400Y-7809D03*
X33667Y5791D03*
X33667Y4373D03*
G54D17*
X42775Y-16100D03*
X43525Y-16100D03*
X42775Y-15100D03*
X43150Y-16100D03*
X43525Y-15100D03*
G54D18*
X56900Y-12181D03*
X56900Y-13519D03*
G54D12*
X44650Y-14975D03*
X44650Y-15725D03*
G54D16*
X51150Y-10391D03*
X51150Y-11809D03*
G54D19*
X43859Y-17350D03*
X42441Y-17350D03*
G54D20*
X43034Y-8100D03*
X44766Y-8100D03*
X50284Y-8100D03*
X52016Y-8100D03*
G54D19*
X43859Y-13600D03*
X42441Y-13600D03*
G54D12*
X45400Y-14975D03*
X45400Y-15725D03*
X41900Y-14975D03*
X41900Y-15725D03*
G54D19*
X47859Y-15350D03*
X46441Y-15350D03*
G54D16*
X43900Y-10391D03*
X43900Y-11809D03*
G54D19*
X55109Y-15350D03*
X53691Y-15350D03*
G54D18*
X49650Y-12181D03*
X49650Y-13519D03*
G54D21*
X48650Y-18550D03*
X45840Y-18550D03*
X53650Y-18550D03*
X50840Y-18550D03*
M02*
